<?xml version="1.0" encoding="UTF-8"?>
<!DOCTYPE svg PUBLIC "-//W3C//DTD SVG 1.1//EN" "http://www.w3.org/Graphics/SVG/1.1/DTD/svg11.dtd">
<!-- Creator: CorelDRAW -->
<svg xmlns="http://www.w3.org/2000/svg" xml:space="preserve" width="1587.5mm" height="793.75mm" version="1.1" style="shape-rendering:geometricPrecision; text-rendering:geometricPrecision; image-rendering:optimizeQuality; fill-rule:evenodd; clip-rule:evenodd"
viewBox="0 0 15875 7937.5"
 xmlns:xlink="http://www.w3.org/1999/xlink"
 xmlns:xodm="http://www.corel.com/coreldraw/odm/2003">
 <defs>
  <style type="text/css">
   <![CDATA[
    .fil30 {fill:#590C2A}
    .fil31 {fill:#650C29}
    .fil13 {fill:#661118}
    .fil2 {fill:#740C3C}
    .fil28 {fill:#742944}
    .fil18 {fill:#770E1D}
    .fil29 {fill:#790D27}
    .fil24 {fill:#830C3B}
    .fil27 {fill:#880E28}
    .fil11 {fill:#890C35}
    .fil21 {fill:#961734}
    .fil23 {fill:#981326}
    .fil26 {fill:#9C122C}
    .fil9 {fill:#9C1886}
    .fil17 {fill:#AB132C}
    .fil1 {fill:#AB156B}
    .fil19 {fill:#B41133}
    .fil33 {fill:#B7141C}
    .fil14 {fill:#BB1428}
    .fil25 {fill:#BB196B}
    .fil7 {fill:#BD1662}
    .fil5 {fill:#C2155D}
    .fil20 {fill:#C31653}
    .fil16 {fill:#CC1444}
    .fil15 {fill:#D41655}
    .fil6 {fill:#D8174A}
    .fil32 {fill:#DA185A}
    .fil12 {fill:#DC1654}
    .fil10 {fill:#E20821}
    .fil4 {fill:#E60823}
    .fil22 {fill:#E71846}
    .fil0 {fill:#E90B2A}
    .fil3 {fill:#F4123D}
    .fil8 {fill:#F41544}
    .fil34 {fill:white;fill-rule:nonzero}
   ]]>
  </style>
 </defs>
 <g id="Слой_x0020_1">
  <metadata id="CorelCorpID_0Corel-Layer"/>
  <g id="_2228942345616">
   <path class="fil0" d="M7945.97 4078.4c7.49,4.61 3.29,0.95 8.94,7.63 0.49,0.59 4.83,7.64 5.5,8.92l25.46 59.53c9.39,30.93 15.03,64.19 15.83,98.84 1.98,86.14 -15.37,121.17 -37.79,191.7 12.75,-3.16 6.86,-1.06 11.87,-10.3l7.2 -17.43c5.69,-14.63 3.55,-22.49 12.83,-33.87 0.75,19.54 -3.81,16.03 -0.1,28.95 1.15,3.99 4.39,11.17 4.53,11.8 1.44,6.43 -1.59,6.74 -1.48,7.38l36.21 0.35c18.67,40.97 21.36,1.68 21.12,68.93 -9.2,8.4 3.19,-15.25 6.94,13.02 2.38,34.28 -7.28,13.82 -8.07,32.04 -0.65,15.1 2.74,-3.59 0.36,13.71 8.35,-3.76 13.89,-11.09 19.86,-18.67 93.64,-118.94 142.13,-240.22 170.88,-388.63 15.32,-79.08 6.95,-187.41 -16.24,-267.2 -32.84,-113.01 -87.34,-200.16 -193.47,-253.48 -106.33,-53.43 -254.24,-13.7 -303.1,99.37 -14.14,32.7 -24.39,82.86 -11.16,126.9 5.43,18.1 14.04,38.08 23.2,50.71 3.69,5.07 10.82,14.1 15.78,19.41 5.89,6.29 13.44,11.86 20.36,18.35 23.35,21.91 143.17,72.39 164.54,132.04z"/>
   <path class="fil1" d="M5728.76 4027.47c0.87,0.79 4.81,3.38 5.47,3.63l6.2 0.34c16,2.53 14.03,13.42 13.77,30.95 28.34,0.67 9.75,2.12 21.43,10.9 2.33,1.76 -2.67,5.43 10.18,1.62l6.97 -3.67c0.38,-1.11 1.48,-1.12 2.33,-1.45 -6.46,-17.03 -6.5,5.33 -7,-17.38 -0.47,-21.15 -0.06,-10.81 7.52,-13.73 12.69,0.3 7.35,44.22 7.54,52.35l27.91 0.41c-0.41,37.67 7.46,10.65 10.8,38.52 0.29,2.48 -0.11,11.15 -0.06,14.36 14.16,8.6 15.3,-1.65 17.37,24.63l-16.65 4.38c0.88,33.67 18.92,25.42 26.12,46.17 2.66,7.64 1.66,14.16 1.65,22.57 23.13,0.97 8.38,3.87 15.91,-12.46 0.67,26.98 3.27,41.61 10.45,63.57l2 5.1c0.29,0.87 0.68,1.74 0.95,2.63 5.37,17.31 8.99,20.9 12.48,40.32l21.16 56.16c6.01,13.12 3.39,1.75 7.71,20.76 2.16,9.52 3.44,13.73 6.29,21.94l66.05 133.99c0.32,0.49 0.99,1.32 1.25,1.83 0.26,0.48 0.74,1.42 0.95,1.93 4.18,10.35 3.66,18.07 11.29,28.69l7.84 10.85c0.29,0.53 0.72,1.54 1,2.1l30 50.83c23.62,45.34 33.44,40.17 39.29,53.94 3.19,7.53 8.37,8.89 13.22,16.15 8.67,12.99 14.22,14.42 25.41,28.92l1.56 2.08c5.54,11.72 -8.87,-2.73 0.03,5.35 9.67,7.71 3.61,1.02 8.58,9.39 10.84,18.26 9.44,-2.12 15.78,26.98l66.78 76.46c0.54,0.47 1.25,1.25 1.81,1.69 0.56,0.44 1.28,1.2 1.87,1.6 4.91,3.29 -3.42,2.65 13,4.22 3.26,0.32 11.11,-0.11 14.84,-0.06 -0.13,13.68 -0.2,17.04 6.45,27.1 0.24,0.35 0.85,1.16 1.07,1.51 0,0.02 2.4,4.81 2.55,5.08 7.65,14.24 21.93,24.69 34.73,34.33l8.46 5.32c0.21,0.08 1.08,0.19 1.29,0.25 8.63,2.51 15.13,13.77 25.06,22.5l17.34 14.34c13.06,8.61 13.74,20.79 29.48,26.78 6.56,2.49 12.57,2.65 17.79,7.02 4.11,3.43 2.21,2.7 6.21,7.85 1.96,2.54 2.32,3.24 4.67,5.88l5.23 5.29c9.22,8.1 12.77,6.7 18.95,17.33 -25.98,-0.32 -9.05,-12.85 -37.77,-13.56 -0.29,50.25 -14.82,-7.73 -13.69,42.78 -6.77,-2.34 -9.53,-4.22 -17.85,-3.21 17.51,2.55 7.93,-6.67 11.26,12.04 2.09,6.52 -2.57,-0.48 3.52,5.32 21.59,20.58 186.46,95.52 225.31,108.6 16.07,5.41 23.51,11.51 41.4,12.78 -8.49,-19.24 -3.17,-3.83 2.13,-10.07 8.51,2.82 22.32,3.52 33.6,0.04 22.7,-6.98 -8.74,6.37 8.72,-4.93 7.16,-4.64 8,-7.92 19.93,-5.44 1.91,0.4 8.76,3.56 15.15,5.39l52.88 13.89c11.68,2.84 20.21,6.3 32.56,9.02l70.33 16.36c31.69,4.47 22.66,11.58 30.78,14.47 12.74,-8.65 82.72,0 105.81,0l-28.6 0.39c-3.39,-9.02 0.2,-10.6 -6.04,-22.22 -3,-5.57 -3.63,1.11 -6.53,-11.48 -3.75,-16.33 0.72,-10.4 2.23,-12.82 18.97,1.98 5.34,-3.9 11.28,7.2 3.48,6.5 1.58,9.7 -0.29,13.85l10.57 -7.05c0,12.48 -3.99,17.55 6.57,17.55 10.55,-0.01 6.54,-5.04 6.63,-17.76l18.03 -9 -7.04 -13.97c-32.04,2.39 -10.97,-1.9 -31.67,-3.74l-3.74 -8c-2.56,-6.4 0.52,-2.46 -3.3,-9.45 -12.08,-0.17 -17.45,0.2 -25.43,3.37l-0.43 -21.91c3.92,-3.2 0.22,-2.04 9.14,-6.55 14.42,-7.29 16.84,-0.06 44.43,-0.14 -7.34,-4.1 -85.73,-16.99 -99.35,-20.02 -204.63,-45.52 -394.16,-155.02 -544.33,-300.54 -133.52,-129.4 -217.23,-256.39 -292.26,-432.85 -19.79,-46.53 -38.93,-109.92 -51.66,-159.91l-4.79 -16.09c-2.64,-5.8 -1.59,-4.1 -4.47,-7.64l-1.68 11.11c-0.2,-1.16 8.16,-4.21 -3.8,-0.39 -6.81,2.17 -2.66,-1.25 -4.34,3.4l-0.27 -14.92c-3.8,-13.29 -12.48,-19.39 -24.91,-22.11l-0.2 -20.99 -24.56 0.03c-0.08,-14.9 5.06,-15.74 3.23,-24.69 -0.11,-0.58 -0.52,-1.56 -0.7,-2.14l-11.84 -25.89c-30.71,-0.55 -22.58,1.87 -27.44,5.64 3.6,24.75 -5.97,8.86 17.75,14.07 0.01,14.29 0.35,12.53 -7.9,17.92 -1.95,-14.53 -0.28,-11.87 -14.34,-14.4l-0.06 -17.59 -10.87 -6.94c-8.98,-8.05 -7.07,-30.22 -7.14,-41.83l-9.83 2.01c3.59,-4.55 8.32,8.85 5.52,-16.44 -1.28,-11.58 2.03,-4.21 -6.39,-9.7 18.07,7.5 12.72,-3.18 13.08,-16.74 -17.29,-0.29 -8.97,3.05 -15.94,-8.22l-2.27 -4.69c-4.65,-9.42 -6.07,-13.08 -6.41,-25.69l-16.6 -0.97c10.32,-0.29 0.22,2.5 9.55,-6.32 -1.04,-3.59 -3.46,-7.79 -3.86,-8.91 -2.03,-5.71 -0.72,0.12 -2.39,-8.29 -13.27,-67.22 -10.04,-135.2 -8.01,-202.26l-8.51 -62.1c-9.06,2.23 -17.51,20.35 -21.12,27.12l-17.92 -0.5 2.32 -8.3c3.22,-11.33 4.01,1.93 1.53,-5.64l-35.07 -0.67c0.1,-17.83 5.44,-14.56 -3.65,-27.57 -33.67,0.34 4.25,7.45 -24.63,10.21l-3.24 -49.19c2.95,-44.05 23.79,-93.68 31.38,-140.75 -9.47,7.02 -7.33,4.44 -12.24,23.07l-32.04 140.29c-3.59,21.6 -4.59,43.22 -7.97,62.41 -10.9,61.83 -10.94,132.77 -11.09,196.56 -0.06,27.33 3.52,42.71 3.52,66.16z"/>
   <path class="fil2" d="M6107.89 3431.34l-34.8 77.17c-6.48,26.67 -17.68,54.48 -25.1,82.28 -42.02,157.58 -58.1,306.59 -43.75,470.43 3,34.25 6.28,63.21 11.38,96.3 2.83,18.38 16.31,70.7 14.49,84.79 2.88,3.54 1.83,1.84 4.47,7.64l4.79 16.09c12.73,49.99 31.87,113.38 51.66,159.91 75.03,176.46 158.74,303.45 292.26,432.85 150.17,145.52 339.7,255.02 544.33,300.54 13.62,3.03 92.01,15.92 99.35,20.02 66.89,-0.72 127.71,12.33 199.65,6.52 32.73,-2.65 63.16,-3.58 94.02,-7.37 34.16,-4.2 64.03,-9.76 96.48,-14.22 1.37,-0.6 129.71,-31.84 183.96,-52.1 10.29,-3.85 148.9,-62.6 153.31,-80.12 0.32,-1.28 1.28,-1.4 1.87,-2.15 -24.12,4.63 -4.38,3.59 -13.62,-2.24 7.84,-42.21 26.31,-16.09 50.2,-41.09l5.34 -8.16c4.07,2.98 3.59,10.31 -3.43,-17.33 5.9,-2.76 10.56,-5.5 17.5,-7.33 0,-12.06 -3.2,-14.93 -2.67,-24.97 1.64,-31.01 -2,3.69 6.66,-17.26 -9.33,-0.82 0.81,0.18 -6.12,2.64 -0.99,0.35 -8.38,3.56 -15.46,4.38l-0.02 -7.67c-14.4,-2.27 -34.31,14.36 -60.96,27.68 -158.44,79.14 -340.69,116.59 -526.79,117.28 -133.56,0.49 -262.57,-29.77 -386.67,-70.85 -54.96,-18.19 -106.16,-44.85 -157.64,-71.12 -23.06,-11.78 -18.6,-15.35 -32.86,-14.01l-116.94 -75.32c-11.73,-9.97 -8.9,-8.09 -20.41,-14.89 -27.94,-16.52 -57.87,-48.03 -82.55,-68.86 -8.23,-6.94 -29.24,-28.91 -36.14,-37.66 -8.79,-11.14 -11.02,-10.35 -19.65,-19.26 -50.13,-51.78 -134.91,-170.98 -170.92,-237.3 -21.02,-38.69 -85.98,-166.12 -90.53,-205.47 -1.29,-18.58 -21.05,-69.63 -27.27,-93.98 -45.2,-177.07 -47.79,-358.25 -5.28,-537.79 7.3,-30.83 15.74,-63.38 25.22,-93.73 9.57,-30.66 24.71,-58.96 31.92,-90.78 -0.77,0.95 -2.46,1.81 -2.97,2.17 -0.52,0.37 -2.61,3.09 -3.09,2.17 -0.49,-0.94 -2.36,1.21 -3.22,2.17z"/>
   <path class="fil3" d="M6992.22 2811.39c-36.67,-0.98 -192.84,67.95 -232.12,90.74 -43.48,25.23 -58.48,32.4 -100.28,61.69 -14.45,10.12 -15.51,7.26 -16.03,15.58 -6.95,12.72 -30.59,28.15 -49.21,42.47l-70.17 59.96c-20.65,18.67 -11.66,16.84 -27.69,39.1l-10.34 14.31c-3.74,4.15 -2.54,2.35 -5.52,5.02 -11.35,10.17 -9.02,7.24 -10.03,25.5 -8.37,-1.65 -4.72,-4.28 -17.22,10.34l-13.53 20.23c-2.05,24.06 -4,19.95 -3.46,53.86l24.19 0.15 0.06 45.74c24.77,0.57 7.53,0.57 15.23,5.87l10.46 7.12c0.47,0.27 1.62,0.68 2.35,1.15l5.2 23.03c10.91,6.66 8.99,6.27 8.88,22.8l12.67 -0.57c10.43,-5.99 25.44,-22.96 38.31,-33.04 13.22,-10.37 26.83,-20.96 42.26,-31.56 25.64,-17.62 70.62,-46.66 98.46,-55.53 27.11,-14.04 90.61,-40.43 125.06,-45.15 35.42,-12.02 172.71,-36.09 210.3,-17.23 28.52,0 95.12,-26.31 166.33,-28.12l95.11 -3.68c23.83,0.04 73.5,10.33 91.38,3.91l8.74 -1.48 -5.22 -7.89c-15.35,-0.47 -15.4,-3.87 -31.67,-4.2l-5.86 -12.44c-0.16,-1.19 -0.6,-1.57 -1.02,-2.3 -1.36,16.45 0.17,5.68 -3.68,11.04l-21.12 -0.53 -16.13 -19.11c-3.71,-4.17 -0.76,-1.44 -4.88,-5.72 -9.29,-9.66 -5.29,2.81 -10.93,-10.71l35.1 0.02c-0.17,-39.96 -12.08,-33.78 -17.86,-34.3l0 -15.34c11.32,-4.02 1.24,5.93 13.7,-23 -19.85,0 -16.98,-2.58 -31.54,0.05l-0.04 -16.13c14.11,-1.15 10.58,4.25 10.1,-15.24 -5.89,2.9 -4.3,7.46 -10.46,14.08l0 -14.44 -23.37 0.13c-0.59,-0.82 -1.15,-2.05 -1.55,-2.59l-3.29 -4.5c-5.19,-6.04 2.67,-0.46 -5.72,-4.41l0.33 5.13c-0.05,0.13 -0.34,0.98 -0.42,1.09l-5.94 -0.41c-0.45,-0.22 -1.32,-0.95 -1.83,-1.2 -6.61,-3.21 -0.14,-4.11 -13.71,-4.25 0.74,-0.56 1.99,-1.1 2.39,-1.41l5.04 -5.31c-0.03,-1.05 -6.39,-6.4 -7.61,-7.48l10.29 -14.5c-2.91,-0.69 0.1,1.52 -2.83,1.18 -15.37,-1.79 1.89,-18.08 -22.08,-38.57 -26.91,-23.02 -2.21,-35.51 -41.57,-35.97l-0.21 -21.66c-6.57,-3.87 -1.47,-2.92 -13.98,-2.97 0.11,-44.93 -5.55,-19.22 -8.66,-30.75 -0.34,-1.26 -1.71,-0.89 -2.48,-1.48l17.54 -5.83c-30.6,-0.3 -11.37,1.68 -22.59,6.38l-8.47 0.94c-0.2,0.02 -1.04,0.15 -1.22,0.18l-48.11 -2.44c4.44,-4.36 1,1.44 4.5,-5.95 2.2,-4.66 2.46,-9.49 2.84,-17.32 -16.02,0.88 -17.14,0.24 -27.81,3.35 -21.15,6.15 -56.49,15.17 -77.36,14.57z"/>
   <path class="fil4" d="M6992.22 2811.39c20.87,0.6 56.21,-8.42 77.36,-14.57 10.67,-3.11 11.79,-2.47 27.81,-3.35 -0.38,7.83 -0.64,12.66 -2.84,17.32 -3.5,7.39 -0.06,1.59 -4.5,5.95l48.11 2.44c0.18,-0.03 1.02,-0.16 1.22,-0.18l8.47 -0.94c11.22,-4.7 -8.01,-6.68 22.59,-6.38l-17.54 5.83c0.77,0.59 2.14,0.22 2.48,1.48 3.11,11.53 8.77,-14.18 8.66,30.75 12.51,0.05 7.41,-0.9 13.98,2.97l0.21 21.66c39.36,0.46 14.66,12.95 41.57,35.97 23.97,20.49 6.71,36.78 22.08,38.57 2.93,0.34 -0.08,-1.87 2.83,-1.18l-10.29 14.5c1.22,1.08 7.58,6.43 7.61,7.48l-5.04 5.31c-0.4,0.31 -1.65,0.85 -2.39,1.41 13.57,0.14 7.1,1.04 13.71,4.25 0.51,0.25 1.38,0.98 1.83,1.2l5.94 0.41c0.08,-0.11 0.37,-0.96 0.42,-1.09l-0.33 -5.13c8.39,3.95 0.53,-1.63 5.72,4.41l3.29 4.5c0.4,0.54 0.96,1.77 1.55,2.59l23.37 -0.13 0 14.44c6.16,-6.62 4.57,-11.18 10.46,-14.08 0.48,19.49 4.01,14.09 -10.1,15.24l0.04 16.13c14.56,-2.63 11.69,-0.05 31.54,-0.05 -12.46,28.93 -2.38,18.98 -13.7,23l0 15.34c5.78,0.52 17.69,-5.66 17.86,34.3l-35.1 -0.02c5.64,13.52 1.64,1.05 10.93,10.71 4.12,4.28 1.17,1.55 4.88,5.72l16.13 19.11 21.12 0.53c3.85,-5.36 2.32,5.41 3.68,-11.04 0.42,0.73 0.86,1.11 1.02,2.3l5.86 12.44c16.27,0.33 16.32,3.73 31.67,4.2l5.22 7.89 -8.74 1.48c4.84,5.9 1.86,5.84 21.92,9.68 10.98,2.1 15.64,2.45 26.51,4.97 27.88,6.47 63.96,23.77 88.19,38.51 13.63,8.3 26.52,16.34 39.5,23.85 177.04,102.41 397.34,-72.23 303.3,-222.35 -4.88,-7.79 -8.05,-10.93 -13.74,-17.93 -15.68,-19.29 -10.77,-16.04 -31.29,-32.06 -92.05,-71.88 -152.89,-104 -268.52,-139.74 -132.01,-40.81 -311.99,-52.52 -454.16,-23.88l-102.36 25.26z"/>
   <path class="fil5" d="M6878.71 4872.83l-2.98 -14.09 -23.48 -3.71c10.67,-5.8 16.15,-3.75 27.35,-6.47 14.62,-3.56 5.45,-4.92 24.56,-14.22l0.12 -49.97 -13.65 0 -1.23 -48.57 -27.06 3.78c-1.06,-27.42 6.4,-19.41 -3.73,-39.2l8.33 -2.31c-4.28,-5.31 -0.62,-1.74 -6.19,-6.52 -10.75,-9.23 -67.76,-43.68 -100.76,-72.23 -102.1,-88.36 -182.47,-185.04 -237.14,-319.01 -36.03,-88.28 -61.95,-198.67 -63.79,-307.33 -1.77,-104.89 9.81,-150.12 33.56,-242.43 6.82,-26.51 18.18,-46.99 24.28,-70l-3.13 -7.52c-12.99,29.02 -27.03,53.63 -39.53,83.43 -11.65,27.8 -22.58,61.4 -30.06,88.83 -18.4,67.38 -29.28,129.61 -34.28,204.07 -4.94,73.7 -2.17,155.16 11.65,226.06 19.08,97.81 37.22,116.54 56.87,182.87 -14.3,-11.32 -26.01,-40.53 -37.61,-58.37 -3.45,13.14 5.57,2.41 -5.92,9.94 -10.68,-18.78 -25.47,-37.79 -39.4,-59.9 -9.94,-15.77 -23.57,-42.1 -33.25,-61.62 -57.78,-116.48 -90.15,-259.43 -86.53,-390.45 1.17,-42.34 12.4,-57.33 -8.48,-82.01l-33.23 -0.42c0,27.13 -0.34,23.78 6.95,27.81l0 10.77 -17.41 -0.22c-0.07,-28.31 -6.94,-7.87 -7.28,-61.4 -0.25,-39.24 -3.93,-46.96 -4.31,-65.08l-13.54 1.69c0,-2.84 -0.37,-13.22 0.21,-15.16l6.85 -5.96c-0.16,-12.97 -2.07,-18.66 0.1,-25.15 6.01,-18.03 4.96,0.35 3.83,-21.65 -0.67,-13.06 3.4,-39.85 6.4,-51.68l20.82 -74.45c7.64,-24.45 1.72,-21.4 -1.07,-24.13l-28.87 104.84c-21.09,83.59 -21.52,123.16 -27.63,201.13 -7.35,93.7 0.67,183.17 18.67,273.83 17.09,86.05 60.55,216.66 106.72,294.48 17.23,29.03 30.17,53.86 48.67,81.56 9.8,14.68 17.08,26.18 27.23,39.63 30.77,40.73 52.63,69.47 90.13,106.95 46.57,46.56 86.82,84.53 142.39,121.57 14.23,9.48 24.49,17.54 39.39,27.48 39.34,26.23 85.79,52.94 128.75,71.85 23.41,10.31 73.4,37.12 97.71,38.66z"/>
   <path class="fil2" d="M6516.9 3680.55c-6.1,23.01 -17.46,43.49 -24.28,70 -23.75,92.31 -35.33,137.54 -33.56,242.43 1.84,108.66 27.76,219.05 63.79,307.33 54.67,133.97 135.04,230.65 237.14,319.01 33,28.55 90.01,63 100.76,72.23 5.57,4.78 1.91,1.21 6.19,6.52l115.49 54.61c159.48,66 281.33,69.33 453.22,57.52l11 -4.47 -9.59 -4.64c3.62,-1.61 5.36,-8 20.81,-8.23 -0.23,-46.97 13.76,-2.93 12.79,-50.67l24.52 -10.14 0.02 -24.1 -13.39 0.53c-37.14,5.99 -15.81,-1.12 -36.63,-5.57 -7.73,-1.65 -41.42,0.19 -51.75,0.29l9.04 18.29c-31.51,23.96 21.64,-9.94 -17.17,10.27 -29.17,15.18 -45.18,6.94 -67.53,5.26 1.43,-4.43 2.27,-12.16 12.98,-12.87 -21.16,-0.23 -74.01,0.26 -91.51,-6.91 -0.19,-0.08 -1.16,-0.71 -1.4,-0.78l-6.91 0.28c-10.57,0.58 -12.08,-2.14 -18.74,3.15 -0.56,0.44 -1.32,1.42 -1.8,1.89l-3.49 4.66c-18.69,-0.04 -27.16,1.9 -42.33,2.19 -0.46,-21.3 3.86,-8.62 -13.73,-17.82 -17.91,-9.37 -6.07,1.57 -15.12,-16.57 -20.99,-0.18 -20.1,-2.04 -36.78,-5.32 -12.16,-2.4 -22.6,1.37 -40.25,1.35 -0.22,-11.45 0.05,-10.43 -3.42,-17.95 -28.29,0 -19.79,-13.68 -24.54,-0.35 -5.14,-8.85 -4.46,-7.05 -0.45,-16.59 -10.14,-4.57 -3.98,4.8 -11.37,-4.79l-1.56 -3.22c-6.97,-11.7 -2.71,-6.16 -7.51,-7.56 -11.44,-3.32 3.76,-1.58 -9.68,1.26 -10.58,2.24 -6.03,7.63 -14.4,-4.04 3.53,-10.3 9.26,-4.01 12.95,-13.53l-39.93 -30.47c-0.5,-0.52 -1.12,-1.36 -1.65,-1.86l-10.91 -6.93 -0.95 -24.63c-5.2,-2.67 -5.21,-1.46 -10.97,-4.79l-13.37 -10.5c4.05,0.07 14.25,0.73 17.64,-0.23 11.32,-3.2 -0.34,1.78 6.34,-3.79 6.71,-5.59 8.03,-17.54 36.75,-15.89 -2.77,-2.41 -1.54,-1.77 -6.25,-4.31 -4.36,-2.35 -2.07,-1.08 -7.22,-3.33l-48.72 -21.68c-21.73,-10.86 -40.61,-22.06 -60.31,-34.7l-105.45 -81.09c-67.73,-67.02 -115.93,-134.37 -156.88,-219.69 -10.2,-21.26 -18.2,-43.61 -26.87,-64.62 -52.97,-128.36 -50.69,-345.8 3.41,-482.14 4.46,-11.25 9.42,-21.91 13.62,-32.14 5.01,-12.23 11.48,-22.28 14.58,-33.58 -19.88,15.69 -32.34,38.08 -47.05,61.26 -13.4,21.11 -20.93,51.85 -37.62,72.16z"/>
   <path class="fil6" d="M6235.55 3510.85c2.79,2.73 8.71,-0.32 1.07,24.13l-20.82 74.45c-3,11.83 -7.07,38.62 -6.4,51.68 1.13,22 2.18,3.62 -3.83,21.65 -2.17,6.49 -0.26,12.18 -0.1,25.15l-6.85 5.96c-0.58,1.94 -0.21,12.32 -0.21,15.16l13.54 -1.69c0.38,18.12 4.06,25.84 4.31,65.08 0.34,53.53 7.21,33.09 7.28,61.4l17.41 0.22 0 -10.77c-7.29,-4.03 -6.95,-0.68 -6.95,-27.81l33.23 0.42c20.88,24.68 9.65,39.67 8.48,82.01 -3.62,131.02 28.75,273.97 86.53,390.45 9.68,19.52 23.31,45.85 33.25,61.62 13.93,22.11 28.72,41.12 39.4,59.9 11.49,-7.53 2.47,3.2 5.92,-9.94 -47.83,-87.38 -97.9,-229.95 -75.15,-346.5 5.88,-30.12 7.62,-61.57 13.89,-92.19 6.57,-32.05 15.69,-59.1 24.19,-85.2 13.02,-40.01 29.49,-77.99 47.41,-114.61 5.12,-10.47 15.16,-23.3 18.37,-35.93 6.71,-26.65 21.6,-34 -5.93,-34.34 3.86,-35.11 3.13,9.66 6.97,-11.39 -0.49,-28.09 -3.64,-0.77 -5.4,-21.25 -0.73,-8.6 2.81,-9.75 2.22,-24.13 -0.52,-12.56 -2.61,-9.9 -3.35,-25.01 -1.14,-22.94 3.35,-21.58 -6.89,-42.16 -0.35,-0.7 -0.87,-1.56 -1.21,-2.28 -0.35,-0.73 -0.83,-1.6 -1.16,-2.35 -10.54,-24.57 0.78,-58.78 -8.36,-72.5l7.69 -3.73c0.72,-0.32 1.85,-0.74 2.52,-1.02 19.37,-8.08 -4.89,4.33 7.16,-2.66 -0.01,-5.74 -0.48,-11.6 0.62,-17.24 2.03,-10.41 6.61,-18.08 13.16,-21.47 -9.31,-5.34 -6.15,0.22 -12.91,-7.75 -13.76,-16.25 11.49,-37.04 32.44,-58.09 11.21,-11.26 12.8,-9.18 18.57,-22.64l-12.67 0.57c0.11,-16.53 2.03,-16.14 -8.88,-22.8l-5.2 -23.03c-0.73,-0.47 -1.88,-0.88 -2.35,-1.15l-10.46 -7.12c-7.7,-5.3 9.54,-5.3 -15.23,-5.87l-0.06 -45.74 -24.19 -0.15c-0.54,-33.91 1.41,-29.8 3.46,-53.86l13.53 -20.23c12.5,-14.62 8.85,-11.99 17.22,-10.34 1.01,-18.26 -1.32,-15.33 10.03,-25.5 2.98,-2.67 1.78,-0.87 5.52,-5.02l10.34 -14.31c16.03,-22.26 7.04,-20.43 27.69,-39.1l70.17 -59.96c18.62,-14.32 42.26,-29.75 49.21,-42.47 -15.86,2.85 -9.79,1.61 -21.39,10.48 -6,4.59 -8.75,6.85 -15.8,12.14l-123.81 108.48c-93.97,93.66 -184.42,237.43 -230.17,361.08 -2.98,8.04 -11.2,34.73 -17.07,39.27z"/>
   <path class="fil7" d="M5788.58 3538.98c-7.59,47.07 -28.43,96.7 -31.38,140.75l3.24 49.19c28.88,-2.76 -9.04,-9.87 24.63,-10.21 9.09,13.01 3.75,9.74 3.65,27.57l35.07 0.67c2.48,7.57 1.69,-5.69 -1.53,5.64l-2.32 8.3 17.92 0.5c3.61,-6.77 12.06,-24.89 21.12,-27.12l8.51 62.1c-2.03,67.06 -5.26,135.04 8.01,202.26 1.67,8.41 0.36,2.58 2.39,8.29 0.4,1.12 2.82,5.32 3.86,8.91 -9.33,8.82 0.77,6.03 -9.55,6.32l16.6 0.97c0.34,12.61 1.76,16.27 6.41,25.69l2.27 4.69c6.97,11.27 -1.35,7.93 15.94,8.22 -0.36,13.56 4.99,24.24 -13.08,16.74 8.42,5.49 5.11,-1.88 6.39,9.7 2.8,25.29 -1.93,11.89 -5.52,16.44l9.83 -2.01c0.07,11.61 -1.84,33.78 7.14,41.83l10.87 6.94 0.06 17.59c14.06,2.53 12.39,-0.13 14.34,14.4 8.25,-5.39 7.91,-3.63 7.9,-17.92 -23.72,-5.21 -14.15,10.68 -17.75,-14.07 4.86,-3.77 -3.27,-6.19 27.44,-5.64l11.84 25.89c0.18,0.58 0.59,1.56 0.7,2.14 1.83,8.95 -3.31,9.79 -3.23,24.69l24.56 -0.03 0.2 20.99c12.43,2.72 21.11,8.82 24.91,22.11l0.27 14.92c1.68,-4.65 -2.47,-1.23 4.34,-3.4 11.96,-3.82 3.6,-0.77 3.8,0.39l1.68 -11.11c1.82,-14.09 -11.66,-66.41 -14.49,-84.79 -5.1,-33.09 -8.38,-62.05 -11.38,-96.3 -14.35,-163.84 1.73,-312.85 43.75,-470.43 7.42,-27.8 18.62,-55.61 25.1,-82.28 -0.8,0.85 -2.11,2.04 -2.52,2.42l-5.26 4.83c-0.28,-24.74 4.66,-10.96 -2.72,-26.07 -7.34,-15.04 -4.31,-13.16 -0.61,-28.13l-13.93 -7.04 -0.2 -35.2c-0.76,-0.39 -8.37,-4.11 -8.55,-4.26 -0.55,-0.43 -1.32,-1.19 -1.83,-1.67 -0.53,-0.49 -1.18,-1.35 -1.68,-1.87l-6.5 -7.5c-0.55,-0.48 -1.51,-1.16 -2.04,-1.58 -3.86,-3 -2.25,5.12 -4.77,-2.87 -0.39,-1.24 -1.83,-0.78 -2.7,-1.36 -0.33,-86.77 3.23,-53.95 -9.94,-68.99l-4.36 -5.51c-0.31,-0.24 -1.19,-0.69 -1.54,-0.92 -8.85,-5.85 -10.47,-0.18 -12.32,-9.05l-0.16 -48.12 -24.55 0.07c-0.27,-16.15 -0.13,-10.64 -8.79,-19.39l-10.31 -11.44c-0.26,-1.2 -1.09,-1.4 -1.67,-2.06 3.34,-12.3 3.66,-6.29 5.94,-15.51 8.13,-32.92 23.9,-52.84 49.1,-85.31 6.69,-8.62 11.83,-15.37 18.82,-23.29 9.94,-11.25 17.5,-26.44 35.27,-45.65 8.1,-8.76 12.6,-11.78 18.38,-23.81 -17.64,7.18 -35.05,34.83 -48.17,50.36 -60.19,71.22 -154.49,220.03 -188.16,304.55 -8.03,20.15 -55.82,123.72 -48.74,144.84z"/>
   <path class="fil8" d="M6457.26 2740.08c-7.67,14.02 -16,13.48 -35.84,24.92l-89.62 57.84c-12.29,7.85 -6.91,0.81 -8.85,22.13l-20.09 8.25c-7.67,5.37 -9.84,8.48 -17.6,14.11 -23.87,17.32 -18.57,17.41 -35.9,30.95 -0.58,0.46 -1.46,1.03 -2.04,1.49l-41.38 43.04c-0.61,0.52 -1.56,0.98 -2.21,1.45 -0.87,0.63 -3.82,1.92 -4.68,2.53 -16.88,11.93 -11.6,23.28 -11.61,54.92 -15.57,0.83 -10.48,-7.9 -10.66,37.52 12.55,6.98 8.15,-3.24 19.13,7.87 8.03,8.12 5.14,12.62 5.06,27.33 3.7,10.14 -1.81,6.76 17.22,6.81 0.07,55.64 8.79,6.69 11,38.94 0.82,12.03 -1.13,14.32 -3.32,18.47 18.98,7.33 11.4,-7.51 14.04,13.2 -0.64,19.46 4.97,14.37 -14.02,14.94 0.3,16.27 0.41,5.18 3.02,9.81 5.6,9.99 3.56,-10.21 6.31,10.68 1.21,9.17 -5.75,11.14 -9.15,24.4 0.23,-0.01 4.74,-1.03 6.35,-1.67 80.3,-117.98 200.56,-237.3 322.89,-315.52 62.2,-39.76 133.35,-80.73 211.62,-109.3 62.44,-22.79 183.7,-63.16 258.44,-63.66 4.13,-2.39 0.73,-1.06 8.87,-3.66 13.38,-4.28 33.69,-4.05 48.16,-4.7 -8.87,-1.42 -33.73,-2.38 -41.65,-9.2 8.73,-8.64 1.64,-5.79 18.01,-7.23l66.07 -0.17 0.06 -11.73c-17.91,0.77 -4.83,-2.23 -5.75,6.42l-0.22 4.14c-8.39,-3.71 -46.99,-7.05 -60.9,-7.04l0 -17.55c-21.64,-0.2 -21.56,-1.23 -27.87,-16.02l24.59 0c-7.54,-2.75 -5.75,-0.46 -13.16,-2.03 -6.99,-1.48 -4.17,-0.95 -8.43,-2.33l-37.72 -4.73c-20.27,0.23 -16.25,3.71 -23.38,7.41 -10.95,5.69 -23.07,3.11 -36.14,3.03l-4.64 -10.18c-1.67,-4.71 -1.43,-5.08 -2.84,-11.08 -12.2,-1.03 -21.2,-5.63 -31.92,-6.7 -5.98,-0.59 -9.74,-0.53 -15.38,0.8l-12.02 5.42c3.68,0 18.75,-0.56 21.14,-0.09 10.83,2.15 6.79,-2.09 10.57,7.23 -0.38,0.14 -1.05,-0.19 -1.2,-0.23 -30.9,-7.58 -21.99,1.29 -41.14,0.34 -22.48,-2.75 -4.41,-2.21 -11.45,-6.26 -3.28,-1.88 0.29,-1.23 -6.93,-3.61 -3.97,-1.32 -1.46,-0.36 -5.81,-1.22 -10.4,-2.04 -19.43,-3.09 -32.22,-3.13 4.02,-9.76 0.12,-4.02 10.68,-7.12 13.43,-3.94 36.75,-8.15 53.7,-16.86 8.18,-4.2 12.28,-5.29 19.41,-9.02l-13.3 -1.36c-68.26,-6.04 -303.73,85.96 -371.88,120.03l-35.6 17.44c-12.42,7.54 -7.21,-0.16 -7.82,9.54z"/>
   <path class="fil9" d="M6389.04 5115.66c-3.33,-18.71 6.25,-9.49 -11.26,-12.04 8.32,-1.01 11.08,0.87 17.85,3.21 -1.13,-50.51 13.4,7.47 13.69,-42.78 28.72,0.71 11.79,13.24 37.77,13.56 -6.18,-10.63 -9.73,-9.23 -18.95,-17.33l-5.23 -5.29c-2.35,-2.64 -2.71,-3.34 -4.67,-5.88 -4,-5.15 -2.1,-4.42 -6.21,-7.85 -5.22,-4.37 -11.23,-4.53 -17.79,-7.02 -15.74,-5.99 -16.42,-18.17 -29.48,-26.78l-17.34 -14.34c-9.93,-8.73 -16.43,-19.99 -25.06,-22.5 -0.21,-0.06 -1.08,-0.17 -1.29,-0.25l-8.46 -5.32c-12.8,-9.64 -27.08,-20.09 -34.73,-34.33 -0.15,-0.27 -2.55,-5.06 -2.55,-5.08 -0.22,-0.35 -0.83,-1.16 -1.07,-1.51 -6.65,-10.06 -6.58,-13.42 -6.45,-27.1 -3.73,-0.05 -11.58,0.38 -14.84,0.06 -16.42,-1.57 -8.09,-0.93 -13,-4.22 -0.59,-0.4 -1.31,-1.16 -1.87,-1.6 -0.56,-0.44 -1.27,-1.22 -1.81,-1.69l-66.78 -76.46c-6.34,-29.1 -4.94,-8.72 -15.78,-26.98 -4.97,-8.37 1.09,-1.68 -8.58,-9.39 -8.9,-8.08 5.51,6.37 -0.03,-5.35l-1.56 -2.08c-11.19,-14.5 -16.74,-15.93 -25.41,-28.92 -4.85,-7.26 -10.03,-8.62 -13.22,-16.15 -5.85,-13.77 -15.67,-8.6 -39.29,-53.94l-30 -50.83c-0.28,-0.56 -0.71,-1.57 -1,-2.1l-7.84 -10.85c-7.63,-10.62 -7.11,-18.34 -11.29,-28.69 -0.21,-0.51 -0.69,-1.45 -0.95,-1.93 -0.26,-0.51 -0.93,-1.34 -1.25,-1.83l-66.05 -133.99c-2.85,-8.21 -4.13,-12.42 -6.29,-21.94 -4.32,-19.01 -1.7,-7.64 -7.71,-20.76l-21.16 -56.16c-3.49,-19.42 -7.11,-23.01 -12.48,-40.32 -0.27,-0.89 -0.66,-1.76 -0.95,-2.63l-2 -5.1c-7.18,-21.96 -9.78,-36.59 -10.45,-63.57 -7.53,16.33 7.22,13.43 -15.91,12.46 0.01,-8.41 1.01,-14.93 -1.65,-22.57 -7.2,-20.75 -25.24,-12.5 -26.12,-46.17l16.65 -4.38c-2.07,-26.28 -3.21,-16.03 -17.37,-24.63 -0.05,-3.21 0.35,-11.88 0.06,-14.36 -3.34,-27.87 -11.21,-0.85 -10.8,-38.52l-27.91 -0.41c-0.19,-8.13 5.15,-52.05 -7.54,-52.35 -7.58,2.92 -7.99,-7.42 -7.52,13.73 0.5,22.71 0.54,0.35 7,17.38 -0.85,0.33 -1.95,0.34 -2.33,1.45l-6.97 3.67c-12.85,3.81 -7.85,0.14 -10.18,-1.62 -11.68,-8.78 6.91,-10.23 -21.43,-10.9 0.26,-17.53 2.23,-28.42 -13.77,-30.95l-6.2 -0.34c-0.66,-0.25 -4.6,-2.84 -5.47,-3.63 0,63.62 13.54,140.41 24.35,194.57 6.09,30.55 12.85,60.7 20.99,88.11 50.53,170.26 105.52,294.93 214.13,440.47 16.46,22.05 28.76,41.72 47.6,61.5 6.39,6.7 5.47,6.15 11.17,13.47 5.68,7.31 7.78,8.42 13.41,14.74 77.86,87.42 120.1,133.97 225.91,210.49 20.96,15.16 81.39,61 102.72,64.84z"/>
   <path class="fil10" d="M6872.56 2593.07l13.3 1.36c-7.13,3.73 -11.23,4.82 -19.41,9.02 -16.95,8.71 -40.27,12.92 -53.7,16.86 -10.56,3.1 -6.66,-2.64 -10.68,7.12 12.79,0.04 21.82,1.09 32.22,3.13 4.35,0.86 1.84,-0.1 5.81,1.22 7.22,2.38 3.65,1.73 6.93,3.61 7.04,4.05 -11.03,3.51 11.45,6.26 19.15,0.95 10.24,-7.92 41.14,-0.34 0.15,0.04 0.82,0.37 1.2,0.23 -3.78,-9.32 0.26,-5.08 -10.57,-7.23 -2.39,-0.47 -17.46,0.09 -21.14,0.09l12.02 -5.42c5.64,-1.33 9.4,-1.39 15.38,-0.8 10.72,1.07 19.72,5.67 31.92,6.7 1.41,6 1.17,6.37 2.84,11.08l4.64 10.18c13.07,0.08 25.19,2.66 36.14,-3.03 7.13,-3.7 3.11,-7.18 23.38,-7.41l37.72 4.73c4.26,1.38 1.44,0.85 8.43,2.33 7.41,1.57 5.62,-0.72 13.16,2.03l-24.59 0c6.31,14.79 6.23,15.82 27.87,16.02l0 17.55c13.91,-0.01 52.51,3.33 60.9,7.04l0.22 -4.14c0.92,-8.65 -12.16,-5.65 5.75,-6.42l-0.06 11.73 -66.07 0.17c-16.37,1.44 -9.28,-1.41 -18.01,7.23 7.92,6.82 32.78,7.78 41.65,9.2 -14.47,0.65 -34.78,0.42 -48.16,4.7 -8.14,2.6 -4.74,1.27 -8.87,3.66 58.27,-3.43 249.03,-7.83 287.42,15.04 96.79,0 200.02,-5.66 280.09,-43.39 21.97,-10.36 58.31,-21.41 64.5,-44.6l-82.42 -30.19c-109.33,-31.19 -276.42,-58.23 -392.68,-57.8 -110.67,0.41 -178.11,8.2 -284.67,25.03 -6.12,0.96 -7.21,0.83 -11.99,2.08l-13.06 5.37z"/>
   <path class="fil11" d="M6981.66 4524.41c-28.72,-1.65 -30.04,10.3 -36.75,15.89 -6.68,5.57 4.98,0.59 -6.34,3.79 -3.39,0.96 -13.59,0.3 -17.64,0.23l13.37 10.5c5.76,3.33 5.77,2.12 10.97,4.79l0.95 24.63 10.91 6.93c0.53,0.5 1.15,1.34 1.65,1.86l39.93 30.47c-3.69,9.52 -9.42,3.23 -12.95,13.53 8.37,11.67 3.82,6.28 14.4,4.04 13.44,-2.84 -1.76,-4.58 9.68,-1.26 4.8,1.4 0.54,-4.14 7.51,7.56l1.56 3.22c7.39,9.59 1.23,0.22 11.37,4.79 -4.01,9.54 -4.69,7.74 0.45,16.59 4.75,-13.33 -3.75,0.35 24.54,0.35 3.47,7.52 3.2,6.5 3.42,17.95 17.65,0.02 28.09,-3.75 40.25,-1.35 16.68,3.28 15.79,5.14 36.78,5.32 9.05,18.14 -2.79,7.2 15.12,16.57 17.59,9.2 13.27,-3.48 13.73,17.82 15.17,-0.29 23.64,-2.23 42.33,-2.19l3.49 -4.66c0.48,-0.47 1.24,-1.45 1.8,-1.89 6.66,-5.29 8.17,-2.57 18.74,-3.15l6.91 -0.28c0.24,0.07 1.21,0.7 1.4,0.78 17.5,7.17 70.35,6.68 91.51,6.91 -10.71,0.71 -11.55,8.44 -12.98,12.87 22.35,1.68 38.36,9.92 67.53,-5.26 38.81,-20.21 -14.34,13.69 17.17,-10.27l-9.04 -18.29c10.33,-0.1 44.02,-1.94 51.75,-0.29 20.82,4.45 -0.51,11.56 36.63,5.57 -5.7,-5.92 7.28,-4.98 -7.04,-4.98 13.32,-7.59 10.14,0.26 27.63,-13.83 0.58,-0.46 1.39,-1.1 1.95,-1.58l10.27 -10.89c10.7,-10.68 23.14,-6.58 32.73,-12.94 10.38,-6.9 3.01,-9.52 14.86,-20.01l-34.98 -0.19c7,-16.58 34.85,-16.14 51.98,-14.81 0.79,-20.81 -7.67,-4.95 16.31,-19.17 10.11,-6 11.25,-9.1 25.37,-9.52 1.29,-46.84 8.7,-13.1 5.47,-41.88 -2,-17.83 -2.43,-30.02 -5.52,-44.83 4.52,-10.9 0.18,-0.6 5.93,-6.27 6.83,-6.73 7.19,-2.4 8.21,-16.71 -11.47,7.83 -9.54,1.94 -23.35,-0.97 -14.75,2.06 -44.97,20.14 -66.42,27.92 -161.58,58.58 -316.36,79.41 -488.45,30.04l-75.1 -23.45z"/>
   <path class="fil8" d="M7963.91 4445.02c-8.48,12.31 -23.46,48 -45.37,79.85 -34.76,50.55 -158.57,181.34 -193.77,179.04 -19.23,24.49 -102.68,55.28 -128.72,65.25 -29.97,11.46 -114.75,38.77 -149.4,36.57l-11 4.47c-9.02,7.55 10.88,5.15 -10.13,6.38 -7.8,15.69 5.45,-1.8 3.1,6.49 -19.94,0.36 -27.29,3.44 -42.32,3.88 14.85,10.89 16,-3.8 13.6,13.63 -1.68,12.21 -5.13,5.35 -13.62,11.37l1.67 5.18c0.21,0.77 0.47,1.88 0.7,2.75l10.01 21.7c4.15,10.1 1.44,25.86 1.56,38.26l60.08 -8.28c15.05,5.61 31.4,-1.56 47.21,-5.6l47.44 -12.39c27.85,-8.65 62.61,-19.69 88.45,-31.2l82.02 -37.64c113.88,-56.94 223.48,-134.78 306.07,-232.4 5.21,-6.16 8.62,-8.48 13.69,-14.58 0.05,-0.06 5.92,-7.9 6.02,-8.07 6.59,-10.77 3.58,-2.06 4.12,-10.08 2.38,-17.3 -1.01,1.39 -0.36,-13.71 0.79,-18.22 10.45,2.24 8.07,-32.04 -3.75,-28.27 -16.14,-4.62 -6.94,-13.02 0.24,-67.25 -2.45,-27.96 -21.12,-68.93l-36.21 -0.35c-0.11,-0.64 2.92,-0.95 1.48,-7.38 -0.14,-0.63 -3.38,-7.81 -4.53,-11.8 -3.71,-12.92 0.85,-9.41 0.1,-28.95 -9.28,11.38 -7.14,19.24 -12.83,33.87l-7.2 17.43c-5.01,9.24 0.88,7.14 -11.87,10.3z"/>
   <path class="fil12" d="M6073.65 3039.23c-5.78,12.03 -10.28,15.05 -18.38,23.81 -17.77,19.21 -25.33,34.4 -35.27,45.65 -6.99,7.92 -12.13,14.67 -18.82,23.29 -25.2,32.47 -40.97,52.39 -49.1,85.31 -2.28,9.22 -2.6,3.21 -5.94,15.51 0.58,0.66 1.41,0.86 1.67,2.06l10.31 11.44c8.66,8.75 8.52,3.24 8.79,19.39l24.55 -0.07 0.16 48.12c1.85,8.87 3.47,3.2 12.32,9.05 0.35,0.23 1.23,0.68 1.54,0.92l4.36 5.51c13.17,15.04 9.61,-17.78 9.94,68.99 0.87,0.58 2.31,0.12 2.7,1.36 2.52,7.99 0.91,-0.13 4.77,2.87 0.53,0.42 1.49,1.1 2.04,1.58l6.5 7.5c0.5,0.52 1.15,1.38 1.68,1.87 0.51,0.48 1.28,1.24 1.83,1.67 0.18,0.15 7.79,3.87 8.55,4.26l0.2 35.2 13.93 7.04c-3.7,14.97 -6.73,13.09 0.61,28.13 7.38,15.11 2.44,1.33 2.72,26.07l5.26 -4.83c0.41,-0.38 1.72,-1.57 2.52,-2.42l34.8 -77.17c5.97,-19.3 13.37,-30.49 25.28,-43.13 15.6,-31.21 29.56,-59.14 47.08,-90.91 9.39,-17.03 17.78,-30.09 26.22,-44.1 8.13,-13.48 19.44,-27.84 25.95,-43.19 -1.61,0.64 -6.12,1.66 -6.35,1.67 3.4,-13.26 10.36,-15.23 9.15,-24.4 -2.75,-20.89 -0.71,-0.69 -6.31,-10.68 -2.61,-4.63 -2.72,6.46 -3.02,-9.81 18.99,-0.57 13.38,4.52 14.02,-14.94 -2.64,-20.71 4.94,-5.87 -14.04,-13.2 2.19,-4.15 4.14,-6.44 3.32,-18.47 -2.21,-32.25 -10.93,16.7 -11,-38.94 -19.03,-0.05 -13.52,3.33 -17.22,-6.81 0.08,-14.71 2.97,-19.21 -5.06,-27.33 -10.98,-11.11 -6.58,-0.89 -19.13,-7.87 0.18,-45.42 -4.91,-36.69 10.66,-37.52 0.01,-31.64 -5.27,-42.99 11.61,-54.92 0.86,-0.61 3.81,-1.9 4.68,-2.53 0.65,-0.47 1.6,-0.93 2.21,-1.45l41.38 -43.04c0.58,-0.46 1.46,-1.03 2.04,-1.49 17.33,-13.54 12.03,-13.63 35.9,-30.95 7.76,-5.63 9.93,-8.74 17.6,-14.11l20.09 -8.25c1.94,-21.32 -3.44,-14.28 8.85,-22.13l89.62 -57.84c19.84,-11.44 28.17,-10.9 35.84,-24.92 -25.3,4 -87.36,45.68 -111.02,61.42 -66.35,44.12 -202.82,149.59 -254.46,213.62l-15.28 16.23c-4.74,7.25 -2.68,0.82 -2.85,7.88z"/>
   <path class="fil10" d="M8431.65 3756.14l-11.63 17.48c-3.45,8.21 -6.56,16.24 -8.99,22.78l-21.89 73.13c-2.23,10.13 -4.3,15.05 -6.53,25.14 -2.29,10.31 -7.33,49.15 -10.79,54.5 3.52,4.54 2.03,0.2 5.67,10.27 12.46,34.43 12.49,211.83 13.48,245.63 2.66,52.53 -13.11,131.97 -22.68,182.21 -11.24,59.05 -32.46,107.17 -47.39,158.11 21.61,-5.94 -6.41,0.88 19.25,3.65l-0.3 24.87 17.43 3.29c-3.44,6.76 -4.7,12.17 -8,19.83l-11.09 20.63c-8.41,15.61 -16.86,27.45 -18.32,40.49 31.13,-27.18 112.49,-229.29 129.82,-281.11 16.47,-49.23 45.25,-165.6 52.96,-221.55 8.54,-62.02 24.04,-195.43 14.95,-255.5 -3.31,-21.85 -0.29,-44.66 -3.5,-66.89 -1.09,-7.53 -0.58,-55.63 -8.55,-58.42 -11.85,-12.13 -8.02,-43.87 -18.38,-76.82 -13.91,27.5 -19.6,10.83 -36.4,35.99l-9.96 14.72c-6.79,7.81 -0.93,2.75 -9.16,7.57z"/>
   <path class="fil13" d="M7755.93 4384.77c9.62,2.87 11.98,3.58 16.3,11.5l2.7 8.57c0.27,1.08 0.28,2.06 0.51,3.14 6.49,29.21 14.56,0.59 13.86,56.6 -0.67,0.59 -1.96,0.4 -2.22,1.52 -0.35,1.54 -4.33,1.01 -6.32,7.33 -8.66,27.53 10.47,15.16 -15.19,22.82l3.59 23.17c-28.73,8.47 -0.8,13.67 -27.33,19.07 0.42,8.62 1.84,4.48 3.76,11.5 8.61,31.44 -8.76,24.21 11.96,41.29 -8.29,8.68 -10.19,5.22 -11.54,23.73 12.71,0.36 29.35,-5.09 38.89,-15.68 0.52,-0.58 1.04,-1.56 1.54,-2.16 6.8,-8.13 -8.76,-10.08 12.79,-8.12 -9.48,6.51 -7.21,12.64 -7.3,27.73 -14.69,9.27 -14.49,-4.13 -25.01,14.51 -2.57,4.54 -3.69,13.57 -4.08,14.5 -5.74,13.69 9.87,-7.6 -4.4,5.02 -0.37,0.33 -1.31,0.94 -1.71,1.28 -0.43,0.37 -1.34,1.07 -1.79,1.45 -2.53,2.18 -0.83,1.59 -4.99,4.78 -9.84,7.53 -7.68,0.2 -18.08,7.19 -8.2,5.5 -7.49,11.96 -25.56,16.92 -0.11,4.96 -0.61,11.57 -0.38,16.25 0.76,15.51 -3.49,3.96 4.24,11.94 10.13,-9.82 -4.12,-3.01 14.6,-6.71 35.2,2.3 159.01,-128.49 193.77,-179.04 21.91,-31.85 36.89,-67.54 45.37,-79.85 22.42,-70.53 39.77,-105.56 37.79,-191.7 -0.8,-34.65 -6.44,-67.91 -15.83,-98.84l-25.46 -59.53c-0.67,-1.28 -5.01,-8.33 -5.5,-8.92 -5.65,-6.68 -1.45,-3.02 -8.94,-7.63 -32.67,96.66 -44.7,124.96 -102.08,206.67l-57.1 69.6c-6.72,6.81 -28.48,24.14 -30.86,30.1z"/>
   <path class="fil14" d="M7025.37 2721.53c-74.74,0.5 -196,40.87 -258.44,63.66 -78.27,28.57 -149.42,69.54 -211.62,109.3 -122.33,78.22 -242.59,197.54 -322.89,315.52 -6.51,15.35 -17.82,29.71 -25.95,43.19 -8.44,14.01 -16.83,27.07 -26.22,44.1 -17.52,31.77 -31.48,59.7 -47.08,90.91 10.25,-7.15 11.37,-11.07 18.27,-25.4 3.48,2.87 4.96,5.42 6.84,7.09 6.05,5.37 2.63,3.34 11.07,6.59 7.52,2.9 2.28,-0.45 10.41,3.63 15.54,7.81 -8.1,0.75 10.04,6.94 12.09,-9.21 8.79,-13.1 21.12,-21.47 12.33,-6.8 2.61,0.1 14.78,-22.98 47.41,-89.86 169.43,-237.46 251.19,-301.36l92.98 -72.43c38.67,-27.29 89.69,-60.75 132.59,-82.09 85.9,-42.75 123.58,-65.12 229.92,-97.39 114.65,-34.78 230.52,-52.77 380.41,-52.77 -38.39,-22.87 -229.15,-18.47 -287.42,-15.04z"/>
   <path class="fil15" d="M6878.71 4872.83c9.4,17.84 225.23,62.27 271.78,63.45 41.46,1.05 79.48,4.84 123.4,3.53l170.97 -18.82c24.41,-6.6 7.15,1.06 15.44,-9.43l-60.08 8.28c-0.12,-12.4 2.59,-28.16 -1.56,-38.26l-10.01 -21.7c-0.23,-0.87 -0.49,-1.98 -0.7,-2.75l-1.67 -5.18c8.49,-6.02 11.94,0.84 13.62,-11.37 2.4,-17.43 1.25,-2.74 -13.6,-13.63 15.03,-0.44 22.38,-3.52 42.32,-3.88 2.35,-8.29 -10.9,9.2 -3.1,-6.49 21.01,-1.23 1.11,1.17 10.13,-6.38 -171.89,11.81 -293.74,8.48 -453.22,-57.52l-115.49 -54.61 -8.33 2.31c10.13,19.79 2.67,11.78 3.73,39.2l27.06 -3.78 1.23 48.57 13.65 0 -0.12 49.97c-19.11,9.3 -9.94,10.66 -24.56,14.22 -11.2,2.72 -16.68,0.67 -27.35,6.47l23.48 3.71 2.98 14.09z"/>
   <path class="fil16" d="M7756.26 5029.92c-0.59,0.75 -1.55,0.87 -1.87,2.15 -4.41,17.52 -143.02,76.27 -153.31,80.12 -54.25,20.26 -182.59,51.5 -183.96,52.1 -5.29,8.44 -1.95,3.57 -9.24,8.36 -0.9,0.6 -3.73,2.13 -4.65,2.56 -12.74,5.95 -15.86,-2.45 -26.72,8.34 -12.33,12.24 -0.81,21.87 -0.01,40.59 32.26,-0.57 10.54,4.58 40.94,11.53l13.8 4.18c26.67,7.23 6.94,-2.91 34.55,-7.12 4.05,-0.61 12.95,-2.2 17.29,-3.16 36.48,-8.1 16.73,-10.15 37.52,-14.96 55.38,-12.81 21.98,-21.08 72.78,-20.97l-13.86 6.49c2.38,16.8 11.35,13.63 2.3,26.94 80.75,-26.28 225.36,-101.5 285.49,-148.3l45.53 -31.38c0.65,-0.41 1.53,-0.95 2.18,-1.37l106.37 -79.07c-1.02,-0.13 -2.25,-0.81 -2.93,-1.02 -18.89,-5.89 -12.21,-1 -24.15,2.77 -2.78,-3.91 -1.83,-3.49 -6.33,-7.48 -8.74,-7.77 -15.43,-6.61 -21.59,-11.81 19.86,-0.1 16.92,4.39 17.02,-11.98 -5.45,17.13 1.04,2.61 -9.46,9.22 -10.95,6.9 -7.68,-10.14 -9.68,11.34l-2.92 -5.15c-0.4,-0.71 -0.96,-1.74 -1.4,-2.49l-19.71 -18.87c-0.61,-0.46 -1.47,-1.05 -2.05,-1.55 -19.81,-17.09 3.6,-13.06 -30.74,-28.93l-12.24 -6.02c-22.16,33.14 -99.88,120.42 -138.95,134.94z"/>
   <path class="fil17" d="M8246.38 4447.72c0.42,22.19 -14.44,77.71 -21.16,102.29 -7.36,26.94 -25.72,72.98 -28.98,92.23 -10.74,51.34 -50.21,108.54 -66.42,147.5 -0.99,-0.3 -2.11,-1.03 -2.8,-1.34 -35.75,-15.79 -29.85,6.54 -31.44,-19.55l-13.66 6.74c-0.72,-32.49 -7.43,-14.9 -7.61,-45.26 -14.08,-8.57 -12.26,11.14 -13.54,-14.44 -4.12,15.02 -0.02,8.47 -9.42,9.09 -22.11,1.45 6.48,-1.16 -13.87,-4.37 -9.12,1.68 -8.98,5.43 -21.13,14.93l-64.08 63.38c-13.09,33.05 -41.64,62.94 -57.06,96.06l12.24 6.02c34.34,15.87 10.93,11.84 30.74,28.93 0.58,0.5 1.44,1.09 2.05,1.55l19.71 18.87c0.44,0.75 1,1.78 1.4,2.49l2.92 5.15c2,-21.48 -1.27,-4.44 9.68,-11.34 10.5,-6.61 4.01,7.91 9.46,-9.22 -0.1,16.37 2.84,11.88 -17.02,11.98 6.16,5.2 12.85,4.04 21.59,11.81 4.5,3.99 3.55,3.57 6.33,7.48 11.94,-3.77 5.26,-8.66 24.15,-2.77 0.68,0.21 1.91,0.89 2.93,1.02 8.16,-9.45 29.44,-27.1 40.91,-37.66 14.44,-13.28 29.31,-27.81 42.43,-41.99 62.5,-67.59 179.3,-222.95 201.28,-309.27 -7.9,5.63 -3.72,-4.51 -8.82,6.43 3.27,-11.16 3.56,-31.56 -1.61,-47.11 -13.24,-39.86 0.34,-28.12 5.25,-41.1 -13.22,-9.39 -5.5,-1.24 -18.43,-26.78l-15.13 -44.64c-0.12,-1.37 -0.54,-1.78 -1.03,-2.56 -20.05,2.46 -2.6,-3.28 -13.93,17.87 -4.66,8.7 1.52,1.16 -5.93,7.58z"/>
   <path class="fil18" d="M7611.63 4489.9c13.81,2.91 11.88,8.8 23.35,0.97 -1.02,14.31 -1.38,9.98 -8.21,16.71 -5.75,5.67 -1.41,-4.63 -5.93,6.27 3.09,14.81 3.52,27 5.52,44.83 3.23,28.78 -4.18,-4.96 -5.47,41.88 -14.12,0.42 -15.26,3.52 -25.37,9.52 -23.98,14.22 -15.52,-1.64 -16.31,19.17 -17.13,-1.33 -44.98,-1.77 -51.98,14.81l34.98 0.19c-11.85,10.49 -4.48,13.11 -14.86,20.01 -9.59,6.36 -22.03,2.26 -32.73,12.94l-10.27 10.89c-0.56,0.48 -1.37,1.12 -1.95,1.58 -17.49,14.09 -14.31,6.24 -27.63,13.83 14.32,0 1.34,-0.94 7.04,4.98l13.39 -0.53 -0.02 24.1 -24.52 10.14c0.97,47.74 -13.02,3.7 -12.79,50.67 -15.45,0.23 -17.19,6.62 -20.81,8.23l9.59 4.64c34.65,2.2 119.43,-25.11 149.4,-36.57 26.04,-9.97 109.49,-40.76 128.72,-65.25 -18.72,3.7 -4.47,-3.11 -14.6,6.71 -7.73,-7.98 -3.48,3.57 -4.24,-11.94 -0.23,-4.68 0.27,-11.29 0.38,-16.25 18.07,-4.96 17.36,-11.42 25.56,-16.92 10.4,-6.99 8.24,0.34 18.08,-7.19 4.16,-3.19 2.46,-2.6 4.99,-4.78 0.45,-0.38 1.36,-1.08 1.79,-1.45 0.4,-0.34 1.34,-0.95 1.71,-1.28 14.27,-12.62 -1.34,8.67 4.4,-5.02 0.39,-0.93 1.51,-9.96 4.08,-14.5 10.52,-18.64 10.32,-5.24 25.01,-14.51 0.09,-15.09 -2.18,-21.22 7.3,-27.73 -21.55,-1.96 -5.99,-0.01 -12.79,8.12 -0.5,0.6 -1.02,1.58 -1.54,2.16 -9.54,10.59 -26.18,16.04 -38.89,15.68 1.35,-18.51 3.25,-15.05 11.54,-23.73 -20.72,-17.08 -3.35,-9.85 -11.96,-41.29 -1.92,-7.02 -3.34,-2.88 -3.76,-11.5 26.53,-5.4 -1.4,-10.6 27.33,-19.07l-3.59 -23.17c25.66,-7.66 6.53,4.71 15.19,-22.82 1.99,-6.32 5.97,-5.79 6.32,-7.33 0.26,-1.12 1.55,-0.93 2.22,-1.52 0.7,-56.01 -7.37,-27.39 -13.86,-56.6 -0.23,-1.08 -0.24,-2.06 -0.51,-3.14l-2.7 -8.57c-4.32,-7.92 -6.68,-8.63 -16.3,-11.5 -2.62,1.57 -69.64,57.95 -105.74,79.65 -18.35,11.03 -31.92,15.24 -38.56,25.48z"/>
   <path class="fil19" d="M6515.66 3355.48c-5.77,13.46 -7.36,11.38 -18.57,22.64 -20.95,21.05 -46.2,41.84 -32.44,58.09 6.76,7.97 3.6,2.41 12.91,7.75 -6.55,3.39 -11.13,11.06 -13.16,21.47 -1.1,5.64 -0.63,11.5 -0.62,17.24 -12.05,6.99 12.21,-5.42 -7.16,2.66 -0.67,0.28 -1.8,0.7 -2.52,1.02l-7.69 3.73c9.14,13.72 -2.18,47.93 8.36,72.5 0.33,0.75 0.81,1.62 1.16,2.35 0.34,0.72 0.86,1.58 1.21,2.28 10.24,20.58 5.75,19.22 6.89,42.16 0.74,15.11 2.83,12.45 3.35,25.01 0.59,14.38 -2.95,15.53 -2.22,24.13 1.76,20.48 4.91,-6.84 5.4,21.25 -3.84,21.05 -3.11,-23.72 -6.97,11.39 27.53,0.34 12.64,7.69 5.93,34.34l14.18 -19.15c4.76,-8.04 7.62,-12.72 11.72,-19.95 4.1,-7.25 6.88,-11.42 12.11,-19.56 5.55,-8.62 7.92,-13.18 18.19,-20.3 -3.85,13.69 -6.2,15.91 -11.95,26.5l3.13 7.52c16.69,-20.31 24.22,-51.05 37.62,-72.16 14.71,-23.18 27.17,-45.57 47.05,-61.26 7.94,-7.5 23.33,-39.86 34.68,-58.06 11.96,-19.15 8.03,-13.03 7.57,-20.47l20.79 -81.12 5.76 8.94c5.66,6.91 -4.82,0.68 5.11,4.32 13.31,-6.33 -2.05,-9.63 19.5,-20.13 0.26,-16.26 -2.94,-14.71 -2.52,-27.88 0.3,-9.76 2.8,-13.19 2.8,-28.43l13.82 -7.04 -0.19 -38.71c-18.32,-7.12 -8.87,8.44 -15.85,-11.96 -5.87,-17.16 5.53,-17.79 5.58,-17.82 -3.04,-5.79 6.92,-3.73 -11.07,-3.27l4.83 -6.96c0.39,-1.88 1.28,-2.37 2.31,-3.19 -27.84,8.87 -72.82,37.91 -98.46,55.53 -15.43,10.6 -29.04,21.19 -42.26,31.56 -12.87,10.08 -27.88,27.05 -38.31,33.04z"/>
   <path class="fil20" d="M7026.97 5179.36c-27.59,0.08 -30.01,-7.15 -44.43,0.14 -8.92,4.51 -5.22,3.35 -9.14,6.55l0.43 21.91c7.98,-3.17 13.35,-3.54 25.43,-3.37 3.82,6.99 0.74,3.05 3.3,9.45l3.74 8c20.7,1.84 -0.37,6.13 31.67,3.74l7.04 13.97 -18.03 9c-0.09,12.72 3.92,17.75 -6.63,17.76 -10.56,0 -6.57,-5.07 -6.57,-17.55l-10.57 7.05c1.87,-4.15 3.77,-7.35 0.29,-13.85 -5.94,-11.1 7.69,-5.22 -11.28,-7.2 -1.51,2.42 -5.98,-3.51 -2.23,12.82 2.9,12.59 3.53,5.91 6.53,11.48 6.24,11.62 2.65,13.2 6.04,22.22l28.6 -0.39c11.17,13.1 11.23,9.17 45.51,9.84l156.6 1.76c48.44,-5.14 92.42,-5.38 140.77,-12.91 23.37,-3.64 43.04,-7.72 65.07,-12.87 17.64,-4.13 48.49,-13.48 65.22,-14.89l77.49 -24.95c9.05,-13.31 0.08,-10.14 -2.3,-26.94l13.86 -6.49c-50.8,-0.11 -17.4,8.16 -72.78,20.97 -20.79,4.81 -1.04,6.86 -37.52,14.96 -4.34,0.96 -13.24,2.55 -17.29,3.16 -27.61,4.21 -7.88,14.35 -34.55,7.12l-13.8 -4.18c-30.4,-6.95 -8.68,-12.1 -40.94,-11.53 -0.8,-18.72 -12.32,-28.35 0.01,-40.59 10.86,-10.79 13.98,-2.39 26.72,-8.34 0.92,-0.43 3.75,-1.96 4.65,-2.56 7.29,-4.79 3.95,0.08 9.24,-8.36 -32.45,4.46 -62.32,10.02 -96.48,14.22 -30.86,3.79 -61.29,4.72 -94.02,7.37 -71.94,5.81 -132.76,-7.24 -199.65,-6.52z"/>
   <path class="fil21" d="M6133.17 3388.21c-11.91,12.64 -19.31,23.83 -25.28,43.13 0.86,-0.96 2.73,-3.11 3.22,-2.17 0.48,0.92 2.57,-1.8 3.09,-2.17 0.51,-0.36 2.2,-1.22 2.97,-2.17 -7.21,31.82 -22.35,60.12 -31.92,90.78 -9.48,30.35 -17.92,62.9 -25.22,93.73 -42.51,179.54 -39.92,360.72 5.28,537.79 6.22,24.35 25.98,75.4 27.27,93.98 18.19,12.9 -3,10.12 13.96,14.34 9.09,2.26 13.42,-7.06 16.39,-10.66 -10.05,-33.87 -16.68,-66.81 -25.33,-103.29 -8.63,-36.36 -12.36,-73.08 -18.43,-115.31l-4.99 -127.72c4.4,-39.14 2.04,-85.27 8.44,-125.29 14.85,-92.86 18.78,-122.07 50.43,-217.05 17.77,-53.33 32.56,-95.15 56.73,-143.87 3.93,-7.93 6.42,-12.59 11.31,-20.34 6.29,-9.99 8.78,-12.25 9.83,-26.33 -12.33,8.37 -9.03,12.26 -21.12,21.47 -18.14,-6.19 5.5,0.87 -10.04,-6.94 -8.13,-4.08 -2.89,-0.73 -10.41,-3.63 -8.44,-3.25 -5.02,-1.22 -11.07,-6.59 -1.88,-1.67 -3.36,-4.22 -6.84,-7.09 -6.9,14.33 -8.02,18.25 -18.27,25.4z"/>
   <path class="fil22" d="M8320.9 4545.39l-14.89 32.64c-21.98,86.32 -138.78,241.68 -201.28,309.27 -13.12,14.18 -27.99,28.71 -42.43,41.99 -11.47,10.56 -32.75,28.21 -40.91,37.66l-106.37 79.07c-0.65,0.42 -1.53,0.96 -2.18,1.37l-45.53 31.38c-60.13,46.8 -204.74,122.02 -285.49,148.3l-77.49 24.95c-9.91,11.06 -5.6,4.7 -18.74,11.46 29.84,20.82 114.83,-31.68 164.75,-38.7 13.96,4.68 42.97,-11.62 56.41,-17.51 94.11,-41.27 162.67,-82.21 246.24,-140.9 89.1,-62.57 192.25,-161.73 256.9,-246.37l50.3 -65.84c11.73,-15.66 54.13,-80.04 59.68,-96.01 1.46,-13.04 9.91,-24.88 18.32,-40.49l11.09 -20.63c3.3,-7.66 4.56,-13.07 8,-19.83l-17.43 -3.29 0.3 -24.87c-25.66,-2.77 2.36,-9.59 -19.25,-3.65z"/>
   <path class="fil23" d="M8326.07 4194.25l-5.06 11.85c-1.43,4.16 -2.97,9.52 -4.2,13.41l-27.29 81.82c-7.15,20.62 -12.51,34.77 -20.22,53.7 -6.07,14.92 -18.34,34.94 -21.33,53.24 3.43,17.89 0.53,21.95 -1.59,39.45 7.45,-6.42 1.27,1.12 5.93,-7.58 11.33,-21.15 -6.12,-15.41 13.93,-17.87 0.49,0.78 0.91,1.19 1.03,2.56l15.13 44.64c12.93,25.54 5.21,17.39 18.43,26.78 -4.91,12.98 -18.49,1.24 -5.25,41.1 5.17,15.55 4.88,35.95 1.61,47.11 5.1,-10.94 0.92,-0.8 8.82,-6.43l14.89 -32.64c14.93,-50.94 36.15,-99.06 47.39,-158.11 9.57,-50.24 25.34,-129.68 22.68,-182.21l-3.68 7.05c-0.31,0.94 -0.59,1.91 -0.85,2.91 -1.01,3.95 -1.23,10.33 -1.62,14.43 -0.01,-0.01 -6.1,-7.35 -6.17,-7.41 -5.44,-4.4 -2.26,-0.58 -8.67,-5.23l-16.39 -23.5c-3.51,-17.4 3.65,-18.24 -13.45,-19.78 -3.22,6.3 1.08,14.41 -14.07,20.71z"/>
   <path class="fil24" d="M6469.52 3725.49c-3.21,12.63 -13.25,25.46 -18.37,35.93 -17.92,36.62 -34.39,74.6 -47.41,114.61 -8.5,26.1 -17.62,53.15 -24.19,85.2 -6.27,30.62 -8.01,62.07 -13.89,92.19 -22.75,116.55 27.32,259.12 75.15,346.5 11.6,17.84 23.31,47.05 37.61,58.37 -19.65,-66.33 -37.79,-85.06 -56.87,-182.87 -13.82,-70.9 -16.59,-152.36 -11.65,-226.06 5,-74.46 15.88,-136.69 34.28,-204.07 7.48,-27.43 18.41,-61.03 30.06,-88.83 12.5,-29.8 26.54,-54.41 39.53,-83.43 5.75,-10.59 8.1,-12.81 11.95,-26.5 -10.27,7.12 -12.64,11.68 -18.19,20.3 -5.23,8.14 -8.01,12.31 -12.11,19.56 -4.1,7.23 -6.96,11.91 -11.72,19.95l-14.18 19.15z"/>
   <path class="fil25" d="M6659.27 5242.36c12.85,12.07 127.86,39.32 142.19,42.95 99.64,25.25 226.77,38 335.06,38 29.43,0 61.52,2.82 90.01,-1.49 15.05,-2.27 75.06,-0.04 85.95,-11.26 -24.42,2.53 -101.79,13.9 -121.45,-6.73 2.96,-1.23 16.16,-6.1 21.24,-7.8 10.35,-3.45 11.1,-1.93 21,-3.34l-156.6 -1.76c-34.28,-0.67 -34.34,3.26 -45.51,-9.84 -23.09,0 -93.07,-8.65 -105.81,0 -8.12,-2.89 0.91,-10 -30.78,-14.47l-70.33 -16.36c-12.35,-2.72 -20.88,-6.18 -32.56,-9.02l-52.88 -13.89c-6.39,-1.83 -13.24,-4.99 -15.15,-5.39 -11.93,-2.48 -12.77,0.8 -19.93,5.44 -17.46,11.3 13.98,-2.05 -8.72,4.93 -11.28,3.48 -25.09,2.78 -33.6,-0.04 -5.3,6.24 -10.62,-9.17 -2.13,10.07z"/>
   <path class="fil26" d="M6694.69 3235.35c-1.03,0.82 -1.92,1.31 -2.31,3.19l-4.83 6.96c17.99,-0.46 8.03,-2.52 11.07,3.27 -0.05,0.03 -11.45,0.66 -5.58,17.82 6.98,20.4 -2.47,4.84 15.85,11.96l0.19 38.71 -13.82 7.04c0,15.24 -2.5,18.67 -2.8,28.43 -0.42,13.17 2.78,11.62 2.52,27.88 -21.55,10.5 -6.19,13.8 -19.5,20.13 -9.93,-3.64 0.55,2.59 -5.11,-4.32l-5.76 -8.94 -20.79 81.12c10.53,-6.62 2.52,0.42 11.36,-9.88l37.08 -50.77c6.46,-7.86 10.34,-13.86 17.46,-21.25 21.56,-22.39 54.44,-49.86 71.78,-72.96 4.29,-13.82 2.78,-5.77 10.19,-14.22 11.81,-13.47 -5.75,-6.6 32.08,-35.05 0.16,-14.04 0.31,-28.41 0.14,-42.43 -0.29,-23.92 -5.3,-18.94 -4.16,-31.84 -34.45,4.72 -97.95,31.11 -125.06,45.15z"/>
   <path class="fil27" d="M8037.48 4720.61c20.35,3.21 -8.24,5.82 13.87,4.37 9.4,-0.62 5.3,5.93 9.42,-9.09 1.28,25.58 -0.54,5.87 13.54,14.44 0.18,30.36 6.89,12.77 7.61,45.26l13.66 -6.74c1.59,26.09 -4.31,3.76 31.44,19.55 0.69,0.31 1.81,1.04 2.8,1.34 16.21,-38.96 55.68,-96.16 66.42,-147.5 -7.78,8.14 -12.11,18.96 -15.1,30.26 -0.46,-0.77 -0.82,-1.95 -1.05,-2.48l-2.12 -4.89c-0.33,-0.68 -0.73,-1.69 -1.09,-2.38 -11.97,-22.87 -18.12,-6.07 -18.22,-27.69 -0.03,-5.96 7.51,-29.57 -19.12,-39.79l-90.78 105.68c-10.09,9.99 -8.45,5.16 -11.28,19.66z"/>
   <path class="fil28" d="M6629.72 4899.87c-5.34,-10.65 -0.47,-3.77 -9.05,-11.04 -19.22,-16.28 -89.64,-51.41 -155.44,-115.47l-36.99 -33.39c-6.72,-6.75 -10.63,-10.91 -17.8,-17.39l-9.12 -8.48c-83.46,-87.19 -135.52,-159.16 -191.56,-262.44 -53.63,-98.83 -52.8,-117.62 -86.83,-206.87 -2.97,3.6 -7.3,12.92 -16.39,10.66 -16.96,-4.22 4.23,-1.44 -13.96,-14.34 4.55,39.35 69.51,166.78 90.53,205.47 36.01,66.32 120.79,185.52 170.92,237.3 8.63,8.91 10.86,8.12 19.65,19.26 6.9,8.75 27.91,30.72 36.14,37.66 24.68,20.83 54.61,52.34 82.55,68.86 11.51,6.8 8.68,4.92 20.41,14.89l116.94 75.32z"/>
   <path class="fil29" d="M6819.75 3190.2c-1.14,12.9 3.87,7.92 4.16,31.84 0.17,14.02 0.02,28.39 -0.14,42.43 -37.83,28.45 -20.27,21.58 -32.08,35.05 -7.41,8.45 -5.9,0.4 -10.19,14.22 8.77,-2.49 18.7,-12.26 26.61,-18.7 23.64,-19.27 61.73,-46.76 87.86,-59.95 31.85,-16.08 67.26,-35.08 100.24,-47.58 11.77,-4.46 26.01,-6.22 33.84,-14.54 -37.59,-18.86 -174.88,5.21 -210.3,17.23z"/>
   <path class="fil30" d="M7794.64 4910.89l0.02 7.67c7.08,-0.82 14.47,-4.03 15.46,-4.38 6.93,-2.46 -3.21,-3.46 6.12,-2.64 -8.66,20.95 -5.02,-13.75 -6.66,17.26 -0.53,10.04 2.67,12.91 2.67,24.97 -6.94,1.83 -11.6,4.57 -17.5,7.33 7.02,27.64 7.5,20.31 3.43,17.33l-5.34 8.16c-23.89,25 -42.36,-1.12 -50.2,41.09 9.24,5.83 -10.5,6.87 13.62,2.24 39.07,-14.52 116.79,-101.8 138.95,-134.94 15.42,-33.12 43.97,-63.01 57.06,-96.06l-136.29 95.19c-10.39,6.02 -15.63,8.44 -21.34,16.78z"/>
   <path class="fil31" d="M8139.54 4595.27c26.63,10.22 19.09,33.83 19.12,39.79 0.1,21.62 6.25,4.82 18.22,27.69 0.36,0.69 0.76,1.7 1.09,2.38l2.12 4.89c0.23,0.53 0.59,1.71 1.05,2.48 2.99,-11.3 7.32,-22.12 15.1,-30.26 3.26,-19.25 21.62,-65.29 28.98,-92.23 6.72,-24.58 21.58,-80.1 21.16,-102.29 2.12,-17.5 5.02,-21.56 1.59,-39.45l-50.6 96.55c-10.19,16.94 -18.06,29.16 -28.16,45.74l-29.67 44.71z"/>
   <path class="fil18" d="M8326.07 4194.25c15.15,-6.3 10.85,-14.41 14.07,-20.71 17.1,1.54 9.94,2.38 13.45,19.78l16.39 23.5c6.41,4.65 3.23,0.83 8.67,5.23 0.07,0.06 6.16,7.4 6.17,7.41 0.39,-4.1 0.61,-10.48 1.62,-14.43 0.26,-1 0.54,-1.97 0.85,-2.91l3.68 -7.05c-0.99,-33.8 -1.02,-211.2 -13.48,-245.63 -3.64,-10.07 -2.15,-5.73 -5.67,-10.27 0,17.89 -1.63,16.67 -4.94,31.87l-40.81 213.21z"/>
   <path class="fil32" d="M7504.33 5252.02c-16.73,1.41 -47.58,10.76 -65.22,14.89 -22.03,5.15 -41.7,9.23 -65.07,12.87 -48.35,7.53 -92.33,7.77 -140.77,12.91 -9.9,1.41 -10.65,-0.11 -21,3.34 -5.08,1.7 -18.28,6.57 -21.24,7.8 19.66,20.63 97.03,9.26 121.45,6.73 44.2,10.67 238.55,-42.05 301.19,-66.16 8.32,-3.21 8.72,-3.44 17.84,-6.59 16.25,-5.62 14.45,-6.05 18.83,-13.03 -49.92,7.02 -134.91,59.52 -164.75,38.7 13.14,-6.76 8.83,-0.4 18.74,-11.46z"/>
   <path class="fil33" d="M8431.65 3756.14c8.23,-4.82 2.37,0.24 9.16,-7.57l9.96 -14.72c16.8,-25.16 22.49,-8.49 36.4,-35.99 10.36,32.95 6.53,64.69 18.38,76.82 0,-28.74 -8.71,-83.45 -17.59,-101.96 -19.39,12.98 -51.54,56.01 -56.31,83.42z"/>
  </g>
  <path class="fil34" d="M1325.88 4248.6l-173.99 0 0 -658.28c-63.5,59.69 -138.43,103.92 -224.79,132.5l0 -158.75c45.51,-14.82 94.83,-42.97 147.96,-84.67 53.34,-41.48 89.74,-89.96 109.64,-145.2l141.18 0 0 914.4z"/>
  <path id="_1" class="fil34" d="M2048.72 3914.59l0 -153.67 394.97 0 0 362.8c-38.31,37.46 -93.98,70.27 -167,98.84 -72.82,28.37 -146.69,42.55 -221.62,42.55 -95.04,0 -177.8,-19.9 -248.5,-59.9 -70.48,-40.01 -123.61,-97.37 -159.17,-171.66 -35.56,-74.3 -53.34,-155.37 -53.34,-242.79 0,-94.82 19.9,-179.07 59.48,-252.94 39.79,-73.66 97.79,-130.38 174.2,-169.75 58.42,-30.27 130.81,-45.3 217.59,-45.3 112.82,0 201.09,23.71 264.59,71.12 63.29,47.62 104.14,113.03 122.34,196.85l-182.88 34.29c-12.7,-44.66 -36.83,-80.01 -72.18,-106.05 -35.13,-25.82 -79.16,-38.73 -132.08,-38.73 -80.01,0 -143.72,25.4 -190.92,76.41 -47.2,51.01 -70.91,126.58 -70.91,226.7 0,108.16 23.92,189.23 71.76,243.2 48.04,53.98 110.7,81.07 188.38,81.07 38.31,0 76.83,-7.62 115.36,-22.65 38.73,-15.03 71.75,-33.44 99.48,-55.03l0 -115.36 -209.55 0z"/>
  <path id="_2" class="fil34" d="M3432.81 4248.6l-198.33 0 -78.53 -207.01 -364.7 0 -75.57 207.01 -194.73 0 353.06 -909.32 194.52 0 364.28 909.32zm-336.55 -360.68l-126.36 -336.55 -122.77 336.55 249.13 0z"/>
  <polygon id="_3" class="fil34" points="3528.27,4248.6 3528.27,3339.28 3804.07,3339.28 3967.06,3959.46 4128.13,3339.28 4404.57,3339.28 4404.57,4248.6 4234.39,4248.6 4233.76,3532.74 4054.47,4248.6 3877.52,4248.6 3699.09,3532.74 3698.45,4248.6 "/>
  <polygon id="_4" class="fil34" points="4588.72,4248.6 4588.72,3339.28 5261.82,3339.28 5261.82,3492.95 4772.87,3492.95 4772.87,3694.88 5227.53,3694.88 5227.53,3848.55 4772.87,3848.55 4772.87,4094.93 5279.6,4094.93 5279.6,4248.6 "/>
  <polygon class="fil34" points="8612.37,4156.84 8612.37,3247.52 8796.52,3247.52 8796.52,3605.66 9154.66,3605.66 9154.66,3247.52 9338.81,3247.52 9338.81,4156.84 9154.66,4156.84 9154.66,3759.33 8796.52,3759.33 8796.52,4156.84 "/>
  <path id="_1_4" class="fil34" d="M10348.67 4156.84l-198.33 0 -78.53 -207.01 -364.7 0 -75.57 207.01 -194.73 0 353.06 -909.32 194.52 0 364.28 909.32zm-336.55 -360.68l-126.36 -336.55 -122.77 336.55 249.13 0z"/>
  <polygon id="_2_5" class="fil34" points="10446.67,4156.84 10446.67,3247.52 10624.89,3247.52 10999.12,3856.91 10999.12,3247.52 11169.3,3247.52 11169.3,4156.84 10985.36,4156.84 10616.85,3559.09 10616.85,4156.84 "/>
  <path id="_3_6" class="fil34" d="M11786.73 3822.83l0 -153.67 394.97 0 0 362.8c-38.31,37.46 -93.98,70.27 -167,98.84 -72.82,28.37 -146.69,42.55 -221.62,42.55 -95.04,0 -177.8,-19.9 -248.5,-59.9 -70.48,-40.01 -123.61,-97.37 -159.17,-171.66 -35.56,-74.3 -53.34,-155.37 -53.34,-242.79 0,-94.82 19.9,-179.07 59.48,-252.94 39.79,-73.66 97.79,-130.38 174.2,-169.75 58.42,-30.27 130.81,-45.3 217.59,-45.3 112.82,0 201.09,23.71 264.59,71.12 63.29,47.62 104.14,113.03 122.34,196.85l-182.88 34.29c-12.7,-44.66 -36.83,-80.01 -72.18,-106.05 -35.13,-25.82 -79.16,-38.73 -132.08,-38.73 -80.01,0 -143.72,25.4 -190.92,76.41 -47.2,51.01 -70.91,126.58 -70.91,226.7 0,108.16 23.92,189.23 71.76,243.2 48.04,53.98 110.7,81.07 188.38,81.07 38.31,0 76.83,-7.62 115.36,-22.65 38.73,-15.03 71.75,-33.44 99.48,-55.03l0 -115.36 -209.55 0z"/>
  <polygon id="_4_7" class="fil34" points="12351.67,4156.84 12351.67,3247.52 13024.77,3247.52 13024.77,3401.19 12535.82,3401.19 12535.82,3603.12 12990.48,3603.12 12990.48,3756.79 12535.82,3756.79 12535.82,4003.17 13042.55,4003.17 13042.55,4156.84 "/>
 </g>
</svg>
