<?xml version="1.0" encoding="UTF-8"?>
<!DOCTYPE svg PUBLIC "-//W3C//DTD SVG 1.1//EN" "http://www.w3.org/Graphics/SVG/1.1/DTD/svg11.dtd">
<!-- Creator: CorelDRAW -->
<svg xmlns="http://www.w3.org/2000/svg" xml:space="preserve" width="158.75mm" height="39.6874mm" version="1.1" style="shape-rendering:geometricPrecision; text-rendering:geometricPrecision; image-rendering:optimizeQuality; fill-rule:evenodd; clip-rule:evenodd"
viewBox="0 0 15874.98 3968.74"
 xmlns:xlink="http://www.w3.org/1999/xlink"
 xmlns:xodm="http://www.corel.com/coreldraw/odm/2003">
 <defs>
  <style type="text/css">
   <![CDATA[
    .fil30 {fill:#590C2A}
    .fil31 {fill:#650C29}
    .fil13 {fill:#661118}
    .fil2 {fill:#740C3C}
    .fil28 {fill:#742944}
    .fil18 {fill:#770E1D}
    .fil29 {fill:#790D27}
    .fil24 {fill:#830C3B}
    .fil27 {fill:#880E28}
    .fil11 {fill:#890C35}
    .fil21 {fill:#961734}
    .fil23 {fill:#981326}
    .fil26 {fill:#9C122C}
    .fil9 {fill:#9C1886}
    .fil17 {fill:#AB132C}
    .fil1 {fill:#AB156B}
    .fil19 {fill:#B41133}
    .fil33 {fill:#B7141C}
    .fil14 {fill:#BB1428}
    .fil25 {fill:#BB196B}
    .fil7 {fill:#BD1662}
    .fil5 {fill:#C2155D}
    .fil20 {fill:#C31653}
    .fil16 {fill:#CC1444}
    .fil15 {fill:#D41655}
    .fil6 {fill:#D8174A}
    .fil32 {fill:#DA185A}
    .fil12 {fill:#DC1654}
    .fil10 {fill:#E20821}
    .fil4 {fill:#E60823}
    .fil22 {fill:#E71846}
    .fil0 {fill:#E90B2A}
    .fil3 {fill:#F4123D}
    .fil8 {fill:#F41544}
    .fil34 {fill:black;fill-rule:nonzero}
   ]]>
  </style>
 </defs>
 <g id="Слой_x0020_1">
  <metadata id="CorelCorpID_0Corel-Layer"/>
  <g id="_2228942345616">
   <path class="fil0" d="M9059.4 2196.53c8.64,5.31 3.8,1.1 10.31,8.79 0.56,0.68 5.56,8.81 6.33,10.28l29.34 68.6c10.82,35.64 17.32,73.97 18.25,113.9 2.28,99.27 -17.72,139.63 -43.55,220.91 14.69,-3.64 7.9,-1.22 13.68,-11.87l8.29 -20.09c6.56,-16.86 4.09,-25.91 14.79,-39.03 0.86,22.52 -4.39,18.48 -0.12,33.36 1.33,4.6 5.06,12.88 5.22,13.6 1.66,7.41 -1.83,7.77 -1.7,8.51l41.72 0.4c21.52,47.21 24.62,1.93 24.34,79.43 -10.6,9.68 3.68,-17.57 8,15 2.74,39.51 -8.39,15.93 -9.3,36.93 -0.75,17.4 3.16,-4.14 0.41,15.8 9.63,-4.34 16.01,-12.78 22.89,-21.52 107.91,-137.06 163.78,-276.82 196.92,-447.84 17.65,-91.13 8,-215.96 -18.72,-307.91 -37.84,-130.23 -100.65,-230.66 -222.95,-292.1 -122.53,-61.57 -292.97,-15.79 -349.28,114.51 -16.29,37.68 -28.1,95.48 -12.86,146.23 6.26,20.86 16.18,43.89 26.74,58.44 4.25,5.84 12.47,16.25 18.18,22.37 6.79,7.25 15.49,13.66 23.47,21.14 26.9,25.25 164.98,83.42 189.6,152.16z"/>
   <path class="fil1" d="M6504.39 2137.84c1,0.91 5.54,3.9 6.3,4.18l7.14 0.4c18.44,2.91 16.17,15.46 15.87,35.66 32.66,0.77 11.24,2.44 24.7,12.56 2.68,2.03 -3.08,6.26 11.73,1.87l8.03 -4.23c0.44,-1.28 1.71,-1.29 2.69,-1.67 -7.45,-19.63 -7.49,6.14 -8.07,-20.03 -0.54,-24.37 -0.07,-12.46 8.66,-15.82 14.63,0.34 8.47,50.96 8.69,60.33l32.17 0.47c-0.48,43.41 8.59,12.27 12.44,44.39 0.34,2.85 -0.13,12.85 -0.07,16.54 16.32,9.91 17.63,-1.9 20.02,28.39l-19.19 5.04c1.02,38.8 21.8,29.3 30.1,53.21 3.07,8.8 1.91,16.32 1.9,26.01 26.66,1.11 9.66,4.46 18.34,-14.36 0.77,31.09 3.77,47.95 12.04,73.25l2.3 5.88c0.34,1 0.79,2.01 1.1,3.03 6.19,19.95 10.36,24.09 14.38,46.46l24.38 64.72c6.93,15.12 3.91,2.02 8.89,23.92 2.49,10.97 3.96,15.83 7.25,25.29l76.11 154.4c0.37,0.57 1.14,1.52 1.44,2.11 0.3,0.55 0.85,1.64 1.1,2.22 4.81,11.93 4.21,20.83 13.01,33.07l9.03 12.5c0.33,0.61 0.83,1.77 1.15,2.42l34.57 58.57c27.22,52.25 38.54,46.29 45.28,62.16 3.67,8.68 9.64,10.25 15.23,18.61 9.99,14.97 16.39,16.62 29.28,33.33l1.8 2.39c6.39,13.51 -10.22,-3.14 0.04,6.17 11.14,8.88 4.16,1.17 9.88,10.82 12.5,21.04 10.88,-2.44 18.19,31.09l76.95 88.11c0.62,0.54 1.44,1.44 2.09,1.95 0.64,0.5 1.47,1.38 2.15,1.84 5.66,3.79 -3.94,3.05 14.98,4.86 3.76,0.37 12.81,-0.12 17.1,-0.07 -0.14,15.77 -0.23,19.64 7.44,31.23 0.27,0.41 0.98,1.34 1.23,1.74 0,0.03 2.77,5.55 2.94,5.86 8.81,16.41 25.27,28.45 40.02,39.56l9.75 6.13c0.24,0.09 1.24,0.22 1.49,0.29 9.94,2.89 17.43,15.86 28.87,25.92l19.99 16.53c15.05,9.92 15.83,23.96 33.97,30.86 7.56,2.87 14.48,3.05 20.5,8.09 4.73,3.95 2.54,3.11 7.15,9.05 2.26,2.92 2.68,3.73 5.39,6.77l6.02 6.1c10.63,9.33 14.72,7.72 21.84,19.97 -29.94,-0.37 -10.43,-14.81 -43.53,-15.63 -0.33,57.91 -17.07,-8.91 -15.77,49.3 -7.8,-2.7 -10.98,-4.86 -20.57,-3.7 20.18,2.94 9.14,-7.69 12.98,13.87 2.4,7.52 -2.97,-0.55 4.05,6.14 24.88,23.71 214.87,110.07 259.64,125.14 18.52,6.24 27.09,13.26 47.71,14.73 -9.79,-22.17 -3.66,-4.42 2.45,-11.61 9.81,3.25 25.72,4.06 38.72,0.05 26.16,-8.04 -10.07,7.34 10.05,-5.68 8.25,-5.35 9.22,-9.13 22.97,-6.27 2.2,0.46 10.09,4.1 17.45,6.21l60.94 16.01c13.46,3.27 23.29,7.26 37.52,10.39l81.05 18.85c36.51,5.16 26.11,13.35 35.47,16.68 14.68,-9.97 95.32,0 121.93,0l-32.96 0.45c-3.91,-10.4 0.23,-12.22 -6.96,-25.61 -3.46,-6.42 -4.18,1.28 -7.53,-13.23 -4.32,-18.81 0.83,-11.98 2.57,-14.77 21.86,2.28 6.16,-4.49 13,8.3 4.01,7.49 1.82,11.18 -0.33,15.96l12.18 -8.13c0,14.39 -4.6,20.23 7.57,20.23 12.16,-0.01 7.54,-5.81 7.64,-20.47l20.78 -10.37 -8.12 -16.1c-36.92,2.76 -12.64,-2.19 -36.49,-4.31l-4.31 -9.22c-2.95,-7.37 0.6,-2.83 -3.8,-10.89 -13.92,-0.19 -20.11,0.23 -29.31,3.89l-0.49 -25.25c4.51,-3.69 0.25,-2.35 10.53,-7.55 16.62,-8.4 19.4,-0.07 51.2,-0.16 -8.46,-4.72 -98.79,-19.58 -114.49,-23.07 -235.81,-52.46 -454.21,-178.64 -627.26,-346.33 -153.86,-149.11 -250.33,-295.45 -336.79,-498.8 -22.8,-53.62 -44.86,-126.66 -59.53,-184.27l-5.52 -18.54c-3.04,-6.69 -1.83,-4.73 -5.15,-8.81l-1.94 12.81c-0.23,-1.34 9.41,-4.86 -4.38,-0.45 -7.84,2.5 -3.06,-1.44 -5,3.91l-0.31 -17.19c-4.38,-15.31 -14.38,-22.34 -28.7,-25.48l-0.23 -24.18 -28.31 0.03c-0.09,-17.17 5.84,-18.14 3.73,-28.45 -0.13,-0.67 -0.6,-1.8 -0.81,-2.47l-13.64 -29.83c-35.39,-0.64 -26.02,2.15 -31.62,6.5 4.14,28.52 -6.88,10.21 20.45,16.21 0.01,16.47 0.4,14.44 -9.1,20.65 -2.25,-16.74 -0.33,-13.68 -16.53,-16.59l-0.07 -20.27 -12.52 -8c-10.35,-9.28 -8.15,-34.82 -8.23,-48.2l-11.33 2.31c4.14,-5.24 9.59,10.2 6.36,-18.94 -1.47,-13.35 2.34,-4.85 -7.36,-11.18 20.82,8.64 14.66,-3.66 15.07,-19.29 -19.92,-0.33 -10.34,3.51 -18.37,-9.47l-2.61 -5.41c-5.36,-10.85 -7,-15.07 -7.39,-29.6l-19.13 -1.12c11.89,-0.33 0.25,2.88 11.01,-7.28 -1.2,-4.14 -3.99,-8.98 -4.45,-10.27 -2.34,-6.58 -0.83,0.14 -2.76,-9.55 -15.29,-77.46 -11.57,-155.8 -9.23,-233.08l-9.8 -71.56c-10.44,2.57 -20.18,23.45 -24.34,31.25l-20.65 -0.57 2.67 -9.57c3.71,-13.05 4.62,2.23 1.77,-6.5l-40.42 -0.77c0.12,-20.55 6.27,-16.78 -4.2,-31.77 -38.8,0.39 4.89,8.58 -28.39,11.77l-3.73 -56.69c3.4,-50.76 27.41,-107.95 36.16,-162.19 -10.91,8.09 -8.45,5.11 -14.1,26.58l-36.93 161.67c-4.13,24.89 -5.28,49.8 -9.18,71.91 -12.56,71.25 -12.61,153 -12.78,226.51 -0.07,31.5 4.06,49.22 4.06,76.24z"/>
   <path class="fil2" d="M6941.28 1450.89l-40.1 88.92c-7.47,30.74 -20.38,62.78 -28.93,94.82 -48.42,181.59 -66.95,353.3 -50.41,542.1 3.46,39.47 7.23,72.84 13.11,110.98 3.26,21.18 18.8,81.47 16.7,97.7 3.32,4.08 2.11,2.12 5.15,8.81l5.52 18.54c14.67,57.61 36.73,130.65 59.53,184.27 86.46,203.35 182.93,349.69 336.79,498.8 173.05,167.69 391.45,293.87 627.26,346.33 15.7,3.49 106.03,18.35 114.49,23.07 77.08,-0.83 147.17,14.21 230.07,7.51 37.71,-3.05 72.78,-4.12 108.34,-8.49 39.37,-4.84 73.79,-11.25 111.18,-16.39 1.58,-0.69 149.47,-36.69 211.99,-60.03 11.86,-4.44 171.58,-72.14 176.67,-92.33 0.36,-1.48 1.47,-1.61 2.15,-2.48 -27.79,5.34 -5.05,4.14 -15.69,-2.58 9.03,-48.64 30.31,-18.54 57.84,-47.35l6.16 -9.4c4.69,3.43 4.13,11.88 -3.96,-19.97 6.8,-3.18 12.17,-6.34 20.17,-8.45 0,-13.9 -3.69,-17.21 -3.08,-28.77 1.89,-35.74 -2.3,4.25 7.68,-19.89 -10.75,-0.95 0.93,0.2 -7.05,3.04 -1.14,0.4 -9.66,4.1 -17.82,5.05l-0.02 -8.84c-16.6,-2.62 -39.54,16.54 -70.25,31.89 -182.58,91.2 -392.6,134.36 -607.05,135.15 -153.91,0.57 -302.57,-34.3 -445.58,-81.64 -63.34,-20.96 -122.34,-51.69 -181.66,-81.96 -26.57,-13.57 -21.43,-17.69 -37.87,-16.14l-134.75 -86.8c-13.52,-11.49 -10.26,-9.32 -23.52,-17.16 -32.2,-19.03 -66.69,-55.34 -95.13,-79.35 -9.48,-8 -33.69,-33.31 -41.65,-43.4 -10.12,-12.83 -12.69,-11.92 -22.64,-22.19 -57.77,-59.67 -155.46,-197.03 -196.96,-273.45 -24.22,-44.59 -99.08,-191.43 -104.32,-236.78 -1.49,-21.41 -24.26,-80.24 -31.43,-108.3 -52.08,-204.05 -55.07,-412.83 -6.08,-619.72 8.41,-35.53 18.14,-73.04 29.06,-108.01 11.03,-35.34 28.48,-67.95 36.78,-104.62 -0.88,1.1 -2.83,2.09 -3.42,2.51 -0.6,0.42 -3.01,3.56 -3.56,2.5 -0.56,-1.09 -2.72,1.39 -3.71,2.5z"/>
   <path class="fil3" d="M7960.34 736.48c-42.25,-1.13 -222.22,78.31 -267.48,104.57 -50.11,29.07 -67.39,37.33 -115.56,71.09 -16.65,11.66 -17.87,8.36 -18.47,17.95 -8.01,14.66 -35.25,32.44 -56.71,48.94l-80.86 69.1c-23.8,21.51 -13.44,19.4 -31.91,45.05l-11.91 16.49c-4.31,4.79 -2.93,2.71 -6.37,5.79 -13.07,11.72 -10.39,8.34 -11.55,29.38 -9.65,-1.9 -5.44,-4.93 -19.85,11.92l-15.59 23.31c-2.36,27.73 -4.61,22.99 -3.99,62.07l27.88 0.17 0.07 52.71c28.54,0.66 8.68,0.66 17.55,6.76l12.05 8.21c0.54,0.31 1.87,0.78 2.71,1.32l5.99 26.54c12.58,7.68 10.36,7.23 10.24,26.28l14.6 -0.66c12.02,-6.9 29.31,-26.46 44.14,-38.08 15.24,-11.94 30.92,-24.15 48.7,-36.36 29.55,-20.31 81.38,-53.77 113.46,-63.99 31.24,-16.18 104.42,-46.59 144.12,-52.03 40.81,-13.85 199.02,-41.59 242.34,-19.86 32.86,0 109.61,-30.32 191.67,-32.4l109.6 -4.24c27.46,0.04 84.7,11.9 105.3,4.5l10.07 -1.7 -6.01 -9.09c-17.69,-0.55 -17.75,-4.46 -36.5,-4.84l-6.75 -14.34c-0.18,-1.37 -0.69,-1.81 -1.17,-2.65 -1.57,18.96 0.19,6.55 -4.25,12.72l-24.33 -0.61 -18.59 -22.02c-4.28,-4.81 -0.88,-1.66 -5.62,-6.59 -10.71,-11.13 -6.1,3.24 -12.6,-12.34l40.45 0.02c-0.2,-46.05 -13.92,-38.93 -20.58,-39.53l0 -17.67c13.04,-4.64 1.43,6.83 15.78,-26.51 -22.87,0 -19.56,-2.97 -36.34,0.06l-0.05 -18.59c16.26,-1.32 12.19,4.9 11.64,-17.56 -6.79,3.34 -4.95,8.6 -12.05,16.23l0 -16.64 -26.93 0.15c-0.68,-0.95 -1.33,-2.37 -1.79,-2.99l-3.79 -5.19c-5.98,-6.96 3.08,-0.53 -6.59,-5.08l0.38 5.91c-0.06,0.15 -0.39,1.13 -0.49,1.26l-6.84 -0.47c-0.52,-0.26 -1.52,-1.1 -2.11,-1.38 -7.62,-3.7 -0.16,-4.74 -15.8,-4.9 0.85,-0.65 2.3,-1.27 2.76,-1.63l5.8 -6.12c-0.03,-1.21 -7.36,-7.37 -8.77,-8.62l11.86 -16.7c-3.35,-0.8 0.12,1.75 -3.26,1.36 -17.71,-2.07 2.18,-20.84 -25.44,-44.45 -31.01,-26.53 -2.55,-40.92 -47.91,-41.45l-0.24 -24.96c-7.57,-4.46 -1.69,-3.37 -16.11,-3.42 0.13,-51.78 -6.39,-22.15 -9.98,-35.44 -0.39,-1.45 -1.97,-1.02 -2.86,-1.7l20.22 -6.72c-35.27,-0.35 -13.11,1.93 -26.03,7.35l-9.77 1.08c-0.23,0.03 -1.19,0.18 -1.4,0.21l-55.44 -2.81c5.12,-5.03 1.15,1.66 5.18,-6.86 2.54,-5.37 2.84,-10.93 3.28,-19.96 -18.46,1.02 -19.75,0.28 -32.05,3.86 -24.37,7.09 -65.1,17.48 -89.15,16.79z"/>
   <path class="fil4" d="M7960.34 736.48c24.05,0.69 64.78,-9.7 89.15,-16.79 12.3,-3.58 13.59,-2.84 32.05,-3.86 -0.44,9.03 -0.74,14.59 -3.28,19.96 -4.03,8.52 -0.06,1.83 -5.18,6.86l55.44 2.81c0.21,-0.03 1.17,-0.18 1.4,-0.21l9.77 -1.08c12.92,-5.42 -9.24,-7.7 26.03,-7.35l-20.22 6.72c0.89,0.68 2.47,0.25 2.86,1.7 3.59,13.29 10.11,-16.34 9.98,35.44 14.42,0.05 8.54,-1.04 16.11,3.42l0.24 24.96c45.36,0.53 16.9,14.92 47.91,41.45 27.62,23.61 7.73,42.38 25.44,44.45 3.38,0.39 -0.09,-2.16 3.26,-1.36l-11.86 16.7c1.41,1.25 8.74,7.41 8.77,8.62l-5.8 6.12c-0.46,0.36 -1.91,0.98 -2.76,1.63 15.64,0.16 8.18,1.2 15.8,4.9 0.59,0.28 1.59,1.12 2.11,1.38l6.84 0.47c0.1,-0.13 0.43,-1.11 0.49,-1.26l-0.38 -5.91c9.67,4.55 0.61,-1.88 6.59,5.08l3.79 5.19c0.46,0.62 1.11,2.04 1.79,2.99l26.93 -0.15 0 16.64c7.1,-7.63 5.26,-12.89 12.05,-16.23 0.55,22.46 4.62,16.24 -11.64,17.56l0.05 18.59c16.78,-3.03 13.47,-0.06 36.34,-0.06 -14.35,33.34 -2.74,21.87 -15.78,26.51l0 17.67c6.66,0.6 20.38,-6.52 20.58,39.53l-40.45 -0.02c6.5,15.58 1.89,1.21 12.6,12.34 4.74,4.93 1.34,1.78 5.62,6.59l18.59 22.02 24.33 0.61c4.44,-6.17 2.68,6.24 4.25,-12.72 0.48,0.84 0.99,1.28 1.17,2.65l6.75 14.34c18.75,0.38 18.81,4.29 36.5,4.84l6.01 9.09 -10.07 1.7c5.58,6.8 2.15,6.73 25.26,11.16 12.65,2.42 18.02,2.82 30.55,5.72 32.13,7.46 73.71,27.4 101.63,44.38 15.7,9.57 30.56,18.83 45.52,27.49 204.01,118.01 457.87,-83.24 349.51,-256.23 -5.63,-8.98 -9.28,-12.6 -15.84,-20.66 -18.07,-22.23 -12.41,-18.49 -36.06,-36.95 -106.07,-82.83 -176.18,-119.84 -309.43,-161.03 -152.12,-47.03 -359.52,-60.52 -523.35,-27.52l-117.96 29.11z"/>
   <path class="fil5" d="M7829.54 3112l-3.43 -16.24 -27.06 -4.27c12.29,-6.69 18.61,-4.33 31.52,-7.46 16.84,-4.1 6.28,-5.67 28.3,-16.39l0.14 -57.58 -15.73 0 -1.42 -55.97 -31.18 4.36c-1.23,-31.6 7.37,-22.37 -4.3,-45.18l9.6 -2.66c-4.94,-6.12 -0.72,-2 -7.14,-7.51 -12.38,-10.64 -78.08,-50.34 -116.11,-83.24 -117.65,-101.82 -210.27,-213.23 -273.27,-367.61 -41.52,-101.73 -71.39,-228.94 -73.51,-354.15 -2.04,-120.87 11.31,-173 38.68,-279.37 7.86,-30.55 20.95,-54.15 27.98,-80.66l-3.61 -8.67c-14.97,33.44 -31.15,61.8 -45.55,96.14 -13.43,32.04 -26.02,70.76 -34.64,102.36 -21.21,77.65 -33.74,149.36 -39.51,235.17 -5.69,84.93 -2.5,178.8 13.43,260.5 21.99,112.71 42.89,134.29 65.53,210.73 -16.48,-13.04 -29.97,-46.71 -43.34,-67.26 -3.97,15.14 6.42,2.77 -6.82,11.45 -12.31,-21.64 -29.35,-43.55 -45.4,-69.03 -11.46,-18.17 -27.16,-48.51 -38.32,-71 -66.58,-134.23 -103.88,-298.96 -99.71,-449.94 1.35,-48.79 14.29,-66.07 -9.77,-94.51l-38.3 -0.48c0,31.26 -0.39,27.4 8.01,32.05l0 12.41 -20.06 -0.26c-0.08,-32.62 -8,-9.06 -8.39,-70.75 -0.29,-45.22 -4.53,-54.11 -4.97,-75l-15.6 1.95c0,-3.27 -0.43,-15.23 0.24,-17.47l7.9 -6.87c-0.19,-14.94 -2.39,-21.5 0.11,-28.98 6.93,-20.77 5.72,0.41 4.42,-24.95 -0.78,-15.05 3.91,-45.92 7.37,-59.55l23.99 -85.79c8.81,-28.18 1.98,-24.66 -1.23,-27.81l-33.27 120.81c-24.3,96.33 -24.8,141.93 -31.84,231.78 -8.47,107.97 0.77,211.07 21.52,315.55 19.69,99.16 69.77,249.67 122.98,339.34 19.85,33.46 34.76,62.07 56.08,93.99 11.29,16.92 19.68,30.17 31.38,45.67 35.46,46.93 60.65,80.05 103.86,123.24 53.67,53.66 100.05,97.41 164.09,140.09 16.39,10.93 28.22,20.22 45.39,31.67 45.33,30.23 98.86,61.01 148.36,82.8 26.98,11.88 84.59,42.77 112.6,44.55z"/>
   <path class="fil2" d="M7412.61 1738.07c-7.03,26.51 -20.12,50.11 -27.98,80.66 -27.37,106.37 -40.72,158.5 -38.68,279.37 2.12,125.21 31.99,252.42 73.51,354.15 63,154.38 155.62,265.79 273.27,367.61 38.03,32.9 103.73,72.6 116.11,83.24 6.42,5.51 2.2,1.39 7.14,7.51l133.08 62.93c183.78,76.06 324.19,79.9 522.27,66.29l12.68 -5.16 -11.05 -5.34c4.17,-1.86 6.17,-9.22 23.98,-9.49 -0.27,-54.12 15.86,-3.37 14.74,-58.39l28.25 -11.68 0.03 -27.77 -15.43 0.61c-42.8,6.9 -18.22,-1.29 -42.21,-6.42 -8.91,-1.9 -47.74,0.22 -59.64,0.33l10.42 21.08c-36.31,27.61 24.94,-11.45 -19.79,11.83 -33.61,17.5 -52.06,8 -77.82,6.07 1.65,-5.11 2.62,-14.02 14.96,-14.83 -24.38,-0.27 -85.28,0.29 -105.45,-7.97 -0.22,-0.09 -1.34,-0.82 -1.61,-0.9l-7.97 0.33c-12.18,0.66 -13.92,-2.47 -21.59,3.63 -0.65,0.5 -1.52,1.63 -2.08,2.17l-4.02 5.37c-21.54,-0.04 -31.3,2.19 -48.78,2.53 -0.53,-24.55 4.45,-9.94 -15.82,-20.54 -20.64,-10.79 -6.99,1.81 -17.42,-19.09 -24.19,-0.21 -23.17,-2.35 -42.39,-6.13 -14.01,-2.77 -26.04,1.58 -46.38,1.55 -0.25,-13.19 0.06,-12.02 -3.94,-20.68 -32.6,0 -22.81,-15.77 -28.28,-0.4 -5.92,-10.2 -5.14,-8.13 -0.52,-19.12 -11.68,-5.27 -4.58,5.53 -13.1,-5.52l-1.8 -3.71c-8.03,-13.49 -3.12,-7.1 -8.65,-8.71 -13.18,-3.83 4.33,-1.83 -11.16,1.45 -12.19,2.58 -6.95,8.79 -16.59,-4.66 4.07,-11.87 10.67,-4.62 14.92,-15.59l-46.01 -35.11c-0.58,-0.6 -1.29,-1.57 -1.9,-2.15l-12.57 -7.98 -1.1 -28.38c-5.99,-3.08 -6,-1.69 -12.64,-5.52l-15.41 -12.1c4.67,0.08 16.42,0.84 20.33,-0.27 13.04,-3.69 -0.39,2.05 7.31,-4.37 7.73,-6.44 9.25,-20.21 42.34,-18.31 -3.19,-2.77 -1.77,-2.04 -7.2,-4.96 -5.02,-2.71 -2.38,-1.25 -8.32,-3.84l-56.14 -24.98c-25.04,-12.52 -46.8,-25.42 -69.5,-39.99l-121.51 -93.44c-78.05,-77.24 -133.6,-154.85 -180.79,-253.17 -11.75,-24.5 -20.97,-50.25 -30.96,-74.46 -61.04,-147.92 -58.41,-398.49 3.93,-555.6 5.14,-12.96 10.85,-25.25 15.69,-37.04 5.78,-14.09 13.23,-25.67 16.81,-38.69 -22.91,18.08 -37.27,43.88 -54.22,70.59 -15.44,24.33 -24.12,59.75 -43.35,83.16z"/>
   <path class="fil6" d="M7088.39 1542.51c3.21,3.15 10.04,-0.37 1.23,27.81l-23.99 85.79c-3.46,13.63 -8.15,44.5 -7.37,59.55 1.3,25.36 2.51,4.18 -4.42,24.95 -2.5,7.48 -0.3,14.04 -0.11,28.98l-7.9 6.87c-0.67,2.24 -0.24,14.2 -0.24,17.47l15.6 -1.95c0.44,20.89 4.68,29.78 4.97,75 0.39,61.69 8.31,38.13 8.39,70.75l20.06 0.26 0 -12.41c-8.4,-4.65 -8.01,-0.79 -8.01,-32.05l38.3 0.48c24.06,28.44 11.12,45.72 9.77,94.51 -4.17,150.98 33.13,315.71 99.71,449.94 11.16,22.49 26.86,52.83 38.32,71 16.05,25.48 33.09,47.39 45.4,69.03 13.24,-8.68 2.85,3.69 6.82,-11.45 -55.11,-100.7 -112.81,-264.99 -86.6,-399.3 6.78,-34.7 8.78,-70.95 16.01,-106.23 7.57,-36.93 18.08,-68.11 27.87,-98.18 15.01,-46.11 33.99,-89.87 54.64,-132.07 5.9,-12.07 17.47,-26.85 21.17,-41.41 7.73,-30.71 24.89,-39.18 -6.84,-39.57 4.45,-40.46 3.61,11.13 8.04,-13.12 -0.57,-32.37 -4.2,-0.89 -6.23,-24.49 -0.84,-9.91 3.24,-11.24 2.56,-27.81 -0.6,-14.47 -3.01,-11.41 -3.86,-28.82 -1.31,-26.43 3.86,-24.87 -7.94,-48.58 -0.4,-0.81 -1,-1.8 -1.39,-2.63 -0.41,-0.84 -0.96,-1.84 -1.34,-2.71 -12.15,-28.31 0.9,-67.73 -9.63,-83.54l8.86 -4.3c0.83,-0.37 2.13,-0.85 2.9,-1.18 22.32,-9.31 -5.63,4.99 8.25,-3.06 -0.01,-6.62 -0.55,-13.37 0.72,-19.87 2.34,-12 7.61,-20.83 15.16,-24.74 -10.73,-6.15 -7.09,0.25 -14.88,-8.93 -15.85,-18.73 13.25,-42.68 37.39,-66.94 12.92,-12.98 14.75,-10.58 21.4,-26.09l-14.6 0.66c0.12,-19.05 2.34,-18.6 -10.24,-26.28l-5.99 -26.54c-0.84,-0.54 -2.17,-1.01 -2.71,-1.32l-12.05 -8.21c-8.87,-6.1 10.99,-6.1 -17.55,-6.76l-0.07 -52.71 -27.88 -0.17c-0.62,-39.08 1.63,-34.34 3.99,-62.07l15.59 -23.31c14.41,-16.85 10.2,-13.82 19.85,-11.92 1.16,-21.04 -1.52,-17.66 11.55,-29.38 3.44,-3.08 2.06,-1 6.37,-5.79l11.91 -16.49c18.47,-25.65 8.11,-23.54 31.91,-45.05l80.86 -69.1c21.46,-16.5 48.7,-34.28 56.71,-48.94 -18.28,3.28 -11.28,1.86 -24.65,12.08 -6.92,5.29 -10.08,7.89 -18.21,13.99l-142.67 125c-108.29,107.93 -212.52,273.61 -265.24,416.1 -3.43,9.26 -12.91,40.02 -19.67,45.25z"/>
   <path class="fil7" d="M6573.32 1574.93c-8.75,54.24 -32.76,111.43 -36.16,162.19l3.73 56.69c33.28,-3.19 -10.41,-11.38 28.39,-11.77 10.47,14.99 4.32,11.22 4.2,31.77l40.42 0.77c2.85,8.73 1.94,-6.55 -1.77,6.5l-2.67 9.57 20.65 0.57c4.16,-7.8 13.9,-28.68 24.34,-31.25l9.8 71.56c-2.34,77.28 -6.06,155.62 9.23,233.08 1.93,9.69 0.42,2.97 2.76,9.55 0.46,1.29 3.25,6.13 4.45,10.27 -10.76,10.16 0.88,6.95 -11.01,7.28l19.13 1.12c0.39,14.53 2.03,18.75 7.39,29.6l2.61 5.41c8.03,12.98 -1.55,9.14 18.37,9.47 -0.41,15.63 5.75,27.93 -15.07,19.29 9.7,6.33 5.89,-2.17 7.36,11.18 3.23,29.14 -2.22,13.7 -6.36,18.94l11.33 -2.31c0.08,13.38 -2.12,38.92 8.23,48.2l12.52 8 0.07 20.27c16.2,2.91 14.28,-0.15 16.53,16.59 9.5,-6.21 9.11,-4.18 9.1,-20.65 -27.33,-6 -16.31,12.31 -20.45,-16.21 5.6,-4.35 -3.77,-7.14 31.62,-6.5l13.64 29.83c0.21,0.67 0.68,1.8 0.81,2.47 2.11,10.31 -3.82,11.28 -3.73,28.45l28.31 -0.03 0.23 24.18c14.32,3.14 24.32,10.17 28.7,25.48l0.31 17.19c1.94,-5.35 -2.84,-1.41 5,-3.91 13.79,-4.41 4.15,-0.89 4.38,0.45l1.94 -12.81c2.1,-16.23 -13.44,-76.52 -16.7,-97.7 -5.88,-38.14 -9.65,-71.51 -13.11,-110.98 -16.54,-188.8 1.99,-360.51 50.41,-542.1 8.55,-32.04 21.46,-64.08 28.93,-94.82 -0.92,0.98 -2.43,2.35 -2.91,2.79l-6.06 5.57c-0.32,-28.51 5.37,-12.63 -3.13,-30.04 -8.46,-17.33 -4.97,-15.17 -0.7,-32.42l-16.06 -8.11 -0.23 -40.56c-0.87,-0.45 -9.64,-4.74 -9.85,-4.91 -0.63,-0.5 -1.52,-1.38 -2.11,-1.93 -0.61,-0.56 -1.36,-1.55 -1.94,-2.15l-7.49 -8.65c-0.63,-0.55 -1.74,-1.33 -2.35,-1.82 -4.44,-3.45 -2.59,5.9 -5.49,-3.3 -0.45,-1.43 -2.11,-0.9 -3.11,-1.57 -0.38,-99.99 3.72,-62.17 -11.46,-79.5l-5.02 -6.35c-0.36,-0.28 -1.37,-0.8 -1.78,-1.06 -10.2,-6.74 -12.06,-0.21 -14.19,-10.43l-0.19 -55.45 -28.29 0.08c-0.31,-18.61 -0.15,-12.26 -10.13,-22.35l-11.88 -13.18c-0.3,-1.38 -1.26,-1.61 -1.92,-2.37 3.85,-14.18 4.21,-7.25 6.84,-17.88 9.37,-37.93 27.54,-60.89 56.58,-98.3 7.71,-9.94 13.63,-17.71 21.69,-26.84 11.45,-12.97 20.17,-30.47 40.64,-52.61 9.34,-10.09 14.52,-13.57 21.18,-27.43 -20.32,8.27 -40.39,40.13 -55.51,58.03 -69.36,82.07 -178.02,253.55 -216.82,350.95 -9.26,23.22 -64.33,142.57 -56.17,166.91z"/>
   <path class="fil8" d="M7343.88 654.31c-8.84,16.15 -18.44,15.53 -41.3,28.72l-103.28 66.65c-14.16,9.04 -7.96,0.93 -10.19,25.5l-23.16 9.51c-8.83,6.18 -11.33,9.77 -20.28,16.26 -27.5,19.95 -21.4,20.06 -41.37,35.66 -0.66,0.53 -1.68,1.19 -2.35,1.72l-47.68 49.6c-0.7,0.59 -1.8,1.12 -2.55,1.67 -1,0.72 -4.4,2.21 -5.39,2.91 -19.45,13.75 -13.37,26.83 -13.38,63.29 -17.94,0.96 -12.08,-9.1 -12.28,43.24 14.46,8.04 9.39,-3.74 22.04,9.06 9.25,9.36 5.92,14.55 5.83,31.5 4.26,11.68 -2.08,7.79 19.84,7.85 0.09,64.11 10.13,7.71 12.68,44.87 0.95,13.86 -1.3,16.5 -3.83,21.28 21.88,8.45 13.14,-8.65 16.18,15.21 -0.73,22.43 5.73,16.56 -16.15,17.22 0.34,18.75 0.47,5.97 3.48,11.31 6.45,11.51 4.1,-11.77 7.27,12.3 1.39,10.57 -6.63,12.84 -10.54,28.12 0.26,-0.01 5.46,-1.19 7.31,-1.92 92.54,-135.96 231.12,-273.46 372.09,-363.6 71.67,-45.81 153.66,-93.03 243.86,-125.95 71.95,-26.26 211.69,-72.78 297.81,-73.36 4.76,-2.75 0.85,-1.22 10.23,-4.22 15.41,-4.93 38.82,-4.66 55.49,-5.41 -10.22,-1.64 -38.87,-2.74 -47.99,-10.6 10.06,-9.96 1.89,-6.68 20.75,-8.33l76.14 -0.2 0.07 -13.52c-20.64,0.89 -5.57,-2.57 -6.63,7.4l-0.25 4.77c-9.67,-4.27 -54.15,-8.12 -70.18,-8.11l0 -20.23c-24.94,-0.23 -24.85,-1.41 -32.12,-18.46l28.34 0c-8.69,-3.17 -6.63,-0.53 -15.17,-2.34 -8.05,-1.7 -4.8,-1.09 -9.71,-2.68l-43.47 -5.45c-23.36,0.26 -18.72,4.27 -26.94,8.54 -12.62,6.55 -26.58,3.58 -41.65,3.49l-5.34 -11.73c-1.93,-5.43 -1.65,-5.86 -3.28,-12.77 -14.05,-1.19 -24.43,-6.49 -36.78,-7.72 -6.89,-0.68 -11.22,-0.61 -17.72,0.92l-13.85 6.25c4.24,0 21.6,-0.65 24.36,-0.11 12.48,2.48 7.82,-2.4 12.18,8.34 -0.44,0.16 -1.21,-0.22 -1.38,-0.27 -35.61,-8.73 -25.34,1.49 -47.41,0.39 -25.91,-3.17 -5.08,-2.54 -13.2,-7.21 -3.78,-2.17 0.34,-1.42 -7.98,-4.16 -4.58,-1.52 -1.69,-0.42 -6.7,-1.41 -11.98,-2.35 -22.39,-3.56 -37.13,-3.6 4.64,-11.25 0.14,-4.64 12.31,-8.21 15.48,-4.54 42.35,-9.39 61.88,-19.43 9.43,-4.84 14.15,-6.09 22.37,-10.39l-15.33 -1.57c-78.66,-6.96 -350,99.06 -428.54,138.32l-41.02 20.09c-14.31,8.69 -8.31,-0.18 -9.01,11z"/>
   <path class="fil9" d="M7265.27 3391.82c-3.84,-21.56 7.2,-10.93 -12.98,-13.87 9.59,-1.16 12.77,1 20.57,3.7 -1.3,-58.21 15.44,8.61 15.77,-49.3 33.1,0.82 13.59,15.26 43.53,15.63 -7.12,-12.25 -11.21,-10.64 -21.84,-19.97l-6.02 -6.1c-2.71,-3.04 -3.13,-3.85 -5.39,-6.77 -4.61,-5.94 -2.42,-5.1 -7.15,-9.05 -6.02,-5.04 -12.94,-5.22 -20.5,-8.09 -18.14,-6.9 -18.92,-20.94 -33.97,-30.86l-19.99 -16.53c-11.44,-10.06 -18.93,-23.03 -28.87,-25.92 -0.25,-0.07 -1.25,-0.2 -1.49,-0.29l-9.75 -6.13c-14.75,-11.11 -31.21,-23.15 -40.02,-39.56 -0.17,-0.31 -2.94,-5.83 -2.94,-5.86 -0.25,-0.4 -0.96,-1.33 -1.23,-1.74 -7.67,-11.59 -7.58,-15.46 -7.44,-31.23 -4.29,-0.05 -13.34,0.44 -17.1,0.07 -18.92,-1.81 -9.32,-1.07 -14.98,-4.86 -0.68,-0.46 -1.51,-1.34 -2.15,-1.84 -0.65,-0.51 -1.47,-1.41 -2.09,-1.95l-76.95 -88.11c-7.31,-33.53 -5.69,-10.05 -18.19,-31.09 -5.72,-9.65 1.26,-1.94 -9.88,-10.82 -10.26,-9.31 6.35,7.34 -0.04,-6.17l-1.8 -2.39c-12.89,-16.71 -19.29,-18.36 -29.28,-33.33 -5.59,-8.36 -11.56,-9.93 -15.23,-18.61 -6.74,-15.87 -18.06,-9.91 -45.28,-62.16l-34.57 -58.57c-0.32,-0.65 -0.82,-1.81 -1.15,-2.42l-9.03 -12.5c-8.8,-12.24 -8.2,-21.14 -13.01,-33.07 -0.25,-0.58 -0.8,-1.67 -1.1,-2.22 -0.3,-0.59 -1.07,-1.54 -1.44,-2.11l-76.11 -154.4c-3.29,-9.46 -4.76,-14.32 -7.25,-25.29 -4.98,-21.9 -1.96,-8.8 -8.89,-23.92l-24.38 -64.72c-4.02,-22.37 -8.19,-26.51 -14.38,-46.46 -0.31,-1.02 -0.76,-2.03 -1.1,-3.03l-2.3 -5.88c-8.27,-25.3 -11.27,-42.16 -12.04,-73.25 -8.68,18.82 8.32,15.47 -18.34,14.36 0.01,-9.69 1.17,-17.21 -1.9,-26.01 -8.3,-23.91 -29.08,-14.41 -30.1,-53.21l19.19 -5.04c-2.39,-30.29 -3.7,-18.48 -20.02,-28.39 -0.06,-3.69 0.41,-13.69 0.07,-16.54 -3.85,-32.12 -12.92,-0.98 -12.44,-44.39l-32.17 -0.47c-0.22,-9.37 5.94,-59.99 -8.69,-60.33 -8.73,3.36 -9.2,-8.55 -8.66,15.82 0.58,26.17 0.62,0.4 8.07,20.03 -0.98,0.38 -2.25,0.39 -2.69,1.67l-8.03 4.23c-14.81,4.39 -9.05,0.16 -11.73,-1.87 -13.46,-10.12 7.96,-11.79 -24.7,-12.56 0.3,-20.2 2.57,-32.75 -15.87,-35.66l-7.14 -0.4c-0.76,-0.28 -5.3,-3.27 -6.3,-4.18 0,73.31 15.6,161.8 28.06,224.22 7.01,35.2 14.8,69.94 24.18,101.53 58.23,196.2 121.6,339.86 246.76,507.58 18.97,25.41 33.14,48.07 54.85,70.87 7.36,7.72 6.3,7.09 12.87,15.52 6.55,8.42 8.97,9.7 15.46,16.99 89.72,100.74 138.39,154.38 260.32,242.56 24.16,17.47 93.8,70.29 118.38,74.71z"/>
   <path class="fil10" d="M7822.45 484.9l15.33 1.57c-8.22,4.3 -12.94,5.55 -22.37,10.39 -19.53,10.04 -46.4,14.89 -61.88,19.43 -12.17,3.57 -7.67,-3.04 -12.31,8.21 14.74,0.04 25.15,1.25 37.13,3.6 5.01,0.99 2.12,-0.11 6.7,1.41 8.32,2.74 4.2,1.99 7.98,4.16 8.12,4.67 -12.71,4.04 13.2,7.21 22.07,1.1 11.8,-9.12 47.41,-0.39 0.17,0.05 0.94,0.43 1.38,0.27 -4.36,-10.74 0.3,-5.86 -12.18,-8.34 -2.76,-0.54 -20.12,0.11 -24.36,0.11l13.85 -6.25c6.5,-1.53 10.83,-1.6 17.72,-0.92 12.35,1.23 22.73,6.53 36.78,7.72 1.63,6.91 1.35,7.34 3.28,12.77l5.34 11.73c15.07,0.09 29.03,3.06 41.65,-3.49 8.22,-4.27 3.58,-8.28 26.94,-8.54l43.47 5.45c4.91,1.59 1.66,0.98 9.71,2.68 8.54,1.81 6.48,-0.83 15.17,2.34l-28.34 0c7.27,17.05 7.18,18.23 32.12,18.46l0 20.23c16.03,-0.01 60.51,3.84 70.18,8.11l0.25 -4.77c1.06,-9.97 -14.01,-6.51 6.63,-7.4l-0.07 13.52 -76.14 0.2c-18.86,1.65 -10.69,-1.63 -20.75,8.33 9.12,7.86 37.77,8.96 47.99,10.6 -16.67,0.75 -40.08,0.48 -55.49,5.41 -9.38,3 -5.47,1.47 -10.23,4.22 67.15,-3.95 286.98,-9.02 331.21,17.33 111.54,0 230.5,-6.52 322.77,-50 25.32,-11.94 67.19,-24.67 74.33,-51.39l-94.98 -34.79c-125.99,-35.94 -318.54,-67.1 -452.51,-66.61 -127.53,0.47 -205.25,9.45 -328.04,28.85 -7.05,1.1 -8.31,0.95 -13.82,2.39l-15.05 6.19z"/>
   <path class="fil11" d="M7948.17 2710.49c-33.09,-1.9 -34.61,11.87 -42.34,18.31 -7.7,6.42 5.73,0.68 -7.31,4.37 -3.91,1.11 -15.66,0.35 -20.33,0.27l15.41 12.1c6.64,3.83 6.65,2.44 12.64,5.52l1.1 28.38 12.57 7.98c0.61,0.58 1.32,1.55 1.9,2.15l46.01 35.11c-4.25,10.97 -10.85,3.72 -14.92,15.59 9.64,13.45 4.4,7.24 16.59,4.66 15.49,-3.28 -2.02,-5.28 11.16,-1.45 5.53,1.61 0.62,-4.78 8.65,8.71l1.8 3.71c8.52,11.05 1.42,0.25 13.1,5.52 -4.62,10.99 -5.4,8.92 0.52,19.12 5.47,-15.37 -4.32,0.4 28.28,0.4 4,8.66 3.69,7.49 3.94,20.68 20.34,0.03 32.37,-4.32 46.38,-1.55 19.22,3.78 18.2,5.92 42.39,6.13 10.43,20.9 -3.22,8.3 17.42,19.09 20.27,10.6 15.29,-4.01 15.82,20.54 17.48,-0.34 27.24,-2.57 48.78,-2.53l4.02 -5.37c0.56,-0.54 1.43,-1.67 2.08,-2.17 7.67,-6.1 9.41,-2.97 21.59,-3.63l7.97 -0.33c0.27,0.08 1.39,0.81 1.61,0.9 20.17,8.26 81.07,7.7 105.45,7.97 -12.34,0.81 -13.31,9.72 -14.96,14.83 25.76,1.93 44.21,11.43 77.82,-6.07 44.73,-23.28 -16.52,15.78 19.79,-11.83l-10.42 -21.08c11.9,-0.11 50.73,-2.23 59.64,-0.33 23.99,5.13 -0.59,13.32 42.21,6.42 -6.57,-6.82 8.39,-5.74 -8.12,-5.74 15.35,-8.75 11.69,0.3 31.84,-15.94 0.67,-0.53 1.61,-1.27 2.25,-1.82l11.84 -12.55c12.33,-12.3 26.66,-7.58 37.71,-14.91 11.96,-7.95 3.47,-10.97 17.13,-23.06l-40.31 -0.22c8.06,-19.1 40.16,-18.6 59.9,-17.06 0.91,-23.98 -8.84,-5.71 18.79,-22.09 11.65,-6.92 12.96,-10.49 29.24,-10.97 1.48,-53.98 10.02,-15.1 6.3,-48.27 -2.31,-20.54 -2.8,-34.59 -6.36,-51.66 5.21,-12.56 0.21,-0.69 6.83,-7.22 7.87,-7.76 8.29,-2.77 9.46,-19.26 -13.21,9.03 -10.99,2.24 -26.9,-1.11 -17,2.37 -51.83,23.2 -76.54,32.17 -186.2,67.5 -364.56,91.51 -562.87,34.62l-86.55 -27.03z"/>
   <path class="fil8" d="M9080.08 2619.01c-9.77,14.18 -27.04,55.31 -52.28,92.01 -40.06,58.26 -182.73,208.97 -223.3,206.32 -22.16,28.22 -118.32,63.7 -148.33,75.19 -34.53,13.21 -132.23,44.68 -172.16,42.14l-12.68 5.16c-10.39,8.7 12.54,5.93 -11.67,7.35 -8.99,18.08 6.28,-2.08 3.57,7.48 -22.98,0.41 -31.45,3.96 -48.77,4.47 17.12,12.55 18.44,-4.38 15.68,15.7 -1.94,14.07 -5.91,6.17 -15.7,13.11l1.93 5.97c0.24,0.88 0.54,2.16 0.8,3.16l11.54 25.01c4.78,11.64 1.66,29.8 1.8,44.09l69.23 -9.54c17.34,6.46 36.18,-1.8 54.4,-6.45l54.67 -14.28c32.09,-9.97 72.15,-22.69 101.93,-35.96l94.51 -43.37c131.23,-65.62 257.53,-155.32 352.7,-267.81 6.01,-7.1 9.94,-9.77 15.78,-16.8 0.06,-0.07 6.82,-9.1 6.94,-9.3 7.59,-12.41 4.12,-2.37 4.74,-11.61 2.75,-19.94 -1.16,1.6 -0.41,-15.8 0.91,-21 12.04,2.58 9.3,-36.93 -4.32,-32.57 -18.6,-5.32 -8,-15 0.28,-77.5 -2.82,-32.22 -24.34,-79.43l-41.72 -0.4c-0.13,-0.74 3.36,-1.1 1.7,-8.51 -0.16,-0.72 -3.89,-9 -5.22,-13.6 -4.27,-14.88 0.98,-10.84 0.12,-33.36 -10.7,13.12 -8.23,22.17 -14.79,39.03l-8.29 20.09c-5.78,10.65 1.01,8.23 -13.68,11.87z"/>
   <path class="fil12" d="M6901.82 999.04c-6.66,13.86 -11.84,17.34 -21.18,27.43 -20.47,22.14 -29.19,39.64 -40.64,52.61 -8.06,9.13 -13.98,16.9 -21.69,26.84 -29.04,37.41 -47.21,60.37 -56.58,98.3 -2.63,10.63 -2.99,3.7 -6.84,17.88 0.66,0.76 1.62,0.99 1.92,2.37l11.88 13.18c9.98,10.09 9.82,3.74 10.13,22.35l28.29 -0.08 0.19 55.45c2.13,10.22 3.99,3.69 14.19,10.43 0.41,0.26 1.42,0.78 1.78,1.06l5.02 6.35c15.18,17.33 11.08,-20.49 11.46,79.5 1,0.67 2.66,0.14 3.11,1.57 2.9,9.2 1.05,-0.15 5.49,3.3 0.61,0.49 1.72,1.27 2.35,1.82l7.49 8.65c0.58,0.6 1.33,1.59 1.94,2.15 0.59,0.55 1.48,1.43 2.11,1.93 0.21,0.17 8.98,4.46 9.85,4.91l0.23 40.56 16.06 8.11c-4.27,17.25 -7.76,15.09 0.7,32.42 8.5,17.41 2.81,1.53 3.13,30.04l6.06 -5.57c0.48,-0.44 1.99,-1.81 2.91,-2.79l40.1 -88.92c6.88,-22.24 15.41,-35.14 29.13,-49.7 17.98,-35.97 34.07,-68.15 54.25,-104.77 10.83,-19.62 20.49,-34.67 30.22,-50.81 9.37,-15.54 22.4,-32.09 29.9,-49.77 -1.85,0.73 -7.05,1.91 -7.31,1.92 3.91,-15.28 11.93,-17.55 10.54,-28.12 -3.17,-24.07 -0.82,-0.79 -7.27,-12.3 -3.01,-5.34 -3.14,7.44 -3.48,-11.31 21.88,-0.66 15.42,5.21 16.15,-17.22 -3.04,-23.86 5.7,-6.76 -16.18,-15.21 2.53,-4.78 4.78,-7.42 3.83,-21.28 -2.55,-37.16 -12.59,19.24 -12.68,-44.87 -21.92,-0.06 -15.58,3.83 -19.84,-7.85 0.09,-16.95 3.42,-22.14 -5.83,-31.5 -12.65,-12.8 -7.58,-1.02 -22.04,-9.06 0.2,-52.34 -5.66,-42.28 12.28,-43.24 0.01,-36.46 -6.07,-49.54 13.38,-63.29 0.99,-0.7 4.39,-2.19 5.39,-2.91 0.75,-0.55 1.85,-1.08 2.55,-1.67l47.68 -49.6c0.67,-0.53 1.69,-1.19 2.35,-1.72 19.97,-15.6 13.87,-15.71 41.37,-35.66 8.95,-6.49 11.45,-10.08 20.28,-16.26l23.16 -9.51c2.23,-24.57 -3.97,-16.46 10.19,-25.5l103.28 -66.65c22.86,-13.19 32.46,-12.57 41.3,-28.72 -29.16,4.61 -100.67,52.64 -127.94,70.78 -76.45,50.84 -233.72,172.38 -293.22,246.16l-17.61 18.71c-5.46,8.35 -3.09,0.94 -3.29,9.08z"/>
   <path class="fil10" d="M9619.08 1825.17l-13.4 20.15c-3.98,9.46 -7.56,18.71 -10.36,26.25l-25.23 84.27c-2.57,11.67 -4.95,17.34 -7.52,28.97 -2.64,11.88 -8.45,56.64 -12.43,62.8 4.05,5.23 2.33,0.23 6.53,11.84 14.36,39.67 14.39,244.1 15.53,283.05 3.07,60.53 -15.1,152.08 -26.13,209.97 -12.95,68.05 -37.41,123.5 -54.61,182.2 24.9,-6.84 -7.39,1.01 22.18,4.21l-0.35 28.66 20.09 3.79c-3.96,7.79 -5.42,14.02 -9.22,22.85l-12.78 23.77c-9.69,17.99 -19.43,31.63 -21.11,46.66 35.87,-31.32 129.63,-264.22 149.6,-323.94 18.98,-56.73 52.14,-190.83 61.03,-255.3 9.84,-71.47 27.7,-225.21 17.23,-294.43 -3.82,-25.18 -0.34,-51.47 -4.04,-77.08 -1.25,-8.68 -0.67,-64.11 -9.85,-67.32 -13.66,-13.98 -9.24,-50.56 -21.18,-88.53 -16.03,31.69 -22.59,12.48 -41.95,41.48l-11.47 16.96c-7.83,9 -1.07,3.17 -10.56,8.72z"/>
   <path class="fil13" d="M8840.41 2549.58c11.09,3.31 13.81,4.12 18.78,13.25l3.12 9.88c0.31,1.24 0.32,2.37 0.58,3.61 7.48,33.66 16.78,0.68 15.97,65.23 -0.77,0.68 -2.25,0.46 -2.55,1.75 -0.41,1.77 -4.99,1.16 -7.29,8.45 -9.98,31.72 12.07,17.47 -17.5,26.29l4.14 26.7c-33.11,9.76 -0.93,15.76 -31.5,21.98 0.49,9.93 2.12,5.16 4.34,13.25 9.92,36.23 -10.1,27.9 13.78,47.58 -9.56,10 -11.75,6.02 -13.3,27.35 14.65,0.41 33.82,-5.87 44.81,-18.07 0.6,-0.67 1.2,-1.8 1.78,-2.49 7.83,-9.37 -10.1,-11.62 14.74,-9.36 -10.93,7.5 -8.31,14.57 -8.41,31.96 -16.93,10.68 -16.7,-4.76 -28.83,16.72 -2.96,5.23 -4.25,15.63 -4.7,16.71 -6.61,15.77 11.38,-8.76 -5.07,5.78 -0.42,0.38 -1.51,1.08 -1.97,1.48 -0.49,0.42 -1.54,1.23 -2.06,1.67 -2.92,2.51 -0.96,1.83 -5.75,5.51 -11.34,8.67 -8.85,0.23 -20.84,8.28 -9.44,6.34 -8.63,13.78 -29.45,19.5 -0.13,5.71 -0.7,13.33 -0.44,18.72 0.88,17.88 -4.02,4.57 4.89,13.76 11.67,-11.31 -4.75,-3.46 16.82,-7.73 40.57,2.65 183.24,-148.06 223.3,-206.32 25.24,-36.7 42.51,-77.83 52.28,-92.01 25.83,-81.28 45.83,-121.64 43.55,-220.91 -0.93,-39.93 -7.43,-78.26 -18.25,-113.9l-29.34 -68.6c-0.77,-1.47 -5.77,-9.6 -6.33,-10.28 -6.51,-7.69 -1.67,-3.48 -10.31,-8.79 -37.64,111.39 -51.51,144 -117.63,238.16l-65.8 80.2c-7.74,7.85 -32.82,27.82 -35.56,34.69z"/>
   <path class="fil14" d="M7998.54 632.93c-86.12,0.58 -225.86,47.1 -297.81,73.36 -90.2,32.92 -172.19,80.14 -243.86,125.95 -140.97,90.14 -279.55,227.64 -372.09,363.6 -7.5,17.68 -20.53,34.23 -29.9,49.77 -9.73,16.14 -19.39,31.19 -30.22,50.81 -20.18,36.62 -36.27,68.8 -54.25,104.77 11.81,-8.24 13.1,-12.76 21.06,-29.27 4.01,3.3 5.71,6.24 7.88,8.17 6.97,6.18 3.03,3.84 12.75,7.59 8.67,3.34 2.63,-0.52 12,4.18 17.91,9 -9.33,0.87 11.57,8 13.93,-10.61 10.13,-15.1 24.34,-24.74 14.21,-7.84 3,0.11 17.03,-26.48 54.63,-103.55 195.24,-273.64 289.46,-347.28l107.15 -83.46c44.56,-31.45 103.35,-70.01 152.79,-94.6 98.98,-49.26 142.41,-75.04 264.95,-112.23 132.11,-40.08 265.64,-60.81 438.36,-60.81 -44.23,-26.35 -264.06,-21.28 -331.21,-17.33z"/>
   <path class="fil15" d="M7829.54 3112c10.83,20.56 259.55,71.76 313.19,73.11 47.77,1.21 91.59,5.58 142.2,4.07l197.02 -21.68c28.13,-7.61 8.24,1.22 17.79,-10.87l-69.23 9.54c-0.14,-14.29 2.98,-32.45 -1.8,-44.09l-11.54 -25.01c-0.26,-1 -0.56,-2.28 -0.8,-3.16l-1.93 -5.97c9.79,-6.94 13.76,0.96 15.7,-13.11 2.76,-20.08 1.44,-3.15 -15.68,-15.7 17.32,-0.51 25.79,-4.06 48.77,-4.47 2.71,-9.56 -12.56,10.6 -3.57,-7.48 24.21,-1.42 1.28,1.35 11.67,-7.35 -198.08,13.61 -338.49,9.77 -522.27,-66.29l-133.08 -62.93 -9.6 2.66c11.67,22.81 3.07,13.58 4.3,45.18l31.18 -4.36 1.42 55.97 15.73 0 -0.14 57.58c-22.02,10.72 -11.46,12.29 -28.3,16.39 -12.91,3.13 -19.23,0.77 -31.52,7.46l27.06 4.27 3.43 16.24z"/>
   <path class="fil16" d="M8840.79 3293.02c-0.68,0.87 -1.79,1 -2.15,2.48 -5.09,20.19 -164.81,87.89 -176.67,92.33 -62.52,23.34 -210.41,59.34 -211.99,60.03 -6.1,9.73 -2.25,4.12 -10.65,9.64 -1.03,0.69 -4.3,2.45 -5.36,2.95 -14.68,6.85 -18.27,-2.83 -30.79,9.61 -14.21,14.1 -0.93,25.2 -0.01,46.77 37.18,-0.65 12.15,5.28 47.18,13.29l15.9 4.82c30.73,8.33 8,-3.36 39.82,-8.21 4.66,-0.7 14.92,-2.53 19.92,-3.64 42.04,-9.33 19.28,-11.7 43.24,-17.24 63.81,-14.76 25.33,-24.29 83.86,-24.16l-15.97 7.47c2.75,19.36 13.08,15.71 2.65,31.05 93.06,-30.29 259.7,-116.97 328.99,-170.9l52.47 -36.16c0.75,-0.47 1.76,-1.09 2.51,-1.58l122.58 -91.11c-1.18,-0.15 -2.6,-0.94 -3.38,-1.18 -21.77,-6.79 -14.07,-1.15 -27.83,3.19 -3.2,-4.5 -2.11,-4.02 -7.3,-8.62 -10.07,-8.95 -17.78,-7.61 -24.87,-13.6 22.88,-0.12 19.49,5.05 19.61,-13.81 -6.28,19.74 1.2,3.01 -10.9,10.62 -12.62,7.96 -8.85,-11.68 -11.16,13.07l-3.36 -5.93c-0.46,-0.82 -1.11,-2.01 -1.62,-2.87l-22.71 -21.75c-0.7,-0.53 -1.69,-1.21 -2.36,-1.78 -22.83,-19.7 4.15,-15.05 -35.42,-33.34l-14.11 -6.94c-25.54,38.19 -115.1,138.77 -160.12,155.5z"/>
   <path class="fil17" d="M9405.58 2622.12c0.49,25.57 -16.64,89.55 -24.38,117.87 -8.48,31.05 -29.64,84.1 -33.4,106.29 -12.37,59.16 -57.86,125.07 -76.53,169.97 -1.15,-0.35 -2.44,-1.19 -3.23,-1.55 -41.2,-18.19 -34.4,7.54 -36.23,-22.52l-15.74 7.76c-0.83,-37.44 -8.56,-17.17 -8.77,-52.15 -16.23,-9.88 -14.13,12.83 -15.61,-16.64 -4.74,17.31 -0.02,9.76 -10.85,10.47 -25.48,1.67 7.47,-1.33 -15.98,-5.03 -10.51,1.93 -10.35,6.25 -24.35,17.2l-73.85 73.04c-15.08,38.08 -47.98,72.53 -65.75,110.69l14.11 6.94c39.57,18.29 12.59,13.64 35.42,33.34 0.67,0.57 1.66,1.25 2.36,1.78l22.71 21.75c0.51,0.86 1.16,2.05 1.62,2.87l3.36 5.93c2.31,-24.75 -1.46,-5.11 11.16,-13.07 12.1,-7.61 4.62,9.12 10.9,-10.62 -0.12,18.86 3.27,13.69 -19.61,13.81 7.09,5.99 14.8,4.65 24.87,13.6 5.19,4.6 4.1,4.12 7.3,8.62 13.76,-4.34 6.06,-9.98 27.83,-3.19 0.78,0.24 2.2,1.03 3.38,1.18 9.4,-10.89 33.92,-31.23 47.14,-43.4 16.64,-15.3 33.77,-32.05 48.89,-48.39 72.02,-77.89 206.62,-256.92 231.95,-356.39 -9.1,6.49 -4.29,-5.19 -10.16,7.41 3.76,-12.86 4.1,-36.37 -1.86,-54.28 -15.26,-45.94 0.39,-32.41 6.05,-47.37 -15.23,-10.82 -6.34,-1.43 -21.24,-30.86l-17.43 -51.44c-0.14,-1.58 -0.63,-2.05 -1.19,-2.95 -23.11,2.84 -3,-3.78 -16.05,20.59 -5.37,10.03 1.75,1.34 -6.84,8.74z"/>
   <path class="fil18" d="M8674.13 2670.73c15.91,3.35 13.69,10.14 26.9,1.11 -1.17,16.49 -1.59,11.5 -9.46,19.26 -6.62,6.53 -1.62,-5.34 -6.83,7.22 3.56,17.07 4.05,31.12 6.36,51.66 3.72,33.17 -4.82,-5.71 -6.3,48.27 -16.28,0.48 -17.59,4.05 -29.24,10.97 -27.63,16.38 -17.88,-1.89 -18.79,22.09 -19.74,-1.54 -51.84,-2.04 -59.9,17.06l40.31 0.22c-13.66,12.09 -5.17,15.11 -17.13,23.06 -11.05,7.33 -25.38,2.61 -37.71,14.91l-11.84 12.55c-0.64,0.55 -1.58,1.29 -2.25,1.82 -20.15,16.24 -16.49,7.19 -31.84,15.94 16.51,0 1.55,-1.08 8.12,5.74l15.43 -0.61 -0.03 27.77 -28.25 11.68c1.12,55.02 -15.01,4.27 -14.74,58.39 -17.81,0.27 -19.81,7.63 -23.98,9.49l11.05 5.34c39.93,2.54 137.63,-28.93 172.16,-42.14 30.01,-11.49 126.17,-46.97 148.33,-75.19 -21.57,4.27 -5.15,-3.58 -16.82,7.73 -8.91,-9.19 -4.01,4.12 -4.89,-13.76 -0.26,-5.39 0.31,-13.01 0.44,-18.72 20.82,-5.72 20.01,-13.16 29.45,-19.5 11.99,-8.05 9.5,0.39 20.84,-8.28 4.79,-3.68 2.83,-3 5.75,-5.51 0.52,-0.44 1.57,-1.25 2.06,-1.67 0.46,-0.4 1.55,-1.1 1.97,-1.48 16.45,-14.54 -1.54,9.99 5.07,-5.78 0.45,-1.08 1.74,-11.48 4.7,-16.71 12.13,-21.48 11.9,-6.04 28.83,-16.72 0.1,-17.39 -2.52,-24.46 8.41,-31.96 -24.84,-2.26 -6.91,-0.01 -14.74,9.36 -0.58,0.69 -1.18,1.82 -1.78,2.49 -10.99,12.2 -30.16,18.48 -44.81,18.07 1.55,-21.33 3.74,-17.35 13.3,-27.35 -23.88,-19.68 -3.86,-11.35 -13.78,-47.58 -2.22,-8.09 -3.85,-3.32 -4.34,-13.25 30.57,-6.22 -1.61,-12.22 31.5,-21.98l-4.14 -26.7c29.57,-8.82 7.52,5.43 17.5,-26.29 2.3,-7.29 6.88,-6.68 7.29,-8.45 0.3,-1.29 1.78,-1.07 2.55,-1.75 0.81,-64.55 -8.49,-31.57 -15.97,-65.23 -0.26,-1.24 -0.27,-2.37 -0.58,-3.61l-3.12 -9.88c-4.97,-9.13 -7.69,-9.94 -18.78,-13.25 -3.02,1.81 -80.25,66.78 -121.85,91.78 -21.15,12.71 -36.78,17.57 -44.43,29.37z"/>
   <path class="fil19" d="M7411.18 1363.47c-6.65,15.51 -8.48,13.11 -21.4,26.09 -24.14,24.26 -53.24,48.21 -37.39,66.94 7.79,9.18 4.15,2.78 14.88,8.93 -7.55,3.91 -12.82,12.74 -15.16,24.74 -1.27,6.5 -0.73,13.25 -0.72,19.87 -13.88,8.05 14.07,-6.25 -8.25,3.06 -0.77,0.33 -2.07,0.81 -2.9,1.18l-8.86 4.3c10.53,15.81 -2.52,55.23 9.63,83.54 0.38,0.87 0.93,1.87 1.34,2.71 0.39,0.83 0.99,1.82 1.39,2.63 11.8,23.71 6.63,22.15 7.94,48.58 0.85,17.41 3.26,14.35 3.86,28.82 0.68,16.57 -3.4,17.9 -2.56,27.81 2.03,23.6 5.66,-7.88 6.23,24.49 -4.43,24.25 -3.59,-27.34 -8.04,13.12 31.73,0.39 14.57,8.86 6.84,39.57l16.34 -22.07c5.48,-9.26 8.78,-14.65 13.5,-22.98 4.73,-8.36 7.93,-13.16 13.96,-22.54 6.39,-9.94 9.12,-15.19 20.96,-23.4 -4.44,15.78 -7.15,18.34 -13.77,30.54l3.61 8.67c19.23,-23.41 27.91,-58.83 43.35,-83.16 16.95,-26.71 31.31,-52.51 54.22,-70.59 9.15,-8.64 26.88,-45.93 39.96,-66.91 13.78,-22.07 9.25,-15.01 8.72,-23.59l23.96 -93.48 6.64 10.31c6.52,7.96 -5.56,0.78 5.89,4.97 15.33,-7.29 -2.37,-11.09 22.47,-23.19 0.3,-18.74 -3.39,-16.95 -2.91,-32.13 0.35,-11.25 3.23,-15.2 3.23,-32.76l15.93 -8.11 -0.22 -44.61c-21.11,-8.21 -10.22,9.72 -18.27,-13.78 -6.76,-19.78 6.37,-20.5 6.43,-20.54 -3.5,-6.67 7.98,-4.3 -12.75,-3.77l5.56 -8.02c0.45,-2.16 1.48,-2.73 2.66,-3.67 -32.08,10.22 -83.91,43.68 -113.46,63.99 -17.78,12.21 -33.46,24.42 -48.7,36.36 -14.83,11.62 -32.12,31.18 -44.14,38.08z"/>
   <path class="fil20" d="M8000.39 3465.23c-31.8,0.09 -34.58,-8.24 -51.2,0.16 -10.28,5.2 -6.02,3.86 -10.53,7.55l0.49 25.25c9.2,-3.66 15.39,-4.08 29.31,-3.89 4.4,8.06 0.85,3.52 3.8,10.89l4.31 9.22c23.85,2.12 -0.43,7.07 36.49,4.31l8.12 16.1 -20.78 10.37c-0.1,14.66 4.52,20.46 -7.64,20.47 -12.17,0 -7.57,-5.84 -7.57,-20.23l-12.18 8.13c2.15,-4.78 4.34,-8.47 0.33,-15.96 -6.84,-12.79 8.86,-6.02 -13,-8.3 -1.74,2.79 -6.89,-4.04 -2.57,14.77 3.35,14.51 4.07,6.81 7.53,13.23 7.19,13.39 3.05,15.21 6.96,25.61l32.96 -0.45c12.87,15.09 12.94,10.57 52.44,11.34l180.46 2.03c55.82,-5.93 106.5,-6.2 162.22,-14.88 26.93,-4.2 49.59,-8.9 74.98,-14.83 20.33,-4.76 55.88,-15.54 75.16,-17.16l89.29 -28.75c10.43,-15.34 0.1,-11.69 -2.65,-31.05l15.97 -7.47c-58.53,-0.13 -20.05,9.4 -83.86,24.16 -23.96,5.54 -1.2,7.91 -43.24,17.24 -5,1.11 -15.26,2.94 -19.92,3.64 -31.82,4.85 -9.09,16.54 -39.82,8.21l-15.9 -4.82c-35.03,-8.01 -10,-13.94 -47.18,-13.29 -0.92,-21.57 -14.2,-32.67 0.01,-46.77 12.52,-12.44 16.11,-2.76 30.79,-9.61 1.06,-0.5 4.33,-2.26 5.36,-2.95 8.4,-5.52 4.55,0.09 10.65,-9.64 -37.39,5.14 -71.81,11.55 -111.18,16.39 -35.56,4.37 -70.63,5.44 -108.34,8.49 -82.9,6.7 -152.99,-8.34 -230.07,-7.51z"/>
   <path class="fil21" d="M6970.41 1401.19c-13.72,14.56 -22.25,27.46 -29.13,49.7 0.99,-1.11 3.15,-3.59 3.71,-2.5 0.55,1.06 2.96,-2.08 3.56,-2.5 0.59,-0.42 2.54,-1.41 3.42,-2.51 -8.3,36.67 -25.75,69.28 -36.78,104.62 -10.92,34.97 -20.65,72.48 -29.06,108.01 -48.99,206.89 -46,415.67 6.08,619.72 7.17,28.06 29.94,86.89 31.43,108.3 20.96,14.87 -3.46,11.66 16.08,16.53 10.48,2.6 15.47,-8.14 18.89,-12.29 -11.58,-39.03 -19.22,-76.99 -29.19,-119.03 -9.94,-41.9 -14.24,-84.21 -21.24,-132.87l-5.75 -147.18c5.07,-45.11 2.35,-98.26 9.73,-144.38 17.11,-107.01 21.64,-140.67 58.11,-250.12 20.48,-61.46 37.52,-109.65 65.38,-165.79 4.53,-9.14 7.39,-14.51 13.03,-23.44 7.25,-11.51 10.12,-14.12 11.33,-30.34 -14.21,9.64 -10.41,14.13 -24.34,24.74 -20.9,-7.13 6.34,1 -11.57,-8 -9.37,-4.7 -3.33,-0.84 -12,-4.18 -9.72,-3.75 -5.78,-1.41 -12.75,-7.59 -2.17,-1.93 -3.87,-4.87 -7.88,-8.17 -7.96,16.51 -9.25,21.03 -21.06,29.27z"/>
   <path class="fil22" d="M9491.46 2734.67l-17.16 37.61c-25.33,99.47 -159.93,278.5 -231.95,356.39 -15.12,16.34 -32.25,33.09 -48.89,48.39 -13.22,12.17 -37.74,32.51 -47.14,43.4l-122.58 91.11c-0.75,0.49 -1.76,1.11 -2.51,1.58l-52.47 36.16c-69.29,53.93 -235.93,140.61 -328.99,170.9l-89.29 28.75c-11.42,12.75 -6.46,5.42 -21.6,13.21 34.39,23.99 132.33,-36.51 189.85,-44.6 16.09,5.39 49.52,-13.39 65.01,-20.18 108.45,-47.56 187.45,-94.73 283.75,-162.37 102.68,-72.1 221.54,-186.37 296.04,-283.9l57.97 -75.87c13.52,-18.05 62.38,-92.24 68.77,-110.64 1.68,-15.03 11.42,-28.67 21.11,-46.66l12.78 -23.77c3.8,-8.83 5.26,-15.06 9.22,-22.85l-20.09 -3.79 0.35 -28.66c-29.57,-3.2 2.72,-11.05 -22.18,-4.21z"/>
   <path class="fil23" d="M9497.42 2330.03l-5.84 13.66c-1.64,4.79 -3.42,10.97 -4.84,15.45l-31.44 94.29c-8.24,23.76 -14.42,40.06 -23.3,61.88 -7,17.19 -21.14,40.26 -24.58,61.35 3.95,20.61 0.61,25.29 -1.84,45.46 8.59,-7.4 1.47,1.29 6.84,-8.74 13.05,-24.37 -7.06,-17.75 16.05,-20.59 0.56,0.9 1.05,1.37 1.19,2.95l17.43 51.44c14.9,29.43 6.01,20.04 21.24,30.86 -5.66,14.96 -21.31,1.43 -6.05,47.37 5.96,17.91 5.62,41.42 1.86,54.28 5.87,-12.6 1.06,-0.92 10.16,-7.41l17.16 -37.61c17.2,-58.7 41.66,-114.15 54.61,-182.2 11.03,-57.89 29.2,-149.44 26.13,-209.97l-4.24 8.12c-0.35,1.09 -0.68,2.2 -0.98,3.36 -1.16,4.55 -1.41,11.9 -1.86,16.63 -0.02,-0.02 -7.03,-8.47 -7.11,-8.54 -6.27,-5.07 -2.61,-0.67 -9.99,-6.03l-18.89 -27.08c-4.05,-20.05 4.2,-21.02 -15.5,-22.79 -3.71,7.26 1.24,16.6 -16.21,23.86z"/>
   <path class="fil24" d="M7358.01 1789.85c-3.7,14.56 -15.27,29.34 -21.17,41.41 -20.65,42.2 -39.63,85.96 -54.64,132.07 -9.79,30.07 -20.3,61.25 -27.87,98.18 -7.23,35.28 -9.23,71.53 -16.01,106.23 -26.21,134.31 31.49,298.6 86.6,399.3 13.37,20.55 26.86,54.22 43.34,67.26 -22.64,-76.44 -43.54,-98.02 -65.53,-210.73 -15.93,-81.7 -19.12,-175.57 -13.43,-260.5 5.77,-85.81 18.3,-157.52 39.51,-235.17 8.62,-31.6 21.21,-70.32 34.64,-102.36 14.4,-34.34 30.58,-62.7 45.55,-96.14 6.62,-12.2 9.33,-14.76 13.77,-30.54 -11.84,8.21 -14.57,13.46 -20.96,23.4 -6.03,9.38 -9.23,14.18 -13.96,22.54 -4.72,8.33 -8.02,13.72 -13.5,22.98l-16.34 22.07z"/>
   <path class="fil25" d="M7576.67 3537.83c14.8,13.91 147.34,45.31 163.85,49.49 114.82,29.1 261.32,43.79 386.11,43.79 33.91,0 70.89,3.25 103.72,-1.72 17.35,-2.61 86.5,-0.04 99.05,-12.97 -28.14,2.91 -117.3,16.02 -139.96,-7.76 3.41,-1.41 18.63,-7.03 24.48,-8.98 11.93,-3.98 12.79,-2.23 24.2,-3.85l-180.46 -2.03c-39.5,-0.77 -39.57,3.75 -52.44,-11.34 -26.61,0 -107.25,-9.97 -121.93,0 -9.36,-3.33 1.04,-11.52 -35.47,-16.68l-81.05 -18.85c-14.23,-3.13 -24.06,-7.12 -37.52,-10.39l-60.94 -16.01c-7.36,-2.11 -15.25,-5.75 -17.45,-6.21 -13.75,-2.86 -14.72,0.92 -22.97,6.27 -20.12,13.02 16.11,-2.36 -10.05,5.68 -13,4.01 -28.91,3.2 -38.72,-0.05 -6.11,7.19 -12.24,-10.56 -2.45,11.61z"/>
   <path class="fil26" d="M7617.48 1225.04c-1.18,0.94 -2.21,1.51 -2.66,3.67l-5.56 8.02c20.73,-0.53 9.25,-2.9 12.75,3.77 -0.06,0.04 -13.19,0.76 -6.43,20.54 8.05,23.5 -2.84,5.57 18.27,13.78l0.22 44.61 -15.93 8.11c0,17.56 -2.88,21.51 -3.23,32.76 -0.48,15.18 3.21,13.39 2.91,32.13 -24.84,12.1 -7.14,15.9 -22.47,23.19 -11.45,-4.19 0.63,2.99 -5.89,-4.97l-6.64 -10.31 -23.96 93.48c12.14,-7.63 2.91,0.49 13.09,-11.38l42.73 -58.51c7.45,-9.05 11.92,-15.97 20.12,-24.48 24.85,-25.81 62.74,-57.46 82.72,-84.08 4.94,-15.93 3.2,-6.65 11.74,-16.39 13.61,-15.52 -6.62,-7.6 36.97,-40.39 0.18,-16.18 0.36,-32.74 0.16,-48.89 -0.33,-27.57 -6.11,-21.83 -4.79,-36.69 -39.7,5.44 -112.88,35.85 -144.12,52.03z"/>
   <path class="fil27" d="M9164.86 2936.59c23.45,3.7 -9.5,6.7 15.98,5.03 10.83,-0.71 6.11,6.84 10.85,-10.47 1.48,29.47 -0.62,6.76 15.61,16.64 0.21,34.98 7.94,14.71 8.77,52.15l15.74 -7.76c1.83,30.06 -4.97,4.33 36.23,22.52 0.79,0.36 2.08,1.2 3.23,1.55 18.67,-44.9 64.16,-110.81 76.53,-169.97 -8.96,9.38 -13.95,21.84 -17.4,34.87 -0.53,-0.89 -0.94,-2.25 -1.21,-2.86l-2.44 -5.64c-0.38,-0.78 -0.84,-1.94 -1.25,-2.74 -13.8,-26.35 -20.89,-6.99 -21,-31.91 -0.04,-6.87 8.65,-34.07 -22.03,-45.85l-104.61 121.78c-11.63,11.51 -9.74,5.95 -13,22.66z"/>
   <path class="fil28" d="M7542.61 3143.16c-6.15,-12.28 -0.54,-4.35 -10.42,-12.72 -22.15,-18.76 -103.3,-59.25 -179.13,-133.07l-42.62 -38.47c-7.75,-7.78 -12.25,-12.58 -20.51,-20.04l-10.51 -9.78c-96.18,-100.47 -156.17,-183.4 -220.75,-302.42 -61.8,-113.89 -60.84,-135.54 -100.06,-238.39 -3.42,4.15 -8.41,14.89 -18.89,12.29 -19.54,-4.87 4.88,-1.66 -16.08,-16.53 5.24,45.35 80.1,192.19 104.32,236.78 41.5,76.42 139.19,213.78 196.96,273.45 9.95,10.27 12.52,9.36 22.64,22.19 7.96,10.09 32.17,35.4 41.65,43.4 28.44,24.01 62.93,60.32 95.13,79.35 13.26,7.84 10,5.67 23.52,17.16l134.75 86.8z"/>
   <path class="fil29" d="M7761.6 1173.01c-1.32,14.86 4.46,9.12 4.79,36.69 0.2,16.15 0.02,32.71 -0.16,48.89 -43.59,32.79 -23.36,24.87 -36.97,40.39 -8.54,9.74 -6.8,0.46 -11.74,16.39 10.11,-2.87 21.55,-14.13 30.66,-21.55 27.25,-22.21 71.14,-53.88 101.25,-69.08 36.7,-18.53 77.51,-40.43 115.51,-54.83 13.56,-5.14 29.97,-7.17 39,-16.76 -43.32,-21.73 -201.53,6.01 -242.34,19.86z"/>
   <path class="fil30" d="M8885.02 3155.86l0.02 8.84c8.16,-0.95 16.68,-4.65 17.82,-5.05 7.98,-2.84 -3.7,-3.99 7.05,-3.04 -9.98,24.14 -5.79,-15.85 -7.68,19.89 -0.61,11.56 3.08,14.87 3.08,28.77 -8,2.11 -13.37,5.27 -20.17,8.45 8.09,31.85 8.65,23.4 3.96,19.97l-6.16 9.4c-27.53,28.81 -48.81,-1.29 -57.84,47.35 10.64,6.72 -12.1,7.92 15.69,2.58 45.02,-16.73 134.58,-117.31 160.12,-155.5 17.77,-38.16 50.67,-72.61 65.75,-110.69l-157.05 109.69c-11.97,6.94 -18.01,9.73 -24.59,19.34z"/>
   <path class="fil31" d="M9282.47 2792.15c30.68,11.78 21.99,38.98 22.03,45.85 0.11,24.92 7.2,5.56 21,31.91 0.41,0.8 0.87,1.96 1.25,2.74l2.44 5.64c0.27,0.61 0.68,1.97 1.21,2.86 3.45,-13.03 8.44,-25.49 17.4,-34.87 3.76,-22.19 24.92,-75.24 33.4,-106.29 7.74,-28.32 24.87,-92.3 24.38,-117.87 2.45,-20.17 5.79,-24.85 1.84,-45.46l-58.31 111.26c-11.75,19.52 -20.81,33.6 -32.45,52.71l-34.19 51.52z"/>
   <path class="fil18" d="M9497.42 2330.03c17.45,-7.26 12.5,-16.6 16.21,-23.86 19.7,1.77 11.45,2.74 15.5,22.79l18.89 27.08c7.38,5.36 3.72,0.96 9.99,6.03 0.08,0.07 7.09,8.52 7.11,8.54 0.45,-4.73 0.7,-12.08 1.86,-16.63 0.3,-1.16 0.63,-2.27 0.98,-3.36l4.24 -8.12c-1.14,-38.95 -1.17,-243.38 -15.53,-283.05 -4.2,-11.61 -2.48,-6.61 -6.53,-11.84 0,20.62 -1.88,19.21 -5.7,36.73l-47.02 245.69z"/>
   <path class="fil32" d="M8550.48 3548.96c-19.28,1.62 -54.83,12.4 -75.16,17.16 -25.39,5.93 -48.05,10.63 -74.98,14.83 -55.72,8.68 -106.4,8.95 -162.22,14.88 -11.41,1.62 -12.27,-0.13 -24.2,3.85 -5.85,1.95 -21.07,7.57 -24.48,8.98 22.66,23.78 111.82,10.67 139.96,7.76 50.93,12.29 274.89,-48.46 347.08,-76.24 9.58,-3.7 10.04,-3.96 20.55,-7.59 18.73,-6.48 16.66,-6.98 21.7,-15.02 -57.52,8.09 -155.46,68.59 -189.85,44.6 15.14,-7.79 10.18,-0.46 21.6,-13.21z"/>
   <path class="fil33" d="M9619.08 1825.17c9.49,-5.55 2.73,0.28 10.56,-8.72l11.47 -16.96c19.36,-29 25.92,-9.79 41.95,-41.48 11.94,37.97 7.52,74.55 21.18,88.53 0,-33.12 -10.04,-96.17 -20.27,-117.5 -22.34,14.96 -59.39,64.55 -64.89,96.13z"/>
  </g>
  <path class="fil34" d="M1430.7 2392.66l-200.5 0 0 -758.57c-73.18,68.78 -159.52,119.75 -259.04,152.69l0 -182.94c52.44,-17.08 109.28,-49.52 170.5,-97.57 61.47,-47.8 103.42,-103.67 126.35,-167.32l162.69 0 0 1053.71z"/>
  <path id="_1" class="fil34" d="M2263.67 2007.76l0 -177.08 455.14 0 0 418.08c-44.14,43.16 -108.3,80.97 -192.44,113.89 -83.92,32.7 -169.04,49.04 -255.39,49.04 -109.52,0 -204.88,-22.93 -286.36,-69.03 -81.21,-46.1 -142.44,-112.2 -183.42,-197.81 -40.98,-85.62 -61.46,-179.04 -61.46,-279.78 0,-109.27 22.93,-206.36 68.54,-291.48 45.85,-84.88 112.69,-150.24 200.74,-195.61 67.32,-34.88 150.74,-52.2 250.74,-52.2 130.01,0 231.73,27.32 304.9,81.95 72.94,54.88 120.01,130.25 140.98,226.84l-210.74 39.52c-14.64,-51.47 -42.44,-92.2 -83.18,-122.21 -40.48,-29.75 -91.22,-44.63 -152.2,-44.63 -92.2,0 -165.62,29.27 -220.01,88.05 -54.39,58.78 -81.71,145.87 -81.71,261.24 0,124.64 27.56,218.06 82.69,280.25 55.36,62.21 127.57,93.42 217.08,93.42 44.15,0 88.54,-8.78 132.94,-26.1 44.63,-17.32 82.68,-38.53 114.63,-63.41l0 -132.94 -241.47 0z"/>
  <path id="_2" class="fil34" d="M3858.63 2392.66l-228.54 0 -90.5 -238.55 -420.26 0 -87.09 238.55 -224.4 0 406.86 -1047.86 224.15 0 419.78 1047.86zm-387.82 -415.63l-145.62 -387.83 -141.47 387.83 287.09 0z"/>
  <polygon id="_3" class="fil34" points="3968.64,2392.66 3968.64,1344.8 4286.46,1344.8 4474.28,2059.47 4659.89,1344.8 4978.45,1344.8 4978.45,2392.66 4782.34,2392.66 4781.61,1567.74 4575.01,2392.66 4371.1,2392.66 4165.48,1567.74 4164.74,2392.66 "/>
  <polygon id="_4" class="fil34" points="5190.65,2392.66 5190.65,1344.8 5966.31,1344.8 5966.31,1521.88 5402.86,1521.88 5402.86,1754.58 5926.79,1754.58 5926.79,1931.66 5402.86,1931.66 5402.86,2215.58 5986.79,2215.58 5986.79,2392.66 "/>
  <polygon class="fil34" points="9827.34,2286.92 9827.34,1239.06 10039.54,1239.06 10039.54,1651.77 10452.25,1651.77 10452.25,1239.06 10664.45,1239.06 10664.45,2286.92 10452.25,2286.92 10452.25,1828.85 10039.54,1828.85 10039.54,2286.92 "/>
  <path id="_1_4" class="fil34" d="M11828.17 2286.92l-228.54 0 -90.5 -238.55 -420.26 0 -87.09 238.55 -224.4 0 406.86 -1047.86 224.15 0 419.78 1047.86zm-387.82 -415.63l-145.61 -387.83 -141.48 387.83 287.09 0z"/>
  <polygon id="_2_5" class="fil34" points="11941.1,2286.92 11941.1,1239.06 12146.48,1239.06 12577.72,1941.3 12577.72,1239.06 12773.83,1239.06 12773.83,2286.92 12561.87,2286.92 12137.21,1598.1 12137.21,2286.92 "/>
  <path id="_3_6" class="fil34" d="M13485.33 1902.02l0 -177.08 455.15 0 0 418.08c-44.15,43.16 -108.3,80.97 -192.45,113.89 -83.91,32.7 -169.04,49.04 -255.38,49.04 -109.52,0 -204.89,-22.93 -286.36,-69.03 -81.22,-46.1 -142.44,-112.2 -183.42,-197.81 -40.98,-85.62 -61.47,-179.04 -61.47,-279.78 0,-109.27 22.93,-206.36 68.54,-291.48 45.86,-84.88 112.69,-150.24 200.74,-195.61 67.32,-34.89 150.74,-52.21 250.74,-52.21 130.01,0 231.73,27.33 304.91,81.96 72.93,54.88 120,130.25 140.98,226.84l-210.75 39.52c-14.63,-51.47 -42.44,-92.2 -83.17,-122.21 -40.49,-29.75 -91.22,-44.63 -152.21,-44.63 -92.2,0 -165.61,29.27 -220.01,88.05 -54.39,58.78 -81.71,145.87 -81.71,261.24 0,124.64 27.57,218.06 82.69,280.25 55.36,62.21 127.57,93.42 217.09,93.42 44.14,0 88.53,-8.78 132.93,-26.1 44.63,-17.32 82.68,-38.53 114.64,-63.41l0 -132.94 -241.48 0z"/>
  <polygon id="_4_7" class="fil34" points="14136.34,2286.92 14136.34,1239.06 14912,1239.06 14912,1416.14 14348.55,1416.14 14348.55,1648.84 14872.48,1648.84 14872.48,1825.92 14348.55,1825.92 14348.55,2109.84 14932.48,2109.84 14932.48,2286.92 "/>
 </g>
</svg>
