<svg width="137" height="37" viewBox="0 0 352 96" fill="none" xmlns="http://www.w3.org/2000/svg"> <g id="Layer_2" data-name="Layer_2"> <path class="brand__name" d="M141.282 58.332C139.575 57.8043 137.79 57.5212 136.005 57.4954C134.129 57.4053 132.267 57.8429 130.65 58.7696C129.382 59.5032 128.619 60.8417 128.645 62.296C128.593 63.5058 129.02 64.7027 129.848 65.6036C130.676 66.4788 131.685 67.1738 132.81 67.6242C133.987 68.1133 135.604 68.6924 137.686 69.3359C139.834 69.9666 141.942 70.7388 143.986 71.6268C145.59 72.3476 147 73.4415 148.086 74.8315C149.289 76.4918 149.884 78.5124 149.78 80.5458C149.845 82.6308 149.224 84.6643 148.021 86.3632C146.754 88.062 145.02 89.3876 143.041 90.1598C140.7 91.0865 138.191 91.5498 135.669 91.4983C132.849 91.4983 130.055 90.9321 127.455 89.851C124.907 88.8342 122.566 87.3541 120.548 85.4751L122.902 80.9448C124.674 82.6952 126.769 84.098 129.059 85.0761C131.154 86.0028 133.418 86.4918 135.72 86.5305C137.842 86.6463 139.95 86.1186 141.774 85.0247C143.184 84.1495 144.025 82.6051 143.986 80.9577C144.037 79.735 143.598 78.5381 142.783 77.6243C141.929 76.7234 140.894 76.0027 139.743 75.5394C138.113 74.8959 136.458 74.3296 134.776 73.8405C132.642 73.2356 130.559 72.4891 128.529 71.6011C126.925 70.8804 125.528 69.7864 124.441 68.3964C123.264 66.7619 122.669 64.7799 122.773 62.7722C122.747 60.8417 123.342 58.9369 124.48 57.3667C125.696 55.7451 127.352 54.4838 129.253 53.7631C131.529 52.8879 133.948 52.4503 136.38 52.5018C138.669 52.5018 140.946 52.8493 143.145 53.5185C145.227 54.1363 147.219 55.0501 149.043 56.2213L146.896 60.9189C145.163 59.7863 143.274 58.9111 141.295 58.3062" fill="white"></path> <path class="brand__name" d="M163.626 67.8251C162.151 68.6874 160.948 69.9486 160.159 71.4673C159.319 73.089 158.892 74.9036 158.931 76.7312C158.905 78.5845 159.319 80.4121 160.159 82.0595C160.935 83.5781 162.125 84.8394 163.613 85.7017C165.152 86.5769 166.911 87.0145 168.683 86.9759C170.443 87.0016 172.176 86.564 173.702 85.7017C175.177 84.8651 176.367 83.6296 177.156 82.1238C177.996 80.4764 178.423 78.6489 178.385 76.7956C178.423 74.9423 177.996 73.1147 177.156 71.4673C176.367 69.9615 175.177 68.7002 173.702 67.8251C172.176 66.937 170.443 66.4866 168.683 66.5123C166.911 66.4866 165.152 66.937 163.613 67.8251H163.626ZM176.393 63.9383C178.591 65.1352 180.415 66.9242 181.657 69.0992C184.179 73.8483 184.179 79.524 181.657 84.2603C180.428 86.4482 178.604 88.25 176.393 89.4469C171.542 91.918 165.786 91.918 160.935 89.4469C158.724 88.2371 156.9 86.4353 155.671 84.2474C153.149 79.4983 153.149 73.8097 155.671 69.0606C156.9 66.8855 158.724 65.0966 160.935 63.8997C165.786 61.4286 171.542 61.4286 176.393 63.8997V63.9254V63.9383Z" fill="white"></path> <path class="brand__name" d="M196.305 56.02C195.387 56.9209 194.908 58.1822 194.986 59.4692V63.2402H202.979V67.1269H194.986V91.1555H189.889V67.1141H186.112V63.2273H189.889V60.1127C189.838 58.2465 190.303 56.4061 191.234 54.7845C192.075 53.3559 193.304 52.1976 194.766 51.4511C196.227 50.7046 197.844 50.3185 199.487 50.3314C201.246 50.37 202.966 50.8205 204.518 51.6442L203.316 55.7883C202.151 55.2092 200.884 54.8874 199.59 54.8617C198.387 54.8102 197.21 55.2349 196.305 56.02Z" fill="white"></path> <path class="brand__name" d="M224.057 89.2263C222.052 90.5776 219.685 91.3241 217.266 91.3627C215.209 91.4528 213.192 90.7192 211.678 89.3164C210.255 87.9521 209.531 85.8929 209.531 83.1258V67.1282H205.431V63.2286H209.531V55.4679H214.692V63.2286H223.565V67.1154H214.692V82.1863C214.576 83.3961 214.886 84.6188 215.572 85.6355C216.231 86.382 217.201 86.7681 218.197 86.7037C219.788 86.6394 221.34 86.1632 222.686 85.3266L224.057 89.2391V89.2263Z" fill="white"></path> <path class="brand__name" d="M225.989 62.2338H231.344L239.454 86.1079L247.448 62.2338H252.816L260.874 86.1079L268.868 62.2338H274.12L263.41 91.1401H258.055L250.061 68.4115L242.041 91.1401H236.686L225.989 62.2338Z" fill="white"></path> <path class="brand__name" d="M292.511 85.4337C294.102 84.3912 295.189 82.7438 295.499 80.8648V77.969H287.014C285.242 77.866 283.47 78.2264 281.892 79.0372C280.767 79.7451 280.133 80.9935 280.223 82.3062C280.172 83.6962 280.805 85.0218 281.918 85.8584C283.237 86.785 284.841 87.2484 286.458 87.1711C288.605 87.2226 290.726 86.6177 292.511 85.4208V85.4337ZM295.551 91.1351V87.081C293.404 89.9253 290.028 91.3411 285.41 91.3411C283.586 91.3797 281.775 90.9807 280.133 90.1956C278.684 89.4878 277.468 88.368 276.627 87.0038C275.8 85.6524 275.36 84.0952 275.36 82.4993C275.269 80.1183 276.343 77.8274 278.231 76.3602C280.146 74.8415 282.823 74.0693 286.264 74.0307H295.473V72.6665C295.59 70.8904 294.891 69.1529 293.585 67.9303C292.02 66.7205 290.054 66.1284 288.075 66.27C284.854 66.373 281.737 67.4541 279.15 69.3846L277.003 65.8839C278.8 64.6741 280.741 63.696 282.784 62.9624C284.828 62.3189 286.962 62.01 289.109 62.0615C292.731 62.0615 295.512 62.9495 297.491 64.7127C299.522 66.6304 300.621 69.3331 300.505 72.1131L300.557 91.1223H295.564L295.551 91.1351Z" fill="white"></path> <path class="brand__name" d="M317.243 63.7406C319.131 62.6338 321.291 62.0547 323.49 62.0804V66.9968C318.368 66.4562 313.776 70.15 313.233 75.2466C313.207 75.4653 313.194 75.6841 313.181 75.9029V91.154H308.098V62.2477H313.181V68.4769C314.022 66.5335 315.432 64.8861 317.23 63.7535" fill="white"></path> <path class="brand__name" d="M347.603 74.7483C347.577 72.4317 346.659 70.2181 345.029 68.5578C343.386 67.0134 341.174 66.1897 338.911 66.2927C336.634 66.2154 334.435 67.0391 332.767 68.5835C331.072 70.2309 330.038 72.4188 329.844 74.7612H347.603V74.7483ZM348.677 66.0353C350.888 68.6736 352.001 72.3416 352.001 77.0392V78.6866H329.908C330.18 81.0547 331.292 83.2426 333.051 84.8643C334.785 86.4087 337.035 87.2195 339.351 87.1552C340.942 87.168 342.507 86.8591 343.968 86.2285C345.378 85.6236 346.646 84.7227 347.694 83.603L350.41 86.4988C349.039 88.0303 347.344 89.2401 345.443 90.0509C343.412 90.9132 341.226 91.338 339.014 91.3122C336.453 91.3637 333.931 90.7202 331.706 89.4718C329.585 88.262 327.865 86.473 326.739 84.3109C324.385 79.5232 324.385 73.9375 326.739 69.1498C327.865 67.0134 329.559 65.2244 331.642 63.9889C333.827 62.7148 336.324 62.0584 338.859 62.097C343.192 62.0841 346.465 63.3969 348.677 66.0353Z" fill="white"></path> <path class="brand__name" d="M129.717 29.1474H145.795L137.711 10.5501L129.717 29.1474ZM151.9 43.1888L147.864 33.8965H127.634L123.638 43.1888H118.102L135.137 4.92584H140.608L157.591 43.1888H151.887H151.9Z" fill="white"></path> <path class="brand__name" d="M181.623 37.6536C183.098 36.7784 184.3 35.5043 185.077 33.9856C185.917 32.3382 186.344 30.5107 186.305 28.6574C186.331 26.8298 185.891 25.028 185.038 23.4063C184.249 21.8877 183.059 20.6264 181.584 19.7383C180.071 18.8503 178.35 18.3999 176.604 18.4256C174.845 18.3999 173.112 18.8503 171.586 19.7383C170.098 20.6135 168.895 21.8877 168.106 23.4063C167.252 25.028 166.813 26.8298 166.839 28.6574C166.8 30.5107 167.239 32.3511 168.106 33.9856C168.908 35.4914 170.111 36.7527 171.586 37.6278C174.703 39.3782 178.506 39.3782 181.61 37.6278V37.6536H181.623ZM184.844 16.006C186.952 17.2415 188.659 19.0434 189.772 21.1927C190.962 23.5479 191.57 26.1605 191.531 28.7989C191.583 31.4244 190.988 34.0242 189.811 36.3666C188.711 38.5159 187.03 40.292 184.934 41.5018C182.748 42.7502 180.252 43.3808 177.73 43.3422C175.492 43.3808 173.28 42.8531 171.301 41.8106C169.451 40.8068 167.925 39.2881 166.916 37.4348V43.1749H161.794V2.65967H166.89V20.0086C167.899 18.1682 169.4 16.6495 171.236 15.6328C173.202 14.5774 175.427 14.0497 177.665 14.1012C180.187 14.0884 182.671 14.7447 184.844 16.006Z" fill="white"></path> <path class="brand__name" d="M212.454 41.2833C210.449 42.6347 208.082 43.3812 205.663 43.4198C203.607 43.5099 201.589 42.7634 200.076 41.3734C198.653 40.0092 197.928 37.9371 197.928 35.17V19.1595H193.828V15.247H197.928V7.47345H203.089V15.2341H211.963V19.1209H203.089V34.2176C202.973 35.4274 203.283 36.6501 203.969 37.6668C204.629 38.4133 205.599 38.7994 206.595 38.735C208.186 38.6707 209.738 38.1816 211.083 37.3322L212.454 41.2833Z" fill="white"></path> <path class="brand__name" d="M223.811 19.8526C222.337 20.7149 221.147 21.9762 220.358 23.482C219.504 25.1294 219.09 26.9569 219.129 28.8102C219.103 30.6635 219.517 32.4911 220.358 34.1385C221.134 35.6572 222.324 36.9184 223.811 37.7807C225.35 38.6559 227.109 39.0935 228.882 39.0549C230.641 39.0806 232.374 38.643 233.9 37.7807C235.375 36.9313 236.578 35.6572 237.354 34.1385C238.195 32.4911 238.621 30.6635 238.583 28.8102C238.621 26.9569 238.195 25.1294 237.354 23.482C236.565 21.9762 235.375 20.7149 233.9 19.8397C232.374 18.9517 230.641 18.5013 228.882 18.527C227.097 18.5013 225.35 18.9517 223.811 19.8526ZM236.591 16.0173C238.802 17.2142 240.613 19.0032 241.855 21.1911C243.136 23.5077 243.795 26.1204 243.744 28.7588C243.769 31.3843 243.123 33.9712 241.842 36.2749C240.613 38.4628 238.79 40.2647 236.578 41.4616C231.727 43.9455 225.971 43.9455 221.121 41.4616C218.909 40.2647 217.085 38.4757 215.856 36.2878C214.563 33.9583 213.916 31.3199 213.968 28.6687C213.916 26.0303 214.563 23.4176 215.856 21.101C217.111 18.9517 218.935 17.1885 221.134 16.0173C225.984 13.5334 231.74 13.5334 236.591 16.0173Z" fill="white"></path> <path class="brand__logo" d="M65.6125 65.2737C40.8036 89.9844 12.9162 102.288 3.33152 92.7772C-6.25315 83.2661 6.1125 55.4537 30.9214 30.7173C55.7433 5.98091 83.5918 -6.29721 93.2283 3.21382C102.878 12.7249 90.4343 40.5373 65.6125 65.2737Z" fill="#00B5FF"></path> <path class="brand__logo-part" d="M95.1156 73.0196C93.3564 67.3953 90.8729 62.0285 87.7557 57.022C85.7249 53.65 83.5131 50.3938 81.146 47.2535C80.3052 48.4118 79.3869 49.6345 78.5202 50.7671C80.4346 53.5213 82.2454 56.3398 83.8752 59.2485C85.2334 61.6423 86.4492 64.1134 87.5228 66.6488C88.5964 69.1328 89.4631 71.7068 90.1227 74.3323C90.7695 76.8034 91.0282 79.3645 90.8988 81.9128C90.86 84.075 90.0192 86.1342 88.5447 87.7173C86.902 89.0686 84.8195 89.7636 82.6982 89.6993C80.1888 89.6993 77.6795 89.326 75.2865 88.5796C70.1514 86.9579 65.2362 84.6928 60.6702 81.8485C55.949 79.0042 51.4348 75.851 47.1534 72.3761C42.8461 68.914 38.7328 65.2203 34.8395 61.3077C30.9073 57.4338 27.195 53.3411 23.7156 49.0553C20.2361 44.8082 17.0542 40.3165 14.1956 35.6318C11.337 31.0758 9.07339 26.1851 7.43068 21.0628C6.69339 18.6689 6.30535 16.185 6.30535 13.6882C6.24068 11.5775 6.93916 9.50539 8.29731 7.87088C9.88829 6.40368 11.9578 5.56712 14.1309 5.52851C16.692 5.39981 19.266 5.65721 21.7495 6.30072C24.3882 6.9571 26.9622 7.8194 29.4586 8.87475C32.0068 9.9301 34.4902 11.1528 36.8961 12.5041C39.8064 14.1386 42.6262 15.9276 45.3943 17.8324C46.4032 17.0473 47.632 16.1078 48.8866 15.1811C45.7564 12.8388 42.5098 10.6637 39.1468 8.65596C34.1281 5.54138 28.7213 3.08318 23.0688 1.33284C20.0809 0.444802 16.9765 -0.00565304 13.8463 0.0200873C12.1389 0.0586977 10.4445 0.354711 8.82763 0.920998C7.08144 1.51302 5.47753 2.47829 4.13231 3.73956C2.81296 5.03944 1.79111 6.6096 1.13144 8.34707C0.523505 9.95584 0.161331 11.6547 0.0707877 13.3793C-0.0714949 16.5454 0.264809 19.7243 1.0797 22.7874C1.81698 25.7089 2.78709 28.5532 3.99003 31.3203C5.14122 34.0488 6.46057 36.7 7.9222 39.274C13.7946 49.3771 20.9993 58.6565 29.3551 66.8548C37.5946 75.1689 46.9206 82.3376 57.0744 88.1806C59.6613 89.6349 62.3259 90.9477 65.0681 92.0931C67.849 93.2772 70.7076 94.2424 73.6438 94.9889C76.7223 95.7869 79.9172 96.1215 83.0991 95.9542C84.8324 95.8641 86.5398 95.5037 88.1566 94.8859C89.9028 94.2296 91.4809 93.2128 92.7873 91.9001C94.0549 90.5616 95.025 88.9657 95.62 87.2282C96.1633 85.6066 96.4478 83.9206 96.4608 82.2217C96.4996 79.1071 96.0469 76.0054 95.1285 73.0324" fill="white"></path> <path d="M48.9636 15.2144C47.7865 16.0638 46.6224 16.9518 45.4453 17.8656C47.2562 19.1269 49.0541 20.4139 50.7486 21.7781C55.1723 25.2402 59.389 28.9468 63.3988 32.8851C67.3439 36.8491 71.0691 41.0447 74.5486 45.4206C75.9197 47.1709 77.2261 48.9727 78.5066 50.7488C79.3732 49.6034 80.2916 48.3807 81.1324 47.2353C80.0588 45.7681 78.9076 44.3009 77.7435 42.8594C74.1347 38.3806 70.2801 34.1077 66.1798 30.0665C62.1182 25.9867 57.8239 22.1514 53.3226 18.5477C51.8998 17.4023 50.4511 16.2954 48.9765 15.2144" fill="#0091CC"></path> </g> </svg>