<?xml version="1.0" encoding="utf-8"?>
<svg width="202px" height="38px" viewBox="0 0 202 38" version="1.1" xmlns:xlink="http://www.w3.org/1999/xlink" xmlns="http://www.w3.org/2000/svg">
  <g id="Group-2-Copy">
    <path d="M0 0L202 0L202 38L0 38L0 0Z" id="Rectangle" fill="none" fill-rule="evenodd" stroke="none" />
    <path d="M11.8825 0C11.6938 0 11.5244 0.115435 11.4551 0.291397L11.4551 0.291397L0.0321505 29.2742C-0.0471248 29.4754 0.0240621 29.7048 0.203201 29.8257L0.203201 29.8257L2.5901 31.4345C2.77875 31.5617 3.03193 31.5315 3.18538 31.3635L3.18538 31.3635C3.29645 31.242 3.37063 31.162 3.40795 31.1232L3.40795 31.1232C5.92968 28.5116 9.16889 27.2164 13.2243 27.2164L13.2243 27.2164C17.2809 27.2164 20.5209 28.5124 23.0431 31.1255L23.0431 31.1255C23.1028 31.1875 23.1785 31.2692 23.2701 31.371L23.2701 31.371C23.4238 31.5413 23.6793 31.5723 23.8689 31.4432L23.8689 31.4432L26.2476 29.826C26.4258 29.7048 26.4962 29.4761 26.4171 29.2756L26.4171 29.2756L14.9936 0.291397C14.9245 0.115435 14.7549 0 14.5662 0L14.5662 0L11.8825 0ZM12.7839 5.38011C12.8073 5.26928 12.8251 5.18374 12.8358 5.1298L12.8358 5.1298L12.8388 5.1146C12.843 5.09336 12.8459 5.07839 12.8472 5.07079L12.8472 5.07079C12.8888 4.90602 13.035 4.78336 13.2107 4.77764L13.2107 4.77764L13.223 4.77764L13.2256 4.77764C13.407 4.77764 13.559 4.90238 13.6016 5.07079L13.6016 5.07079C13.6028 5.07839 13.6058 5.09336 13.6099 5.1146L13.6099 5.1146L13.613 5.1298C13.6238 5.18369 13.6414 5.269 13.6647 5.37983L13.6647 5.37983L13.669 5.39899C13.8111 6.0366 14.2097 7.63919 15.1203 10.3186L15.1203 10.3186L19.9572 22.5908L19.9603 22.5904C20.7916 24.4938 21.6955 25.8617 21.7682 25.9641L21.7682 25.9641C21.8569 26.1134 21.8373 26.3094 21.7092 26.4377L21.7092 26.4377C21.579 26.5684 21.3966 26.5812 21.2295 26.493L21.2295 26.493C21.0643 26.4057 18.4789 24.065 13.2243 24.065L13.2243 24.065C7.96988 24.065 5.38463 26.4057 5.21924 26.493L5.21924 26.493C5.05214 26.5812 4.86983 26.5684 4.73954 26.4377L4.73954 26.4377C4.61141 26.3094 4.59188 26.1134 4.68067 25.9641L4.68067 25.9641L4.68292 25.9606C4.77153 25.8342 5.66543 24.4747 6.48847 22.5904L6.48847 22.5904L6.49146 22.5908L11.3283 10.3188L11.3281 10.3188C12.2482 7.61224 12.6454 6.00486 12.7839 5.38011L12.7839 5.38011ZM134.551 0.0237687C134.298 0.0237687 134.092 0.229902 134.092 0.484356L134.092 0.484356L134.092 29.3363C134.092 29.5906 134.298 29.7969 134.551 29.7969L134.551 29.7969L137.157 29.7969C137.411 29.7969 137.617 29.5906 137.617 29.3363L137.617 29.3363L137.617 0.484356C137.617 0.229902 137.411 0.0237687 137.157 0.0237687L137.157 0.0237687L134.551 0.0237687ZM142.552 0.0259797C142.298 0.0259797 142.092 0.232297 142.092 0.486613L142.092 0.486613L142.092 4.0796C142.092 4.33396 142.298 4.54019 142.552 4.54019L142.552 4.54019L145.157 4.54019C145.411 4.54019 145.617 4.33396 145.617 4.0796L145.617 4.0796L145.617 0.486613C145.617 0.232297 145.411 0.0259797 145.157 0.0259797L145.157 0.0259797L142.552 0.0259797ZM190.635 8.69446C189.661 9.22289 188.843 9.93172 188.182 10.821L188.182 10.821C188.043 11.0073 187.721 11.0792 187.53 10.7521L187.53 10.7521C187.072 9.75746 186.395 9.02989 185.499 8.56935L185.499 8.56935C184.418 8.01346 183.212 7.7356 181.881 7.7356L181.881 7.7356C180.644 7.7356 179.559 7.94035 178.599 8.34986L178.599 8.34986C178.324 8.45672 178.06 8.57856 177.805 8.71523L177.805 8.71523C176.944 9.17761 176.196 9.83383 175.563 10.6838L175.563 10.6838C175.494 10.7697 175.389 10.825 175.27 10.825L175.27 10.825C175.068 10.825 174.903 10.6632 174.896 10.4615L174.896 10.4615L174.896 10.4556L174.777 8.66567C174.761 8.42379 174.56 8.2359 174.318 8.2359L174.318 8.2359L171.984 8.2359C171.73 8.2359 171.525 8.44203 171.525 8.69648L171.525 8.69648L171.525 29.3272C171.525 29.5815 171.73 29.7879 171.984 29.7879L171.984 29.7879L174.6 29.7879C174.854 29.7879 175.06 29.5815 175.06 29.3272L175.06 29.3272L175.06 17.6153L175.06 17.5546C175.065 16.6054 175.197 15.7293 175.455 14.9265L175.455 14.9265C175.718 14.1066 176.113 13.3911 176.64 12.7796L176.64 12.7796C177.167 12.1683 177.826 11.6958 178.616 11.3624L178.616 11.3624C179.324 11.0636 180.149 10.8986 181.091 10.8676L181.091 10.8676C181.764 10.8931 182.325 11.0095 182.775 11.2164L182.775 11.2164C183.288 11.4528 183.697 11.7861 184.002 12.217L184.002 12.217C184.307 12.6478 184.522 13.1548 184.646 13.7386L184.646 13.7386C184.771 14.3222 184.834 14.9612 184.834 15.656L184.834 15.656L184.834 29.3272C184.834 29.5815 185.039 29.7879 185.293 29.7879L185.293 29.7879L187.909 29.7879C188.163 29.7879 188.369 29.5815 188.369 29.3272L188.369 29.3272L188.369 16.3647C188.369 14.6973 188.868 13.3632 189.866 12.3628L189.866 12.3628C190.864 11.3624 192.237 10.862 193.983 10.862L193.983 10.862C194.843 10.862 195.543 10.9872 196.084 11.2372L196.084 11.2372C196.624 11.4874 197.047 11.8279 197.352 12.2587L197.352 12.2587C197.657 12.6893 197.865 13.1965 197.976 13.7801L197.976 13.7801C198.087 14.3638 198.142 14.989 198.142 15.656L198.142 15.656L198.142 29.3272C198.142 29.5815 198.348 29.7879 198.602 29.7879L198.602 29.7879L201.218 29.7879C201.472 29.7879 201.678 29.5815 201.678 29.3272L201.678 29.3272L201.678 13.9886C201.678 12.8769 201.504 11.9251 201.158 11.1331L201.158 11.1331C200.811 10.3411 200.326 9.69491 199.702 9.19461L199.702 9.19461C199.078 8.69446 198.33 8.32623 197.456 8.09006L197.456 8.09006C196.583 7.85366 195.605 7.7356 194.524 7.7356L194.524 7.7356C193.11 7.7356 191.814 8.05523 190.635 8.69446L190.635 8.69446ZM115.962 8.61458C114.659 9.19811 113.564 9.99713 112.677 11.0116L112.677 11.0116C111.79 12.0258 111.124 13.2209 110.68 14.5965L110.68 14.5965C110.237 15.9723 110.015 17.4521 110.015 19.0361L110.015 19.0361C110.015 20.6202 110.237 22.0932 110.68 23.4549L110.68 23.4549C111.124 24.8167 111.79 26.0047 112.677 27.0192L112.677 27.0192C113.564 28.0336 114.659 28.8256 115.962 29.3954L115.962 29.3954C117.266 29.9651 118.763 30.2499 120.454 30.2499L120.454 30.2499C122.173 30.2499 123.677 29.9651 124.967 29.3954L124.967 29.3954C126.256 28.8256 127.344 28.0336 128.231 27.0192L128.231 27.0192C129.119 26.0047 129.784 24.8167 130.228 23.4549L130.228 23.4549C130.671 22.0932 130.893 20.6202 130.893 19.0361L130.893 19.0361C130.893 17.4521 130.671 15.9723 130.228 14.5965L130.228 14.5965C129.784 13.2209 129.119 12.0258 128.231 11.0116L128.231 11.0116C127.344 9.99713 126.256 9.19811 124.967 8.61458L124.967 8.61458C123.677 8.03105 122.173 7.73915 120.454 7.73915L120.454 7.73915C118.763 7.73915 117.266 8.03105 115.962 8.61458L115.962 8.61458ZM117.855 26.6231C117.037 26.2618 116.323 25.7408 115.713 25.0598L115.713 25.0598C115.103 24.379 114.625 23.5314 114.278 22.5169L114.278 22.5169C113.931 21.5027 113.758 20.3424 113.758 19.0361L113.758 19.0361C113.758 17.73 113.931 16.5698 114.278 15.5555L114.278 15.5555C114.625 14.541 115.103 13.6864 115.713 12.9917L115.713 12.9917C116.323 12.2969 117.037 11.7688 117.855 11.4074L117.855 11.4074C118.673 11.0463 119.539 10.8656 120.454 10.8656L120.454 10.8656C121.369 10.8656 122.236 11.0463 123.054 11.4074L123.054 11.4074C123.872 11.7688 124.585 12.2969 125.195 12.9917L125.195 12.9917C125.805 13.6864 126.284 14.541 126.63 15.5555L126.63 15.5555C126.977 16.5698 127.15 17.73 127.15 19.0361L127.15 19.0361C127.15 20.3424 126.977 21.5027 126.63 22.5169L126.63 22.5169C126.284 23.5314 125.805 24.379 125.195 25.0598L125.195 25.0598C124.585 25.7408 123.872 26.2618 123.054 26.6231L123.054 26.6231C122.236 26.9845 121.369 27.165 120.454 27.165L120.454 27.165C119.539 27.165 118.673 26.9845 117.855 26.6231L117.855 26.6231ZM95.2041 7.91014C94.3162 8.05685 93.5089 8.3253 92.7826 8.71523L92.7826 8.71523C91.9215 9.17761 91.1739 9.83369 90.5403 10.6837L90.5403 10.6837C90.4718 10.7697 90.3664 10.825 90.2479 10.825L90.2479 10.825C90.0451 10.825 89.8802 10.6632 89.8741 10.4615L89.8741 10.4615L89.874 10.4556L89.7543 8.66567C89.7382 8.42379 89.5378 8.2359 89.2959 8.2359L89.2959 8.2359L86.9621 8.23576L86.9492 8.2359C86.7012 8.2428 86.5025 8.44636 86.5025 8.69648L86.5025 8.69648L86.5025 37.5393C86.5025 37.7937 86.7082 38 86.9621 38L86.9621 38L89.578 38C89.8318 38 90.0377 37.7937 90.0377 37.5393L90.0377 37.5393L90.0377 27.9724L90.0388 27.9651C90.0286 27.7839 90.1516 27.6172 90.3344 27.5782L90.3344 27.5782C90.4524 27.5531 90.5694 27.5868 90.6546 27.6595L90.6546 27.6595L90.6547 27.6583C90.9246 27.9796 91.2249 28.2656 91.5555 28.5164L91.5555 28.5164C92.1241 28.947 92.7271 29.2875 93.3648 29.5377L93.3648 29.5377C94.0025 29.7876 94.6472 29.9683 95.2988 30.0795L95.2988 30.0795C95.7793 30.1614 96.2258 30.2133 96.6385 30.2347L96.6385 30.2347L96.692 30.2374L96.692 30.2423C98.3074 30.2159 99.7285 29.9317 100.955 29.3898L100.955 29.3898C102.244 28.8201 103.332 28.0283 104.22 27.0142L104.22 27.0142C105.107 26.0001 105.773 24.8122 106.216 23.4508L106.216 23.4508C106.66 22.0893 106.882 20.6166 106.882 19.033L106.882 19.033C106.882 17.4492 106.66 15.9697 106.216 14.5942L106.216 14.5942C105.773 13.2188 105.107 12.0242 104.22 11.0099L104.22 11.0099C103.332 9.9957 102.244 9.19696 100.955 8.61348L100.955 8.61348C99.7285 8.05832 98.3074 7.76734 96.692 7.7403L96.692 7.7403L96.692 7.73915C96.1291 7.75338 95.654 7.81045 95.2041 7.91014L95.2041 7.91014ZM93.5728 26.4736C92.7132 26.0151 92.0131 25.4106 91.4725 24.6603L91.4725 24.6603C90.9317 23.9099 90.5367 23.0414 90.2873 22.0548L90.2873 22.0548C90.0377 21.0683 89.9127 20.0469 89.9127 18.9909L89.9127 18.9909C89.9127 17.9905 90.0306 17.0038 90.2664 16.0312L90.2664 16.0312C90.502 15.0585 90.8832 14.1899 91.4101 13.4259L91.4101 13.4259C91.9369 12.6615 92.6162 12.0431 93.448 11.5707L93.448 11.5707C94.2799 11.0983 95.2918 10.862 96.484 10.862L96.484 10.862C96.5306 10.862 96.577 10.8624 96.6232 10.8632L96.6232 10.8632L96.692 10.8645L96.692 10.8687C97.5154 10.8986 98.2987 11.0777 99.0419 11.4059L99.0419 11.4059C99.8598 11.7671 100.574 12.295 101.184 12.9897L101.184 12.9897C101.794 13.6842 102.272 14.5387 102.619 15.5528L102.619 15.5528C102.965 16.567 103.139 17.727 103.139 19.033L103.139 19.033C103.139 20.3388 102.965 21.4989 102.619 22.5129L102.619 22.5129C102.272 23.5271 101.794 24.3746 101.184 25.0554L101.184 25.0554C100.574 25.7361 99.8598 26.2571 99.0419 26.6183L99.0419 26.6183C98.2987 26.9465 97.5154 27.1256 96.692 27.1557L96.692 27.1557L96.692 27.1615C95.472 27.1615 94.4323 26.9321 93.5728 26.4736L93.5728 26.4736ZM68.2134 8.61458C66.9103 9.19811 65.8152 9.99713 64.9278 11.0116L64.9278 11.0116C64.0406 12.0258 63.3751 13.2209 62.9315 14.5965L62.9315 14.5965C62.4879 15.9723 62.2661 17.4521 62.2661 19.0361L62.2661 19.0361C62.2661 20.6202 62.4879 22.0932 62.9315 23.4549L62.9315 23.4549C63.3751 24.8167 64.0406 26.0047 64.9278 27.0192L64.9278 27.0192C65.8152 28.0336 66.9103 28.8256 68.2134 29.3954L68.2134 29.3954C69.5166 29.9651 71.0139 30.2499 72.7052 30.2499L72.7052 30.2499C74.4243 30.2499 75.9284 29.9651 77.2178 29.3954L77.2178 29.3954C78.5071 28.8256 79.5951 28.0336 80.4825 27.0192L80.4825 27.0192C81.3699 26.0047 82.0352 24.8167 82.479 23.4549L82.479 23.4549C82.9225 22.0932 83.1442 20.6202 83.1442 19.0361L83.1442 19.0361C83.1442 17.4521 82.9225 15.9723 82.479 14.5965L82.479 14.5965C82.0352 13.2209 81.3699 12.0258 80.4825 11.0116L80.4825 11.0116C79.5951 9.99713 78.5071 9.19811 77.2178 8.61458L77.2178 8.61458C75.9284 8.03105 74.4243 7.73915 72.7052 7.73915L72.7052 7.73915C71.0139 7.73915 69.5166 8.03105 68.2134 8.61458L68.2134 8.61458ZM70.1059 26.6231C69.2879 26.2618 68.5739 25.7408 67.9639 25.0598L67.9639 25.0598C67.3539 24.379 66.8757 23.5314 66.5291 22.5169L66.5291 22.5169C66.1825 21.5027 66.0091 20.3424 66.0091 19.0361L66.0091 19.0361C66.0091 17.73 66.1825 16.5698 66.5291 15.5555L66.5291 15.5555C66.8757 14.541 67.3539 13.6864 67.9639 12.9917L67.9639 12.9917C68.5739 12.2969 69.2879 11.7688 70.1059 11.4074L70.1059 11.4074C70.9238 11.0463 71.7903 10.8656 72.7052 10.8656L72.7052 10.8656C73.6202 10.8656 74.4866 11.0463 75.3047 11.4074L75.3047 11.4074C76.1225 11.7688 76.8364 12.2969 77.4465 12.9917L77.4465 12.9917C78.0565 13.6864 78.5347 14.541 78.8814 15.5555L78.8814 15.5555C79.228 16.5698 79.4011 17.73 79.4011 19.0361L79.4011 19.0361C79.4011 20.3424 79.228 21.5027 78.8814 22.5169L78.8814 22.5169C78.5347 23.5314 78.0565 24.379 77.4465 25.0598L77.4465 25.0598C76.8364 25.7408 76.1225 26.2618 75.3047 26.6231L75.3047 26.6231C74.4866 26.9845 73.6202 27.165 72.7052 27.165L72.7052 27.165C71.7903 27.165 70.9238 26.9845 70.1059 26.6231L70.1059 26.6231ZM32.8158 8.61458C31.5127 9.19811 30.4174 9.99713 29.5301 11.0116L29.5301 11.0116C28.6428 12.0258 27.9774 13.2209 27.5337 14.5965L27.5337 14.5965C27.0902 15.9723 26.8683 17.4521 26.8683 19.0361L26.8683 19.0361C26.8683 20.6202 27.0902 22.0932 27.5337 23.4549L27.5337 23.4549C27.9774 24.8167 28.6428 26.0047 29.5301 27.0192L29.5301 27.0192C30.4174 28.0336 31.5127 28.8256 32.8158 29.3954L32.8158 29.3954C34.1188 29.9651 35.6161 30.2499 37.3074 30.2499L37.3074 30.2499C39.0265 30.2499 40.5307 29.9651 41.82 29.3954L41.82 29.3954C43.1094 28.8256 44.1975 28.0336 45.0848 27.0192L45.0848 27.0192C45.9721 26.0047 46.6376 24.8167 47.0812 23.4549L47.0812 23.4549C47.1149 23.3515 47.1539 23.2214 47.1982 23.0647L47.1982 23.0647C47.2099 23.0238 47.2157 22.9816 47.2157 22.9392L47.2157 22.9392C47.2157 22.6849 47.0101 22.4785 46.7564 22.4785L46.7564 22.4785L43.8169 22.4785C43.6255 22.4785 43.4541 22.5974 43.387 22.777L43.387 22.777C43.3179 22.9612 43.2619 23.1024 43.2192 23.2004L43.2192 23.2004C42.9064 23.9183 42.5163 24.5381 42.0488 25.0598L42.0488 25.0598C41.4387 25.7408 40.7247 26.2618 39.9069 26.6231L39.9069 26.6231C39.0889 26.9845 38.2224 27.165 37.3074 27.165L37.3074 27.165C36.3925 27.165 35.526 26.9845 34.7082 26.6231L34.7082 26.6231C33.8901 26.2618 33.1761 25.7408 32.5661 25.0598L32.5661 25.0598C31.9563 24.379 31.478 23.5314 31.1314 22.5169L31.1314 22.5169C30.7849 21.5027 30.6114 20.3424 30.6114 19.0361L30.6114 19.0361C30.6114 17.73 30.7849 16.5698 31.1314 15.5555L31.1314 15.5555C31.478 14.541 31.9563 13.6864 32.5661 12.9917L32.5661 12.9917C33.1761 12.2969 33.8901 11.7688 34.7082 11.4074L34.7082 11.4074C35.526 11.0463 36.3925 10.8656 37.3074 10.8656L37.3074 10.8656C38.2224 10.8656 39.0889 11.0463 39.9069 11.4074L39.9069 11.4074C40.7247 11.7688 41.4387 12.2969 42.0488 12.9917L42.0488 12.9917C42.4025 13.3947 42.8198 14.1045 43.3006 15.1212L43.3006 15.1212C43.3765 15.2821 43.538 15.3846 43.7157 15.3846L43.7157 15.3846L46.7011 15.3846C46.7455 15.3846 46.7896 15.3782 46.8321 15.3655L46.8321 15.3655C47.0754 15.293 47.2138 15.0365 47.1415 14.7927L47.1415 14.7927C47.1192 14.7179 47.0992 14.6525 47.0812 14.5965L47.0812 14.5965C46.6376 13.2209 45.9721 12.0258 45.0848 11.0116L45.0848 11.0116C44.1975 9.99713 43.1094 9.19811 41.82 8.61458L41.82 8.61458C40.5307 8.03105 39.0265 7.73915 37.3074 7.73915L37.3074 7.73915C35.6161 7.73915 34.1188 8.03105 32.8158 8.61458L32.8158 8.61458ZM57.0926 8.71523C56.2314 9.17761 55.4839 9.83383 54.8504 10.6838L54.8504 10.6838C54.7817 10.7697 54.6764 10.825 54.5578 10.825L54.5578 10.825C54.3551 10.825 54.1901 10.6632 54.1841 10.4615L54.1841 10.4615L54.1839 10.4556L54.0643 8.66567C54.0482 8.42379 53.8477 8.2359 53.6058 8.2359L53.6058 8.2359L51.272 8.2359C51.0182 8.2359 50.8125 8.44203 50.8125 8.69648L50.8125 8.69648L50.8125 29.3272C50.8125 29.5815 51.0182 29.7879 51.272 29.7879L51.272 29.7879L53.888 29.7879C54.1418 29.7879 54.3476 29.5815 54.3476 29.3272L54.3476 29.3272L54.3476 17.6153L54.3478 17.5546C54.3531 16.6054 54.4848 15.7293 54.7427 14.9265L54.7427 14.9265C55.0061 14.1066 55.4011 13.3911 55.928 12.7796L55.928 12.7796C56.4548 12.1683 57.1133 11.6958 57.9036 11.3624L57.9036 11.3624C58.6938 11.0288 59.6295 10.862 60.7108 10.862L60.7108 10.862C60.9458 10.862 61.2419 10.8883 61.5991 10.9406L61.5991 10.9406C61.621 10.9438 61.6432 10.9455 61.6653 10.9455L61.6653 10.9455C61.9192 10.9455 62.1249 10.7393 62.125 10.4849L62.125 10.4849L62.125 8.24999C62.1249 8.00148 61.9284 7.79806 61.6806 7.78968L61.6806 7.78968C61.4341 7.78143 61.2773 7.77738 61.21 7.77738L61.21 7.77738C59.6295 7.77738 58.2571 8.09006 57.0926 8.71523L57.0926 8.71523ZM164.278 8.23944C164.024 8.23944 163.819 8.44548 163.819 8.70003L163.819 20.4118C163.819 21.3845 163.687 22.2808 163.424 23.1007C163.16 23.9204 162.765 24.6361 162.238 25.2476C161.711 25.8589 161.053 26.3313 160.263 26.6649C159.472 26.9982 158.537 27.165 157.455 27.165C156.097 27.165 155.029 26.7759 154.253 25.9978C153.477 25.2196 153.088 24.1637 153.088 22.8296L153.088 8.70003C153.088 8.44548 152.883 8.23944 152.629 8.23944L150.013 8.23944C149.759 8.23944 149.553 8.44548 149.553 8.70003L149.553 22.4128C149.553 23.58 149.671 24.6429 149.907 25.6019C150.142 26.5605 150.551 27.3874 151.134 28.0822C151.716 28.7769 152.478 29.3119 153.421 29.6871C154.364 30.0622 155.542 30.2499 156.956 30.2499C158.537 30.2499 159.909 29.9372 161.074 29.3119C161.935 28.8494 162.682 28.1934 163.316 27.3434C163.384 27.2573 163.49 27.2022 163.608 27.2022C163.811 27.2022 163.976 27.3639 163.982 27.5656L163.982 27.5714L164.102 29.3615C164.118 29.6034 164.318 29.7913 164.56 29.7913L166.894 29.7913C167.148 29.7913 167.354 29.585 167.354 29.3307L167.354 8.70003C167.354 8.44548 167.148 8.23944 166.894 8.23944L164.278 8.23944ZM142.319 8.24147C142.065 8.24147 141.859 8.44769 141.859 8.7021L141.859 8.7021L141.859 29.3385C141.859 29.5929 142.065 29.7991 142.319 29.7991L142.319 29.7991L144.924 29.7991C145.178 29.7991 145.384 29.5929 145.384 29.3385L145.384 29.3385L145.384 8.7021C145.384 8.44769 145.178 8.24147 144.924 8.24147L144.924 8.24147L142.319 8.24147Z" id="Clip-2-Copy" fill="#FFFFFF" fill-rule="evenodd" stroke="none" />
  </g>
</svg>