<?xml version="1.0" encoding="UTF-8"?>
<svg xmlns="http://www.w3.org/2000/svg" width="153" height="40" viewBox="0 0 153 40" fill="none">
  <path d="M28.1776 26.6476L30.7444 22.1969L38.5018 35.5492H43.6353C42.4945 33.7233 31.657 15.1783 30.7444 13.3524L19.5646 32.7532L15.4007 40H0C0.855595 38.5735 6.6166 28.5307 12.1494 18.8873C15.4007 13.2382 18.9942 6.90442 23.044 0H28.1776L17.5682 18.3738L7.70035 35.5492H12.8339C19.8498 23.1669 24.2419 15.8631 30.7444 4.45079C31.1436 5.13552 51.2216 39.9429 51.3357 40H35.935L28.1776 26.6476Z" fill="#FDFCFF"></path>
  <path d="M63.3629 14.237H66.815V25.6027H63.3629V24.4662C63.2099 24.8596 62.183 25.8213 60.4351 25.8213C57.8351 25.8213 54.8418 23.9635 54.8418 19.898C54.8418 15.9856 57.8351 14.0403 60.4351 14.0403C62.183 14.0403 63.2099 15.0457 63.3629 15.2862V14.237ZM60.9376 22.7832C62.3578 22.7832 63.5158 21.7996 63.5158 19.898C63.5158 18.062 62.3578 17.0784 60.9376 17.0784C59.4519 17.0784 58.1847 18.0839 58.1847 19.898C58.1847 21.7777 59.4519 22.7832 60.9376 22.7832ZM75.4234 14.0403C78.0234 14.0403 81.0167 15.9856 81.0167 19.898C81.0167 23.9635 78.0234 25.8213 75.4234 25.8213C73.6755 25.8213 72.6486 24.8596 72.4957 24.4662V29.7556H69.0436V23.1766V14.237H72.4957V15.2862C72.6486 15.0457 73.6755 14.0403 75.4234 14.0403ZM74.9209 22.7832C76.4066 22.7832 77.6739 21.7777 77.6739 19.898C77.6739 18.0839 76.4066 17.0784 74.9209 17.0784C73.5007 17.0784 72.3427 18.062 72.3427 19.898C72.3427 21.7996 73.5007 22.7832 74.9209 22.7832ZM89.2756 14.0403C91.8756 14.0403 94.8689 15.9856 94.8689 19.898C94.8689 23.9635 91.8756 25.8213 89.2756 25.8213C87.5277 25.8213 86.5008 24.8596 86.3478 24.4662V29.7556H82.8957V23.1766V14.237H86.3478V15.2862C86.5008 15.0457 87.5277 14.0403 89.2756 14.0403ZM88.7731 22.7832C90.2588 22.7832 91.526 21.7777 91.526 19.898C91.526 18.0839 90.2588 17.0784 88.7731 17.0784C87.3529 17.0784 86.1949 18.062 86.1949 19.898C86.1949 21.7996 87.3529 22.7832 88.7731 22.7832ZM102.385 14.0403C104.963 14.0403 108.568 15.9856 107.847 21.122H99.916C100.309 22.3023 101.336 22.9143 102.713 22.9143C104.111 22.9143 104.548 22.6083 105.334 22.2804L107.235 24.1165C106.23 25.1 104.876 25.8213 102.582 25.8213C99.763 25.8213 96.3983 23.876 96.3983 19.9636C96.3983 15.9856 99.8067 14.0403 102.385 14.0403ZM102.385 16.991C101.402 16.991 100.397 17.5593 99.9597 18.6959H104.788C104.439 17.5593 103.368 16.991 102.385 16.991ZM118.007 25.6027L115.647 22.2804L113.309 25.6027H109.355L113.659 19.7669L109.792 14.237H113.703L115.647 17.2752L117.614 14.237H121.525L117.635 19.7669L121.961 25.6027H118.007ZM128.529 14.0403C131.108 14.0403 134.516 15.9856 134.516 19.9636C134.516 23.9635 131.108 25.8213 128.529 25.8213C125.951 25.8213 122.543 23.9635 122.543 19.9636C122.543 15.9856 125.951 14.0403 128.529 14.0403ZM128.529 17.0784C127.218 17.0784 125.886 18.0839 125.886 19.9636C125.886 21.7777 127.218 22.7832 128.529 22.7832C129.84 22.7832 131.195 21.7777 131.195 19.9636C131.195 18.0839 129.84 17.0784 128.529 17.0784ZM141.704 12.7726C140.721 12.7726 140.743 13.6687 140.743 13.8873V14.237H143.103V17.0784H140.743V25.6027H137.269V17.0784H135.718V14.237H137.269V13.8873C137.269 10.3683 139.913 9.93115 141.289 9.93115C142.382 9.93115 143.452 10.1716 144.261 10.6962L143.103 13.0786C142.469 12.8382 142.229 12.7726 141.704 12.7726ZM151.471 22.7176C152.083 22.7176 152.519 22.6302 153 22.499V25.3623C152.519 25.5809 151.733 25.7339 150.575 25.7339C148.674 25.7339 147.079 25.1 147.079 21.6029V17.0784H145.484V14.237H147.079V11.5704H150.531V14.237H152.956V17.0784H150.531V21.6029C150.531 22.1056 150.662 22.7176 151.471 22.7176Z" fill="#FDFCFF"></path>
</svg>
