<svg width="153" height="40" viewBox="0 0 153 40" fill="none" xmlns="http://www.w3.org/2000/svg">
<path d="M28.1776 26.6476L30.7444 22.1969L38.5018 35.5492H43.6353C42.4945 33.7233 31.657 15.1783 30.7444 13.3524L19.5646 32.7532L15.4007 40H0C0.855595 38.5735 6.6166 28.5307 12.1494 18.8873C15.4007 13.2382 18.9942 6.90442 23.044 0H28.1776L17.5682 18.3738L7.70035 35.5492H12.8339C19.8498 23.1669 24.2419 15.8631 30.7444 4.45079C31.1436 5.13552 51.2216 39.9429 51.3357 40H35.935L28.1776 26.6476Z" fill="#4218B9"></path>
<path d="M63.3629 14.2373H66.815V25.603H63.3629V24.4664C63.2099 24.8598 62.183 25.8216 60.4351 25.8216C57.8351 25.8216 54.8418 23.9637 54.8418 19.8983C54.8418 15.9858 57.8351 14.0405 60.4351 14.0405C62.183 14.0405 63.2099 15.046 63.3629 15.2864V14.2373ZM60.9376 22.7834C62.3578 22.7834 63.5158 21.7998 63.5158 19.8983C63.5158 18.0623 62.3578 17.0787 60.9376 17.0787C59.4519 17.0787 58.1847 18.0841 58.1847 19.8983C58.1847 21.778 59.4519 22.7834 60.9376 22.7834ZM75.4234 14.0405C78.0234 14.0405 81.0167 15.9858 81.0167 19.8983C81.0167 23.9637 78.0234 25.8216 75.4234 25.8216C73.6755 25.8216 72.6486 24.8598 72.4957 24.4664V29.7558H69.0436V23.1768V14.2373H72.4957V15.2864C72.6486 15.046 73.6755 14.0405 75.4234 14.0405ZM74.9209 22.7834C76.4066 22.7834 77.6739 21.778 77.6739 19.8983C77.6739 18.0841 76.4066 17.0787 74.9209 17.0787C73.5007 17.0787 72.3427 18.0623 72.3427 19.8983C72.3427 21.7998 73.5007 22.7834 74.9209 22.7834ZM89.2756 14.0405C91.8756 14.0405 94.8689 15.9858 94.8689 19.8983C94.8689 23.9637 91.8756 25.8216 89.2756 25.8216C87.5277 25.8216 86.5008 24.8598 86.3478 24.4664V29.7558H82.8957V23.1768V14.2373H86.3478V15.2864C86.5008 15.046 87.5277 14.0405 89.2756 14.0405ZM88.7731 22.7834C90.2588 22.7834 91.526 21.778 91.526 19.8983C91.526 18.0841 90.2588 17.0787 88.7731 17.0787C87.3529 17.0787 86.1949 18.0623 86.1949 19.8983C86.1949 21.7998 87.3529 22.7834 88.7731 22.7834ZM102.385 14.0405C104.963 14.0405 108.568 15.9858 107.847 21.1223H99.916C100.309 22.3026 101.336 22.9146 102.713 22.9146C104.111 22.9146 104.548 22.6086 105.334 22.2807L107.235 24.1167C106.23 25.1003 104.876 25.8216 102.582 25.8216C99.763 25.8216 96.3983 23.8763 96.3983 19.9638C96.3983 15.9858 99.8067 14.0405 102.385 14.0405ZM102.385 16.9913C101.402 16.9913 100.397 17.5595 99.9597 18.6961H104.788C104.439 17.5595 103.368 16.9913 102.385 16.9913ZM118.007 25.603L115.647 22.2807L113.309 25.603H109.355L113.659 19.7671L109.792 14.2373H113.703L115.647 17.2754L117.614 14.2373H121.525L117.635 19.7671L121.961 25.603H118.007ZM128.529 14.0405C131.108 14.0405 134.516 15.9858 134.516 19.9638C134.516 23.9637 131.108 25.8216 128.529 25.8216C125.951 25.8216 122.543 23.9637 122.543 19.9638C122.543 15.9858 125.951 14.0405 128.529 14.0405ZM128.529 17.0787C127.218 17.0787 125.886 18.0841 125.886 19.9638C125.886 21.778 127.218 22.7834 128.529 22.7834C129.84 22.7834 131.195 21.778 131.195 19.9638C131.195 18.0841 129.84 17.0787 128.529 17.0787ZM141.704 12.7728C140.721 12.7728 140.743 13.669 140.743 13.8875V14.2373H143.103V17.0787H140.743V25.603H137.269V17.0787H135.718V14.2373H137.269V13.8875C137.269 10.3685 139.913 9.9314 141.289 9.9314C142.382 9.9314 143.452 10.1718 144.261 10.6964L143.103 13.0788C142.469 12.8384 142.229 12.7728 141.704 12.7728ZM151.471 22.7178C152.083 22.7178 152.519 22.6304 153 22.4993V25.3626C152.519 25.5811 151.733 25.7341 150.575 25.7341C148.674 25.7341 147.079 25.1003 147.079 21.6031V17.0787H145.484V14.2373H147.079V11.5707H150.531V14.2373H152.956V17.0787H150.531V21.6031C150.531 22.1058 150.662 22.7178 151.471 22.7178Z" fill="#4218B9"></path>
</svg>