<svg xmlns="http://www.w3.org/2000/svg" width="118" height="23" viewBox="0 0 118 23" fill="none">
  <path d="M24.4238 3.30664L27.1655 2.63184V9.4024C27.6599 8.84006 28.2217 8.41268 28.8734 8.09777C29.5251 7.78286 30.2218 7.6479 30.9858 7.6479C31.7499 7.6479 32.4466 7.78286 33.0758 8.07528C33.705 8.36769 34.2444 8.75008 34.6714 9.26743C35.1208 9.78478 35.4579 10.3921 35.7051 11.1344C35.9523 11.8767 36.0647 12.664 36.0647 13.5412C36.0647 14.4185 35.9298 15.2282 35.6377 15.9705C35.3455 16.7128 34.941 17.3426 34.4242 17.8825C33.8848 18.4223 33.2331 18.8272 32.469 19.1421C31.705 19.4345 30.8061 19.592 29.8397 19.592C28.806 19.592 27.8172 19.457 26.8509 19.1871C25.8845 18.9172 25.0755 18.5348 24.4238 17.9949V3.30664ZM33.2556 14.1035C33.2556 13.3838 33.1657 12.7089 32.9859 12.1241C32.8061 11.5393 32.5589 11.0219 32.2443 10.5946C31.9297 10.1672 31.5477 9.82977 31.1207 9.60484C30.6937 9.3799 30.2218 9.24494 29.7274 9.24494C29.1656 9.24494 28.6712 9.3799 28.2217 9.64982C27.7723 9.91975 27.4352 10.2796 27.143 10.752V17.0502C27.4576 17.4776 27.8621 17.77 28.3565 17.9499C28.8734 18.1299 29.4128 18.2199 30.0195 18.2199C31.0757 18.2199 31.8623 17.8375 32.4016 17.0952C32.9859 16.3754 33.2556 15.3632 33.2556 14.1035Z" fill="white"></path>
  <path d="M48.4248 17.2522C48.2675 17.5671 48.0428 17.8596 47.7281 18.152C47.4135 18.4219 47.054 18.6693 46.6495 18.8718C46.245 19.0742 45.7955 19.2317 45.3011 19.3666C44.8067 19.4791 44.2898 19.5466 43.773 19.5466C42.919 19.5466 42.1549 19.3891 41.4583 19.0967C40.7616 18.8043 40.1549 18.3994 39.6829 17.8596C39.1885 17.3422 38.8065 16.7124 38.5368 15.9701C38.2672 15.2503 38.1323 14.4405 38.1323 13.5858C38.1323 12.731 38.2896 11.9213 38.5818 11.2015C38.8739 10.4817 39.3009 9.85186 39.8627 9.31202C40.4021 8.79466 41.0538 8.36729 41.8178 8.07487C42.5819 7.78245 43.4134 7.625 44.3348 7.625C45.0989 7.625 45.7506 7.71497 46.3124 7.91742C46.8742 8.11986 47.3236 8.36729 47.6832 8.6822C48.0428 8.99711 48.3124 9.357 48.4697 9.76189C48.6495 10.1668 48.7394 10.5492 48.7394 10.9316C48.7394 11.4714 48.5821 11.9663 48.29 12.3711C47.9753 12.776 47.5933 13.1134 47.0989 13.3833C46.6045 13.6533 46.0652 13.8557 45.4584 13.9907C44.8517 14.1256 44.2449 14.1931 43.6157 14.1931C43.1662 14.1931 42.7167 14.1256 42.2223 14.0132C41.7279 13.9007 41.3234 13.7432 40.9414 13.5633C41.0313 14.7555 41.4133 15.7227 42.0875 16.4425C42.7617 17.1623 43.6606 17.5222 44.7842 17.5222C45.5258 17.5222 46.1551 17.4097 46.6944 17.1623C47.2338 16.9148 47.6158 16.6449 47.9079 16.285L48.4248 17.2522ZM40.874 13.0234C41.5482 13.0459 42.1774 13.0459 42.7842 13.0234C43.3909 13.001 43.9078 12.911 44.3797 12.7535C44.8516 12.6186 45.2112 12.3936 45.5034 12.1012C45.773 11.8088 45.9079 11.4264 45.9079 10.9091C45.9079 10.6841 45.8629 10.4592 45.7955 10.2118C45.7281 9.98682 45.5932 9.76189 45.4359 9.58194C45.2786 9.40199 45.0539 9.24453 44.7842 9.13207C44.5146 9.0196 44.1999 8.95212 43.8404 8.95212C43.3909 8.95212 42.9639 9.06459 42.6044 9.28952C42.2223 9.51446 41.9302 9.82937 41.6605 10.2118C41.4133 10.5941 41.2111 11.0215 41.0762 11.5164C40.9639 12.0112 40.874 12.5286 40.874 13.0234Z" fill="white"></path>
  <path d="M60.8071 17.2522C60.6498 17.5671 60.4251 17.8596 60.1105 18.152C59.7959 18.4219 59.4363 18.6693 59.0318 18.8718C58.6273 19.0742 58.1778 19.2317 57.6834 19.3666C57.189 19.4791 56.6722 19.5466 56.1553 19.5466C55.3013 19.5466 54.5373 19.3891 53.8406 19.0967C53.1439 18.8043 52.5372 18.3994 52.0653 17.8596C51.5709 17.3422 51.1888 16.7124 50.9192 15.9701C50.6495 15.2503 50.5146 14.4405 50.5146 13.5858C50.5146 12.731 50.672 11.9213 50.9641 11.2015C51.2787 10.4817 51.6832 9.85186 52.245 9.31202C52.7844 8.79466 53.4361 8.36729 54.2002 8.07487C54.9642 7.78245 55.7957 7.625 56.7171 7.625C57.4812 7.625 58.1329 7.71497 58.6947 7.91742C59.2565 8.11986 59.706 8.36729 60.0655 8.6822C60.4251 8.99711 60.6948 9.357 60.8521 9.76189C61.0319 10.1668 61.1217 10.5492 61.1217 10.9316C61.1217 11.4714 60.9644 11.9663 60.6723 12.3711C60.3577 12.776 59.9756 13.1134 59.4812 13.3833C58.9868 13.6533 58.4475 13.8557 57.8407 13.9907C57.234 14.1256 56.6272 14.1931 55.998 14.1931C55.5485 14.1931 55.0991 14.1256 54.6047 14.0132C54.1103 13.9007 53.7058 13.7432 53.3237 13.5633C53.4136 14.7555 53.7957 15.7227 54.4698 16.4425C55.144 17.1623 56.0429 17.5222 57.1666 17.5222C57.9081 17.5222 58.5374 17.4097 59.0767 17.1623C59.5936 16.9373 59.9981 16.6449 60.2903 16.285L60.8071 17.2522ZM53.2788 13.0234C53.953 13.0459 54.5822 13.0459 55.189 13.0234C55.7957 13.001 56.3126 12.911 56.7845 12.7535C57.2564 12.6186 57.616 12.3936 57.9082 12.1012C58.1778 11.8088 58.3127 11.4264 58.3127 10.9091C58.3127 10.6841 58.2677 10.4592 58.2003 10.2118C58.1329 9.98682 57.998 9.76189 57.8407 9.58194C57.6834 9.40199 57.4587 9.24453 57.189 9.13207C56.9194 9.0196 56.6047 8.95212 56.2452 8.95212C55.7957 8.95212 55.3687 9.06459 55.0092 9.28952C54.6271 9.51446 54.335 9.82937 54.0653 10.2118C53.8181 10.5941 53.6159 11.0215 53.481 11.5164C53.3462 12.0112 53.2788 12.5286 53.2788 13.0234Z" fill="white"></path>
  <path d="M62.5376 7.91808H64.4028L65.504 4.3416L67.3917 3.80176L66.9872 7.91808H70.3581V9.08774H66.9198V15.6334C66.9198 16.5331 67.0546 17.1404 67.3243 17.4553C67.5939 17.7703 67.976 17.9052 68.4929 17.9052C68.8524 17.9052 69.1895 17.8377 69.5266 17.6803C69.8637 17.5228 70.1558 17.3429 70.3581 17.1179L70.6502 18.0402C70.3581 18.5125 69.9086 18.8724 69.3019 19.1648C68.6951 19.4348 68.0659 19.5697 67.4366 19.5697C66.2905 19.5697 65.459 19.2098 64.9422 18.49C64.4253 17.7702 64.1556 16.7355 64.1556 15.3634V9.11023H62.5376V7.91808Z" fill="white"></path>
  <path d="M78.6056 7.7832C79.2124 7.7832 79.7068 7.96315 80.0888 8.34554C80.4709 8.72793 80.6731 9.1778 80.6731 9.74014C80.6731 10.1225 80.5607 10.4149 80.336 10.5949C80.1113 10.7973 79.8191 10.8873 79.4596 10.8873C79.1225 10.8873 78.8753 10.8198 78.6955 10.6849C78.5157 10.5499 78.3809 10.37 78.2685 10.1225C78.2011 9.94258 78.0888 9.78513 77.9314 9.62767C77.7741 9.49271 77.5719 9.40274 77.3247 9.40274C76.9202 9.40274 76.5606 9.5377 76.2235 9.83012C75.9089 10.1 75.6392 10.4824 75.437 10.9773V19.2549H72.6953V7.87318H74.9875L75.3246 9.51521C75.7516 8.97536 76.246 8.54798 76.8078 8.23307C77.3696 7.94066 77.9539 7.7832 78.6056 7.7832Z" fill="white"></path>
  <path d="M87.932 7.64844C88.8309 7.64844 89.6848 7.7834 90.4489 8.07582C91.213 8.36823 91.8647 8.77312 92.4265 9.29047C92.9883 9.80782 93.4153 10.4376 93.7299 11.1574C94.0445 11.8772 94.2018 12.687 94.2018 13.5642C94.2018 14.4415 94.0445 15.2513 93.7524 15.971C93.4378 16.6908 93.0108 17.3207 92.4714 17.8605C91.9096 18.3779 91.2579 18.7827 90.4938 19.0752C89.7298 19.3676 88.8983 19.5025 87.9769 19.5025C87.0555 19.5025 86.224 19.3676 85.46 19.0752C84.6959 18.7827 84.0442 18.3779 83.4824 17.8605C82.9206 17.3432 82.4936 16.7133 82.179 15.971C81.8643 15.2513 81.707 14.4415 81.707 13.5642C81.707 12.687 81.8643 11.8772 82.1565 11.1574C82.4711 10.4376 82.8981 9.80782 83.4374 9.29047C83.9992 8.77312 84.6509 8.36823 85.415 8.07582C86.1791 7.7834 87.0106 7.64844 87.932 7.64844ZM88.1567 18.1754C89.1904 18.1754 89.9545 17.8155 90.4938 17.0732C91.0107 16.3309 91.2804 15.3412 91.2804 14.1041C91.2804 13.3393 91.1905 12.642 90.9882 12.0122C90.786 11.3824 90.5388 10.8425 90.2017 10.3926C89.8646 9.94278 89.4826 9.60538 89.0331 9.33545C88.5837 9.08802 88.1117 8.95306 87.6173 8.95306C86.5836 8.95306 85.8195 9.31296 85.2802 10.0552C84.7633 10.7975 84.4936 11.7872 84.4936 13.0244C84.4936 13.7892 84.5835 14.4865 84.7858 15.1163C84.988 15.7461 85.2352 16.286 85.5723 16.7358C85.8869 17.1857 86.2915 17.5231 86.7409 17.793C87.1904 18.063 87.6623 18.1754 88.1567 18.1754Z" fill="white"></path>
  <path d="M102.359 7.64844C103.258 7.64844 104.112 7.7834 104.876 8.07582C105.64 8.36823 106.292 8.77312 106.854 9.29047C107.416 9.80782 107.843 10.4376 108.157 11.1574C108.472 11.8772 108.629 12.687 108.629 13.5642C108.629 14.4415 108.472 15.2513 108.18 15.971C107.865 16.6908 107.438 17.3207 106.899 17.8605C106.337 18.3779 105.685 18.7827 104.921 19.0752C104.157 19.3676 103.326 19.5025 102.404 19.5025C101.483 19.5025 100.651 19.3676 99.8872 19.0752C99.1231 18.7827 98.4714 18.3779 97.9096 17.8605C97.3478 17.3432 96.9208 16.7133 96.6062 15.971C96.2916 15.2513 96.1343 14.4415 96.1343 13.5642C96.1343 12.687 96.2916 11.8772 96.5837 11.1574C96.8983 10.4376 97.3253 9.80782 97.8647 9.29047C98.4265 8.77312 99.0782 8.36823 99.8423 8.07582C100.606 7.7834 101.438 7.64844 102.359 7.64844ZM102.584 18.1754C103.618 18.1754 104.382 17.8155 104.921 17.0732C105.438 16.3309 105.708 15.3412 105.708 14.1041C105.708 13.3393 105.618 12.642 105.415 12.0122C105.213 11.3824 104.966 10.8425 104.629 10.3926C104.292 9.94278 103.91 9.60538 103.46 9.33545C103.011 9.08802 102.539 8.95306 102.045 8.95306C101.011 8.95306 100.247 9.31296 99.7074 10.0552C99.1906 10.7975 98.9209 11.7872 98.9209 13.0244C98.9209 13.7892 99.0108 14.4865 99.213 15.1163C99.4153 15.7461 99.6625 16.286 99.9996 16.7358C100.314 17.1857 100.719 17.5231 101.168 17.793C101.595 18.063 102.067 18.1754 102.584 18.1754Z" fill="white"></path>
  <path d="M109.888 7.91808H111.753L112.854 4.3416L114.742 3.80176L114.337 7.91808H117.708V9.08774H114.27V15.6334C114.27 16.5331 114.405 17.1404 114.674 17.4553C114.944 17.7703 115.326 17.9052 115.843 17.9052C116.203 17.9052 116.54 17.8377 116.877 17.6803C117.214 17.5228 117.506 17.3429 117.708 17.1179L118 18.0402C117.708 18.5125 117.259 18.8724 116.652 19.1648C116.045 19.4348 115.416 19.5697 114.787 19.5697C113.641 19.5697 112.809 19.2098 112.292 18.49C111.775 17.7702 111.506 16.7355 111.506 15.3634V9.11023H109.888V7.91808Z" fill="white"></path>
  <path d="M17.6145 9.26734C17.5022 9.13238 17.255 8.83996 16.8055 8.52505C16.6707 8.43508 16.5358 8.34511 16.401 8.27763C15.9965 8.05269 15.5695 7.89523 15.165 7.80526C14.8279 7.73778 14.5133 7.69279 14.1762 7.6703C12.693 7.58032 11.3446 8.0302 10.9177 8.18765C11.1649 7.51284 11.5694 6.54562 12.3559 5.5784C13.4571 4.1838 14.738 3.44151 15.4796 3.08161C15.4571 2.83419 15.3897 2.4518 15.1875 2.02442C14.9852 1.61954 14.7605 1.32712 14.5807 1.14717C13.2099 1.77699 11.9739 2.72172 10.9851 3.86889C11.3222 2.87917 11.8166 2.13689 12.1986 1.61953C12.0638 1.41709 11.8166 1.12468 11.4795 0.854755C11.0974 0.562339 10.7379 0.404884 10.4907 0.31491C9.81651 1.21465 9.29963 2.18187 8.94007 3.23907C8.89513 3.39653 8.85018 3.53149 8.80523 3.68894C8.85018 3.23907 8.9176 2.81169 9.02996 2.36182C9.18727 1.7545 9.38952 1.25964 9.56931 0.899742C9.38952 0.719793 9.11985 0.517352 8.73782 0.337403C8.31084 0.112468 7.90633 0.0449871 7.63666 0C7.34451 0.629819 7.11979 1.25964 6.96248 1.91195C6.67033 3.08162 6.64786 4.02635 6.64786 4.45372C6.67033 6.2757 7.20968 7.76027 7.63666 8.66002C7.47935 8.54755 7.05237 8.30012 6.49055 8.12017C5.77143 7.87274 4.76016 7.69279 3.68147 8.0077C2.13086 8.43508 1.27689 9.55976 1.00722 9.94215C0.849914 10.1671 -0.363609 11.8991 0.108316 14.1035C0.175734 14.3734 0.55777 15.9704 1.99602 17.1401C4.04103 18.7821 5.86132 17.7474 7.59171 19.0295C8.31084 19.5694 9.14233 20.6041 9.43447 22.786C9.47942 23.0559 9.83898 23.0784 9.9064 22.8085C10.1985 21.7288 10.4008 20.5816 10.4682 19.4119C10.6255 19.4569 11.2098 19.5694 11.9964 19.5694C12.1761 19.5694 12.3559 19.5694 12.5582 19.5469C13.8166 19.4794 15.3897 19.097 16.6931 17.8824C16.8504 17.7474 16.9853 17.59 17.1201 17.4325C17.1651 17.3875 17.21 17.3425 17.255 17.275C17.637 16.8027 17.9516 16.2628 18.1763 15.723C18.1988 15.6555 18.2213 15.6105 18.2438 15.543C19.0977 13.3162 18.8056 10.7294 17.6145 9.26734Z" fill="white"></path>
</svg>