<?xml version="1.0" encoding="UTF-8"?>
<!DOCTYPE svg PUBLIC "-//W3C//DTD SVG 1.1//EN" "http://www.w3.org/Graphics/SVG/1.1/DTD/svg11.dtd">
<!-- Creator: CorelDRAW -->
<svg xmlns="http://www.w3.org/2000/svg" xml:space="preserve" width="158.75mm" height="39.6874mm" version="1.1" style="shape-rendering:geometricPrecision; text-rendering:geometricPrecision; image-rendering:optimizeQuality; fill-rule:evenodd; clip-rule:evenodd"
viewBox="0 0 15874.98 3968.74"
 xmlns:xlink="http://www.w3.org/1999/xlink"
 xmlns:xodm="http://www.corel.com/coreldraw/odm/2003">
 <defs>
  <style type="text/css">
   <![CDATA[
    .fil0 {fill:black;fill-rule:nonzero}
   ]]>
  </style>
 </defs>
 <g id="Слой_x0020_1">
  <metadata id="CorelCorpID_0Corel-Layer"/>
  <path class="fil0" d="M3834.54 1008.02l333.04 -82 0 822.46c60.05,-68.31 128.32,-120.24 207.47,-158.48 79.16,-38.25 163.82,-54.64 256.6,-54.64 92.84,0 177.45,16.39 253.89,51.93 76.45,35.49 141.96,81.95 193.84,144.8 54.59,62.86 95.54,136.63 125.57,226.81 30.03,90.17 43.66,185.8 43.66,292.36 0,106.56 -16.39,204.9 -51.88,295.07 -35.49,90.17 -84.61,166.71 -147.37,232.27 -65.57,65.56 -144.72,114.78 -237.55,153.02 -92.79,35.49 -201.96,54.64 -319.36,54.64 -125.57,0 -245.67,-16.39 -363.07,-49.17 -117.39,-32.78 -215.69,-79.25 -294.84,-144.85l0 -1784.22zm1072.86 1311.51c0,-87.42 -10.93,-169.37 -32.78,-240.44 -21.86,-71.02 -51.88,-133.88 -90.08,-185.8 -38.25,-51.88 -84.62,-92.88 -136.5,-120.2 -51.88,-27.32 -109.17,-43.75 -169.23,-43.75 -68.27,0 -128.32,16.43 -182.91,49.21 -54.59,32.79 -95.54,76.49 -131.03,133.88l0 765.07c38.2,51.93 87.32,87.42 147.38,109.27 62.8,21.9 128.32,32.83 202.01,32.83 128.32,0 223.86,-46.46 289.38,-136.63 70.98,-87.47 103.76,-210.42 103.76,-363.44z"/>
  <path class="fil0" d="M6750.06 2702.02c-19.1,38.29 -46.42,73.78 -84.66,109.31 -38.2,32.79 -81.86,62.86 -130.99,87.47 -49.17,24.56 -103.76,43.7 -163.81,60.09 -60.05,13.64 -122.86,21.86 -185.62,21.86 -103.76,0 -196.55,-19.15 -281.16,-54.64 -84.66,-35.53 -158.35,-84.7 -215.7,-150.31 -60.05,-62.85 -106.46,-139.34 -139.2,-229.51 -32.78,-87.42 -49.13,-185.81 -49.13,-289.61 0,-103.85 19.1,-202.2 54.59,-289.66 35.49,-87.41 87.33,-163.95 155.6,-229.51 65.51,-62.85 144.67,-114.78 237.5,-150.27 92.79,-35.53 193.79,-54.68 305.72,-54.68 92.84,0 171.99,10.93 240.26,35.54 68.22,24.6 122.81,54.63 166.52,92.92 43.66,38.25 76.4,81.95 95.54,131.12 21.81,49.22 32.74,95.64 32.74,142.1 0,65.56 -19.1,125.71 -54.59,174.88 -38.25,49.17 -84.62,90.17 -144.67,122.95 -60.05,32.78 -125.57,57.39 -199.3,73.78 -73.69,16.39 -147.42,24.56 -223.82,24.56 -54.64,0 -109.22,-8.17 -169.28,-21.81 -60.05,-13.68 -109.17,-32.82 -155.59,-54.68 10.93,144.85 57.34,262.34 139.2,349.76 81.91,87.46 191.13,131.17 327.58,131.17 90.13,0 166.57,-13.69 232.04,-43.71 65.56,-30.07 111.93,-62.85 147.42,-106.61l62.81 117.49zm-917.22 -513.66c81.86,2.71 158.3,2.71 232.03,0 73.69,-2.75 136.5,-13.68 193.8,-32.78 57.34,-16.39 101,-43.75 136.49,-79.24 32.78,-35.54 49.13,-82 49.13,-144.81 0,-27.36 -5.47,-54.68 -13.64,-84.7 -8.17,-27.37 -24.56,-54.69 -43.66,-76.54 -19.15,-21.85 -46.42,-41 -79.2,-54.63 -32.73,-13.69 -70.98,-21.86 -114.64,-21.86 -54.59,0 -106.47,13.64 -150.13,40.96 -46.42,27.36 -81.91,65.6 -114.64,112.07 -30.03,46.41 -54.59,98.34 -70.98,158.44 -13.68,60.14 -24.56,122.99 -24.56,183.09z"/>
  <path class="fil0" d="M8254.17 2702.02c-19.1,38.29 -46.37,73.78 -84.62,109.31 -38.2,32.79 -81.9,62.86 -131.03,87.47 -49.13,24.56 -103.71,43.7 -163.81,60.09 -60.05,13.64 -122.82,21.86 -185.62,21.86 -103.72,0 -196.55,-19.15 -281.17,-54.64 -84.61,-35.53 -158.3,-84.7 -215.64,-150.31 -60.05,-62.85 -106.47,-139.34 -139.21,-229.51 -32.78,-87.42 -49.17,-185.81 -49.17,-289.61 0,-103.85 19.1,-202.2 54.59,-289.66 38.25,-87.41 87.37,-163.95 155.6,-229.51 65.56,-62.85 144.71,-114.78 237.54,-150.27 92.79,-35.53 193.8,-54.68 305.73,-54.68 92.83,0 171.98,10.93 240.21,35.54 68.27,24.6 122.86,54.63 166.52,92.92 43.71,38.25 76.44,81.95 95.54,131.12 21.85,49.22 32.78,95.64 32.78,142.1 0,65.56 -19.14,125.71 -54.59,174.88 -38.24,49.17 -84.66,90.17 -144.71,122.95 -60.05,32.78 -125.57,57.39 -199.26,73.78 -73.73,16.39 -147.42,24.56 -223.86,24.56 -54.59,0 -109.18,-8.17 -169.23,-21.81 -60.05,-13.68 -109.23,-32.82 -155.64,-54.68 10.92,144.85 57.34,262.34 139.25,349.76 81.9,87.46 191.08,131.17 327.58,131.17 90.07,0 166.52,-13.69 232.03,-43.71 62.81,-27.36 111.94,-62.85 147.43,-106.61l62.76 117.49zm-914.47 -513.66c81.86,2.71 158.3,2.71 232.04,0 73.69,-2.75 136.49,-13.68 193.79,-32.78 57.34,-16.39 101.01,-43.75 136.49,-79.24 32.79,-35.54 49.18,-82 49.18,-144.81 0,-27.36 -5.51,-54.68 -13.69,-84.7 -8.17,-27.37 -24.56,-54.69 -43.66,-76.54 -19.14,-21.85 -46.41,-41 -79.19,-54.63 -32.74,-13.69 -70.98,-21.86 -114.65,-21.86 -54.58,0 -106.46,13.64 -150.13,40.96 -46.41,27.36 -81.9,65.6 -114.64,112.07 -30.02,46.41 -54.59,98.34 -70.98,158.44 -16.39,60.14 -24.56,122.99 -24.56,183.09z"/>
  <path class="fil0" d="M8464.4 1568.19l226.57 0 133.79 -434.46 229.28 -65.56 -49.13 500.02 409.49 0 0 142.09 -417.71 0 0 795.1c0,109.32 16.39,183.1 49.18,221.34 32.73,38.24 79.15,54.63 141.95,54.63 43.67,0 84.62,-8.21 125.57,-27.31 40.95,-19.15 76.4,-41 101.01,-68.32l35.44 112.03c-35.44,57.38 -90.08,101.09 -163.77,136.63 -73.68,32.78 -150.13,49.17 -226.57,49.17 -139.25,0 -240.25,-43.71 -303.02,-131.17 -62.8,-87.42 -95.54,-213.12 -95.54,-379.78l0 -759.61 -196.54 0 0 -144.8z"/>
  <path class="fil0" d="M10416.23 1551.8c73.74,0 133.79,21.85 180.16,68.31 46.42,46.47 70.98,101.1 70.98,169.42 0,46.41 -13.64,81.95 -40.91,103.8 -27.32,24.61 -62.8,35.54 -106.47,35.54 -40.95,0 -70.98,-8.22 -92.83,-24.61 -21.85,-16.39 -38.2,-38.24 -51.88,-68.32 -8.17,-21.85 -21.81,-40.95 -40.95,-60.09 -19.1,-16.39 -43.66,-27.32 -73.69,-27.32 -49.13,0 -92.83,16.39 -133.74,51.92 -38.25,32.79 -70.98,79.25 -95.54,139.35l0 1005.5 -333.09 0 0 -1382.58 278.45 0 40.96 199.49c51.88,-65.61 111.93,-117.53 180.15,-155.78 68.27,-35.49 139.25,-54.63 218.4,-54.63z"/>
  <path class="fil0" d="M11549.15 1535.41c109.22,0 212.93,16.39 305.77,51.92 92.78,35.54 171.98,84.71 240.21,147.56 68.22,62.86 120.1,139.34 158.35,226.81 38.19,87.41 57.29,185.8 57.29,292.36 0,106.56 -19.1,204.9 -54.59,292.37 -38.19,87.41 -90.07,163.95 -155.59,229.51 -68.27,62.85 -147.42,112.02 -240.25,147.56 -92.79,35.49 -193.8,51.88 -305.73,51.88 -111.93,0 -212.94,-16.39 -305.72,-51.88 -92.84,-35.54 -171.99,-84.71 -240.26,-147.56 -68.22,-62.86 -120.1,-139.34 -158.3,-229.51 -38.25,-87.47 -57.35,-185.81 -57.35,-292.37 0,-106.56 19.1,-204.95 54.59,-292.36 38.25,-87.47 90.08,-163.95 155.6,-226.81 68.27,-62.85 147.42,-112.02 240.25,-147.56 92.79,-35.53 193.79,-51.92 305.73,-51.92zm27.31 1278.77c125.57,0 218.36,-43.71 283.88,-133.88 62.8,-90.17 95.58,-210.41 95.58,-360.68 0,-92.92 -10.92,-177.58 -35.53,-254.12 -24.57,-76.49 -54.59,-142.09 -95.54,-196.73 -40.91,-54.63 -87.33,-95.63 -141.92,-128.41 -54.59,-30.08 -111.93,-46.47 -171.98,-46.47 -125.57,0 -218.4,43.71 -283.92,133.88 -62.81,90.17 -95.54,210.41 -95.54,360.68 0,92.93 10.93,177.63 35.49,254.12 24.56,76.49 54.59,142.1 95.54,196.73 38.2,54.64 87.37,95.64 141.96,128.42 54.59,32.83 111.93,46.46 171.98,46.46z"/>
  <path class="fil0" d="M13301.68 1535.41c109.18,0 212.94,16.39 305.73,51.92 92.83,35.54 172.03,84.71 240.3,147.56 68.27,62.86 120.1,139.34 158.26,226.81 38.29,87.41 57.34,185.8 57.34,292.36 0,106.56 -19.05,204.9 -54.54,292.37 -38.25,87.41 -90.13,163.95 -155.6,229.51 -68.27,62.85 -147.47,112.02 -240.3,147.56 -92.79,35.49 -193.75,51.88 -305.72,51.88 -111.89,0 -212.94,-16.39 -305.73,-51.88 -92.83,-35.54 -171.98,-84.71 -240.25,-147.56 -68.23,-62.86 -120.11,-139.34 -158.31,-229.51 -38.24,-87.47 -57.34,-185.81 -57.34,-292.37 0,-106.56 19.1,-204.95 54.59,-292.36 38.24,-87.47 90.08,-163.95 155.64,-226.81 68.22,-62.85 147.37,-112.02 240.21,-147.56 92.78,-35.53 193.84,-51.92 305.72,-51.92zm27.32 1278.77c125.61,0 218.4,-43.71 283.87,-133.88 62.81,-90.17 95.63,-210.41 95.63,-360.68 0,-92.92 -10.97,-177.58 -35.62,-254.12 -24.52,-76.49 -54.55,-142.09 -95.45,-196.73 -40.96,-54.63 -87.37,-95.63 -142.01,-128.41 -54.54,-30.08 -111.88,-46.47 -171.89,-46.47 -125.61,0 -218.4,43.71 -283.96,133.88 -62.76,90.17 -95.55,210.41 -95.55,360.68 0,92.93 10.93,177.63 35.49,254.12 24.57,76.49 54.59,142.1 95.55,196.73 38.19,54.64 87.41,95.64 141.96,128.42 51.83,32.83 109.17,46.46 171.98,46.46z"/>
  <path class="fil0" d="M14216.24 1568.19l226.57 0 133.74 -434.46 229.33 -65.56 -49.21 500.02 409.53 0 0 142.09 -417.66 0 0 795.1c0,109.32 16.39,183.1 49.08,221.34 32.83,38.24 79.2,54.63 142,54.63 43.76,0 84.66,-8.21 125.62,-27.31 40.95,-19.15 76.39,-41 100.96,-68.32l35.44 112.03c-35.44,57.38 -89.99,101.09 -163.72,136.63 -73.73,32.78 -150.18,49.17 -226.57,49.17 -139.21,0 -240.26,-43.71 -303.07,-131.17 -62.8,-87.42 -95.49,-213.12 -95.49,-379.78l0 -759.61 -196.55 0 0 -144.8z"/>
  <path class="fil0" d="M3007.39 1732.09c-13.63,-16.39 -43.66,-51.92 -98.29,-90.17 -16.35,-10.93 -32.74,-21.85 -49.13,-30.07 -49.12,-27.32 -101,-46.46 -150.13,-57.39 -40.95,-8.17 -79.15,-13.64 -120.1,-16.39 -180.21,-10.93 -343.97,43.71 -395.85,62.85 30.02,-81.95 79.2,-199.44 174.69,-316.97 133.79,-169.37 289.38,-259.54 379.46,-303.29 -2.71,-30.03 -10.93,-76.49 -35.49,-128.42 -24.56,-49.17 -51.83,-84.7 -73.69,-106.56 -166.52,76.54 -316.65,191.27 -436.75,330.61 40.9,-120.19 101,-210.37 147.37,-273.22 -16.34,-24.61 -46.37,-60.1 -87.32,-92.92 -46.42,-35.49 -90.08,-54.64 -120.15,-65.56 -81.86,109.31 -144.67,226.8 -188.33,355.21 -5.46,19.15 -10.93,35.54 -16.39,54.64 5.46,-54.64 13.63,-106.56 27.32,-161.2 19.09,-73.78 43.66,-133.88 65.51,-177.63 -21.85,-21.85 -54.63,-46.42 -101,-68.27 -51.88,-27.36 -101.01,-35.54 -133.79,-41 -35.49,76.49 -62.76,153.02 -81.91,232.27 -35.49,142.05 -38.19,256.83 -38.19,308.75 2.7,221.3 68.22,401.64 120.1,510.95 -19.1,-13.68 -70.98,-43.71 -139.2,-65.56 -87.37,-30.07 -210.23,-51.93 -341.26,-13.68 -188.33,51.92 -292.09,188.51 -324.83,234.97 -19.1,27.32 -166.52,237.73 -109.22,505.49 8.22,32.83 54.63,226.8 229.33,368.9 248.42,199.44 469.53,73.78 679.72,229.51 87.37,65.56 188.37,191.27 223.86,456.32 5.46,32.78 49.13,35.53 57.34,2.71 35.45,-131.13 60.06,-270.52 68.23,-412.57 19.1,5.47 90.08,19.1 185.62,19.1 21.85,0 43.66,0 68.27,-2.71 152.84,-8.21 343.92,-54.68 502.27,-202.19 19.1,-16.39 35.49,-35.54 51.88,-54.68 5.47,-5.46 10.93,-10.93 16.39,-19.1 46.37,-57.39 84.62,-122.95 111.89,-188.56 2.75,-8.17 5.46,-13.63 8.22,-21.85 103.71,-270.51 68.22,-584.73 -76.45,-762.32z"/>
 </g>
</svg>
