<svg width="64" height="64" viewBox="0 0 64 64" fill="none" xmlns="http://www.w3.org/2000/svg">
  <rect width="64" height="64" rx="12" fill="#68217A"/>
  <path d="M22 23C24.6 20.4 28.2 19 32 19C36.4 19 40.2 20.8 42.8 24L38.6 27.4C37 25.4 34.6 24.2 32 24.2C27.4 24.2 23.8 27.8 23.8 32.2C23.8 36.6 27.4 40.2 32 40.2C34.8 40.2 37.2 39 38.8 37L43 40.4C40.4 43.6 36.6 45.4 32 45.4C24.8 45.4 19 39.6 19 32.2C19 28.6 20.2 25.4 22 23Z" fill="white"/>
  <path d="M46 26H48V30H52V26H54V30H58V32H54V36H58V38H54V42H52V38H48V42H46V38H42V36H46V32H42V30H46V26Z" fill="white"/>
</svg>
