<?xml version="1.0" encoding="UTF-8"?>
<!DOCTYPE svg PUBLIC "-//W3C//DTD SVG 1.1//EN" "http://www.w3.org/Graphics/SVG/1.1/DTD/svg11.dtd">
<!-- Creator: CorelDRAW -->
<svg xmlns="http://www.w3.org/2000/svg" xml:space="preserve" width="158.75mm" height="79.375mm" version="1.1" style="shape-rendering:geometricPrecision; text-rendering:geometricPrecision; image-rendering:optimizeQuality; fill-rule:evenodd; clip-rule:evenodd"
viewBox="0 0 15875 7937.5"
 xmlns:xlink="http://www.w3.org/1999/xlink"
 xmlns:xodm="http://www.corel.com/coreldraw/odm/2003">
 <defs>
  <style type="text/css">
   <![CDATA[
    .fil0 {fill:white}
   ]]>
  </style>
 </defs>
 <g id="Слой_x0020_1">
  <metadata id="CorelCorpID_0Corel-Layer"/>
  <g id="_2228010812192">
   <path class="fil0" d="M8827.7 3174.02l0 1728.5c0,57.85 120.5,36.01 243.07,36.01 56.09,0 36.01,-200.52 36.01,-288.09l0 -999.28c24.61,18.02 203.37,269.24 245.87,321.29 192.35,235.55 429.61,589.03 620.46,819.95 22.51,27.24 41.82,53.44 62.32,81.73 61.8,85.31 33.92,64.4 277.7,64.4 21.08,0 36.01,-14.94 36.01,-36.01l0 -1719.5c0,-73.02 -230.15,-45.31 -270.08,-36.01 -21.65,92.95 -9,1103.04 -9,1287.37l-934.88 -1234.75c-60.36,-82.48 -82.74,-61.62 -253.46,-61.62 -27.64,0 -54.02,8.33 -54.02,36.01z"/>
   <path class="fil0" d="M815.38 3201.02l0 1683.49c0,27.64 8.34,54.02 36.01,54.02l1206.35 0c54.97,0 36.01,-138.01 36.01,-225.07 0,-20.99 -24.02,-45.01 -45.01,-45.01l-936.27 0 0 -495.14 810.23 0c57.24,0 36.01,-115.07 36.01,-234.07 0,-21.07 -14.93,-36.01 -36.01,-36.01l-810.23 0 0 -495.15 945.27 0c53.73,0 36.01,-126.25 36.01,-207.06 0,-42.02 -20.99,-63.01 -63.02,-63.01l-1152.33 0c-42.03,0 -63.02,20.99 -63.02,63.01z"/>
   <path class="fil0" d="M13536.07 3174.02c0,20.39 57.62,86.1 77.08,111.97l422 541.28c57.28,76.14 115.71,143.24 167.11,220 -58.91,67.78 -110.65,137.84 -168.98,209.13l-340.28 424.94c-30.23,38.49 -54.31,68.4 -83.73,105.33 -152.14,190.95 -114.66,151.86 241.89,151.86 56,0 90.98,-79.8 145.3,-151.78 48.18,-63.84 357.63,-486.51 385.85,-505.41 30.26,20.26 219.06,286.03 257.22,336.95l187.75 253.38c24.38,32.79 36.21,66.86 86.18,66.86l288.09 0c99.67,0 -59.04,-165.14 -102.83,-221.27 -31.37,-40.2 -57.67,-70.59 -87.47,-110.58l-268.93 -343.25c-31.11,-40.71 -161.42,-198.45 -170.96,-234.16 13.14,-19.63 27.62,-33.58 43.77,-55.27 179.71,-241.22 384.18,-488.58 565.87,-730.51 98.57,-131.25 41.34,-105.48 -258.53,-105.48 -75.97,0 -82.07,40.91 -156.92,140.17l-250.76 343.4c-25.08,33.38 -109.4,156.71 -132.48,173.62l-387.11 -513.15c-133,-177.5 -60.08,-144.04 -405.12,-144.04 -27.64,0 -54.01,8.33 -54.01,36.01z"/>
   <path class="fil0" d="M11159.38 3948.24c0,290.65 92.83,529.72 285.83,722.46 396,395.47 1010.61,395.15 1404.59,-4.32 315.21,-319.61 377.08,-848.45 113.73,-1243.92 -25.17,-37.8 -47.22,-71.55 -77.73,-102.33 -68.46,-69.09 -348.39,-365.18 -437.87,-153.88 -19.67,46.43 -23.26,94.95 5.88,135.72 22.68,31.73 97.9,72.11 152.93,117.18 18.52,15.17 32.12,23.61 49.63,40.39 201.2,192.79 271.79,525.86 150.89,795.19 -265.73,591.95 -1078.81,557.15 -1323.7,8.51 -140.82,-315.5 -34.91,-667.29 227.43,-861.71 98.54,-73.02 141.59,-65.11 141.59,-182.5 0,-67.88 -71.95,-126.04 -126.04,-126.04 -105.46,0 -318.13,210.59 -390.74,320.47 -101.06,152.94 -176.42,334.38 -176.42,534.78z"/>
   <path class="fil0" d="M2660.92 4083.28c0,334.54 179.76,668.95 456.15,840.22 61.63,38.19 153.02,86.81 215.6,-6.42 153.9,-229.26 -265.44,-181.08 -383.88,-644.53 -139.03,-544.02 380.31,-1082.3 991.94,-838.91 80.49,32.03 149.28,87.12 212.04,139.07 134.55,111.36 218.64,341.21 218.64,537.58 0,164.46 -77.28,322.59 -151.79,415.37 -173,215.39 -280.34,158.14 -280.34,313.84 0,57.99 71.36,196.28 246.9,75.84 102.75,-70.51 199.47,-160.41 268.14,-263.01 277.6,-414.71 231.54,-922.39 -121.15,-1278.02 -320.79,-323.47 -870,-376.95 -1241.53,-102.67 -256.26,189.19 -430.72,484.06 -430.72,811.64z"/>
   <path class="fil0" d="M5307.68 3183.02l0 1026.3c0,242.25 67.51,424.21 191.29,546.92 37.85,37.53 51.79,53.97 96.66,83.39 230.27,150.98 515.96,156.09 773.33,70.86 53.26,-17.64 74.22,-31.46 120.99,-59.06 59.65,-35.2 101.86,-74.07 143.97,-126.11 103.21,-127.53 159.19,-297.61 159.19,-470.99l0 -1071.31c0,-66.75 -132.87,-45.01 -234.06,-45.01 -75.11,0 -54.02,59.41 -54.02,198.05l0 774.23c0.44,357.03 -95.29,566.18 -452.61,580.06 -103.01,4 -209.46,-22.63 -287.07,-83.46l-51.33 -47.69c-106.47,-118.32 -109.25,-240.52 -109.25,-448.91l0 -774.23c0,-221.81 32.37,-198.05 -234.07,-198.05 -30.34,0 -63.02,15.91 -63.02,45.01z"/>
   <path class="fil0" d="M7657.36 3174.02l0 1728.5c0,58.45 126.1,36.01 252.07,36.01 21.08,0 36.02,-14.94 36.02,-36.01l0 -1710.5c0,-24.31 -4.3,-24.82 -9.01,-45.01 -34.65,-8.07 -279.08,-36.82 -279.08,27.01z"/>
   <path class="fil0" d="M3516.16 4677.45c0,113.34 -20.19,485.83 28.99,547.18 78.82,98.31 250.09,74.5 250.09,-106.05 0,-125.34 21.4,-504.96 -29.24,-573.93 -66.16,-90.09 -249.84,-93.47 -249.84,132.8z"/>
   <path class="fil0" d="M12005.62 2903.94l0 540.16c0,161.77 270.08,189.06 270.08,-36.02l0 -468.13c0,-213.14 -270.08,-192.48 -270.08,-36.01z"/>
   <path class="fil0" d="M11834.57 5685.74l0 -189.05c76.39,0 162.05,-7.26 162.05,99.03 0,86.36 -96.76,90.02 -162.05,90.02zm-90.02 351.11l90.02 0 0 -270.08c74.49,0 111.89,25.25 160.57,100.51 19.51,30.17 28.58,53.23 50.04,84.99 22.62,33.48 32.22,50.08 50.47,84.58l108.03 0c-6.56,-24.56 -30.95,-50.5 -45.14,-71.9 -33.32,-50.26 -106.07,-201.28 -161.92,-216.19 20.38,-27.82 99.03,-60.85 99.03,-153.04 0,-209.08 -215.17,-180.05 -351.1,-180.05l0 621.18z"/>
   <path class="fil0" d="M14328.29 6036.85l351.11 0 0 -90.03 -252.08 0 0 -180.05 216.06 0c40.23,0 40.23,-90.03 0,-90.03l-216.06 0 0 -180.05 243.07 0 0 -81.02 -342.1 0 0 621.18z"/>
   <path class="fil0" d="M13491.05 5721.75c0,284.26 293.29,400.71 540.16,270.08l0 -108.03c-237.2,158.84 -441.13,24.36 -441.13,-135.04 0,-241.49 206.42,-291.33 354.02,-227.97 83.72,35.94 87.11,72.88 87.11,-42.11 0,-48.87 -165.82,-72.02 -234.07,-72.02 -163.3,0 -306.09,152.18 -306.09,315.09z"/>
   <path class="fil0" d="M11105.36 6036.85l351.1 0 0 -90.03 -261.07 0 0 -180.05 243.07 0c0,-116.09 36.97,-90.03 -243.07,-90.03l0 -180.05 252.07 0 0 -81.02 -342.1 0 0 621.18z"/>
   <path class="fil0" d="M10475.18 5577.71c0,174.66 252.07,155.15 252.07,324.1 0,53.33 -105.45,79.38 -185.42,23.37 -31.33,-21.94 -29.43,-40.44 -66.65,-50.38l0 108.03c183.29,122.74 342.1,52.67 342.1,-117.03 0,-184.8 -252.08,-179.67 -252.08,-315.09 0,-53.83 76.85,-54.02 117.04,-54.02 55.22,0 71.94,41.97 117.03,54.02l0 -99.03c-185.17,-97.99 -324.09,-17.16 -324.09,126.03z"/>
   <path class="fil0" d="M15111.52 5955.82c-113.23,0 -94.81,-29.97 -171.05,-81.02l0 117.03c33.39,17.67 104.89,54.02 153.05,54.02 129.06,0 180.05,-76.53 180.05,-189.06 0,-171.32 -252.07,-176.43 -252.07,-306.08 0,-53.83 76.84,-54.02 117.03,-54.02 55.22,0 71.94,41.97 117.03,54.02l0 -99.03c-66.19,-35.03 -67.57,-45.02 -153.04,-45.02 -160.6,0 -224.65,199.74 -104.55,293.61 26.5,20.71 45.21,33.73 73.82,52.21 44.06,28.48 132.85,77.32 116.2,144.12 -8.56,34.36 -37.85,59.22 -76.47,59.22z"/>
   <path class="fil0" d="M12572.79 6036.85c27.71,-7.4 18.82,1.01 43.8,-64.24l226.27 -556.94 -99.02 0c-2.85,34.17 -121.11,306.56 -145.24,367.91l-22.5 49.52c-0.67,1.21 -2.06,3.88 -3.31,5.69l-127.42 -313.71c-12.98,-32.25 -28.23,-77.32 -43.63,-109.41l-90.03 0c12.4,53.23 156.41,386.06 189.04,468.15 12.43,31.26 51.02,137.63 72.04,153.03z"/>
   <polygon class="fil0" points="9286.83,5496.69 9493.89,5496.69 9493.89,6036.85 9583.92,6036.85 9583.92,5496.69 9790.98,5496.69 9790.98,5415.67 9286.83,5415.67 "/>
   <path class="fil0" d="M13094.94 5442.67l0 567.17c0,36.75 28.22,27.01 99.03,27.01l0 -621.18c-70.81,0 -99.03,-9.75 -99.03,27z"/>
   <path class="fil0" d="M8908.73 5442.67l0 567.17c0,41.16 99.02,41.16 99.02,0l0 -567.17c0,-41.16 -99.02,-41.16 -99.02,0z"/>
  </g>
 </g>
</svg>
