<?xml version="1.0" encoding="UTF-8"?> <svg xmlns="http://www.w3.org/2000/svg" width="119" height="41" viewBox="0 0 119 41" fill="none"><mask id="mask0_686_6591" style="mask-type:luminance" maskUnits="userSpaceOnUse" x="0" y="0" width="119" height="41"><path d="M118.92 0.342285H0.0820312V40.0681H118.92V0.342285Z" fill="white"></path></mask><g mask="url(#mask0_686_6591)"><path d="M13.5709 12.7133V16.9713H17.1863V20.6326C16.6512 20.7294 16.1162 20.7939 15.5974 20.8584C13.0683 21.1487 11.0093 20.8262 9.50151 19.9391C8.35042 19.2616 7.47495 18.3262 6.8913 17.1326C6.30764 15.9391 6.01582 14.5358 6.01582 12.9552C6.01582 11.4713 6.30764 10.1165 6.8913 8.95519C7.45873 7.7939 8.35042 6.87454 9.55015 6.19712C10.7337 5.5197 12.3063 5.18099 14.1869 5.18099C15.4353 5.18099 16.635 5.31003 17.7375 5.55196C18.8561 5.81003 19.8775 6.13261 20.8017 6.5197L21.1908 6.68099L21.8068 1.87454L21.5961 1.77777C20.6719 1.35841 19.5533 1.01971 18.2563 0.745512C16.9755 0.471318 15.5974 0.342285 14.1869 0.342285C11.447 0.342285 8.99893 0.874544 6.8913 1.9068C4.76745 2.95519 3.09756 4.43906 1.89784 6.34228C0.698108 8.24551 0.0820312 10.5036 0.0820312 13.0358C0.0820312 15.5842 0.633257 17.8584 1.70328 19.7455C2.78952 21.6487 4.36214 23.1487 6.38871 24.2133C8.41527 25.2616 10.8634 25.7939 13.7006 25.7939C15.5326 25.7939 17.2187 25.6165 18.7589 25.2455C20.2991 24.8907 21.5474 24.4391 22.4878 23.9391L22.6661 23.8423V12.7133H13.5709Z" fill="#0351FF"></path><path d="M40.6931 15.1165C41.9252 14.5036 42.9466 13.7133 43.741 12.7294C44.6003 11.6488 45.038 10.181 45.038 8.35845C45.038 6.6649 44.6327 5.22941 43.8545 4.11651C43.0601 3.00361 41.9414 2.1649 40.531 1.61651C39.1367 1.08425 37.4992 0.810059 35.6348 0.810059H25.6641V25.3101H31.1277V16.4552H35.5051L40.5958 25.3101H46.7404L40.6931 15.1165ZM31.1439 5.11651H34.5485C36.3481 5.11651 37.6127 5.42296 38.3098 6.05199C39.007 6.6649 39.3474 7.50361 39.3474 8.61651C39.3474 9.6649 38.9908 10.4875 38.2774 11.1649C37.5641 11.8423 36.2508 12.181 34.354 12.181H31.1439V5.11651Z" fill="#0351FF"></path><path d="M96.8867 6.48746C95.7518 4.66488 94.1468 3.24553 92.1527 2.27778C90.1585 1.31004 87.8563 0.826172 85.311 0.826172H75.1133V25.3262H85.311C87.8563 25.3262 90.1585 24.8423 92.1527 23.8746C94.163 22.9068 95.7518 21.4875 96.9029 19.6649C98.054 17.8423 98.6215 15.6326 98.6215 13.0842C98.6215 10.5197 98.0378 8.31004 96.8867 6.48746ZM89.4127 19.8584C88.3265 20.4713 86.9484 20.7939 85.2948 20.7939H80.5769V5.3423H85.2948C86.9322 5.3423 88.3265 5.64875 89.4127 6.27778C90.499 6.89069 91.3096 7.77778 91.8608 8.90682C92.4121 10.0681 92.6877 11.4552 92.6877 13.0681C92.6877 14.6649 92.4121 16.0681 91.8608 17.2294C91.3096 18.3584 90.499 19.2455 89.4127 19.8584Z" fill="#0351FF"></path><path d="M106.601 20.4391V14.9875H115.858V10.1165H106.601V5.69714H118.533V0.826172H101.023V25.31H118.922V20.4391H106.601Z" fill="#0351FF"></path><path d="M60.9247 20.1167L56.3203 25.3264H58.6225C58.6225 25.3264 59.5952 25.3102 60.1789 25.3102C60.9247 25.3264 61.103 25.3102 61.6542 25.3102C62.2541 25.3102 63.2269 25.3264 63.2269 25.3264H65.5128L60.9247 20.1167Z" fill="#0351FF"></path><path d="M63.4251 0.826172H58.4316L48.7852 25.31H54.1677L60.9283 7.89069L67.689 25.31H73.0553L63.4251 0.826172Z" fill="#0351FF"></path><path d="M18.0781 39.8909V31.1167H23.7201V32.6651H19.7318V34.5361H22.8284V36.0844H19.7318V38.3264H23.8498V39.8748H18.0781V39.8909Z" fill="#717171"></path><path d="M26.4922 39.8909V31.1167H29.7185C30.3346 31.1167 30.8534 31.2135 31.3235 31.407C31.7775 31.6006 32.1341 31.8909 32.3773 32.278C32.6367 32.6651 32.7502 33.1651 32.7502 33.7619C32.7502 34.407 32.6205 34.9232 32.3449 35.2941C32.0693 35.6651 31.7126 35.9715 31.2587 36.1973L33.2528 39.8909H31.4532L29.7347 36.6328C29.7185 36.6328 29.7185 36.6328 29.7023 36.6328C29.6861 36.6328 29.6861 36.6328 29.6698 36.6328H28.0972V39.8909H26.4922ZM28.0972 35.2941H29.2807C29.9455 35.2941 30.3994 35.1651 30.6588 34.8909C30.9182 34.6167 31.0479 34.278 31.0479 33.8586C31.0479 33.4232 30.9182 33.0683 30.6588 32.8264C30.3994 32.5844 29.9617 32.4554 29.3294 32.4554H28.081V35.2941H28.0972Z" fill="#717171"></path><path d="M35.6367 39.8909V31.1167H38.7819C39.4629 31.1167 40.0303 31.2135 40.5005 31.4232C40.9706 31.6167 41.3273 31.9393 41.5543 32.3586C41.7975 32.778 41.911 33.3102 41.911 33.9554C41.911 34.6167 41.7975 35.1651 41.5543 35.5844C41.3111 36.0199 40.9706 36.3264 40.5005 36.5361C40.0303 36.7457 39.4791 36.8425 38.8144 36.8425H37.258V39.8909H35.6367ZM37.258 35.5038H38.636C39.1873 35.5038 39.5926 35.3748 39.8682 35.1328C40.1438 34.8909 40.2735 34.5038 40.2735 33.9715C40.2735 33.4393 40.1276 33.0683 39.852 32.8102C39.5764 32.5683 39.1548 32.4393 38.5874 32.4393H37.258V35.5038Z" fill="#717171"></path><path d="M51.055 40.068C50.6983 40.068 50.3254 40.0357 49.9525 39.9712C49.5796 39.9067 49.223 39.8261 48.8987 39.7132C48.5745 39.6164 48.3151 39.5196 48.1367 39.4228L48.3313 37.7132C48.6231 37.8583 48.9311 37.9874 49.2554 38.1003C49.5796 38.2293 49.9039 38.3261 50.2443 38.3906C50.5848 38.4712 50.9253 38.5035 51.2657 38.5035C51.6873 38.5035 52.0439 38.4228 52.3033 38.2454C52.5627 38.0841 52.6924 37.8261 52.6924 37.4874C52.6924 37.2293 52.6114 37.0196 52.4655 36.8583C52.3196 36.697 52.0926 36.5519 51.7845 36.4228C51.4765 36.2938 51.1036 36.1486 50.6172 35.9874C50.1471 35.8261 49.7255 35.6325 49.3527 35.439C48.9798 35.2293 48.6879 34.9712 48.461 34.6486C48.2502 34.3261 48.1367 33.9228 48.1367 33.439C48.1367 32.9551 48.2502 32.5196 48.4934 32.1486C48.7366 31.7777 49.0933 31.4712 49.5634 31.2615C50.0336 31.0519 50.6335 30.939 51.3468 30.939C51.8818 30.939 52.4006 31.0035 52.887 31.1164C53.3734 31.2293 53.7949 31.3583 54.1354 31.5035L53.9732 33.1486C53.4706 32.9228 53.0167 32.7615 52.579 32.6486C52.1412 32.5357 51.7035 32.4712 51.2495 32.4712C50.7794 32.4712 50.4227 32.5519 50.1633 32.697C49.9039 32.8583 49.7742 33.0841 49.7742 33.3906C49.7742 33.6325 49.839 33.8422 49.9849 33.9874C50.1309 34.1325 50.3254 34.2615 50.601 34.3744C50.8604 34.4874 51.1847 34.6003 51.5576 34.7132C52.1899 34.9067 52.7249 35.1325 53.1626 35.3744C53.6003 35.6164 53.9246 35.9067 54.1516 36.2454C54.3785 36.5841 54.4758 37.0035 54.4758 37.5035C54.4758 37.7615 54.4434 38.0196 54.3623 38.3261C54.2813 38.6164 54.1191 38.9067 53.8922 39.1648C53.649 39.4228 53.3085 39.6486 52.8546 39.8099C52.4006 39.9874 51.8008 40.068 51.055 40.068Z" fill="#717171"></path><path d="M59.0966 39.8909V36.3425L56 31.1167H57.7672L60.2801 35.5683H59.5181L62.0311 31.1167H63.7982L60.7178 36.3425V39.8909H59.0966Z" fill="#717171"></path><path d="M68.4339 40.068C68.0772 40.068 67.7043 40.0357 67.3314 39.9712C66.9585 39.9067 66.6019 39.8261 66.2776 39.7132C65.9534 39.6164 65.694 39.5196 65.5156 39.4228L65.7102 37.7132C66.002 37.8583 66.31 37.9874 66.6343 38.1003C66.9585 38.2293 67.2828 38.3261 67.6233 38.3906C67.9637 38.4712 68.3042 38.5035 68.6446 38.5035C69.0662 38.5035 69.4228 38.4228 69.6822 38.2454C69.9416 38.068 70.0713 37.8261 70.0713 37.4874C70.0713 37.2293 69.9903 37.0196 69.8444 36.8583C69.6985 36.697 69.4715 36.5519 69.1634 36.4228C68.8554 36.2938 68.4663 36.1486 67.9961 35.9874C67.526 35.8261 67.1045 35.6325 66.7316 35.439C66.3587 35.2293 66.0669 34.9712 65.8399 34.6486C65.6291 34.3261 65.5156 33.9228 65.5156 33.439C65.5156 32.9551 65.6291 32.5196 65.8723 32.1486C66.1155 31.7777 66.4722 31.4712 66.9423 31.2615C67.4125 31.0519 68.0124 30.939 68.7257 30.939C69.2607 30.939 69.7795 31.0035 70.2659 31.1164C70.7523 31.2293 71.1738 31.3583 71.5143 31.5035L71.3521 33.1486C70.8495 32.9228 70.3956 32.7615 69.9579 32.6486C69.5201 32.5357 69.0824 32.4712 68.6284 32.4712C68.1583 32.4712 67.8016 32.5519 67.5422 32.697C67.2828 32.8583 67.1531 33.0841 67.1531 33.3906C67.1531 33.6325 67.2179 33.8422 67.3639 33.9874C67.5098 34.1325 67.7043 34.2615 67.9799 34.3744C68.2393 34.4874 68.5636 34.6003 68.9365 34.7132C69.5688 34.9067 70.1038 35.1325 70.5415 35.3744C70.9792 35.6164 71.3035 35.9067 71.5305 36.2454C71.7575 36.5841 71.8547 37.0035 71.8547 37.5035C71.8547 37.7615 71.8223 38.0196 71.7412 38.3261C71.6602 38.6164 71.498 38.9067 71.2711 39.1648C71.0279 39.4228 70.6874 39.6486 70.2335 39.8099C69.7795 39.9874 69.1797 40.068 68.4339 40.068Z" fill="#717171"></path><path d="M76.1686 39.8909V32.6651H73.6719V31.1167H80.2704V32.6651H77.7736V39.8909H76.1686Z" fill="#717171"></path><path d="M82.6875 39.8909V31.1167H88.3295V32.6651H84.3412V34.5361H87.4378V36.0844H84.3412V38.3264H88.4592V39.8748H82.6875V39.8909Z" fill="#717171"></path><path d="M90.6953 39.8909L91.9113 31.1167H93.2407L95.3969 35.1167L97.537 31.1167H98.8664L100.082 39.8909H98.4125L97.5694 33.2941L98.0072 33.3748L95.3969 38.0361L92.7705 33.3909L93.2083 33.3102L92.3652 39.8909H90.6953Z" fill="#717171"></path></g></svg> 