<?xml version="1.0" encoding="UTF-8"?> <svg xmlns="http://www.w3.org/2000/svg" width="119" height="40" viewBox="0 0 119 40" fill="none"><path d="M13.5709 12.5081V16.7661H17.1863V20.4274C16.6512 20.5242 16.1162 20.5887 15.5974 20.6532C13.0683 20.9435 11.0093 20.621 9.50151 19.7339C8.35042 19.0564 7.47495 18.121 6.8913 16.9274C6.30764 15.7339 6.01582 14.3306 6.01582 12.75C6.01582 11.2661 6.30764 9.91128 6.8913 8.74999C7.45873 7.5887 8.35042 6.66934 9.55015 5.99192C10.7337 5.3145 12.3063 4.97579 14.1869 4.97579C15.4353 4.97579 16.635 5.10483 17.7375 5.34676C18.8561 5.60483 19.8775 5.92741 20.8017 6.3145L21.1908 6.47579L21.8068 1.66934L21.5961 1.57257C20.6719 1.15321 19.5533 0.814505 18.2563 0.540311C16.9755 0.266118 15.5974 0.137085 14.1869 0.137085C11.447 0.137085 8.99893 0.669344 6.8913 1.7016C4.76745 2.74999 3.09756 4.23386 1.89784 6.13708C0.698108 8.04031 0.0820312 10.2984 0.0820312 12.8306C0.0820312 15.379 0.633257 17.6532 1.70328 19.5403C2.78952 21.4435 4.36214 22.9435 6.38871 24.0081C8.41527 25.0564 10.8634 25.5887 13.7006 25.5887C15.5326 25.5887 17.2187 25.4113 18.7589 25.0403C20.2991 24.6855 21.5474 24.2339 22.4878 23.7339L22.6661 23.6371V12.5081H13.5709Z" fill="white"></path><path d="M40.6931 14.9113C41.9252 14.2984 42.9466 13.5081 43.741 12.5242C44.6003 11.4435 45.038 9.9758 45.038 8.15322C45.038 6.45967 44.6327 5.02418 43.8545 3.91128C43.0601 2.79838 41.9414 1.95967 40.531 1.41128C39.1367 0.879021 37.4992 0.604828 35.6348 0.604828H25.6641V25.1048H31.1277V16.25H35.5051L40.5958 25.1048H46.7404L40.6931 14.9113ZM31.1439 4.91128H34.5485C36.3481 4.91128 37.6127 5.21773 38.3098 5.84676C39.007 6.45967 39.3474 7.29838 39.3474 8.41128C39.3474 9.45967 38.9908 10.2822 38.2774 10.9597C37.5641 11.6371 36.2508 11.9758 34.354 11.9758H31.1439V4.91128Z" fill="white"></path><path d="M96.8867 6.28223C95.7518 4.45965 94.1468 3.04029 92.1527 2.07255C90.1585 1.10481 87.8563 0.620941 85.311 0.620941H75.1133V25.1209H85.311C87.8563 25.1209 90.1585 24.6371 92.1527 23.6693C94.163 22.7016 95.7518 21.2822 96.9029 19.4597C98.054 17.6371 98.6215 15.4274 98.6215 12.879C98.6215 10.3145 98.0378 8.10481 96.8867 6.28223ZM89.4127 19.6532C88.3265 20.2661 86.9484 20.5887 85.2948 20.5887H80.5769V5.13707H85.2948C86.9322 5.13707 88.3265 5.44352 89.4127 6.07255C90.499 6.68546 91.3096 7.57255 91.8608 8.70159C92.4121 9.86288 92.6877 11.25 92.6877 12.8629C92.6877 14.4597 92.4121 15.8629 91.8608 17.0242C91.3096 18.1532 90.499 19.0403 89.4127 19.6532Z" fill="white"></path><path d="M106.601 20.2339V14.7823H115.858V9.91129H106.601V5.49194H118.533V0.620972H101.023V25.1048H118.922V20.2339H106.601Z" fill="white"></path><path d="M60.9247 19.9113L56.3203 25.1209H58.6225C58.6225 25.1209 59.5952 25.1048 60.1789 25.1048C60.9247 25.1209 61.103 25.1048 61.6542 25.1048C62.2541 25.1048 63.2269 25.1209 63.2269 25.1209H65.5128L60.9247 19.9113Z" fill="white"></path><path d="M63.4251 0.620972H58.4316L48.7852 25.1048H54.1677L60.9283 7.68549L67.689 25.1048H73.0553L63.4251 0.620972Z" fill="white"></path><path d="M18.0781 39.6854V30.9113H23.7201V32.4596H19.7318V34.3306H22.8284V35.879H19.7318V38.1209H23.8498V39.6693H18.0781V39.6854Z" fill="#FAFAFA"></path><path d="M26.4922 39.6855V30.9113H29.7185C30.3346 30.9113 30.8534 31.0081 31.3235 31.2016C31.7775 31.3952 32.1341 31.6855 32.3773 32.0726C32.6367 32.4597 32.7502 32.9597 32.7502 33.5564C32.7502 34.2016 32.6205 34.7177 32.3449 35.0887C32.0693 35.4597 31.7126 35.7661 31.2587 35.9919L33.2528 39.6855H31.4532L29.7347 36.4274C29.7185 36.4274 29.7185 36.4274 29.7023 36.4274C29.6861 36.4274 29.6861 36.4274 29.6698 36.4274H28.0972V39.6855H26.4922ZM28.0972 35.0887H29.2807C29.9455 35.0887 30.3994 34.9597 30.6588 34.6855C30.9182 34.4113 31.0479 34.0726 31.0479 33.6532C31.0479 33.2177 30.9182 32.8629 30.6588 32.621C30.3994 32.379 29.9617 32.25 29.3294 32.25H28.081V35.0887H28.0972Z" fill="#FAFAFA"></path><path d="M35.6367 39.6854V30.9113H38.7819C39.4629 30.9113 40.0303 31.008 40.5005 31.2177C40.9706 31.4113 41.3273 31.7338 41.5543 32.1532C41.7975 32.5725 41.911 33.1048 41.911 33.75C41.911 34.4113 41.7975 34.9596 41.5543 35.379C41.3111 35.8145 40.9706 36.1209 40.5005 36.3306C40.0303 36.5403 39.4791 36.6371 38.8144 36.6371H37.258V39.6854H35.6367ZM37.258 35.2984H38.636C39.1873 35.2984 39.5926 35.1693 39.8682 34.9274C40.1438 34.6854 40.2735 34.2984 40.2735 33.7661C40.2735 33.2338 40.1276 32.8629 39.852 32.6048C39.5764 32.3629 39.1548 32.2338 38.5874 32.2338H37.258V35.2984Z" fill="#FAFAFA"></path><path d="M51.055 39.8629C50.6983 39.8629 50.3254 39.8306 49.9525 39.7661C49.5796 39.7016 49.223 39.621 48.8987 39.508C48.5745 39.4113 48.3151 39.3145 48.1367 39.2177L48.3313 37.508C48.6231 37.6532 48.9311 37.7822 49.2554 37.8951C49.5796 38.0242 49.9039 38.121 50.2443 38.1855C50.5848 38.2661 50.9253 38.2984 51.2657 38.2984C51.6873 38.2984 52.0439 38.2177 52.3033 38.0403C52.5627 37.879 52.6924 37.621 52.6924 37.2822C52.6924 37.0242 52.6114 36.8145 52.4655 36.6532C52.3196 36.4919 52.0926 36.3468 51.7845 36.2177C51.4765 36.0887 51.1036 35.9435 50.6172 35.7822C50.1471 35.621 49.7255 35.4274 49.3527 35.2339C48.9798 35.0242 48.6879 34.7661 48.461 34.4435C48.2502 34.121 48.1367 33.7177 48.1367 33.2339C48.1367 32.75 48.2502 32.3145 48.4934 31.9435C48.7366 31.5726 49.0933 31.2661 49.5634 31.0564C50.0336 30.8468 50.6335 30.7339 51.3468 30.7339C51.8818 30.7339 52.4006 30.7984 52.887 30.9113C53.3734 31.0242 53.7949 31.1532 54.1354 31.2984L53.9732 32.9435C53.4706 32.7177 53.0167 32.5564 52.579 32.4435C52.1412 32.3306 51.7035 32.2661 51.2495 32.2661C50.7794 32.2661 50.4227 32.3468 50.1633 32.4919C49.9039 32.6532 49.7742 32.879 49.7742 33.1855C49.7742 33.4274 49.839 33.6371 49.9849 33.7822C50.1309 33.9274 50.3254 34.0564 50.601 34.1693C50.8604 34.2822 51.1847 34.3951 51.5576 34.508C52.1899 34.7016 52.7249 34.9274 53.1626 35.1693C53.6003 35.4113 53.9246 35.7016 54.1516 36.0403C54.3785 36.379 54.4758 36.7984 54.4758 37.2984C54.4758 37.5564 54.4434 37.8145 54.3623 38.121C54.2813 38.4113 54.1191 38.7016 53.8922 38.9597C53.649 39.2177 53.3085 39.4435 52.8546 39.6048C52.4006 39.7822 51.8008 39.8629 51.055 39.8629Z" fill="#FAFAFA"></path><path d="M59.0966 39.6854V36.1371L56 30.9113H57.7672L60.2801 35.3629H59.5181L62.0311 30.9113H63.7982L60.7178 36.1371V39.6854H59.0966Z" fill="#FAFAFA"></path><path d="M68.4339 39.8629C68.0772 39.8629 67.7043 39.8306 67.3314 39.7661C66.9585 39.7016 66.6019 39.621 66.2776 39.508C65.9534 39.4113 65.694 39.3145 65.5156 39.2177L65.7102 37.508C66.002 37.6532 66.31 37.7822 66.6343 37.8951C66.9585 38.0242 67.2828 38.121 67.6233 38.1855C67.9637 38.2661 68.3042 38.2984 68.6446 38.2984C69.0662 38.2984 69.4228 38.2177 69.6822 38.0403C69.9416 37.8629 70.0713 37.621 70.0713 37.2822C70.0713 37.0242 69.9903 36.8145 69.8444 36.6532C69.6985 36.4919 69.4715 36.3468 69.1634 36.2177C68.8554 36.0887 68.4663 35.9435 67.9961 35.7822C67.526 35.621 67.1045 35.4274 66.7316 35.2339C66.3587 35.0242 66.0669 34.7661 65.8399 34.4435C65.6291 34.121 65.5156 33.7177 65.5156 33.2339C65.5156 32.75 65.6291 32.3145 65.8723 31.9435C66.1155 31.5726 66.4722 31.2661 66.9423 31.0564C67.4125 30.8468 68.0124 30.7339 68.7257 30.7339C69.2607 30.7339 69.7795 30.7984 70.2659 30.9113C70.7523 31.0242 71.1738 31.1532 71.5143 31.2984L71.3521 32.9435C70.8495 32.7177 70.3956 32.5564 69.9579 32.4435C69.5201 32.3306 69.0824 32.2661 68.6284 32.2661C68.1583 32.2661 67.8016 32.3468 67.5422 32.4919C67.2828 32.6532 67.1531 32.879 67.1531 33.1855C67.1531 33.4274 67.2179 33.6371 67.3639 33.7822C67.5098 33.9274 67.7043 34.0564 67.9799 34.1693C68.2393 34.2822 68.5636 34.3951 68.9365 34.508C69.5688 34.7016 70.1038 34.9274 70.5415 35.1693C70.9792 35.4113 71.3035 35.7016 71.5305 36.0403C71.7575 36.379 71.8547 36.7984 71.8547 37.2984C71.8547 37.5564 71.8223 37.8145 71.7412 38.121C71.6602 38.4113 71.498 38.7016 71.2711 38.9597C71.0279 39.2177 70.6874 39.4435 70.2335 39.6048C69.7795 39.7822 69.1797 39.8629 68.4339 39.8629Z" fill="#FAFAFA"></path><path d="M76.1686 39.6854V32.4596H73.6719V30.9113H80.2704V32.4596H77.7736V39.6854H76.1686Z" fill="#FAFAFA"></path><path d="M82.6875 39.6854V30.9113H88.3295V32.4596H84.3412V34.3306H87.4378V35.879H84.3412V38.1209H88.4592V39.6693H82.6875V39.6854Z" fill="#FAFAFA"></path><path d="M90.6953 39.6854L91.9113 30.9113H93.2407L95.3969 34.9113L97.537 30.9113H98.8664L100.082 39.6854H98.4125L97.5694 33.0887L98.0072 33.1693L95.3969 37.8306L92.7705 33.1854L93.2083 33.1048L92.3652 39.6854H90.6953Z" fill="#FAFAFA"></path></svg> 