<?xml version="1.0" encoding="UTF-8"?> <!-- Generator: Adobe Illustrator 22.1.0, SVG Export Plug-In . SVG Version: 6.00 Build 0) --> <svg xmlns="http://www.w3.org/2000/svg" xmlns:xlink="http://www.w3.org/1999/xlink" id="Слой_1" x="0px" y="0px" viewBox="0 0 100.1 31.6" style="enable-background:new 0 0 100.1 31.6;" xml:space="preserve"> <title>Ресурс 1</title> <g id="Слой_2_1_"> <g id="Слой_1-2"> <path d="M0,9.7h3.1v8.9H0V9.7z M0,6h3v2.6H0V6z"></path> <path d="M14.3,13.2v5.4h-3.1v-5c0-1-0.4-1.5-1.2-1.5c-1,0-1.5,0.7-1.5,1.8v4.7H5.5V9.7h2.1L8,10.6c0.7-0.8,1.7-1.2,2.8-1.2 C12.9,9.4,14.3,10.9,14.3,13.2z"></path> <path d="M23.7,16.7h-4.1L19,18.6h-3.4l4.5-11.5h3.1l4.6,11.5h-3.5L23.7,16.7z M21.7,10.7l-1.2,3.6H23L21.7,10.7z"></path> <path d="M39.2,14.1c0.1,2.5-1.8,4.6-4.3,4.7c-0.1,0-0.2,0-0.4,0c-0.8,0-1.5-0.2-2.2-0.6v3.5h-3V9.7h2.1l0.4,0.7 c0.8-0.7,1.7-1,2.7-1c2.5-0.1,4.6,1.8,4.7,4.3C39.2,13.9,39.2,14,39.2,14.1z M36.1,14.1c0.1-1.1-0.8-2-1.9-2.1 c-1.1-0.1-2,0.8-2.1,1.9c0,0.1,0,0.1,0,0.2c-0.1,1.1,0.8,2,1.9,2.1s2-0.8,2.1-1.9C36.1,14.3,36.1,14.2,36.1,14.1z"></path> <path d="M50.9,14.1c0.1,2.5-1.8,4.6-4.3,4.7c-0.1,0-0.2,0-0.4,0c-0.8,0-1.5-0.2-2.2-0.6v3.5h-3V9.7h2.1l0.4,0.7 c0.8-0.7,1.7-1,2.7-1c2.5-0.1,4.6,1.9,4.6,4.4C50.9,13.9,50.9,14,50.9,14.1z M47.8,14.1c0.1-1.1-0.8-2-1.9-2.1s-2,0.8-2.1,1.9 c0,0.1,0,0.1,0,0.2c-0.1,1.1,0.8,2,1.9,2.1s2-0.8,2.1-1.9C47.8,14.3,47.8,14.2,47.8,14.1z"></path> <path d="M52.2,14.1c0-2.8,2.1-4.7,5-4.7s5,2,5,4.7s-2.1,4.7-5,4.7S52.2,16.9,52.2,14.1z M57.2,16.1c1,0,1.9-0.8,1.9-1.8 c0-0.1,0-0.1,0-0.2c0-1.1-0.9-1.9-1.9-1.9s-1.9,0.9-1.9,1.9c-0.1,1,0.7,1.9,1.7,2C57.1,16.1,57.1,16.1,57.2,16.1z"></path> <path d="M42.6,24L42.6,24c0-0.1-0.1-0.1-0.1-0.1c0,0,0,0,0,0h-0.2v0.3h0.2C42.5,24.1,42.6,24.1,42.6,24C42.6,24,42.6,24,42.6,24z"></path> <polygon points="54.2,24.5 54.5,24.5 54.3,24 "></polygon> <path d="M42.5,24.5h-0.3v0.3h0.3c0.1,0,0.2,0,0.2-0.1C42.7,24.6,42.6,24.5,42.5,24.5C42.5,24.5,42.5,24.5,42.5,24.5z"></path> <path d="M39.3,23.8c-0.3,0-0.5,0.2-0.5,0.5c0,0.3,0.2,0.5,0.5,0.5l0,0c0.3,0,0.5-0.2,0.5-0.5C39.8,24,39.6,23.8,39.3,23.8z"></path> <path d="M18.8,23.9h-0.2v0.4h0.2c0.1,0,0.2-0.1,0.2-0.2C19,23.9,18.9,23.9,18.8,23.9L18.8,23.9z"></path> <path d="M1.6,23.9H1.4v0.8h0.2c0.2,0,0.4-0.2,0.4-0.4C2.1,24.1,1.9,23.9,1.6,23.9z"></path> <path d="M15.7,23.8c-0.3,0-0.5,0.2-0.5,0.5c0,0.3,0.2,0.5,0.5,0.5l0,0c0.3,0,0.5-0.2,0.5-0.5C16.2,24,16,23.8,15.7,23.8z"></path> <path d="M60.2,23.9H60v0.4h0.2c0.1,0,0.2-0.1,0.2-0.2C60.4,23.9,60.3,23.9,60.2,23.9z"></path> <path d="M0,22.9v2.8h62.2v-2.8H0z M1.7,25.2H1v-1.7h0.7c0.5,0,0.9,0.4,0.9,0.9S2.1,25.2,1.7,25.2z M5.2,25.2H4.1v-1.7h1.1v0.4H4.5 v0.2h0.6v0.4H4.5v0.3h0.6L5.2,25.2z M7.7,25.2H7.2l-0.7-1.7h0.5l0.3,1.1l0.3-1.1h0.5L7.7,25.2z M10.9,25.2H9.7v-1.7h1.1v0.4h-0.6 v0.2h0.6v0.4h-0.6v0.3h0.6L10.9,25.2z M13.5,25.2h-1.1v-1.7h0.5v1.3h0.6L13.5,25.2z M15.7,25.2L15.7,25.2c-0.5,0-0.9-0.4-0.9-0.9 c0-0.5,0.4-0.9,0.9-0.9c0.5,0,0.9,0.4,0.9,0.9C16.7,24.8,16.3,25.2,15.7,25.2C15.8,25.2,15.8,25.2,15.7,25.2L15.7,25.2z M18.9,24.7h-0.3v0.5h-0.5v-1.7h0.7c0.3,0,0.6,0.3,0.6,0.6S19.3,24.7,18.9,24.7z M22.7,25.2l-0.1-1l-0.5,1h-0.1l-0.5-1l-0.1,1 h-0.5l0.3-1.7h0.5l0.4,0.9l0.4-0.9h0.5l0.3,1.7H22.7z M25.8,25.2h-1.2v-1.7h1.1v0.4h-0.6v0.2h0.6v0.4h-0.6v0.3h0.6L25.8,25.2z M28.8,25.2h-0.4l-0.7-0.9v0.9h-0.5v-1.7h0.4l0.7,0.9v-0.9h0.5L28.8,25.2z M31.7,23.9h-0.5v1.3h-0.5v-1.3h-0.5v-0.4h1.4V23.9z M36.6,25.2l-0.1-1l-0.5,1h-0.2l-0.5-1l-0.1,1h-0.5l0.3-1.7h0.5l0.4,0.9l0.4-0.9h0.5l0.3,1.7H36.6z M39.4,25.2L39.4,25.2 c-0.5,0-0.9-0.4-0.9-0.9s0.4-0.9,0.9-0.9c0,0,0,0,0,0c0.5,0,0.9,0.4,0.9,0.9C40.3,24.8,39.9,25.2,39.4,25.2 C39.4,25.2,39.4,25.2,39.4,25.2z M42.6,25.2h-0.8v-1.7h0.8c0.3,0,0.5,0.2,0.5,0.4c0,0,0,0,0,0c0,0.2-0.1,0.3-0.2,0.4 c0.2,0.1,0.3,0.2,0.3,0.4C43.1,24.9,42.9,25.2,42.6,25.2C42.6,25.2,42.6,25.2,42.6,25.2L42.6,25.2z M45.1,25.2h-0.5v-1.7h0.5V25.2 z M47.8,25.2h-1.1v-1.7h0.5v1.3h0.6L47.8,25.2z M50.4,25.2h-1.2v-1.7h1.1v0.4h-0.6v0.2h0.6v0.4h-0.6v0.3h0.6L50.4,25.2z M54.8,25.2l-0.1-0.3H54L54,25.2h-0.5l0.6-1.7h0.5l0.7,1.7H54.8z M57.4,24.7h-0.3v0.5h-0.5v-1.7h0.7c0.3,0,0.6,0.3,0.6,0.6 S57.8,24.7,57.4,24.7z M60.3,24.7H60v0.5h-0.5v-1.7h0.7c0.3,0,0.6,0.3,0.6,0.6S60.6,24.7,60.3,24.7L60.3,24.7z"></path> <path d="M57.4,23.9h-0.2v0.4h0.2c0.1,0,0.2-0.1,0.2-0.2C57.5,23.9,57.4,23.9,57.4,23.9z"></path> </g> </g> </svg> 