<?xml version="1.0" encoding="UTF-8"?> <!-- Generator: Adobe Illustrator 22.1.0, SVG Export Plug-In . SVG Version: 6.00 Build 0) --> <svg xmlns="http://www.w3.org/2000/svg" xmlns:xlink="http://www.w3.org/1999/xlink" id="Слой_1" x="0px" y="0px" viewBox="0 0 100.1 31.6" style="enable-background:new 0 0 100.1 31.6;" xml:space="preserve"> <style type="text/css"> .st0{fill:#FFFFFF;} </style> <title>Ресурс 1</title> <g id="Слой_2_1_"> <g id="Слой_1-2"> <path class="st0" d="M0,6h4.9v14.2H0V6z M0,0h4.9v4.2H0V0z"></path> <path class="st0" d="M22.9,11.5v8.7H18v-8c0-1.7-0.6-2.5-1.9-2.5c-1.5,0-2.4,1.1-2.4,2.9v7.6H8.8V6h3.4l0.7,1.5 c1.2-1.2,2.8-1.9,4.5-1.9C20.7,5.5,22.9,7.9,22.9,11.5z"></path> <path class="st0" d="M38.2,17.2h-6.6l-1,3h-5.5l7.3-18.5h5l7.4,18.5h-5.6L38.2,17.2z M34.9,7.5l-2,5.7h4.1L34.9,7.5z"></path> <path class="st0" d="M63,13.1c0.2,4-2.9,7.4-6.9,7.6c-0.2,0-0.4,0-0.6,0c-1.2,0-2.5-0.3-3.5-1v5.6h-4.9V6h3.3l0.6,1.1 c1.2-1,2.8-1.6,4.4-1.6c4-0.2,7.4,3,7.5,7C63,12.7,63,12.9,63,13.1z M58,13.1c0.1-1.8-1.3-3.3-3-3.4c-1.8-0.1-3.3,1.3-3.4,3 c0,0.1,0,0.2,0,0.4c-0.1,1.8,1.3,3.3,3,3.4c1.8,0.1,3.3-1.3,3.4-3C58,13.3,58,13.2,58,13.1z"></path> <path class="st0" d="M81.8,13.1c0.2,4-2.9,7.4-6.9,7.6c-0.2,0-0.4,0-0.6,0c-1.2,0-2.4-0.3-3.5-1v5.6H66V6h3.3L70,7.1 c1.2-1,2.8-1.6,4.4-1.6c4-0.1,7.3,3.1,7.5,7.1C81.8,12.7,81.8,12.9,81.8,13.1z M76.8,13.1c0.1-1.8-1.3-3.3-3-3.4 c-1.8-0.1-3.3,1.3-3.4,3c0,0.1,0,0.2,0,0.4c-0.1,1.8,1.3,3.3,3,3.4c1.8,0.1,3.3-1.3,3.4-3C76.8,13.3,76.8,13.2,76.8,13.1z"></path> <path class="st0" d="M84,13.1c0-4.4,3.3-7.6,8-7.6s8,3.2,8,7.6s-3.4,7.6-8,7.6S84,17.5,84,13.1z M92,16.3c1.7,0,3-1.3,3.1-2.9 c0-0.1,0-0.2,0-0.3c0-1.7-1.4-3.1-3.1-3.1s-3.1,1.4-3.1,3.1c-0.1,1.7,1.1,3.1,2.8,3.2C91.8,16.3,91.9,16.3,92,16.3z"></path> <path class="st0" d="M68.6,28.9L68.6,28.9c0-0.1-0.1-0.2-0.2-0.2c0,0,0,0,0,0h-0.4v0.5h0.4C68.4,29.1,68.5,29.1,68.6,28.9 C68.6,28.9,68.6,28.9,68.6,28.9z"></path> <polygon class="st0" points="87.1,29.8 87.7,29.8 87.4,28.9 "></polygon> <path class="st0" d="M68.3,29.7h-0.4v0.5h0.4c0.1,0,0.3-0.1,0.3-0.2c0-0.1-0.1-0.3-0.2-0.3C68.4,29.7,68.4,29.7,68.3,29.7z"></path> <path class="st0" d="M63.3,28.7c-0.4,0-0.7,0.3-0.7,0.7c0,0.4,0.3,0.7,0.7,0.7l0,0c0.4,0,0.7-0.3,0.7-0.7 C64,29,63.7,28.7,63.3,28.7z"></path> <path class="st0" d="M30.3,28.7H30v0.7h0.3c0.2,0,0.3-0.2,0.3-0.4C30.6,28.8,30.5,28.7,30.3,28.7L30.3,28.7z"></path> <path class="st0" d="M2.7,28.7H2.3v1.4h0.3c0.4,0,0.7-0.3,0.7-0.7S3,28.7,2.7,28.7z"></path> <path class="st0" d="M25.3,28.7c-0.4,0-0.7,0.3-0.7,0.7c0,0.4,0.3,0.7,0.7,0.7l0,0c0.4,0,0.7-0.3,0.7-0.7 C26,29,25.7,28.7,25.3,28.7z"></path> <path class="st0" d="M96.8,28.7h-0.3v0.7h0.3c0.2,0,0.3-0.2,0.3-0.4C97.1,28.8,97,28.7,96.8,28.7z"></path> <path class="st0" d="M0,27.1v4.5h100v-4.5H0z M2.7,30.8H1.6V28h1.1c0.8,0,1.4,0.6,1.4,1.4C4.1,30.2,3.5,30.8,2.7,30.8z M8.3,30.8 H6.5V28h1.8v0.7h-1v0.4h0.9v0.6H7.3v0.4h1L8.3,30.8z M12.3,30.8h-0.7L10.5,28h0.9l0.6,1.7l0.6-1.7h0.9L12.3,30.8z M17.5,30.8h-1.8 V28h1.7v0.7h-1v0.4h0.9v0.6h-0.9v0.4h1L17.5,30.8z M21.7,30.8h-1.8V28h0.8v2.1h1L21.7,30.8z M25.3,30.9L25.3,30.9 c-0.8,0-1.4-0.7-1.4-1.5c0-0.8,0.7-1.4,1.5-1.4c0.8,0,1.4,0.7,1.4,1.4c0,0.8-0.6,1.4-1.4,1.5C25.4,30.9,25.3,30.9,25.3,30.9 L25.3,30.9z M30.4,30H30v0.8h-0.8V28h1.2c0.6,0,1,0.4,1,1S31,30,30.4,30z M36.5,30.8l-0.2-1.6l-0.7,1.6h-0.2l-0.7-1.6l-0.2,1.6 h-0.8L34,28h0.8l0.7,1.5l0.7-1.5h0.8l0.4,2.8H36.5z M41.5,30.8h-1.9V28h1.8v0.7h-1v0.4h0.9v0.6h-0.9v0.4h1L41.5,30.8z M46.4,30.8 h-0.6l-1.1-1.5v1.5h-0.7V28h0.7l1.1,1.5V28h0.7L46.4,30.8z M51,28.7h-0.8v2.1h-0.8v-2.1h-0.8V28H51V28.7z M58.8,30.8l-0.2-1.6 l-0.7,1.6h-0.3l-0.7-1.6l-0.2,1.6h-0.8l0.4-2.8h0.8l0.7,1.5l0.7-1.5h0.8l0.4,2.8H58.8z M63.3,30.9L63.3,30.9 c-0.8,0-1.5-0.6-1.5-1.4c0-0.8,0.6-1.5,1.4-1.5c0,0,0,0,0,0c0.8,0,1.5,0.6,1.5,1.4C64.8,30.2,64.2,30.9,63.3,30.9 C63.4,30.9,63.4,30.9,63.3,30.9z M68.5,30.8h-1.3V28h1.3c0.4,0,0.8,0.3,0.8,0.7c0,0,0,0,0,0c0,0.2-0.1,0.5-0.3,0.6 c0.3,0.1,0.4,0.4,0.4,0.7C69.3,30.5,69,30.8,68.5,30.8C68.5,30.8,68.5,30.8,68.5,30.8L68.5,30.8z M72.6,30.8h-0.8V28h0.8V30.8z M76.9,30.8h-1.8V28h0.8v2.1h1L76.9,30.8z M81.1,30.8h-1.9V28H81v0.7h-1v0.4h0.9v0.6H80v0.4h1L81.1,30.8z M88.1,30.8l-0.2-0.5h-1 l-0.2,0.5H86l1-2.8h0.7l1.1,2.8H88.1z M92.4,30H92v0.8h-0.8V28h1.2c0.6,0,1,0.4,1,1S92.9,30,92.4,30z M96.9,30h-0.4v0.8h-0.8V28 h1.2c0.6,0,1,0.4,1,1S97.5,30,96.9,30L96.9,30z"></path> <path class="st0" d="M92.3,28.7h-0.3v0.7h0.3c0.2,0,0.3-0.2,0.3-0.4C92.5,28.8,92.4,28.7,92.3,28.7z"></path> </g> </g> </svg> 