<svg width="108" height="36" viewBox="0 0 108 36" fill="none" xmlns="http://www.w3.org/2000/svg">
<path d="M39.7319 6.0791C38.6182 6.0791 37.749 6.87383 37.749 7.97C37.749 9.09358 38.6182 9.91571 39.7319 9.91571C40.8998 9.91571 41.7418 9.09358 41.7418 7.97C41.7418 6.87383 40.8998 6.0791 39.7319 6.0791ZM38.2108 27.9478H41.2801V12.8754H38.2108V27.9478Z" fill="white"/>
<path d="M55.6527 24.6593C54.4847 25.0703 53.4254 25.3992 52.4747 25.3992C50.5462 25.3992 49.5412 24.1934 49.5412 22.001V15.7803H55.6798V12.8754H49.5412V8.76473L46.4719 9.44984V12.8754H43.7013V15.7803H46.4719V22.1655C46.4719 26.3309 48.8621 28.2767 51.9315 28.2767C53.6427 28.2767 55.381 27.6738 56.1959 27.1805L55.6527 24.6593Z" fill="white"/>
<path d="M65.2888 28.2767C68.8199 28.2767 71.6991 26.6872 71.6991 23.4535C71.6991 20.5212 69.3631 19.8087 65.316 18.8495C62.7084 18.2192 61.7849 17.9726 61.7849 17.0135C61.7849 15.9721 62.9529 15.287 64.9357 15.287C66.8371 15.287 67.9779 15.8899 68.4125 17.1231H71.509C70.9657 14.3826 68.8199 12.5465 64.99 12.5465C61.2417 12.5465 58.6884 14.3004 58.6884 17.3423C58.6884 19.8635 60.454 20.713 64.6369 21.7544C67.1359 22.3573 68.5483 22.5491 68.5483 23.8097C68.5483 24.9333 67.326 25.5362 65.3432 25.5362C62.7628 25.5362 61.5405 24.7689 61.0787 23.0972H57.9551C58.5255 26.3583 61.3503 28.2767 65.2888 28.2767Z" fill="white"/>
<path d="M84.3095 12.8754L80.3167 24.7141L76.351 12.8754H73.0916L78.4697 27.9478H82.1909L87.569 12.8754H84.3095Z" fill="white"/>
<path d="M91.5361 6.0791C90.4225 6.0791 89.5533 6.87383 89.5533 7.97C89.5533 9.09358 90.4225 9.91571 91.5361 9.91571C92.7041 9.91571 93.5461 9.09358 93.5461 7.97C93.5461 6.87383 92.7041 6.0791 91.5361 6.0791ZM90.015 27.9478H93.0843V12.8754H90.015V27.9478Z" fill="white"/>
<path d="M107.457 24.6593C106.289 25.0703 105.23 25.3992 104.279 25.3992C102.35 25.3992 101.345 24.1934 101.345 22.001V15.7803H107.484V12.8754H101.345V8.76473L98.2761 9.44984V12.8754H95.5056V15.7803H98.2761V22.1655C98.2761 26.3309 100.666 28.2767 103.736 28.2767C105.447 28.2767 107.185 27.6738 108 27.1805L107.457 24.6593Z" fill="white"/>
<path d="M6.27279 10.6945C7.94214 6.91163 8.77681 5.0202 10.1534 3.91347C11.3134 2.98085 12.7304 2.43206 14.211 2.342C15.968 2.23514 17.8427 3.07726 21.5921 4.7615L25.0815 6.32895C28.831 8.01319 30.7057 8.85531 31.8026 10.2442C32.727 11.4145 33.2709 12.8442 33.3602 14.338C33.4661 16.1106 32.6314 18.0021 30.9621 21.7849L29.4085 25.3055C27.7392 29.0884 26.9045 30.9798 25.5279 32.0865C24.3679 33.0192 22.9509 33.5679 21.4703 33.658C19.7133 33.7649 17.8386 32.9227 14.0892 31.2385L10.5997 29.671C6.85032 27.9868 4.97561 27.1447 3.87867 25.7558C2.95429 24.5855 2.41036 23.1558 2.3211 21.662C2.21518 19.8894 3.04985 17.9979 4.7192 14.2151L6.27279 10.6945Z" fill="url(#paint0_linear)"/>
<defs>
<linearGradient id="paint0_linear" x1="4.4472" y1="16.7089" x2="32.0818" y2="19.2122" gradientUnits="userSpaceOnUse">
<stop stop-color="#FFA979"/>
<stop offset="1" stop-color="#FF6633"/>
</linearGradient>
</defs>
</svg>
