<?xml version="1.0" standalone="no"?>
<!DOCTYPE svg PUBLIC "-//W3C//DTD SVG 20010904//EN"
 "http://www.w3.org/TR/2001/REC-SVG-20010904/DTD/svg10.dtd">
<svg version="1.0" xmlns="http://www.w3.org/2000/svg"
 width="2484.000000pt" height="664.000000pt" viewBox="0 0 2484.000000 664.000000"
 preserveAspectRatio="xMidYMid meet">

<g transform="translate(0.000000,664.000000) scale(0.100000,-0.100000)"
fill="#000000" stroke="none">
<path d="M12913 6626 c-392 -75 -698 -352 -808 -731 -14 -49 -29 -127 -32
-172 l-6 -83 -261 0 c-191 0 -280 -4 -331 -15 -207 -44 -385 -206 -445 -405
-23 -75 -490 -4364 -490 -4498 0 -250 164 -472 410 -554 63 -21 83 -22 530
-25 l465 -3 -60 33 c-271 148 -419 382 -456 724 -72 665 411 1149 1278 1277
335 50 804 46 1276 -10 l57 -7 0 204 c0 291 -20 408 -96 566 -91 191 -255 304
-507 350 -127 23 -379 22 -512 -1 -375 -67 -746 -262 -1036 -545 l-98 -96 -5
35 c-3 19 -19 154 -37 299 l-32 265 56 52 c293 273 721 485 1113 551 145 24
486 24 659 -1 399 -57 700 -190 916 -405 159 -160 261 -356 321 -619 l22 -97
3 -1287 4 -1288 158 0 c244 0 348 27 478 123 136 101 218 253 229 422 4 61
-47 613 -211 2279 -236 2410 -220 2276 -299 2399 -50 78 -158 174 -241 213
-118 57 -173 64 -512 64 l-301 0 -7 63 c-27 244 -115 440 -271 606 -142 151
-303 249 -491 297 -122 32 -320 41 -430 20z m345 -302 c196 -43 385 -193 476
-378 40 -80 76 -208 76 -268 l0 -38 -726 0 -726 0 7 63 c18 153 83 292 193
408 185 197 432 272 700 213z"/>
<path d="M8170 2855 l0 -2745 385 0 385 0 0 2745 0 2745 -385 0 -385 0 0
-2745z"/>
<path d="M9310 2855 l0 -2745 385 0 385 0 0 2745 0 2745 -385 0 -385 0 0
-2745z"/>
<path d="M16110 2855 l0 -2745 240 0 c159 0 240 4 240 10 0 6 52 310 115 675
63 366 115 669 115 675 0 5 17 10 38 10 l38 0 18 -92 c140 -748 622 -1295
1210 -1377 217 -30 533 6 788 89 520 171 892 548 1061 1075 122 379 143 896
53 1317 -164 776 -721 1267 -1541 1358 -343 38 -644 -32 -911 -210 -105 -70
-273 -242 -354 -360 -89 -131 -172 -300 -222 -457 l-43 -133 -37 0 -38 0 0
1455 0 1455 -385 0 -385 0 0 -2745z m2283 580 c472 -82 793 -490 894 -1135 25
-162 25 -577 0 -739 -77 -490 -275 -841 -578 -1022 -144 -86 -312 -129 -506
-129 -700 0 -1132 458 -1229 1300 -23 200 -15 522 16 665 110 515 446 904 890
1031 47 13 112 28 145 33 97 14 276 12 368 -4z"/>
<path d="M21385 4880 c-67 -26 -160 -101 -196 -158 -101 -160 -69 -350 71
-426 163 -89 394 1 486 190 32 65 44 179 25 237 -17 49 -96 136 -146 158 -55
25 -173 25 -240 -1z"/>
<path d="M22820 4802 c0 -4 41 -239 90 -522 50 -283 90 -518 90 -522 0 -5
-211 -8 -470 -8 -258 0 -470 -3 -470 -7 0 -5 -13 -81 -29 -170 l-28 -163 329
0 330 0 -6 -32 c-47 -269 -351 -1996 -366 -2088 -27 -160 -38 -476 -20 -587 6
-43 25 -118 41 -168 89 -279 276 -425 641 -501 120 -25 452 -30 648 -9 143 14
590 80 595 87 1 2 14 80 29 173 16 94 30 182 33 197 l5 28 -88 -30 c-494 -168
-925 -192 -1184 -67 -129 62 -229 194 -275 362 -22 80 -30 289 -16 409 10 90
376 2186 386 2214 3 9 182 12 849 12 l846 0 5 23 c2 12 14 76 25 142 11 66 23
132 26 147 l6 28 -819 2 -818 3 107 510 c59 281 107 518 108 528 0 16 -21 17
-300 17 -165 0 -300 -3 -300 -8z"/>
<path d="M1760 3853 c-96 -7 -270 -35 -370 -60 -219 -53 -421 -141 -606 -264
-154 -102 -353 -302 -457 -459 -295 -446 -396 -1017 -281 -1588 145 -725 625
-1234 1330 -1413 158 -40 312 -60 509 -66 653 -22 1182 212 1508 666 89 122
190 327 212 428 l7 33 -380 0 -379 0 -17 -62 c-27 -98 -99 -237 -156 -300
-146 -163 -387 -248 -706 -248 -386 0 -752 198 -970 526 -209 315 -286 751
-212 1204 89 545 432 940 925 1062 119 30 367 32 493 5 177 -38 328 -123 449
-253 58 -62 82 -99 133 -205 l63 -128 378 -1 c207 0 377 4 377 9 0 21 -66 165
-116 253 -82 145 -163 249 -298 384 -277 276 -613 431 -1026 473 -95 10 -304
12 -410 4z"/>
<path d="M5590 3849 c-399 -43 -783 -189 -1077 -407 -119 -89 -313 -286 -395
-402 -85 -120 -186 -314 -233 -450 -77 -221 -105 -395 -105 -655 0 -346 62
-616 206 -895 280 -543 820 -911 1494 -1016 144 -23 509 -26 645 -6 624 93
1132 394 1436 851 206 310 308 661 309 1061 0 403 -99 748 -305 1055 -300 449
-783 745 -1380 846 -139 23 -459 33 -595 18z m465 -570 c307 -45 578 -178 771
-380 164 -172 276 -408 319 -674 34 -209 28 -466 -15 -665 -97 -450 -383 -772
-813 -915 -543 -180 -1144 -52 -1493 317 -165 175 -270 393 -322 673 -23 125
-23 462 1 595 26 148 63 265 122 385 133 268 343 459 635 576 236 95 525 127
795 88z"/>
<path d="M20840 3563 c-18 -103 -35 -195 -38 -205 -4 -17 7 -18 198 -18 l202
0 -6 -27 c-4 -16 -130 -730 -281 -1588 -151 -858 -278 -1572 -281 -1588 l-6
-27 215 0 215 0 6 27 c3 16 145 827 316 1803 170 976 312 1783 314 1793 4 16
-21 17 -408 17 l-412 0 -34 -187z"/>
<path d="M13120 1953 c-109 -7 -280 -37 -354 -60 -351 -110 -560 -374 -558
-708 2 -310 176 -538 459 -601 134 -30 350 -5 533 61 340 123 642 382 794 682
l36 71 -2 254 -3 253 -133 17 c-263 32 -576 45 -772 31z"/>
<path d="M14061 1187 c-174 -481 -505 -836 -946 -1014 l-80 -32 683 -1 c375 0
682 3 682 8 1 17 -294 1132 -299 1132 -4 0 -21 -42 -40 -93z"/>
</g>
</svg>
