<svg xmlns="http://www.w3.org/2000/svg" width="165" height="40" fill="none"><path fill="#fff" d="M51.83 6.027c.775.35 1.4.873 1.824 1.521.424.649.649 1.422.649 2.32 0 .872-.225 1.645-.65 2.319a4.085 4.085 0 0 1-1.822 1.52c-.774.35-1.723.524-2.772.524h-2.422v3.317H43.84V5.478h5.219c1.074 0 1.998.175 2.772.55Zm-1.023 5.387c.424-.374.65-.873.65-1.547 0-.673-.226-1.197-.65-1.57-.425-.375-1.074-.55-1.923-.55h-2.247v4.19h2.272c.824 0 1.473-.174 1.898-.523Zm8.09 5.536c-.998-.55-1.797-1.272-2.347-2.22-.574-.947-.849-2.02-.849-3.192 0-1.172.275-2.244.85-3.192a5.913 5.913 0 0 1 2.346-2.22c1-.548 2.123-.797 3.372-.797 1.248 0 2.372.274 3.37.798 1 .548 1.774 1.272 2.348 2.22.574.947.849 2.02.849 3.191 0 1.172-.275 2.245-.85 3.192a5.914 5.914 0 0 1-2.346 2.22c-1 .548-2.123.797-3.371.797-1.249 0-2.373-.274-3.371-.797Zm5.32-2.07a3.398 3.398 0 0 0 1.348-1.372c.324-.573.5-1.247.5-1.995s-.176-1.421-.5-1.995a3.56 3.56 0 0 0-1.349-1.371 3.874 3.874 0 0 0-1.922-.499c-.725 0-1.349.175-1.923.499a3.4 3.4 0 0 0-1.349 1.371c-.324.574-.5 1.247-.5 1.995s.176 1.422.5 1.995a3.561 3.561 0 0 0 1.349 1.372 3.875 3.875 0 0 0 1.923.498c.699 0 1.348-.174 1.922-.498Zm24.57-9.401-3.945 12.069h-2.996l-2.647-8.154-2.747 8.154h-2.971L69.51 5.503h2.896l2.722 8.479 2.846-8.479h2.572l2.747 8.554 2.797-8.554h2.697V5.48Zm10.888 9.825v2.244h-9.339V5.478h9.115v2.245h-6.343v2.618H98.7v2.17h-5.593v2.793h6.567Zm9.889 2.244-2.323-3.366h-2.572v3.366h-2.796V5.478h5.219c1.073 0 1.997.175 2.771.524.775.35 1.399.873 1.823 1.521.425.649.65 1.422.65 2.32 0 .897-.225 1.67-.65 2.319-.424.648-1.048 1.147-1.823 1.496l2.697 3.89h-2.996Zm-.699-9.252c-.425-.374-1.074-.548-1.923-.548h-2.273v4.214h2.273c.849 0 1.473-.174 1.923-.548.424-.374.649-.873.649-1.547 0-.673-.2-1.197-.649-1.57Zm8.115 8.654a5.91 5.91 0 0 1-2.347-2.22c-.574-.947-.849-2.02-.849-3.217s.275-2.269.849-3.217a5.909 5.909 0 0 1 2.347-2.219c.999-.524 2.098-.798 3.346-.798 1.049 0 1.998.175 2.822.549a5.628 5.628 0 0 1 2.123 1.596l-1.798 1.645c-.824-.947-1.823-1.421-3.022-1.421-.749 0-1.423.175-1.998.499a3.462 3.462 0 0 0-1.373 1.371c-.325.574-.499 1.247-.499 1.995s.174 1.422.499 1.995a3.462 3.462 0 0 0 1.373 1.372c.575.324 1.249.498 1.998.498 1.199 0 2.223-.473 3.022-1.42l1.798 1.645a5.525 5.525 0 0 1-2.148 1.596c-.849.374-1.798.548-2.847.548a7.074 7.074 0 0 1-3.296-.797Zm12.386 0c-.999-.55-1.798-1.272-2.347-2.22-.575-.947-.849-2.02-.849-3.192 0-1.172.274-2.244.849-3.192a5.909 5.909 0 0 1 2.347-2.22c.999-.548 2.122-.797 3.371-.797s2.372.274 3.371.798c.999.548 1.773 1.272 2.347 2.22.575.947.849 2.02.849 3.191 0 1.172-.274 2.245-.849 3.192a5.91 5.91 0 0 1-2.347 2.22c-.999.548-2.122.797-3.371.797s-2.372-.274-3.371-.797Zm5.319-2.07a3.402 3.402 0 0 0 1.348-1.372c.325-.573.5-1.247.5-1.995s-.175-1.421-.5-1.995a3.564 3.564 0 0 0-1.348-1.371 3.878 3.878 0 0 0-1.923-.499c-.724 0-1.349.175-1.923.499a3.396 3.396 0 0 0-1.348 1.371c-.325.574-.5 1.247-.5 1.995s.175 1.422.5 1.995a3.557 3.557 0 0 0 1.348 1.372 3.876 3.876 0 0 0 1.923.498c.699 0 1.348-.174 1.923-.498Zm6.767-9.401h5.468c1.299 0 2.473.249 3.472.748a5.68 5.68 0 0 1 2.347 2.12c.549.897.824 1.97.824 3.166 0 1.197-.275 2.27-.824 3.167-.55.898-1.349 1.621-2.347 2.12-.999.499-2.173.748-3.472.748h-5.468V5.478Zm5.319 9.775c1.199 0 2.172-.324 2.871-.998.724-.673 1.074-1.57 1.074-2.718 0-1.147-.35-2.07-1.074-2.718-.724-.673-1.672-.997-2.871-.997h-2.547v7.48h2.547v-.05Zm18.229.05v2.244h-9.34V5.478h9.115v2.245h-6.343v2.618h5.594v2.17h-5.594v2.793H165ZM97.685 34.589V22.685h5.166c1.069 0 1.989.176 2.762.527.773.34 1.37.834 1.791 1.48.42.646.631 1.417.631 2.313 0 .884-.211 1.65-.631 2.295-.421.646-1.018 1.145-1.791 1.497-.773.34-1.693.51-2.762.51h-3.632l1.228-1.241v4.523h-2.762Zm2.762-4.217-1.228-1.31h3.479c.852 0 1.489-.181 1.909-.544.421-.363.631-.867.631-1.513 0-.658-.21-1.168-.631-1.53-.42-.364-1.057-.545-1.909-.545h-3.479l1.228-1.31v6.752ZM89.55 34.793c-1.694 0-3.019-.47-3.973-1.412-.955-.94-1.433-2.284-1.433-4.03v-6.666h2.763v6.564c0 1.134.233 1.95.699 2.449.466.499 1.12.748 1.96.748.842 0 1.495-.25 1.962-.748.466-.499.699-1.315.699-2.449v-6.564h2.728v6.666c0 1.746-.478 3.09-1.433 4.03-.954.941-2.279 1.412-3.972 1.412ZM75.657 34.793a7.346 7.346 0 0 1-2.626-.46 6.31 6.31 0 0 1-2.08-1.292 6.066 6.066 0 0 1-1.364-1.955 6.19 6.19 0 0 1-.478-2.449c0-.884.16-1.7.478-2.449.33-.748.79-1.4 1.38-1.955a6.31 6.31 0 0 1 2.081-1.293 7.159 7.159 0 0 1 2.592-.459c.943 0 1.807.153 2.592.46a6.119 6.119 0 0 1 2.063 1.292 5.944 5.944 0 0 1 1.381 1.955c.33.737.495 1.553.495 2.45 0 .883-.165 1.705-.495 2.465-.33.748-.79 1.4-1.381 1.955-.58.544-1.267.97-2.063 1.276-.785.306-1.643.459-2.575.459Zm-.017-2.347c.534 0 1.023-.09 1.466-.272a3.468 3.468 0 0 0 1.978-1.99c.194-.464.29-.98.29-1.547s-.096-1.083-.29-1.547a3.468 3.468 0 0 0-.784-1.208 3.34 3.34 0 0 0-1.177-.782 3.967 3.967 0 0 0-1.483-.272c-.534 0-1.029.09-1.484.272a3.558 3.558 0 0 0-1.176.782 3.68 3.68 0 0 0-.802 1.208c-.181.464-.272.98-.272 1.547a4.3 4.3 0 0 0 .272 1.547c.194.465.455.868.785 1.208.34.34.739.6 1.193.782.455.181.95.272 1.484.272ZM57.32 34.589V22.685h5.167c1.069 0 1.99.176 2.763.527.773.34 1.37.834 1.79 1.48.42.646.63 1.417.63 2.313 0 .884-.21 1.65-.63 2.295-.42.635-1.017 1.123-1.79 1.463-.773.34-1.694.51-2.763.51h-3.632l1.228-1.207v4.523h-2.762Zm7.589 0-2.984-4.32h2.95l3.018 4.32h-2.984Zm-4.826-4.217-1.228-1.293h3.479c.852 0 1.489-.181 1.91-.544.42-.374.63-.884.63-1.53 0-.658-.21-1.168-.63-1.53-.421-.364-1.058-.545-1.91-.545h-3.479l1.228-1.31v6.752ZM49.93 34.793c-.944 0-1.814-.148-2.61-.442a6.35 6.35 0 0 1-2.063-1.293 6.07 6.07 0 0 1-1.364-1.955c-.318-.748-.477-1.57-.477-2.466 0-.896.159-1.717.477-2.466.33-.748.79-1.4 1.381-1.955a6.09 6.09 0 0 1 2.08-1.276c.796-.306 1.672-.459 2.626-.459 1.058 0 2.007.176 2.848.527a5.642 5.642 0 0 1 2.148 1.53l-1.773 1.633a4.217 4.217 0 0 0-1.415-1.003 4.076 4.076 0 0 0-1.671-.34c-.58 0-1.109.09-1.586.272a3.621 3.621 0 0 0-1.245.782 3.68 3.68 0 0 0-.801 1.208c-.182.464-.273.98-.273 1.547 0 .556.09 1.066.273 1.53.193.465.46.873.801 1.225.353.34.762.6 1.228.782.477.181 1 .272 1.569.272.545 0 1.074-.085 1.585-.255.523-.181 1.03-.482 1.518-.901l1.569 1.99a7.189 7.189 0 0 1-2.268 1.122 8.707 8.707 0 0 1-2.558.39Zm2.301-1.87V28.45h2.524v4.83l-2.524-.358ZM34.66 9.992c-.399-.7-1.198-1.1-2.297-1.233.067.3.1.567.1.9 0 .333-.066.7-.133.999.2.1.333.266.433.466.866 1.565-1.432 4.73-5.627 8.093-.2-.166-.6-.433-.866-.666-.133-.832-.366-1.632-.732-2.364-.233-.467-.466-.933-.766-1.366 0 .533-.066 1.399-.2 2.498-.066.4-.1.866-.2 1.299-.166.932-.399 1.965-.699 3.097-.1.3-.166.633-.3.933v-.766c.034-.666.034-1.3.034-1.965 0-.666 0-1.3-.033-1.932 0-.5-.034-1-.067-1.499a102.567 102.567 0 0 0-.266-3.53v-.1s-.034-.267-.067-.366l-.1-.6 1.832-.633c.133.233.332.466.499.666l.3.3a3.677 3.677 0 0 0 2.364.866c2.03 0 3.662-1.665 3.662-3.697 0-1.132-.5-2.131-1.298-2.797a3.534 3.534 0 0 0-2.364-.9c-2.031 0-3.663 1.666-3.663 3.697 0 .233.033.466.067.7v.033c-.5.166-1.032.366-1.565.566C21.742 4.363 19.71 0 17.414 0c-2.297 0-4.295 4.33-5.294 10.724C6.16 8.426 1.433 7.994.267 9.992c-1.165 1.998 1.565 5.928 6.56 9.991-4.995 4.03-7.692 7.927-6.56 9.959 1.166 2.031 5.893 1.598 11.886-.7C13.153 35.604 15.15 40 17.447 40c2.298 0 4.295-4.33 5.294-10.724 5.96 2.298 10.688 2.73 11.853.732 1.232-2.065-1.532-5.961-6.492-10.025 4.96-4.063 7.69-7.96 6.559-9.991Zm-8.123.266.133-1.632c.033-.5.166-.866.4-1.132.2-.267.566-.4 1.032-.4.433 0 .732.1.899.333.166.233.233.533.2.966l-.034.366h-.8l.034-.4c0-.166.034-.299 0-.366 0-.1-.033-.166-.1-.233-.066-.066-.133-.1-.266-.1s-.233.034-.3.1a.596.596 0 0 0-.166.233c-.033.1-.067.233-.067.4l-.166 1.965c-.033.266 0 .433.067.566.066.1.166.167.332.167.134 0 .233-.034.3-.1a.536.536 0 0 0 .133-.233c.034-.1.034-.233.067-.4l.033-.4h.8l-.034.367c-.034.433-.167.766-.366.999-.2.233-.533.366-.966.366-.466 0-.799-.133-.966-.4-.166-.2-.233-.566-.2-1.032Zm-24.305.766c.899-1.532 4.76-1.099 9.788.866-.033.3-.066.733-.1 1.066-.765.6-1.398 1.332-1.93 2.165-.234.333-.4.7-.6 1.065.466-.266 1.232-.632 2.33-1.099.367-.166.8-.3 1.232-.5.866-.299 1.898-.665 2.997-.932.3-.1.633-.133.932-.233-.233.1-.466.267-.666.367-.233.1-.466.266-.699.366-.066.033-.1.067-.2.1-.3.133-.532.3-.832.466-.566.333-1.132.666-1.665 1-.1.066-.2.1-.3.199-.1.067-.166.1-.266.167-.233.133-.466.3-.666.433-.899.599-1.897 1.265-2.863 1.998l-.067.066c-.2.134-.4.3-.566.433-.033 0-.033.034-.066.034-.067.066-.1.1-.167.133-4.195-3.43-6.525-6.595-5.626-8.16Zm16.081 5.562c1.165 0 1.665.633 1.565 1.932-.1 1.232-.766 1.832-1.965 1.832h-.666l-.266 3.03H15.75l.6-6.794h1.964Zm-6.326 11.39c-5.028 1.932-8.89 2.399-9.789.833-.865-1.565 1.432-4.729 5.627-8.093.233.167.566.433.832.633a9.418 9.418 0 0 0 1.965 4.43c.066.1.133.166.2.233.1.1.2.233.333.333l.233.233c.133.133.3.266.466.4l.033.033h.033c.3.233.6.433.9.633-.3.133-.6.233-.833.333Zm5.494 9.726c-1.798 0-3.33-3.63-4.162-8.96.233-.1.599-.266.899-.366.765.3 1.598.5 2.463.567.267.033.533.033.8.033.266 0 .566 0 .832-.033-.466-.3-1.199-.767-2.098-1.466-.3-.266-.665-.5-1.032-.832-.699-.6-1.498-1.3-2.297-2.132a12.853 12.853 0 0 1-.666-.7s.233.134.666.4c.067.034.1.067.133.1.466.3.999.6 1.498.9.566.332 1.132.665 1.698.932l1.299.7c.666.332 1.298.665 1.964.965.4.2.833.367 1.232.566.033 0 .034.034.067.034.3.1.599.233.899.366-.866 5.329-2.398 8.926-4.195 8.926Zm3.196-26.112c-.999-.4-2.098-.6-3.23-.6-1.531 0-2.996.4-4.261 1.1.033-.367.133-.766.166-.966.832-5.329 2.364-8.926 4.162-8.926s3.33 3.63 4.162 8.96c-.233.066-.7.3-1 .432ZM32.73 28.843c-.9 1.565-4.762 1.132-9.79-.833.034-.266.067-.7.1-1a8.808 8.808 0 0 0 2.498-3.23 8.71 8.71 0 0 0 .766-2.797c.033-.267.033-.567.033-.866.233.2.566.466.766.632 4.195 3.398 6.526 6.528 5.627 8.094Zm1.93-18.851c-.399-.7-1.198-1.1-2.297-1.233.067.3.1.567.1.9 0 .333-.066.7-.133.999.2.1.333.266.433.466.866 1.565-1.432 4.73-5.627 8.093-.2-.166-.6-.433-.866-.666-.133-.832-.366-1.632-.732-2.364-.233-.467-.466-.933-.766-1.366 0 .533-.066 1.399-.2 2.498-.066.4-.1.866-.2 1.299-.166.932-.399 1.965-.699 3.097-.1.3-.166.633-.3.933v-.766c.034-.666.034-1.3.034-1.965 0-.666 0-1.3-.033-1.932 0-.5-.034-1-.067-1.499a102.567 102.567 0 0 0-.266-3.53v-.1s-.034-.267-.067-.366l-.1-.6 1.832-.633c.133.233.332.466.499.666l.3.3a3.677 3.677 0 0 0 2.364.866c2.03 0 3.662-1.665 3.662-3.697 0-1.132-.5-2.131-1.298-2.797a3.534 3.534 0 0 0-2.364-.9c-2.031 0-3.663 1.666-3.663 3.697 0 .233.033.466.067.7v.033c-.5.166-1.032.366-1.565.566C21.742 4.363 19.71 0 17.414 0c-2.297 0-4.295 4.33-5.294 10.724C6.16 8.426 1.433 7.994.267 9.992c-1.165 1.998 1.565 5.928 6.56 9.991-4.995 4.03-7.692 7.927-6.56 9.959 1.166 2.031 5.893 1.598 11.886-.7C13.153 35.604 15.15 40 17.447 40c2.298 0 4.295-4.33 5.294-10.724 5.96 2.298 10.688 2.73 11.853.732 1.232-2.065-1.532-5.961-6.492-10.025 4.96-4.063 7.69-7.96 6.559-9.991Zm-8.123.266.133-1.632c.033-.5.166-.866.4-1.132.2-.267.566-.4 1.032-.4.433 0 .732.1.899.333.166.233.233.533.2.966l-.034.366h-.8l.034-.4c0-.166.034-.299 0-.366 0-.1-.033-.166-.1-.233-.066-.066-.133-.1-.266-.1s-.233.034-.3.1a.596.596 0 0 0-.166.233c-.033.1-.067.233-.067.4l-.166 1.965c-.033.266 0 .433.067.566.066.1.166.167.332.167.134 0 .233-.034.3-.1a.536.536 0 0 0 .133-.233c.034-.1.034-.233.067-.4l.033-.4h.8l-.034.367c-.034.433-.167.766-.366.999-.2.233-.533.366-.966.366-.466 0-.799-.133-.966-.4-.166-.2-.233-.566-.2-1.032Zm-24.305.766c.899-1.532 4.76-1.099 9.788.866-.033.3-.066.733-.1 1.066-.765.6-1.398 1.332-1.93 2.165-.234.333-.4.7-.6 1.065.466-.266 1.232-.632 2.33-1.099.367-.166.8-.3 1.232-.5.866-.299 1.898-.665 2.997-.932.3-.1.633-.133.932-.233-.233.1-.466.267-.666.367-.233.1-.466.266-.699.366-.066.033-.1.067-.2.1-.3.133-.532.3-.832.466-.566.333-1.132.666-1.665 1-.1.066-.2.1-.3.199-.1.067-.166.1-.266.167-.233.133-.466.3-.666.433-.899.599-1.897 1.265-2.863 1.998l-.067.066c-.2.134-.4.3-.566.433-.033 0-.033.034-.066.034-.067.066-.1.1-.167.133-4.195-3.43-6.525-6.595-5.626-8.16Zm16.081 5.562c1.165 0 1.665.633 1.565 1.932-.1 1.232-.766 1.832-1.965 1.832h-.666l-.266 3.03H15.75l.6-6.794h1.964Zm-6.326 11.39c-5.028 1.932-8.89 2.399-9.789.833-.865-1.565 1.432-4.729 5.627-8.093.233.167.566.433.832.633a9.418 9.418 0 0 0 1.965 4.43c.066.1.133.166.2.233.1.1.2.233.333.333l.233.233c.133.133.3.266.466.4l.033.033h.033c.3.233.6.433.9.633-.3.133-.6.233-.833.333Zm5.494 9.726c-1.798 0-3.33-3.63-4.162-8.96.233-.1.599-.266.899-.366.765.3 1.598.5 2.463.567.267.033.533.033.8.033.266 0 .566 0 .832-.033-.466-.3-1.199-.767-2.098-1.466-.3-.266-.665-.5-1.032-.832-.699-.6-1.498-1.3-2.297-2.132a12.853 12.853 0 0 1-.666-.7s.233.134.666.4c.067.034.1.067.133.1.466.3.999.6 1.498.9.566.332 1.132.665 1.698.932l1.299.7c.666.332 1.298.665 1.964.965.4.2.833.367 1.232.566.033 0 .034.034.067.034.3.1.599.233.899.366-.866 5.329-2.398 8.926-4.195 8.926Zm3.196-26.112c-.999-.4-2.098-.6-3.23-.6-1.531 0-2.996.4-4.261 1.1.033-.367.133-.766.166-.966.832-5.329 2.364-8.926 4.162-8.926s3.33 3.63 4.162 8.96c-.233.066-.7.3-1 .432ZM32.73 28.843c-.9 1.565-4.762 1.132-9.79-.833.034-.266.067-.7.1-1a8.808 8.808 0 0 0 2.498-3.23 8.71 8.71 0 0 0 .766-2.797c.033-.267.033-.567.033-.866.233.2.566.466.766.632 4.195 3.398 6.526 6.528 5.627 8.094Zm-14.95-9.36h-.466l.167-2.03h.499c.233 0 .433.032.533.1.1.066.166.165.2.332.033.133.033.333 0 .633-.034.366-.1.633-.233.766-.134.133-.367.2-.7.2Zm0 0h-.466l.167-2.03h.499c.233 0 .433.032.533.1.1.066.166.165.2.332.033.133.033.333 0 .633-.034.366-.1.633-.233.766-.134.133-.367.2-.7.2Z"/></svg>