<?xml version="1.0" encoding="UTF-8"?>
<!DOCTYPE svg PUBLIC "-//W3C//DTD SVG 1.1//EN" "http://www.w3.org/Graphics/SVG/1.1/DTD/svg11.dtd">
<!-- Creator: CorelDRAW -->
<svg xmlns="http://www.w3.org/2000/svg" xml:space="preserve" width="158.75mm" height="39.6874mm" version="1.1" style="shape-rendering:geometricPrecision; text-rendering:geometricPrecision; image-rendering:optimizeQuality; fill-rule:evenodd; clip-rule:evenodd"
viewBox="0 0 15875 3968.74"
 xmlns:xlink="http://www.w3.org/1999/xlink"
 xmlns:xodm="http://www.corel.com/coreldraw/odm/2003">
 <defs>
  <style type="text/css">
   <![CDATA[
    .fil8 {fill:none}
    .fil0 {fill:white;fill-rule:nonzero}
    .fil1 {fill:url(#id1);fill-rule:nonzero}
    .fil2 {fill:url(#id2);fill-rule:nonzero}
    .fil4 {fill:url(#id3);fill-rule:nonzero}
    .fil7 {fill:url(#id4);fill-rule:nonzero}
    .fil6 {fill:url(#id5);fill-rule:nonzero}
    .fil5 {fill:url(#id6);fill-rule:nonzero}
    .fil3 {fill:url(#id7);fill-rule:nonzero}
   ]]>
  </style>
   <clipPath id="id0">
    <path d="M1050.35 3216.76l14241.79 0 0 -2386.44 -14241.79 0 0 2386.44z"/>
   </clipPath>
  <linearGradient id="id1" gradientUnits="userSpaceOnUse" x1="9595.41" y1="1446.17" x2="9787.88" y2="1446.17">
   <stop offset="0" style="stop-opacity:1; stop-color:#FF4447"/>
   <stop offset="1" style="stop-opacity:1; stop-color:#FF0015"/>
  </linearGradient>
  <linearGradient id="id2" gradientUnits="userSpaceOnUse" xlink:href="#id1" x1="4322.12" y1="2247.94" x2="2897.93" y2="1522.1">
  </linearGradient>
  <linearGradient id="id3" gradientUnits="userSpaceOnUse" xlink:href="#id1" x1="4976.47" y1="1138.24" x2="4784.01" y2="1099.75">
  </linearGradient>
  <linearGradient id="id4" gradientUnits="userSpaceOnUse" x1="1396.78" y1="1831.08" x2="2590.01" y2="1831.08">
   <stop offset="0" style="stop-opacity:1; stop-color:#FFAAA5"/>
   <stop offset="1" style="stop-opacity:1; stop-color:#FF746D"/>
  </linearGradient>
  <linearGradient id="id5" gradientUnits="userSpaceOnUse" xlink:href="#id4" x1="4822.26" y1="1752.09" x2="5628.84" y2="1752.09">
  </linearGradient>
  <linearGradient id="id6" gradientUnits="userSpaceOnUse" xlink:href="#id4" x1="4052.67" y1="2446.94" x2="5707.8" y2="2446.94">
  </linearGradient>
  <linearGradient id="id7" gradientUnits="userSpaceOnUse" xlink:href="#id1" x1="2590.01" y1="2102.14" x2="1781.69" y2="1873.1">
  </linearGradient>
 </defs>
 <g id="Слой_x0020_1">
  <metadata id="CorelCorpID_0Corel-Layer"/>
  <g>
  </g>
  <g style="clip-path:url(#id0)">
   <g id="_1703204491472">
    <path class="fil0" d="M6616.96 2351.1c38.49,-56.06 58.93,-122.54 58.51,-190.54 -0.11,-48.45 -9.73,-96.42 -28.41,-141.14 -18.62,-44.72 -45.91,-85.34 -80.29,-119.51 -34.33,-34.17 -75.1,-61.25 -119.9,-79.65 -44.84,-18.42 -92.83,-27.82 -141.31,-27.67l-443.8 0 0 1108.17 217.48 0 0 -384.92 167.43 0 223.65 384.92 238.25 0 -245.57 -417.64c62.54,-28.91 115.86,-74.6 153.96,-132.02zm-204.78 -75.05c-13.47,15.05 -29.93,27.13 -48.37,35.4 -18.44,8.3 -38.42,12.62 -58.63,12.71l-225.17 0 0 -327.19 225.17 0c20.17,-0.38 40.19,3.63 58.66,11.73 18.48,8.1 34.99,20.13 48.34,35.23 29.42,31.18 45.42,72.63 44.67,115.48 0.75,43.18 -15.25,84.99 -44.67,116.64zm749.05 -189c-55.76,-2.09 -111.35,7.45 -163.24,27.99 -51.88,20.55 -98.92,51.65 -138.15,91.34 -38.18,39.49 -68.09,86.24 -87.91,137.46 -19.82,51.24 -29.22,105.92 -27.56,160.84 -1.69,55.33 7.93,110.42 28.25,161.9 20.28,51.49 50.89,98.29 89.92,137.57 41.57,40.41 90.99,71.85 145.22,92.38 54.24,20.53 112.09,29.69 170.02,26.94 153.96,0 267.13,-55.82 346.43,-168.99l-165.13 -95.07c-21.4,26.12 -48.77,46.73 -79.75,60.13 -31.03,13.38 -64.78,19.17 -98.46,16.86 -122.03,0 -195.93,-49.65 -223.65,-148.58l598.17 0c4.96,-27.7 7.53,-55.78 7.69,-83.91 2.88,-110.08 -37.76,-216.88 -113.16,-297.16 -36.84,-39.36 -81.6,-70.41 -131.42,-91.05 -49.76,-20.65 -103.39,-30.41 -157.27,-28.65zm-207.08 344.11c9.05,-46.56 34.26,-88.41 71.21,-118.16 39.23,-29.01 87.15,-43.81 135.87,-41.96 44.64,-1.09 88.45,12.42 124.72,38.49 38.45,29.6 64.27,72.63 72.36,120.48l-404.16 1.15zm1344.11 -228.64c-30.4,-38.42 -69.58,-68.96 -114.27,-89.06 -44.69,-20.09 -93.54,-29.16 -142.45,-26.41 -51.55,-0.78 -102.67,9.58 -149.82,30.38 -47.15,20.79 -89.29,51.51 -123.48,90.09 -74.91,80.59 -115.47,187.16 -113.17,297.16 -2.3,110 38.26,216.56 113.17,297.16 34.38,38.34 76.52,68.94 123.64,89.71 47.15,20.78 98.14,31.27 149.66,30.76 48.91,2.75 97.76,-6.32 142.45,-26.42 44.69,-20.09 83.87,-50.63 114.27,-89.05l0 93.92 204.78 0 0 -1108.17 -204.78 0 0 409.93zm-62.35 461.9c-20.28,20.7 -44.65,36.93 -71.56,47.66 -26.9,10.75 -55.76,15.75 -84.71,14.69 -29.19,0.99 -58.24,-4.05 -85.38,-14.77 -27.18,-10.72 -51.81,-26.93 -72.44,-47.58 -20.9,-21.19 -37.18,-46.43 -47.92,-74.17 -10.74,-27.74 -15.62,-57.39 -14.43,-87.11 -1.19,-29.72 3.69,-59.37 14.43,-87.11 10.74,-27.75 27.02,-52.99 47.92,-74.17 20.63,-20.66 45.26,-36.85 72.44,-47.59 27.14,-10.72 56.19,-15.75 85.38,-14.76 28.95,-0.93 57.77,4.11 84.64,14.85 26.91,10.72 51.26,26.9 71.63,47.5 20.91,21.18 37.18,46.42 47.92,74.17 10.74,27.74 15.63,57.39 14.43,87.11 1.12,29.94 -3.81,59.8 -14.55,87.78 -10.69,27.99 -26.98,53.51 -47.8,75.04l0 -1.54zm1347.19 -873.37l217.48 0 0 764.43c2.69,50.19 -5.73,100.35 -24.63,146.92 -18.87,46.57 -47.8,88.39 -84.68,122.52 -78.07,66.71 -178.37,101.59 -280.99,97.78 -174.36,0 -296.39,-69.67 -366.04,-210.55l188.22 -107.77c15.08,25.47 35.29,47.51 59.38,64.71 24.09,17.19 51.54,29.16 80.52,35.14 29,5.98 58.94,5.84 87.84,-0.42 28.95,-6.27 56.25,-18.5 80.18,-35.93 14.4,-14.93 25.67,-32.6 33.07,-51.98 7.43,-19.38 10.82,-40.07 10.05,-60.8l-0.4 -764.05zm925.72 317.17l202.85 0 0 793.69 -204.77 0 0 -88.92c-49.54,73.65 -128.29,110.48 -236.33,110.48 -39.65,1.02 -79.1,-6.23 -115.83,-21.27 -36.72,-15.04 -69.89,-37.56 -97.42,-66.1 -29.33,-32.68 -51.96,-70.81 -66.55,-112.21 -14.6,-41.42 -20.89,-85.3 -18.51,-129.14l0 -486.15 204.76 0 0 461.9c-1.64,21.98 1.36,44.06 8.79,64.82 7.42,20.75 19.13,39.72 34.33,55.66 15.32,14.55 33.49,25.78 53.38,33 19.87,7.21 41,10.27 62.09,8.96 23.48,1.07 46.89,-2.8 68.78,-11.35 21.87,-8.55 41.73,-21.6 58.24,-38.31 34.53,-41.01 51.4,-94 46.96,-147.42l-0.77 -427.64zm1483.46 69.28c56.7,65.73 85.79,150.82 81.22,237.49l0 485.77 -204.77 0 0 -473.45c2.57,-39.78 -9.63,-79.14 -34.26,-110.47 -12.4,-13.3 -27.6,-23.64 -44.53,-30.31 -16.91,-6.66 -35.11,-9.45 -53.24,-8.19 -20.32,-1.19 -40.69,2.32 -59.44,10.26 -18.78,7.94 -35.44,20.11 -48.72,35.56 -28.06,38.5 -41.65,85.64 -38.49,133.18l0 443.42 -204.78 0 0 -473.45c2.58,-39.78 -9.62,-79.14 -34.26,-110.47 -12.42,-13.27 -27.63,-23.61 -44.53,-30.26 -16.93,-6.66 -35.11,-9.47 -53.23,-8.24 -20.33,-0.93 -40.58,2.7 -59.28,10.62 -18.74,7.93 -35.41,19.95 -48.89,35.2 -29.4,37.92 -43.92,85.29 -40.8,133.18l0 443.42 -205.93 0 0 -792.16 204.78 0 0 83.91c24.18,-35.45 57.23,-63.97 95.88,-82.67 38.61,-18.71 81.49,-26.96 124.29,-23.95 43.15,-2.28 86.11,7.24 124.25,27.61 38.1,20.34 69.98,50.73 92.07,87.87 26.55,-37.34 62.21,-67.3 103.54,-87.04 41.35,-19.73 87.07,-28.59 132.79,-25.75 40.35,-1.73 80.61,5.33 117.94,20.67 37.35,15.35 70.94,38.64 98.39,68.25zm715.93 -88.92c-48.83,-2.28 -97.57,6.97 -142.17,27.03 -44.62,20.06 -83.84,50.37 -114.55,88.45l0 -95.46 -204.78 0 0 1108.17 204.78 0 0 -409.93c30.4,38.42 69.58,68.96 114.27,89.05 44.69,20.1 93.54,29.17 142.45,26.42 51.55,0.78 102.67,-9.59 149.82,-30.38 47.15,-20.79 89.29,-51.53 123.48,-90.09 74.91,-80.6 115.47,-187.16 113.17,-297.16 2.6,-109.84 -37.53,-216.39 -112.02,-297.16 -34.49,-38.5 -76.83,-69.17 -124.17,-89.94 -47.35,-20.79 -98.57,-31.2 -150.28,-30.53l0 1.53zm119.72 577.38c-20.72,20.57 -45.35,36.7 -72.48,47.42 -27.13,10.73 -56.15,15.8 -85.34,14.93 -28.95,0.93 -57.77,-4.12 -84.64,-14.85 -26.91,-10.72 -51.26,-26.9 -71.63,-47.5 -20.91,-21.18 -37.19,-46.42 -47.92,-74.17 -10.74,-27.74 -15.63,-57.39 -14.43,-87.11 -0.93,-29.69 4.11,-59.25 14.81,-86.95 10.73,-27.7 26.91,-52.99 47.54,-74.33 20.28,-20.7 44.65,-36.93 71.56,-47.66 26.9,-10.75 55.76,-15.75 84.71,-14.69 29.19,-0.99 58.24,4.04 85.37,14.77 27.18,10.72 51.82,26.92 72.45,47.58 20.9,21.18 37.18,46.42 47.92,74.17 10.74,27.74 15.62,57.39 14.43,87.11 1.31,29.66 -3.46,59.28 -14.08,87.03 -10.59,27.74 -26.76,53.01 -47.5,74.25l-0.77 0zm788.31 -577.38c-55.78,-2.08 -111.37,7.45 -163.25,28.01 -51.89,20.54 -98.92,51.63 -138.14,91.33 -38.19,39.48 -68.1,86.24 -87.92,137.46 -19.83,51.24 -29.22,105.92 -27.56,160.84 -1.39,55.42 8.55,110.54 29.09,162.02 20.6,51.47 51.43,98.24 90.62,137.44 41.56,40.41 90.98,71.86 145.22,92.39 54.23,20.53 112.09,29.69 170.02,26.93 153.96,0 267.13,-55.81 346.43,-168.98l-165.14 -95.07c-21.4,26.12 -48.76,46.73 -79.75,60.13 -31.03,13.38 -64.78,19.17 -98.46,16.86 -122.02,0 -195.91,-49.65 -223.64,-148.58l597.77 0c4.98,-27.7 7.55,-55.77 7.7,-83.91 2.89,-110.1 -37.75,-216.88 -113.16,-297.15 -36.8,-39.79 -81.71,-71.22 -131.76,-92.14 -50,-20.92 -103.88,-30.84 -158.07,-29.11l0 1.53zm-210.18 342.58c9.05,-46.56 34.26,-88.41 71.21,-118.16 39.23,-29.01 87.15,-43.81 135.88,-41.96 44.65,-1.09 88.45,12.42 124.71,38.49 38.46,29.6 64.28,72.63 72.37,120.48l-404.17 1.15zm1049.28 -299.46c44.42,-25.75 94.91,-39.05 146.27,-38.49l0 228.63c-58.77,-8.3 -118.55,5.4 -167.83,38.5 -25.21,18.65 -45.11,43.54 -57.81,72.23 -12.7,28.67 -17.7,60.15 -14.55,91.36l0 378.36 -204.77 0 0 -793.69 204.77 0 0 137.03c17.21,-48.14 50.89,-88.64 95.07,-114.32l-1.15 0.39zm835.65 538.87c1.66,36.49 -5.85,72.78 -21.86,105.6 -16.02,32.82 -40,61.1 -69.75,82.24 -67.02,45.3 -146.61,68.33 -227.48,65.83 -162.82,0 -273.3,-62.36 -333.34,-187.84l178.21 -100.47c9.94,32.23 30.68,60.04 58.75,78.75 28.02,18.72 61.65,27.2 95.21,24.03 72.38,0 109.33,-22.71 109.33,-68.52 0,-21.56 -13.86,-38.49 -41.96,-51.96 -32.8,-14.7 -66.78,-26.55 -101.61,-35.41 -41,-10.54 -81.34,-23.38 -120.87,-38.5 -39.96,-15.9 -74.83,-42.37 -100.84,-76.59 -28.79,-36.82 -43.66,-82.62 -41.96,-129.33 -1.42,-35.37 5.69,-70.56 20.78,-102.59 15.1,-32.04 37.65,-59.96 65.82,-81.4 61.94,-46.06 137.64,-69.8 214.79,-67.36 61.23,-1.13 121.74,13.74 175.52,43.11 53.23,28.63 97.27,71.72 127.02,124.33l-174.37 95.07c-10.32,-24.91 -28.02,-46.06 -50.73,-60.6 -22.71,-14.51 -49.35,-21.72 -76.29,-20.61 -23.32,-0.71 -46.35,5.45 -66.21,17.7 -7.85,5.31 -14.27,12.49 -18.71,20.88 -4.46,8.38 -6.73,17.75 -6.69,27.23 0,21.56 13.85,38.5 41.96,51.97 32.63,14.84 66.66,26.32 101.61,34.26 41,10.5 81.33,23.35 120.87,38.48 40.41,15.62 75.63,42.3 101.62,76.99 28.9,38.55 43.83,85.79 42.33,133.95l-1.15 0.76z"/>
    <path class="fil1" d="M9688.58 1602.83c59.92,0 108.54,-48.61 108.54,-108.55 0,-59.95 -48.62,-108.54 -108.54,-108.54 -59.94,0 -108.56,48.59 -108.56,108.54 0,59.94 48.62,108.55 108.56,108.55z"/>
    <path class="fil2" d="M5190.09 1526.61l-76.98 -3.46c-10.78,0 -10.78,-4.24 -18.09,-12.7 -45.65,-52.38 -101.27,-95.16 -163.59,-125.87 -44.45,-24.94 -93.88,-39.66 -144.73,-43.11 -41.04,-0.3 -81.55,9.2 -118.17,27.72 -38.86,20.67 -76.29,43.95 -112,69.67 -9.63,6.54 -24.25,21.16 -35.81,21.16 -8.84,-0.96 -17.6,-2.63 -26.17,-5 -31.57,-6.15 -62.74,-11.55 -94.69,-15.78 -15.78,-2.32 -31.18,-4.24 -46.96,-5.01 -11.51,-2.78 -23.51,-2.78 -35.02,0 -11.55,6.55 0,28.49 4.61,38.49 11.28,24.43 24.14,48.09 38.5,70.82 14.88,23.37 30.14,46.59 45.79,69.67 7.32,10.78 15.02,21.96 22.73,32.34 7,7.6 13.08,15.99 18.08,25.03 1.19,6.99 1.19,14.15 0,21.16l0 43.11c0,4.23 -2.31,16.93 0,20.41 2.31,3.46 12.32,4.61 15.02,5.76l146.26 55.43 12.32 4.62c0,0 -1607.79,-301.01 -1616.26,-302.16l-5 3.09c-10.78,7.69 -20.77,16.93 -31.18,25.4l-86.6 70.44 -16.56 13.47 51.59 45.8c21.55,18.47 42.34,38.49 65.04,56.2 5.4,3.85 6.55,3.08 13.87,3.08l46.96 0c14.1,0.74 28.24,0.74 42.33,0 8.47,0 12.7,-6.55 19.25,-12.32 6.55,-5.76 21.56,-22.32 26.17,-21.55 4.63,0.77 9.24,11.16 11.16,13.08 21.18,26.17 40.81,53.13 59.28,80.84 66.87,97.58 116.84,205.7 147.81,319.85 19.96,72.21 24.96,147.72 14.71,221.92 -10.27,74.19 -35.57,145.51 -74.37,209.58 -96.24,149.34 -269.44,217.87 -439.57,244.42 -148.73,21.13 -299.7,21.13 -448.42,0 -22.71,-3.07 -45.43,-6.16 -68.14,-10.39 -8.32,-2.21 -16.82,-3.76 -25.4,-4.63 53.98,48.23 114.18,89.01 178.98,121.26 89.98,47.35 185.02,84.42 283.31,110.46 207.72,53.44 423.4,68.96 636.64,45.81 70.82,-6.92 142.03,-16.93 212.08,-30.4 102.08,-37.77 201.05,-83.46 296.01,-136.65 182.44,-101.52 350.69,-226.66 500.39,-372.21 65.99,-65.07 125.05,-136.79 176.27,-214.01 44.03,-62.43 75.29,-132.94 92,-207.47 -18.82,-5.53 -36.82,-13.55 -53.5,-23.87 0,-2.3 0,-5.77 0,-7.7 -3.47,-22.01 -5.01,-44.3 -4.61,-66.59 -0.32,-19.35 1.22,-38.68 4.61,-57.74 7.53,-38.39 28.23,-72.97 58.51,-97.76 25.7,-17.88 55.76,-28.51 87,-30.8 69.27,-8.07 139.32,-1.92 208.23,-13.08 73.44,-10.25 142.18,-42.14 197.46,-91.62 49.42,-45.31 79.59,-107.86 84.29,-174.75l-75.44 -3.46z"/>
    <path class="fil3" d="M2915.25 2675.2c-63.19,-23.31 -120.49,-60.25 -167.81,-108.17 -50.14,-52.76 -89.37,-114.9 -115.49,-182.84 -12.88,-34.01 -23.94,-68.71 -33.09,-103.91 -9.24,-35.41 -16.94,-74.68 -25.02,-110.09 -13.5,-63.86 -31.25,-126.74 -53.12,-188.23 -42.23,-118.86 -102.75,-230.42 -179.37,-330.63 -69.94,-92.26 -159.11,-168.17 -261.36,-222.48 -105.94,-53.57 -224.68,-76.63 -342.96,-66.59 -17.32,0 -34.64,3.84 -51.95,6.16 -17.33,2.31 -38.5,6.92 -55.83,11.55 50.24,1.79 98.39,20.5 136.65,53.11 42.92,38.16 77.62,84.66 102,136.65 29.79,60.68 53.64,124.09 71.21,189.37 36.76,139.11 63.91,280.57 81.22,423.4 8.08,57.74 15.39,115.48 24.25,173.22 4.11,38.56 12.09,76.6 23.86,113.55 21.56,34.84 46.03,67.81 73.13,98.53 48.08,54.28 106.42,98.49 171.68,130.11 79.45,36.38 165.2,57.04 252.5,60.81 120.64,4.93 241.41,-6.2 359.13,-33.1 35.67,-7.43 71.08,-15.79 106.23,-25.02 -39.78,-1.87 -78.94,-10.46 -115.86,-25.4z"/>
    <path class="fil4" d="M4969.15 913.84l-160.13 -83.54 -44.25 150.89 43.1 95.07 48.11 23.49c13.86,76.98 26.57,148.18 38.49,215.55l6.55 2.69c72.64,28.36 138.29,72.09 192.46,128.17l-124.33 -532.32z"/>
    <path class="fil5" d="M4413.72 2513.53c-149.69,145.55 -317.94,270.7 -500.39,372.22 -94.28,53.75 -192.6,100.09 -294.07,138.57 40.55,-7.7 80.7,-16.69 120.47,-26.95 99.02,-26.01 196.44,-57.75 291.78,-95.08 96.52,-37.46 190.73,-80.65 282.14,-129.33 48.49,-25.4 95.07,-54.27 141.26,-83.52 46.19,-29.26 89.69,-61.58 134.71,-92.77 82.23,-58.94 157.05,-127.56 222.88,-204.39 64.2,-72.07 116.89,-153.59 156.27,-241.72 8.47,-19.63 15.77,-38.5 22.32,-56.97 -72.9,19.94 -148.87,26.08 -224.03,18.09 -27.88,-2.6 -55.47,-7.88 -82.37,-15.78 -17.29,73.95 -48.95,143.79 -93.15,205.55 -51.8,76.62 -111.4,147.7 -177.82,212.08z"/>
    <path class="fil6" d="M4877.16 2054.34c76.2,-16.39 148.91,-46.09 214.77,-87.77 33.19,-19.77 63.59,-43.84 90.46,-71.59 18.78,-19.45 35.46,-40.88 49.65,-63.9 12.56,-19.71 22.87,-40.76 30.8,-62.74 15.44,-43.33 22.59,-89.14 21.17,-135.11 -0.92,-24.1 -4.16,-48.08 -9.62,-71.59 -1.47,-10.71 -4.32,-21.19 -8.48,-31.17 -4.68,66.89 -34.87,129.41 -84.29,174.74 -55.27,49.48 -124.02,81.37 -197.46,91.61 -68.9,11.16 -138.94,5.01 -208.24,13.1 -31.23,2.28 -61.27,12.91 -86.99,30.78 -30.35,24.64 -51.17,59.06 -58.89,97.38 -3.54,19.18 -5.23,38.64 -5.01,58.12 -0.22,22.06 1.46,44.07 5.01,65.83 0,0 0,5.38 0,7.7 82.63,9.74 166.34,4.52 247.12,-15.39z"/>
    <path class="fil7" d="M2020.71 2182.12c-17.31,-142.83 -44.44,-284.31 -81.21,-423.4 -17.58,-65.27 -41.43,-128.7 -71.21,-189.38 -24.38,-52 -59.09,-98.48 -102.01,-136.65 -38.71,-33.16 -87.62,-52.04 -138.57,-53.49 -116.44,30.02 -225.97,82.31 -322.55,153.96 -80.51,59.61 -153.88,128.32 -218.63,204.77 -12.32,16.17 -24.63,29.26 -36.18,44.65 104.13,-38.78 213.01,-63.38 323.71,-73.13 76.33,-6.84 153.21,3.27 225.17,29.63 59.11,23.47 111.86,60.52 153.97,108.17 41.96,48.98 77.17,103.34 104.69,161.67 30.8,61.96 56.59,125.85 82.76,189.76 26.17,63.89 52.74,132.79 85.46,194.75 13.47,25.8 27.71,50.82 43.1,76.99 -11.77,-36.95 -19.75,-74.99 -23.86,-113.55 -9.23,-58.89 -16.55,-117.01 -24.64,-174.75z"/>
    <path class="fil0" d="M4929.88 1625.54c22.52,0 40.81,-18.28 40.81,-40.81 0,-22.52 -18.29,-40.79 -40.81,-40.79 -22.5,0 -40.79,18.27 -40.79,40.79 0,22.53 18.29,40.81 40.79,40.81z"/>
   </g>
  </g>
  <polygon class="fil8" points="1050.35,3216.76 15292.14,3216.76 15292.14,830.32 1050.35,830.32 "/>
 </g>
</svg>
