<svg width="370" height="62" viewBox="0 0 370 62" fill="none" xmlns="http://www.w3.org/2000/svg">
<g clip-path="url(#clip0_5_350)">
<path d="M144.62 39.51C145.62 38.0539 146.151 36.3265 146.14 34.56C146.137 33.3011 145.887 32.055 145.402 30.8931C144.918 29.7311 144.209 28.6761 143.316 27.7882C142.424 26.9004 141.365 26.1971 140.201 25.7187C139.036 25.2403 137.789 24.9961 136.53 25H125V53.79H130.65V43.79H135L140.81 53.79H147L140.62 42.94C142.245 42.189 143.63 41.0016 144.62 39.51ZM139.3 37.56C138.95 37.9514 138.522 38.2649 138.043 38.4802C137.564 38.6955 137.045 38.8079 136.52 38.81H130.67V30.31H136.52C137.044 30.3 137.564 30.4038 138.044 30.6145C138.524 30.8251 138.953 31.1375 139.3 31.53C140.064 32.34 140.48 33.4168 140.46 34.53C140.48 35.652 140.064 36.7379 139.3 37.56ZM158.76 32.65C157.311 32.5959 155.867 32.8435 154.519 33.3772C153.171 33.9109 151.949 34.7189 150.93 35.75C149.938 36.7761 149.161 37.9905 148.646 39.3215C148.131 40.6526 147.887 42.0733 147.93 43.5C147.886 44.9374 148.136 46.3686 148.664 47.7062C149.191 49.0439 149.986 50.2599 151 51.28C152.08 52.33 153.364 53.1469 154.773 53.6801C156.182 54.2134 157.685 54.4516 159.19 54.38C163.19 54.38 166.13 52.93 168.19 49.99L163.9 47.52C163.344 48.1985 162.633 48.7341 161.828 49.082C161.022 49.4299 160.145 49.5801 159.27 49.52C156.1 49.52 154.18 48.23 153.46 45.66H169C169.129 44.9405 169.196 44.2111 169.2 43.48C169.275 40.6199 168.219 37.8456 166.26 35.76C165.303 34.7373 164.14 33.9308 162.846 33.3945C161.553 32.8581 160.16 32.6043 158.76 32.65ZM153.38 41.59C153.615 40.3804 154.27 39.2929 155.23 38.52C156.249 37.7664 157.494 37.382 158.76 37.43C159.92 37.4018 161.058 37.7529 162 38.43C162.999 39.199 163.67 40.317 163.88 41.56L153.38 41.59ZM188.3 35.65C187.51 34.6519 186.492 33.8584 185.331 33.3363C184.17 32.8142 182.901 32.5788 181.63 32.65C180.291 32.6298 178.963 32.899 177.738 33.4392C176.513 33.9794 175.418 34.7778 174.53 35.78C172.584 37.8736 171.53 40.6424 171.59 43.5C171.53 46.3576 172.584 49.1264 174.53 51.22C175.423 52.2165 176.518 53.0111 177.742 53.5509C178.967 54.0906 180.292 54.363 181.63 54.35C182.901 54.4212 184.17 54.1858 185.331 53.6637C186.492 53.1416 187.51 52.3481 188.3 51.35V53.79H193.62V25H188.3V35.65ZM186.68 47.65C186.153 48.1876 185.52 48.6094 184.821 48.8883C184.122 49.1673 183.372 49.2973 182.62 49.27C181.862 49.2955 181.107 49.1649 180.402 48.8862C179.696 48.6075 179.056 48.1867 178.52 47.65C177.977 47.0998 177.554 46.444 177.275 45.7233C176.996 45.0025 176.869 44.2321 176.9 43.46C176.869 42.6879 176.996 41.9175 177.275 41.1968C177.554 40.476 177.977 39.8202 178.52 39.27C179.056 38.7333 179.696 38.3125 180.402 38.0338C181.107 37.7551 181.862 37.6245 182.62 37.65C183.372 37.6258 184.121 37.7572 184.819 38.036C185.518 38.3147 186.151 38.7349 186.68 39.27C187.223 39.8202 187.646 40.476 187.925 41.1968C188.204 41.9175 188.331 42.6879 188.3 43.46C188.329 44.2379 188.201 45.0137 187.922 45.7406C187.644 46.4676 187.221 47.1307 186.68 47.69V47.65ZM221.68 24.96H227.33V44.82C227.4 46.1237 227.181 47.4268 226.69 48.6367C226.2 49.8465 225.448 50.9333 224.49 51.82C222.462 53.5527 219.856 54.4593 217.19 54.36C212.66 54.36 209.49 52.55 207.68 48.89L212.57 46.09C212.962 46.7518 213.487 47.3244 214.113 47.7712C214.739 48.2179 215.452 48.529 216.205 48.6843C216.958 48.8396 217.736 48.8359 218.487 48.6733C219.239 48.5107 219.948 48.1928 220.57 47.74C220.944 47.3523 221.237 46.8929 221.429 46.3894C221.622 45.8859 221.71 45.3487 221.69 44.81L221.68 24.96ZM245.73 33.2H251V53.82H245.68V51.51C244.393 53.4233 242.347 54.38 239.54 54.38C238.51 54.4066 237.485 54.2185 236.531 53.8277C235.577 53.4369 234.715 52.8519 234 52.11C233.238 51.2614 232.65 50.2708 232.271 49.195C231.892 48.1191 231.728 46.9791 231.79 45.84V33.21H237.11V45.21C237.067 45.7811 237.145 46.3547 237.338 46.8939C237.531 47.4331 237.835 47.9258 238.23 48.34C238.628 48.7179 239.1 49.0097 239.617 49.1972C240.133 49.3847 240.682 49.464 241.23 49.43C241.84 49.4579 242.448 49.3575 243.017 49.1353C243.585 48.9131 244.101 48.574 244.53 48.14C245.427 47.0746 245.865 45.6977 245.75 44.31L245.73 33.2ZM284.27 35C285.743 36.7075 286.499 38.9181 286.38 41.17V53.79H281.06V41.49C281.127 40.4563 280.81 39.4342 280.17 38.62C279.848 38.2746 279.453 38.0056 279.013 37.8326C278.574 37.6596 278.101 37.5869 277.63 37.62C277.102 37.5888 276.573 37.68 276.086 37.8864C275.598 38.0928 275.165 38.4088 274.82 38.81C274.091 39.8105 273.738 41.0351 273.82 42.27V53.79H268.5V41.49C268.567 40.4563 268.25 39.4342 267.61 38.62C267.287 38.2752 266.892 38.0066 266.453 37.8336C266.013 37.6606 265.541 37.5877 265.07 37.62C264.542 37.5955 264.016 37.6897 263.53 37.8957C263.043 38.1016 262.61 38.4141 262.26 38.81C261.496 39.7954 261.119 41.026 261.2 42.27V53.79H255.85V33.21H261.17V35.39C261.798 34.4687 262.657 33.7281 263.661 33.2421C264.664 32.7561 265.778 32.5416 266.89 32.62C268.011 32.5604 269.127 32.8083 270.118 33.3371C271.108 33.8658 271.936 34.6552 272.51 35.62C273.2 34.6498 274.126 33.8716 275.2 33.3589C276.274 32.8462 277.462 32.616 278.65 32.69C279.698 32.6448 280.744 32.828 281.714 33.2269C282.684 33.6258 283.557 34.2308 284.27 35ZM302.87 32.69C301.601 32.6303 300.335 32.8709 299.176 33.3921C298.017 33.9134 296.998 34.7007 296.2 35.69V33.21H290.88V62H296.2V51.35C296.99 52.3481 298.008 53.1416 299.169 53.6637C300.33 54.1858 301.599 54.4212 302.87 54.35C304.209 54.3702 305.537 54.101 306.762 53.5608C307.987 53.0206 309.082 52.2222 309.97 51.22C311.916 49.1264 312.97 46.3576 312.91 43.5C312.978 40.6466 311.935 37.8783 310 35.78C309.104 34.7797 308.004 33.9828 306.774 33.4429C305.544 32.903 304.213 32.6327 302.87 32.65V32.69ZM305.98 47.69C305.442 48.2243 304.802 48.6435 304.097 48.9221C303.392 49.2006 302.638 49.3326 301.88 49.31C301.128 49.3342 300.379 49.2028 299.681 48.924C298.982 48.6453 298.349 48.2251 297.82 47.69C297.277 47.1398 296.854 46.484 296.575 45.7633C296.296 45.0425 296.169 44.2721 296.2 43.5C296.176 42.7288 296.307 41.9606 296.585 41.2409C296.864 40.5212 297.284 39.8646 297.82 39.31C298.347 38.7724 298.98 38.3506 299.679 38.0717C300.378 37.7927 301.128 37.6627 301.88 37.69C302.638 37.6645 303.393 37.7951 304.098 38.0738C304.804 38.3525 305.444 38.7733 305.98 39.31C306.523 39.8602 306.946 40.516 307.225 41.2367C307.504 41.9575 307.631 42.7279 307.6 43.5C307.634 44.2707 307.51 45.0402 307.234 45.7609C306.959 46.4816 306.539 47.1381 306 47.69H305.98ZM326.46 32.69C325.011 32.6359 323.567 32.8835 322.219 33.4172C320.871 33.9509 319.649 34.7589 318.63 35.79C317.638 36.8161 316.861 38.0305 316.346 39.3615C315.831 40.6926 315.587 42.1133 315.63 43.54C315.594 44.9799 315.852 46.4119 316.386 47.7493C316.921 49.0867 317.722 50.3015 318.74 51.32C319.82 52.37 321.104 53.1869 322.513 53.7201C323.922 54.2534 325.425 54.4916 326.93 54.42C330.93 54.42 333.87 52.97 335.93 50.03L331.64 47.56C331.084 48.2385 330.373 48.7741 329.568 49.122C328.762 49.4699 327.885 49.6201 327.01 49.56C323.84 49.56 321.92 48.27 321.2 45.7H336.73C336.859 44.9805 336.926 44.2511 336.93 43.52C337.005 40.6599 335.949 37.8856 333.99 35.8C333.034 34.7662 331.867 33.95 330.567 33.4065C329.268 32.863 327.868 32.605 326.46 32.65V32.69ZM321 41.59C321.235 40.3804 321.89 39.2929 322.85 38.52C323.869 37.7664 325.114 37.382 326.38 37.43C327.54 37.4018 328.678 37.7529 329.62 38.43C330.619 39.199 331.29 40.317 331.5 41.56L321 41.59ZM348.26 33.81C349.414 33.1412 350.726 32.7958 352.06 32.81V38.75C350.533 38.534 348.98 38.8902 347.7 39.75C347.045 40.2347 346.528 40.8813 346.198 41.6264C345.868 42.3715 345.738 43.1894 345.82 44V53.83H340.5V33.21H345.82V36.77C346.267 35.5193 347.142 34.4671 348.29 33.8L348.26 33.81ZM369.97 47.81C370.013 48.7576 369.818 49.7008 369.402 50.5534C368.986 51.406 368.363 52.1406 367.59 52.69C365.849 53.8669 363.781 54.4652 361.68 54.4C357.45 54.4 354.58 52.78 353.02 49.52L357.65 46.91C357.908 47.747 358.447 48.4696 359.176 48.9559C359.904 49.4422 360.778 49.6626 361.65 49.58C363.53 49.58 364.49 48.99 364.49 47.8C364.49 47.24 364.13 46.8 363.4 46.45C362.548 46.0681 361.665 45.7603 360.76 45.53C359.695 45.2565 358.647 44.9226 357.62 44.53C356.582 44.1169 355.676 43.429 355 42.54C354.252 41.5835 353.866 40.3935 353.91 39.18C353.873 38.2611 354.058 37.3468 354.45 36.5147C354.842 35.6826 355.428 34.9572 356.16 34.4C357.769 33.2034 359.736 32.5866 361.74 32.65C363.331 32.6208 364.903 33.0068 366.3 33.77C367.683 34.5137 368.827 35.6335 369.6 37L365.07 39.47C364.802 38.8227 364.342 38.2732 363.752 37.8958C363.162 37.5184 362.47 37.3314 361.77 37.36C361.164 37.3418 360.566 37.5018 360.05 37.82C359.846 37.9581 359.679 38.1444 359.564 38.3624C359.448 38.5804 359.389 38.8235 359.39 39.07C359.39 39.63 359.75 40.07 360.48 40.42C361.328 40.8055 362.212 41.1037 363.12 41.31C364.185 41.583 365.233 41.9168 366.26 42.31C367.31 42.7158 368.225 43.4088 368.9 44.31C369.651 45.3117 370.039 46.5388 370 47.79L369.97 47.81Z" fill="white"/>
<path d="M224.42 20.07C225.977 20.07 227.24 18.8074 227.24 17.25C227.24 15.6926 225.977 14.43 224.42 14.43C222.863 14.43 221.6 15.6926 221.6 17.25C221.6 18.8074 222.863 20.07 224.42 20.07Z" fill="url(#paint0_linear_5_350)"/>
<path d="M107.55 18.09L105.55 18C105.27 18 105.27 17.89 105.08 17.67C103.894 16.3093 102.449 15.1978 100.83 14.4C99.6753 13.7523 98.3909 13.3697 97.07 13.28C96.0039 13.272 94.9513 13.5188 94 14C92.9903 14.5371 92.0181 15.1418 91.09 15.81C90.84 15.98 90.46 16.36 90.16 16.36C89.9302 16.3352 89.7028 16.2917 89.48 16.23C88.66 16.07 87.85 15.93 87.02 15.82C86.61 15.76 86.21 15.71 85.8 15.69C85.501 15.6178 85.189 15.6178 84.89 15.69C84.59 15.86 84.89 16.43 85.01 16.69C85.303 17.3244 85.637 17.9391 86.01 18.53C86.3967 19.1367 86.7933 19.74 87.2 20.34C87.39 20.62 87.59 20.91 87.79 21.18C87.972 21.3772 88.1298 21.5954 88.26 21.83C88.2908 22.012 88.2908 22.198 88.26 22.38V23.5C88.26 23.61 88.2 23.94 88.26 24.03C88.32 24.12 88.58 24.15 88.65 24.18L92.45 25.62L92.77 25.74C92.77 25.74 51 17.92 50.78 17.89L50.65 17.97C50.37 18.17 50.11 18.41 49.84 18.63L47.59 20.46L47.16 20.81L48.5 22C49.06 22.48 49.6 23 50.19 23.46C50.33 23.56 50.36 23.54 50.55 23.54H51.77C52.1364 23.5592 52.5036 23.5592 52.87 23.54C53.09 23.54 53.2 23.37 53.37 23.22C53.54 23.07 53.93 22.64 54.05 22.66C54.17 22.68 54.29 22.95 54.34 23C54.89 23.68 55.4 24.38 55.88 25.1C57.6171 27.635 58.9152 30.4442 59.72 33.41C60.2385 35.2856 60.3685 37.2474 60.102 39.175C59.8354 41.1026 59.178 42.9555 58.17 44.62C55.67 48.5 51.17 50.28 46.75 50.97C42.8861 51.5191 38.9639 51.5191 35.1 50.97C34.51 50.89 33.92 50.81 33.33 50.7C33.1135 50.6425 32.8928 50.6024 32.67 50.58C34.0726 51.8327 35.6364 52.8921 37.32 53.73C39.6576 54.9605 42.1265 55.9233 44.68 56.6C50.0769 57.9882 55.68 58.3913 61.22 57.79C63.06 57.61 64.91 57.35 66.73 57C69.3819 56.0189 71.9531 54.8319 74.42 53.45C79.16 50.8128 83.5311 47.5614 87.42 43.78C89.1344 42.0896 90.6692 40.2263 92 38.22C93.1436 36.5981 93.9558 34.7664 94.39 32.83C93.901 32.6865 93.4335 32.478 93 32.21C93 32.15 93 32.06 93 32.01C92.91 31.4379 92.8698 30.8591 92.88 30.28C92.8717 29.7773 92.9119 29.275 93 28.78C93.1958 27.7823 93.7333 26.8841 94.52 26.24C95.188 25.7757 95.9686 25.4994 96.78 25.44C98.58 25.23 100.4 25.39 102.19 25.1C104.098 24.8338 105.884 24.0053 107.32 22.72C108.604 21.5425 109.388 19.9177 109.51 18.18L107.55 18.09Z" fill="url(#paint1_linear_5_350)"/>
<path d="M48.45 47.93C46.8082 47.3244 45.3196 46.3651 44.09 45.12C42.7878 43.749 41.7684 42.1349 41.09 40.37C40.7549 39.4861 40.4679 38.5848 40.23 37.67C39.99 36.75 39.79 35.73 39.58 34.81C39.2293 33.1511 38.7683 31.5175 38.2 29.92C37.1028 26.8318 35.5306 23.9336 33.54 21.33C31.7232 18.9332 29.4062 16.9608 26.75 15.55C23.9979 14.1583 20.913 13.5593 17.84 13.82C17.39 13.82 16.94 13.92 16.49 13.98C16.04 14.04 15.49 14.16 15.04 14.28C16.3451 14.3265 17.5962 14.8128 18.59 15.66C19.7049 16.6514 20.6065 17.8592 21.24 19.21C22.0138 20.7865 22.6334 22.4342 23.09 24.13C24.0452 27.7438 24.7502 31.4192 25.2 35.13C25.41 36.63 25.6 38.13 25.83 39.63C25.9366 40.6317 26.1443 41.6201 26.45 42.58C27.0101 43.4853 27.6457 44.3417 28.35 45.14C29.599 46.55 31.1148 47.6987 32.81 48.52C34.8741 49.4653 37.1018 50.0019 39.37 50.1C42.5044 50.2279 45.6418 49.9387 48.7 49.24C49.6267 49.0467 50.5467 48.83 51.46 48.59C50.4266 48.5414 49.4089 48.3182 48.45 47.93Z" fill="url(#paint2_linear_5_350)"/>
<path d="M101.81 2.17L97.65 0L96.5 3.92L97.62 6.39L98.87 7C99.23 9 99.56 10.85 99.87 12.6L100.04 12.67C101.927 13.4068 103.633 14.5427 105.04 16L101.81 2.17Z" fill="url(#paint3_linear_5_350)"/>
<path d="M87.38 43.73C83.4911 47.5114 79.12 50.7628 74.38 53.4C71.9307 54.7967 69.3763 56.0004 66.74 57C67.7933 56.8 68.8367 56.5667 69.87 56.3C72.4424 55.6243 74.9733 54.7996 77.45 53.83C79.9579 52.8566 82.4056 51.7346 84.78 50.47C86.04 49.81 87.25 49.06 88.45 48.3C89.65 47.54 90.78 46.7 91.95 45.89C94.086 44.3587 96.03 42.5758 97.74 40.58C99.408 38.7077 100.777 36.5895 101.8 34.3C102.02 33.79 102.21 33.3 102.38 32.82C100.486 33.338 98.5123 33.4975 96.56 33.29C95.8352 33.2223 95.1185 33.085 94.42 32.88C93.9704 34.8012 93.1482 36.6155 92 38.22C90.6538 40.2108 89.1056 42.0573 87.38 43.73Z" fill="url(#paint4_linear_5_350)"/>
<path d="M99.42 31.8C101.4 31.3746 103.289 30.6027 105 29.52C105.862 29.0064 106.652 28.381 107.35 27.66C107.838 27.1547 108.271 26.5981 108.64 26C108.966 25.4879 109.234 24.9412 109.44 24.37C109.841 23.2445 110.027 22.0541 109.99 20.86C109.966 20.2335 109.882 19.6106 109.74 19C109.702 18.7217 109.628 18.4495 109.52 18.19C109.398 19.9277 108.614 21.5525 107.33 22.73C105.894 24.0153 104.108 24.8438 102.2 25.11C100.41 25.4 98.59 25.24 96.79 25.45C95.9786 25.5094 95.198 25.7857 94.53 26.25C93.7415 26.89 93.2006 27.7845 93 28.78C92.9079 29.2779 92.8643 29.7836 92.87 30.29C92.8643 30.8627 92.9078 31.4348 93 32C93 32 93 32.14 93 32.2C95.1467 32.4532 97.3214 32.3177 99.42 31.8Z" fill="url(#paint5_linear_5_350)"/>
<path d="M25.21 35.12C24.7603 31.4092 24.0552 27.7338 23.1 24.12C22.6434 22.4242 22.0238 20.7765 21.25 19.2C20.6166 17.8492 19.7149 16.6414 18.6 15.65C17.5943 14.7886 16.3236 14.298 15 14.26C11.9747 15.0401 9.12907 16.3985 6.62 18.26C4.52815 19.8087 2.62218 21.5939 0.94 23.58C0.62 24 0.3 24.34 0 24.74C2.70541 23.7323 5.53413 23.0932 8.41 22.84C10.3929 22.6622 12.3906 22.9251 14.26 23.61C15.7955 24.2196 17.1658 25.1822 18.26 26.42C19.35 27.6924 20.2647 29.1049 20.98 30.62C21.78 32.23 22.45 33.89 23.13 35.55C23.81 37.21 24.5 39 25.35 40.61C25.7 41.28 26.07 41.93 26.47 42.61C26.1643 41.6501 25.9566 40.6617 25.85 39.66C25.61 38.13 25.42 36.62 25.21 35.12Z" fill="url(#paint6_linear_5_350)"/>
<path d="M100.79 20.66C101.375 20.66 101.85 20.1854 101.85 19.6C101.85 19.0146 101.375 18.54 100.79 18.54C100.205 18.54 99.73 19.0146 99.73 19.6C99.73 20.1854 100.205 20.66 100.79 20.66Z" fill="white"/>
</g>
<defs>
<linearGradient id="paint0_linear_5_350" x1="222.895" y1="16.7837" x2="227.24" y2="16.7837" gradientUnits="userSpaceOnUse">
<stop stop-color="#FF4447"/>
<stop offset="1" stop-color="#FF0015"/>
</linearGradient>
<linearGradient id="paint1_linear_5_350" x1="85.5" y1="37.5" x2="48" y2="18.5" gradientUnits="userSpaceOnUse">
<stop stop-color="#FF4447"/>
<stop offset="1" stop-color="#FF0015"/>
</linearGradient>
<linearGradient id="paint2_linear_5_350" x1="40.0799" y1="33.4311" x2="19.5391" y2="27.3574" gradientUnits="userSpaceOnUse">
<stop stop-color="#FF4447"/>
<stop offset="1" stop-color="#FF0015"/>
</linearGradient>
<linearGradient id="paint3_linear_5_350" x1="102.372" y1="8.6538" x2="97.2608" y2="7.84834" gradientUnits="userSpaceOnUse">
<stop stop-color="#FF4447"/>
<stop offset="1" stop-color="#FF0015"/>
</linearGradient>
<linearGradient id="paint4_linear_5_350" x1="78.8579" y1="42.8332" x2="121.27" y2="42.8332" gradientUnits="userSpaceOnUse">
<stop stop-color="#FFAAA5"/>
<stop offset="1" stop-color="#FF746D"/>
</linearGradient>
<linearGradient id="paint5_linear_5_350" x1="98.6922" y1="24.043" x2="119.072" y2="24.043" gradientUnits="userSpaceOnUse">
<stop stop-color="#FFAAA5"/>
<stop offset="1" stop-color="#FF746D"/>
</linearGradient>
<linearGradient id="paint6_linear_5_350" x1="9" y1="26" x2="40.5" y2="26" gradientUnits="userSpaceOnUse">
<stop stop-color="#FFAAA5"/>
<stop offset="1" stop-color="#FF746D"/>
</linearGradient>
<clipPath id="clip0_5_350">
<rect width="370" height="62" fill="white"/>
</clipPath>
</defs>
</svg>
