<?xml version="1.0" encoding="UTF-8"?>
<!DOCTYPE svg PUBLIC "-//W3C//DTD SVG 1.1//EN" "http://www.w3.org/Graphics/SVG/1.1/DTD/svg11.dtd">
<!-- Creator: CorelDRAW -->
<svg xmlns="http://www.w3.org/2000/svg" xml:space="preserve" width="158.75mm" height="79.375mm" version="1.1" style="shape-rendering:geometricPrecision; text-rendering:geometricPrecision; image-rendering:optimizeQuality; fill-rule:evenodd; clip-rule:evenodd"
viewBox="0 0 15875 7937.5"
 xmlns:xlink="http://www.w3.org/1999/xlink"
 xmlns:xodm="http://www.corel.com/coreldraw/odm/2003">
 <defs>
  <style type="text/css">
   <![CDATA[
    .fil8 {fill:none}
    .fil0 {fill:white;fill-rule:nonzero}
    .fil4 {fill:url(#id1);fill-rule:nonzero}
    .fil1 {fill:url(#id2);fill-rule:nonzero}
    .fil2 {fill:url(#id3);fill-rule:nonzero}
    .fil5 {fill:url(#id4);fill-rule:nonzero}
    .fil6 {fill:url(#id5);fill-rule:nonzero}
    .fil7 {fill:url(#id6);fill-rule:nonzero}
    .fil3 {fill:url(#id7);fill-rule:nonzero}
   ]]>
  </style>
   <clipPath id="id0">
    <path d="M3042.71 4788.95l9789.58 0 0 -1640.4 -9789.58 0 0 1640.4z"/>
   </clipPath>
  <linearGradient id="id1" gradientUnits="userSpaceOnUse" x1="5741.46" y1="3360.21" x2="5609.17" y2="3333.75">
   <stop offset="0" style="stop-opacity:1; stop-color:#FF4447"/>
   <stop offset="1" style="stop-opacity:1; stop-color:#FF0015"/>
  </linearGradient>
  <linearGradient id="id2" gradientUnits="userSpaceOnUse" xlink:href="#id1" x1="8916.45" y1="3571.88" x2="9048.75" y2="3571.88">
  </linearGradient>
  <linearGradient id="id3" gradientUnits="userSpaceOnUse" xlink:href="#id1" x1="5291.67" y1="4122.99" x2="4312.71" y2="3624.06">
  </linearGradient>
  <linearGradient id="id4" gradientUnits="userSpaceOnUse" x1="5106.46" y1="4259.79" x2="6244.17" y2="4259.79">
   <stop offset="0" style="stop-opacity:1; stop-color:#FFAAA5"/>
   <stop offset="1" style="stop-opacity:1; stop-color:#FF746D"/>
  </linearGradient>
  <linearGradient id="id5" gradientUnits="userSpaceOnUse" xlink:href="#id4" x1="5635.47" y1="3782.16" x2="6189.89" y2="3782.16">
  </linearGradient>
  <linearGradient id="id6" gradientUnits="userSpaceOnUse" xlink:href="#id4" x1="3280.84" y1="3836.46" x2="4101.05" y2="3836.46">
  </linearGradient>
  <linearGradient id="id7" gradientUnits="userSpaceOnUse" xlink:href="#id1" x1="4101.05" y1="4022.78" x2="3545.42" y2="3865.34">
  </linearGradient>
 </defs>
 <g id="Слой_x0020_1">
  <metadata id="CorelCorpID_0Corel-Layer"/>
  <g>
  </g>
  <g style="clip-path:url(#id0)">
   <g id="_1703291975392">
    <path class="fil0" d="M6869.11 4193.91c26.46,-38.53 40.51,-84.23 40.22,-130.97 -0.08,-33.31 -6.69,-66.28 -19.53,-97.02 -12.8,-30.74 -31.56,-58.66 -55.19,-82.15 -23.6,-23.49 -51.62,-42.1 -82.42,-54.75 -30.82,-12.66 -63.81,-19.12 -97.13,-19.02l-305.06 0 0 761.74 149.49 0 0 -264.59 115.09 0 153.73 264.59 163.77 0 -168.8 -287.08c42.99,-19.87 79.64,-51.28 105.83,-90.75zm-140.76 -51.59c-9.26,10.35 -20.58,18.65 -33.25,24.34 -12.68,5.7 -26.41,8.67 -40.3,8.73l-154.78 0 0 -224.9 154.78 0c13.86,-0.26 27.62,2.49 40.32,8.06 12.7,5.57 24.05,13.84 33.23,24.22 20.22,21.43 31.22,49.92 30.7,79.38 0.52,29.68 -10.48,58.42 -30.7,80.17zm514.88 -129.91c-38.33,-1.44 -76.54,5.12 -112.21,19.24 -35.66,14.12 -67.99,35.5 -94.96,62.78 -26.24,27.15 -46.8,59.28 -60.43,94.49 -13.62,35.22 -20.08,72.81 -18.94,110.56 -1.16,38.03 5.45,75.9 19.42,111.29 13.94,35.39 34.98,67.56 61.81,94.56 28.57,27.78 62.54,49.39 99.82,63.5 37.28,14.11 77.05,20.41 116.87,18.52 105.83,0 183.62,-38.37 238.13,-116.16l-113.51 -65.35c-14.71,17.95 -33.52,32.12 -54.82,41.33 -21.33,9.2 -44.53,13.18 -67.68,11.59 -83.88,0 -134.68,-34.13 -153.73,-102.13l411.17 0c3.41,-19.04 5.18,-38.34 5.29,-57.68 1.98,-75.67 -25.96,-149.08 -77.79,-204.26 -25.32,-27.06 -56.09,-48.4 -90.33,-62.59 -34.21,-14.19 -71.07,-20.9 -108.11,-19.69zm-142.34 236.53c6.22,-32 23.55,-60.77 48.95,-81.22 26.96,-19.94 59.9,-30.11 93.39,-28.84 30.69,-0.75 60.8,8.54 85.73,26.46 26.43,20.34 44.18,49.92 49.74,82.81l-277.81 0.79zm923.92 -157.16c-20.9,-26.41 -47.83,-47.4 -78.55,-61.22 -30.72,-13.81 -64.3,-20.04 -97.92,-18.15 -35.43,-0.54 -70.57,6.58 -102.98,20.88 -32.41,14.29 -61.38,35.41 -84.88,61.93 -51.49,55.39 -79.37,128.65 -77.79,204.26 -1.58,75.61 26.3,148.86 77.79,204.26 23.63,26.36 52.6,47.39 84.99,61.67 32.41,14.28 67.46,21.49 102.87,21.14 33.62,1.89 67.2,-4.34 97.92,-18.16 30.72,-13.81 57.65,-34.8 78.55,-61.21l0 64.56 140.76 0 0 -761.74 -140.76 0 0 281.78zm-42.86 317.5c-13.94,14.23 -30.69,25.39 -49.19,32.76 -18.49,7.39 -38.33,10.83 -58.23,10.1 -20.06,0.68 -40.03,-2.78 -58.69,-10.15 -18.68,-7.37 -35.61,-18.51 -49.79,-32.71 -14.37,-14.56 -25.56,-31.91 -32.94,-50.98 -7.38,-19.07 -10.74,-39.45 -9.92,-59.88 -0.82,-20.43 2.54,-40.81 9.92,-59.88 7.38,-19.07 18.57,-36.42 32.94,-50.98 14.18,-14.2 31.11,-25.33 49.79,-32.71 18.66,-7.37 38.63,-10.83 58.69,-10.15 19.9,-0.64 39.71,2.83 58.18,10.21 18.5,7.37 35.24,18.49 49.24,32.65 14.37,14.56 25.56,31.91 32.94,50.98 7.38,19.07 10.74,39.45 9.92,59.88 0.77,20.58 -2.62,41.11 -10,60.34 -7.35,19.24 -18.55,36.78 -32.86,51.58l0 -1.06zm926.04 -600.34l149.49 0 0 525.46c1.85,34.5 -3.94,68.98 -16.93,100.99 -12.97,32.01 -32.86,60.76 -58.21,84.22 -53.66,45.85 -122.61,69.83 -193.15,67.21 -119.85,0 -203.73,-47.89 -251.61,-144.73l129.38 -74.08c10.37,17.51 24.26,32.66 40.82,44.48 16.56,11.82 35.43,20.05 55.35,24.16 19.93,4.11 40.51,4.01 60.38,-0.29 19.9,-4.31 38.66,-12.72 55.11,-24.7 9.9,-10.26 17.65,-22.41 22.73,-35.73 5.11,-13.32 7.44,-27.54 6.91,-41.79l-0.27 -525.2zm636.32 218.02l139.44 0 0 545.57 -140.76 0 0 -61.12c-34.05,50.62 -88.18,75.94 -162.45,75.94 -27.25,0.7 -54.37,-4.28 -79.62,-14.62 -25.24,-10.34 -48.04,-25.82 -66.96,-45.44 -20.16,-22.46 -35.72,-48.67 -45.75,-77.13 -10.03,-28.47 -14.36,-58.63 -12.72,-88.77l0 -334.17 140.75 0 0 317.5c-1.13,15.11 0.93,30.29 6.04,44.56 5.1,14.26 13.15,27.3 23.6,38.26 10.53,10 23.02,17.72 36.69,22.68 13.66,4.96 28.18,7.06 42.68,6.16 16.14,0.74 32.23,-1.92 47.28,-7.8 15.03,-5.88 28.68,-14.85 40.03,-26.33 23.74,-28.19 35.33,-64.62 32.28,-101.34l-0.53 -293.95zm1019.71 47.62c38.97,45.18 58.97,103.67 55.83,163.25l0 333.91 -140.76 0 0 -325.44c1.77,-27.35 -6.62,-54.4 -23.55,-75.94 -8.52,-9.14 -18.97,-16.25 -30.61,-20.83 -11.62,-4.58 -24.13,-6.5 -36.59,-5.63 -13.97,-0.82 -27.97,1.59 -40.86,7.05 -12.91,5.46 -24.36,13.82 -33.49,24.44 -19.29,26.47 -28.63,58.87 -26.46,91.55l0 304.8 -140.76 0 0 -325.44c1.77,-27.35 -6.61,-54.4 -23.55,-75.94 -8.54,-9.12 -18.99,-16.23 -30.61,-20.8 -11.64,-4.58 -24.13,-6.51 -36.59,-5.66 -13.97,-0.64 -27.89,1.85 -40.75,7.3 -12.88,5.45 -24.34,13.71 -33.6,24.19 -20.21,26.07 -30.19,58.63 -28.05,91.55l0 304.8 -141.55 0 0 -544.52 140.76 0 0 57.68c16.62,-24.37 39.34,-43.97 65.91,-56.83 26.54,-12.86 56.01,-18.53 85.43,-16.46 29.66,-1.57 59.19,4.98 85.41,18.98 26.19,13.98 48.1,34.87 63.29,60.4 18.25,-25.67 42.76,-46.26 71.17,-59.83 28.42,-13.56 59.85,-19.65 91.28,-17.7 27.73,-1.19 55.41,3.66 81.07,14.21 25.67,10.55 48.76,26.56 67.63,46.91zm492.12 -61.12c-33.57,-1.57 -67.07,4.79 -97.73,18.58 -30.67,13.79 -57.63,34.62 -78.74,60.8l0 -65.62 -140.76 0 0 761.74 140.76 0 0 -281.78c20.9,26.41 47.83,47.4 78.55,61.21 30.72,13.82 64.3,20.05 97.92,18.16 35.43,0.54 70.57,-6.59 102.98,-20.88 32.41,-14.29 61.38,-35.42 84.88,-61.93 51.49,-55.4 79.37,-128.65 77.79,-204.26 1.79,-75.5 -25.8,-148.74 -77,-204.26 -23.71,-26.47 -52.81,-47.55 -85.35,-61.83 -32.55,-14.29 -67.76,-21.44 -103.3,-20.98l0 1.05zm82.29 396.88c-14.24,14.14 -31.17,25.23 -49.82,32.6 -18.65,7.37 -38.6,10.86 -58.66,10.26 -19.9,0.64 -39.71,-2.83 -58.18,-10.21 -18.5,-7.37 -35.24,-18.49 -49.24,-32.65 -14.37,-14.56 -25.56,-31.91 -32.94,-50.98 -7.38,-19.07 -10.74,-39.45 -9.92,-59.88 -0.64,-20.41 2.83,-40.73 10.18,-59.77 7.38,-19.04 18.5,-36.42 32.68,-51.09 13.94,-14.23 30.69,-25.39 49.19,-32.76 18.49,-7.39 38.33,-10.83 58.23,-10.1 20.06,-0.68 40.03,2.78 58.68,10.15 18.68,7.37 35.62,18.51 49.8,32.71 14.37,14.56 25.56,31.91 32.94,50.98 7.38,19.07 10.74,39.45 9.92,59.88 0.9,20.39 -2.38,40.75 -9.68,59.82 -7.28,19.07 -18.39,36.44 -32.65,51.04l-0.53 0zm541.87 -396.88c-38.34,-1.43 -76.55,5.12 -112.21,19.25 -35.67,14.12 -68,35.49 -94.96,62.78 -26.25,27.14 -46.81,59.28 -60.43,94.49 -13.63,35.22 -20.09,72.81 -18.95,110.56 -0.95,38.09 5.88,75.98 20,111.37 14.16,35.38 35.35,67.53 62.29,94.47 28.57,27.78 62.54,49.4 99.82,63.51 37.28,14.11 77.05,20.41 116.87,18.51 105.83,0 183.62,-38.36 238.13,-116.15l-113.51 -65.35c-14.71,17.95 -33.52,32.12 -54.82,41.33 -21.33,9.2 -44.53,13.18 -67.68,11.59 -83.88,0 -134.67,-34.13 -153.73,-102.13l410.9 0c3.42,-19.04 5.19,-38.34 5.29,-57.68 1.99,-75.68 -25.95,-149.08 -77.78,-204.26 -25.3,-27.35 -56.17,-48.95 -90.57,-63.33 -34.37,-14.38 -71.41,-21.2 -108.66,-20.01l0 1.05zm-144.47 235.48c6.22,-32 23.55,-60.77 48.95,-81.22 26.96,-19.94 59.9,-30.11 93.4,-28.84 30.69,-0.75 60.8,8.54 85.72,26.46 26.44,20.34 44.19,49.92 49.75,82.81l-277.82 0.79zm721.26 -205.84c30.53,-17.7 65.24,-26.84 100.54,-26.46l0 157.16c-40.4,-5.71 -81.49,3.71 -115.36,26.46 -17.33,12.82 -31.01,29.93 -39.74,49.65 -8.73,19.71 -12.17,41.35 -10,62.8l0 260.08 -140.76 0 0 -545.57 140.76 0 0 94.19c11.83,-33.09 34.98,-60.93 65.35,-78.58l-0.79 0.27zm574.41 370.41c1.14,25.08 -4.02,50.03 -15.03,72.59 -11.01,22.56 -27.49,42 -47.94,56.53 -46.07,31.14 -100.78,46.97 -156.37,45.25 -111.92,0 -187.86,-42.87 -229.13,-129.12l122.5 -69.06c6.83,22.15 21.09,41.27 40.38,54.13 19.26,12.87 42.38,18.7 65.45,16.52 49.75,0 75.15,-15.61 75.15,-47.1 0,-14.82 -9.53,-26.46 -28.84,-35.72 -22.55,-10.1 -45.91,-18.25 -69.85,-24.34 -28.18,-7.24 -55.91,-16.07 -83.08,-26.46 -27.47,-10.93 -51.44,-29.13 -69.32,-52.65 -19.79,-25.31 -30.01,-56.79 -28.84,-88.9 -0.98,-24.31 3.91,-48.5 14.28,-70.52 10.38,-22.02 25.88,-41.21 45.25,-55.95 42.57,-31.66 94.61,-47.98 147.64,-46.3 42.09,-0.78 83.68,9.44 120.65,29.63 36.59,19.68 66.86,49.3 87.31,85.46l-119.86 65.35c-7.09,-17.12 -19.26,-31.66 -34.87,-41.65 -15.61,-9.98 -33.92,-14.93 -52.44,-14.17 -16.03,-0.49 -31.86,3.75 -45.51,12.17 -5.4,3.65 -9.81,8.58 -12.86,14.35 -3.07,5.76 -4.63,12.2 -4.6,18.72 0,14.82 9.52,26.46 28.84,35.72 22.43,10.2 45.82,18.09 69.85,23.55 28.18,7.22 55.9,16.05 83.08,26.45 27.78,10.74 51.99,29.08 69.85,52.92 19.87,26.5 30.13,58.97 29.1,92.08l-0.79 0.52z"/>
    <path class="fil1" d="M8980.49 3679.56c41.19,0 74.61,-33.41 74.61,-74.61 0,-41.21 -33.42,-74.61 -74.61,-74.61 -41.2,0 -74.62,33.4 -74.62,74.61 0,41.2 33.42,74.61 74.62,74.61z"/>
    <path class="fil2" d="M5888.3 3627.17l-52.91 -2.38c-7.41,0 -7.41,-2.91 -12.44,-8.73 -31.38,-36 -69.61,-65.41 -112.45,-86.52 -30.55,-17.14 -64.53,-27.26 -99.48,-29.63 -28.21,-0.21 -56.06,6.32 -81.23,19.05 -26.71,14.21 -52.44,30.21 -76.99,47.89 -6.62,4.5 -16.67,14.55 -24.61,14.55 -6.08,-0.66 -12.1,-1.81 -17.99,-3.44 -21.7,-4.23 -43.13,-7.94 -65.09,-10.85 -10.85,-1.59 -21.43,-2.91 -32.28,-3.44 -7.91,-1.91 -16.16,-1.91 -24.07,0 -7.94,4.5 0,19.58 3.17,26.46 7.75,16.79 16.59,33.05 26.46,48.68 10.23,16.06 20.72,32.02 31.48,47.89 5.03,7.41 10.32,15.09 15.62,22.23 4.81,5.22 8.99,10.99 12.43,17.2 0.82,4.81 0.82,9.73 0,14.55l0 29.63c0,2.91 -1.59,11.64 0,14.03 1.59,2.38 8.47,3.17 10.32,3.96l100.54 38.1 8.47 3.18c0,0 -1105.17,-206.91 -1110.99,-207.7l-3.44 2.12c-7.41,5.29 -14.28,11.64 -21.43,17.46l-59.53 48.42 -11.38 9.26 35.46 31.48c14.81,12.7 29.1,26.46 44.71,38.63 3.71,2.65 4.5,2.12 9.53,2.12l32.28 0c9.69,0.51 19.41,0.51 29.1,0 5.82,0 8.73,-4.5 13.23,-8.47 4.5,-3.96 14.82,-15.34 17.99,-14.81 3.18,0.53 6.35,7.67 7.67,8.99 14.56,17.99 28.05,36.52 40.75,55.57 45.96,67.07 80.31,141.39 101.6,219.86 13.72,49.63 17.16,101.54 10.11,152.54 -7.06,51 -24.45,100.02 -51.12,144.06 -66.15,102.66 -185.21,149.76 -302.15,168.01 -102.24,14.53 -206.01,14.53 -308.24,0 -15.61,-2.11 -31.23,-4.23 -46.84,-7.14 -5.72,-1.52 -11.56,-2.58 -17.46,-3.18 37.11,33.15 78.49,61.18 123.03,83.35 61.85,32.55 127.18,58.03 194.74,75.93 142.79,36.73 291.04,47.4 437.62,31.49 48.68,-4.76 97.63,-11.64 145.78,-20.9 70.17,-25.96 138.2,-57.37 203.47,-93.93 125.41,-69.78 241.06,-155.8 343.96,-255.85 45.36,-44.73 85.96,-94.03 121.17,-147.11 30.26,-42.91 51.75,-91.38 63.24,-142.61 -12.94,-3.8 -25.31,-9.31 -36.78,-16.41 0,-1.58 0,-3.96 0,-5.29 -2.38,-15.13 -3.44,-30.45 -3.17,-45.77 -0.22,-13.3 0.84,-26.59 3.17,-39.69 5.18,-26.39 19.41,-50.16 40.22,-67.2 17.67,-12.29 38.33,-19.6 59.8,-21.17 47.62,-5.55 95.77,-1.32 143.14,-8.99 50.48,-7.05 97.73,-28.97 135.73,-62.98 33.97,-31.15 54.71,-74.14 57.94,-120.12l-51.86 -2.38z"/>
    <path class="fil3" d="M4324.61 4416.69c-43.43,-16.02 -82.82,-41.41 -115.35,-74.35 -34.46,-36.27 -61.43,-78.98 -79.38,-125.68 -8.86,-23.38 -16.46,-47.23 -22.75,-71.43 -6.35,-24.34 -11.64,-51.33 -17.2,-75.67 -9.28,-43.9 -21.48,-87.12 -36.51,-129.39 -29.03,-81.7 -70.63,-158.39 -123.3,-227.27 -48.07,-63.42 -109.37,-115.6 -179.65,-152.93 -72.82,-36.82 -154.44,-52.67 -235.75,-45.77 -11.9,0 -23.81,2.64 -35.71,4.23 -11.91,1.59 -26.46,4.76 -38.37,7.94 34.53,1.23 67.63,14.09 93.93,36.51 29.5,26.23 53.35,58.19 70.11,93.93 20.48,41.71 36.87,85.3 48.95,130.17 25.27,95.62 43.93,192.86 55.83,291.04 5.55,39.69 10.58,79.38 16.67,119.07 2.82,26.5 8.31,52.65 16.4,78.05 14.82,23.95 31.64,46.61 50.27,67.73 33.05,37.31 73.15,67.7 118.01,89.43 54.61,25.01 113.55,39.21 173.56,41.8 82.93,3.39 165.94,-4.26 246.86,-22.75 24.52,-5.11 48.86,-10.85 73.02,-17.2 -27.34,-1.28 -54.26,-7.19 -79.64,-17.46z"/>
    <path class="fil4" d="M5736.43 3205.96l-110.07 -57.42 -30.42 103.72 29.63 65.35 33.07 16.14c9.53,52.92 18.26,101.86 26.46,148.17l4.5 1.85c49.93,19.49 95.06,49.55 132.29,88.1l-85.46 -365.91z"/>
    <path class="fil5" d="M5354.64 4305.56c-102.9,100.05 -218.55,186.08 -343.96,255.86 -64.81,36.95 -132.39,68.8 -202.14,95.25 27.87,-5.29 55.47,-11.47 82.81,-18.52 68.06,-17.88 135.03,-39.7 200.56,-65.36 66.35,-25.75 131.11,-55.44 193.94,-88.9 33.33,-17.46 65.35,-37.3 97.1,-57.41 31.75,-20.11 61.65,-42.33 92.6,-63.77 56.52,-40.51 107.95,-87.68 153.2,-140.49 44.13,-49.54 80.35,-105.58 107.42,-166.16 5.82,-13.49 10.84,-26.46 15.34,-39.16 -50.11,13.71 -102.33,17.93 -153.99,12.44 -19.17,-1.79 -38.13,-5.42 -56.62,-10.85 -11.89,50.83 -33.65,98.84 -64.03,141.29 -35.61,52.67 -76.58,101.53 -122.23,145.78z"/>
    <path class="fil6" d="M5673.2 3989.92c52.38,-11.26 102.36,-31.68 147.63,-60.33 22.81,-13.59 43.71,-30.13 62.18,-49.21 12.91,-13.37 24.37,-28.1 34.13,-43.92 8.63,-13.55 15.72,-28.02 21.17,-43.13 10.61,-29.78 15.53,-61.27 14.55,-92.87 -0.63,-16.57 -2.86,-33.05 -6.61,-49.21 -1.01,-7.36 -2.97,-14.57 -5.83,-21.43 -3.22,45.98 -23.97,88.96 -57.94,120.12 -37.99,34.01 -85.25,55.93 -135.73,62.97 -47.36,7.67 -95.51,3.44 -143.14,9 -21.47,1.57 -42.12,8.88 -59.8,21.16 -20.86,16.94 -35.17,40.6 -40.48,66.94 -2.43,13.18 -3.59,26.56 -3.44,39.95 -0.15,15.16 1,30.29 3.44,45.25 0,0 0,3.7 0,5.29 56.8,6.7 114.34,3.11 169.87,-10.58z"/>
    <path class="fil7" d="M3709.72 4077.76c-11.9,-98.18 -30.55,-195.43 -55.82,-291.04 -12.09,-44.87 -28.48,-88.47 -48.95,-130.18 -16.76,-35.74 -40.62,-67.69 -70.12,-93.93 -26.61,-22.79 -60.23,-35.77 -95.25,-36.77 -80.04,20.64 -155.33,56.58 -221.72,105.83 -55.34,40.98 -105.77,88.21 -150.28,140.76 -8.47,11.11 -16.93,20.11 -24.87,30.69 71.58,-26.66 146.42,-43.57 222.51,-50.27 52.47,-4.7 105.32,2.25 154.78,20.37 40.63,16.13 76.89,41.6 105.84,74.35 28.84,33.67 53.04,71.04 71.96,111.13 21.17,42.59 38.9,86.51 56.89,130.44 17.99,43.92 36.25,91.28 58.74,133.87 9.26,17.73 19.05,34.93 29.63,52.92 -8.09,-25.4 -13.58,-51.55 -16.4,-78.05 -6.35,-40.48 -11.38,-80.43 -16.94,-120.12z"/>
    <path class="fil0" d="M5709.44 3695.17c15.48,0 28.05,-12.56 28.05,-28.05 0,-15.48 -12.57,-28.04 -28.05,-28.04 -15.47,0 -28.04,12.56 -28.04,28.04 0,15.49 12.57,28.05 28.04,28.05z"/>
   </g>
  </g>
  <polygon class="fil8" points="3042.71,4788.95 12832.29,4788.95 12832.29,3148.55 3042.71,3148.55 "/>
 </g>
</svg>
