<?xml version="1.0" encoding="UTF-8"?> <svg xmlns="http://www.w3.org/2000/svg" width="83" height="15" viewBox="0 0 83 15" fill="none"><g clip-path="url(#clip0_591_4511)"><path d="M5.50055 13.5527C4.46454 13.5527 3.58874 13.3872 2.87315 13.0561C2.16824 12.725 1.62888 12.2711 1.25506 11.6943C0.881244 11.1069 0.694336 10.4447 0.694336 9.70777H2.92121C2.92121 10.0175 3.00666 10.3219 3.17755 10.621C3.34843 10.9093 3.62078 11.1443 3.9946 11.3259C4.3791 11.5075 4.88108 11.5982 5.50055 11.5982C6.05593 11.5982 6.52053 11.5181 6.89435 11.3579C7.26817 11.1977 7.54585 10.9894 7.72743 10.7331C7.909 10.4661 7.99978 10.167 7.99978 9.83594C7.99978 9.4194 7.82355 9.08831 7.47109 8.84265C7.11864 8.58632 6.57393 8.42611 5.83698 8.36203L4.81166 8.28193C3.69021 8.1858 2.79305 7.83869 2.12018 7.24058C1.45799 6.6318 1.12689 5.83076 1.12689 4.83748C1.12689 4.08985 1.30312 3.44902 1.65558 2.91499C2.00803 2.37029 2.49933 1.95375 3.12948 1.66538C3.77031 1.36632 4.51794 1.2168 5.37238 1.2168C6.25886 1.2168 7.02251 1.37166 7.66334 1.6814C8.30417 1.99113 8.80081 2.42903 9.15327 2.9951C9.50572 3.55048 9.68195 4.20733 9.68195 4.96564H7.45507C7.45507 4.64523 7.37497 4.35151 7.21476 4.0845C7.06523 3.80681 6.83561 3.58786 6.52587 3.42765C6.22682 3.25677 5.84233 3.17132 5.37238 3.17132C4.9238 3.17132 4.54998 3.24608 4.25093 3.39561C3.95188 3.54514 3.72759 3.74807 3.57806 4.0044C3.42853 4.26073 3.35377 4.53843 3.35377 4.83748C3.35377 5.20061 3.48728 5.52102 3.75429 5.79872C4.0213 6.06573 4.44318 6.2206 5.01993 6.26332L6.04525 6.35944C6.87833 6.42353 7.60994 6.59975 8.24009 6.88813C8.87024 7.1765 9.35619 7.56634 9.69797 8.05764C10.0504 8.54894 10.2267 9.1417 10.2267 9.83594C10.2267 10.5729 10.0344 11.2244 9.64991 11.7905C9.26541 12.3458 8.71537 12.7784 7.99978 13.0881C7.29487 13.3979 6.46179 13.5527 5.50055 13.5527ZM12.3066 13.2483V1.55323H14.5816V13.2483H12.3066ZM14.2611 13.2483V11.2458H19.3077V13.2483H14.2611ZM26.4378 13.5527C25.3805 13.5527 24.462 13.3659 23.6823 12.992C22.9133 12.6182 22.2724 12.1323 21.7598 11.5341C21.2579 10.9253 20.8786 10.2738 20.6223 9.57961C20.3767 8.87469 20.2538 8.19648 20.2538 7.54498V7.19252C20.2538 6.47693 20.382 5.76668 20.6383 5.06177C20.8947 4.34618 21.2792 3.70001 21.7918 3.12326C22.3152 2.54652 22.9613 2.08726 23.7303 1.74548C24.4993 1.39302 25.4018 1.2168 26.4378 1.2168C27.4631 1.2168 28.3603 1.39302 29.1293 1.74548C29.8983 2.08726 30.5391 2.54652 31.0518 3.12326C31.5752 3.70001 31.965 4.34618 32.2213 5.06177C32.4776 5.76668 32.6058 6.47693 32.6058 7.19252V7.54498C32.6058 8.19648 32.4776 8.87469 32.2213 9.57961C31.9757 10.2738 31.5965 10.9253 31.0838 11.5341C30.5819 12.1323 29.9411 12.6182 29.1613 12.992C28.3923 13.3659 27.4845 13.5527 26.4378 13.5527ZM26.4378 11.438C27.036 11.438 27.57 11.3312 28.0399 11.1176C28.5205 10.904 28.9264 10.6103 29.2575 10.2365C29.5993 9.85196 29.8556 9.4194 30.0265 8.93878C30.2081 8.44748 30.2988 7.92947 30.2988 7.38477C30.2988 6.79735 30.2081 6.25798 30.0265 5.76668C29.8556 5.27538 29.5993 4.84815 29.2575 4.48502C28.9264 4.12189 28.5205 3.83885 28.0399 3.63592C27.5593 3.433 27.0253 3.33153 26.4378 3.33153C25.8398 3.33153 25.3003 3.433 24.8197 3.63592C24.3391 3.83885 23.9279 4.12189 23.5861 4.48502C23.2551 4.84815 22.9987 5.27538 22.8171 5.76668C22.6463 6.25798 22.5608 6.79735 22.5608 7.38477C22.5608 7.92947 22.6463 8.44748 22.8171 8.93878C22.9987 9.4194 23.2551 9.85196 23.5861 10.2365C23.9279 10.6103 24.3391 10.904 24.8197 11.1176C25.3003 11.3312 25.8398 11.438 26.4378 11.438ZM36.7109 13.3285V11.5021H39.6427C40.1767 11.5021 40.5826 11.3579 40.8602 11.0695C41.1379 10.7705 41.2768 10.3646 41.2768 9.85196C41.2768 9.33929 41.1379 8.94412 40.8602 8.66642C40.5826 8.37805 40.1767 8.23387 39.6427 8.23387H36.7109V6.84006H39.4824C40.2622 6.84006 40.9563 6.93619 41.5651 7.12844C42.1847 7.31001 42.6653 7.61974 43.007 8.05764C43.3595 8.49554 43.5357 9.08296 43.5357 9.81992V10.0442C43.5357 10.7385 43.3808 11.3312 43.0711 11.8225C42.7721 12.3031 42.3181 12.677 41.7093 12.944C41.1113 13.2003 40.369 13.3285 39.4824 13.3285H36.7109ZM34.8044 13.3285V1.47313H37.0313V13.3285H34.8044ZM36.7109 7.86539V6.47159H39.2101C39.7548 6.47159 40.1553 6.3274 40.4116 6.03903C40.668 5.75066 40.7961 5.36616 40.7961 4.88554C40.7961 4.40492 40.668 4.02042 40.4116 3.73205C40.1553 3.44368 39.7548 3.29949 39.2101 3.29949H36.7109V1.47313H39.0018C40.3263 1.47313 41.3302 1.75082 42.0137 2.30621C42.708 2.86159 43.0551 3.65729 43.0551 4.69329V4.91758C43.0551 5.64386 42.8788 6.22593 42.5264 6.66384C42.1847 7.09105 41.7093 7.40079 41.1005 7.59304C40.4917 7.77461 39.7922 7.86539 39.0018 7.86539H36.7109ZM51.2668 13.5527C50.2094 13.5527 49.291 13.3659 48.5112 12.992C47.7422 12.6182 47.1014 12.1323 46.5888 11.5341C46.0868 10.9253 45.7076 10.2738 45.4513 9.57961C45.2057 8.87469 45.0828 8.19648 45.0828 7.54498V7.19252C45.0828 6.47693 45.211 5.76668 45.4673 5.06177C45.7236 4.34618 46.1081 3.70001 46.6208 3.12326C47.1442 2.54652 47.7903 2.08726 48.5593 1.74548C49.3283 1.39302 50.2308 1.2168 51.2668 1.2168C52.2921 1.2168 53.1893 1.39302 53.9583 1.74548C54.7273 2.08726 55.3681 2.54652 55.8808 3.12326C56.4042 3.70001 56.7939 4.34618 57.0503 5.06177C57.3066 5.76668 57.4348 6.47693 57.4348 7.19252V7.54498C57.4348 8.19648 57.3066 8.87469 57.0503 9.57961C56.8047 10.2738 56.4255 10.9253 55.9128 11.5341C55.4109 12.1323 54.7701 12.6182 53.9903 12.992C53.2213 13.3659 52.3135 13.5527 51.2668 13.5527ZM51.2668 11.438C51.8649 11.438 52.399 11.3312 52.8689 11.1176C53.3495 10.904 53.7554 10.6103 54.0864 10.2365C54.4283 9.85196 54.6846 9.4194 54.8554 8.93878C55.037 8.44748 55.1278 7.92947 55.1278 7.38477C55.1278 6.79735 55.037 6.25798 54.8554 5.76668C54.6846 5.27538 54.4283 4.84815 54.0864 4.48502C53.7554 4.12189 53.3495 3.83885 52.8689 3.63592C52.3882 3.433 51.8543 3.33153 51.2668 3.33153C50.6688 3.33153 50.1293 3.433 49.6487 3.63592C49.1681 3.83885 48.7569 4.12189 48.4151 4.48502C48.0841 4.84815 47.8277 5.27538 47.6461 5.76668C47.4753 6.25798 47.3898 6.79735 47.3898 7.38477C47.3898 7.92947 47.4753 8.44748 47.6461 8.93878C47.8277 9.4194 48.0841 9.85196 48.4151 10.2365C48.7569 10.6103 49.1681 10.904 49.6487 11.1176C50.1293 11.3312 50.6688 11.438 51.2668 11.438ZM61.5879 13.3124V11.1977H64.007C64.6158 11.1977 65.1551 11.1069 65.6251 10.9253C66.1057 10.7331 66.5116 10.4661 66.8427 10.1243C67.1738 9.78253 67.4248 9.38201 67.5957 8.92276C67.7773 8.45281 67.868 7.93482 67.868 7.36875C67.868 6.78133 67.7773 6.25798 67.5957 5.79872C67.4248 5.32877 67.1738 4.92826 66.8427 4.59717C66.5116 4.26607 66.1057 4.01508 65.6251 3.84419C65.1551 3.67331 64.6158 3.58786 64.007 3.58786H61.5879V1.47313H63.8628C64.9202 1.47313 65.844 1.628 66.6344 1.93773C67.4248 2.24747 68.0817 2.67468 68.605 3.21939C69.1283 3.75341 69.5182 4.36753 69.7745 5.06177C70.0415 5.74531 70.175 6.45557 70.175 7.19252V7.54498C70.175 8.24989 70.0415 8.94412 69.7745 9.62767C69.5182 10.3112 69.1283 10.9307 68.605 11.4861C68.0817 12.0414 67.4248 12.4847 66.6344 12.8158C65.844 13.1469 64.9202 13.3124 63.8628 13.3124H61.5879ZM59.6334 13.3124V1.47313H61.9083V13.3124H59.6334ZM70.6049 13.2483L74.5941 1.55323H78.3109L82.4122 13.2483H80.0732L76.5967 3.10724L77.4137 3.4597H75.4111L76.2442 3.10724L72.8799 13.2483H70.6049ZM73.3925 10.1403L74.1134 8.21785H78.8556L79.5605 10.1403H73.3925Z" fill="#111111"></path></g><defs><clipPath id="clip0_591_4511"><rect width="82.9307" height="13.1935" fill="white" transform="translate(0.0693359 0.99707)"></rect></clipPath></defs></svg> 