<?xml version="1.0" encoding="UTF-8"?> <svg xmlns="http://www.w3.org/2000/svg" width="148" height="56" viewBox="0 0 148 56" fill="none"><path fill-rule="evenodd" clip-rule="evenodd" d="M27.6131 16.6082C26.1496 13.7626 25.9464 10.9169 26.6374 8.39646C27.0846 6.77037 27.857 5.26623 28.8733 4.00601C29.8896 2.74579 31.1092 1.72948 32.4507 0.997738C34.2394 0.0627354 36.2314 -0.262483 38.0607 0.225345C38.2233 0.225345 38.3047 0.387954 38.3047 0.550563C38.142 5.26623 37.2883 8.84363 35.6216 11.4454C33.9549 14.0878 31.4344 15.7952 27.979 16.8115C27.8164 16.8521 27.6944 16.7708 27.6131 16.6082Z" fill="#FFF337"></path><path fill-rule="evenodd" clip-rule="evenodd" d="M36.2723 20.1862C37.7765 17.3405 40.053 15.5925 42.4921 14.6981C44.0776 14.129 45.785 13.9258 47.3704 14.0477C48.9965 14.1697 50.5413 14.6168 51.8828 15.3079C53.6715 16.2429 55.0537 17.7064 55.7041 19.4951C55.7448 19.6577 55.7041 19.7797 55.5822 19.861C51.5983 22.4221 48.1835 23.723 45.0532 23.8449C41.923 23.9669 39.0774 22.8693 36.313 20.5927C36.2317 20.5114 36.191 20.3488 36.2723 20.1862Z" fill="#FFF337"></path><path fill-rule="evenodd" clip-rule="evenodd" d="M19.8485 20.8761C16.6777 20.2257 14.3605 18.5996 12.8157 16.4856C11.7994 15.1035 11.149 13.5587 10.7831 11.9732C10.4172 10.3878 10.4172 8.76171 10.7018 7.29822C11.1083 5.30626 12.084 3.55821 13.5881 2.41995C13.71 2.33864 13.8727 2.33864 13.9946 2.4606C17.572 5.55017 19.8079 8.43649 20.8242 11.4041C21.8405 14.3717 21.5966 17.38 20.2144 20.7135C20.1331 20.7948 19.9705 20.8761 19.8485 20.8761Z" fill="#FFF337"></path><path fill-rule="evenodd" clip-rule="evenodd" d="M23.7515 36.3244C23.7921 39.536 22.6132 42.1784 20.8652 44.1297C19.7269 45.3899 18.3447 46.3655 16.8812 47.0566C15.4177 47.7071 13.8323 48.0729 12.3282 48.0729C10.2956 48.0729 8.38489 47.5038 6.96206 46.2029C6.84011 46.1216 6.84011 45.959 6.88076 45.8371C9.15729 41.6905 11.5558 38.8855 14.2388 37.3001C16.9625 35.7146 19.9708 35.3488 23.4669 35.9992C23.6702 36.0399 23.7515 36.1618 23.7515 36.3244Z" fill="#FFF337"></path><path fill-rule="evenodd" clip-rule="evenodd" d="M4.3195 30.1049C2.24624 28.5194 0.620144 26.1616 0.0103596 22.9907C-0.0302927 22.8281 0.0510119 22.7062 0.213621 22.6249C3.54711 21.2833 6.55538 21.0801 9.523 22.137C12.45 23.194 15.3363 25.4705 18.3852 29.0886C18.4665 29.2105 18.4665 29.3731 18.3852 29.4544C17.2469 30.9586 15.4582 31.9342 13.4663 32.3001C12.0028 32.5847 10.3767 32.544 8.79126 32.1782C7.20582 31.8123 5.66103 31.1212 4.3195 30.1049Z" fill="#FFF337"></path><path fill-rule="evenodd" clip-rule="evenodd" d="M33.0198 35.9988C35.459 38.0721 36.7192 40.6739 37.0444 43.2756C37.2477 44.9424 37.1257 46.6497 36.6379 48.1945C36.1907 49.7393 35.4183 51.1622 34.4427 52.3411C33.1418 53.8859 31.4344 54.9428 29.5644 55.1867C29.4018 55.1867 29.2798 55.1054 29.2392 54.9835C27.5724 50.5524 27.0439 46.9343 27.5724 43.8447C28.1415 40.7552 29.8083 38.2347 32.6133 35.9988C32.7353 35.8769 32.8979 35.9175 33.0198 35.9988Z" fill="#FFF337"></path><path fill-rule="evenodd" clip-rule="evenodd" d="M37.9389 29.2507C41.0691 28.5189 43.8741 29.0068 46.1506 30.267C47.6548 31.08 48.915 32.2183 49.8906 33.4785C50.8663 34.7794 51.5574 36.2022 51.9233 37.6657C52.4111 39.617 52.2485 41.609 51.3135 43.3164C51.2322 43.4383 51.1102 43.5196 50.9476 43.479C46.3945 42.1781 43.1424 40.5114 40.9878 38.2348C38.8332 35.9583 37.7763 33.1127 37.6543 29.5352C37.6949 29.4133 37.8169 29.2913 37.9389 29.2507Z" fill="#FFF337"></path><g clip-path="url(#clip0_591_4294)"><path d="M70.5005 33.5508C69.4645 33.5508 68.5887 33.3852 67.8732 33.0541C67.1682 32.7231 66.6289 32.2691 66.2551 31.6924C65.8812 31.105 65.6943 30.4428 65.6943 29.7058H67.9212C67.9212 30.0156 68.0067 30.3199 68.1775 30.619C68.3484 30.9074 68.6208 31.1423 68.9946 31.3239C69.3791 31.5055 69.8811 31.5963 70.5005 31.5963C71.0559 31.5963 71.5205 31.5162 71.8943 31.356C72.2682 31.1957 72.5459 30.9875 72.7274 30.7311C72.909 30.4642 72.9998 30.1651 72.9998 29.834C72.9998 29.4174 72.8235 29.0864 72.4711 28.8407C72.1186 28.5844 71.5739 28.4242 70.837 28.3601L69.8117 28.28C68.6902 28.1839 67.793 27.8367 67.1202 27.2386C66.458 26.6298 66.1269 25.8288 66.1269 24.8355C66.1269 24.0879 66.3031 23.4471 66.6556 22.913C67.008 22.3683 67.4993 21.9518 68.1295 21.6634C68.7703 21.3644 69.5179 21.2148 70.3724 21.2148C71.2589 21.2148 72.0225 21.3697 72.6633 21.6794C73.3042 21.9892 73.8008 22.4271 74.1533 22.9931C74.5057 23.5485 74.682 24.2054 74.682 24.9637H72.4551C72.4551 24.6433 72.375 24.3496 72.2148 24.0826C72.0652 23.8049 71.8356 23.5859 71.5259 23.4257C71.2268 23.2548 70.8423 23.1694 70.3724 23.1694C69.9238 23.1694 69.55 23.2441 69.2509 23.3937C68.9519 23.5432 68.7276 23.7461 68.5781 24.0024C68.4285 24.2588 68.3538 24.5365 68.3538 24.8355C68.3538 25.1987 68.4873 25.5191 68.7543 25.7968C69.0213 26.0638 69.4432 26.2186 70.0199 26.2614L71.0453 26.3575C71.8783 26.4216 72.6099 26.5978 73.2401 26.8862C73.8702 27.1745 74.3562 27.5644 74.698 28.0557C75.0504 28.547 75.2267 29.1397 75.2267 29.834C75.2267 30.5709 75.0344 31.2224 74.6499 31.7885C74.2654 32.3439 73.7154 32.7764 72.9998 33.0862C72.2949 33.396 71.4618 33.5508 70.5005 33.5508ZM77.3066 33.2464V21.5513H79.5816V33.2464H77.3066ZM79.2611 33.2464V31.2438H84.3077V33.2464H79.2611ZM91.4378 33.5508C90.3805 33.5508 89.462 33.3639 88.6823 32.9901C87.9133 32.6162 87.2724 32.1303 86.7598 31.5322C86.2579 30.9234 85.8786 30.2719 85.6223 29.5777C85.3767 28.8727 85.2538 28.1945 85.2538 27.543V27.1906C85.2538 26.475 85.382 25.7647 85.6383 25.0598C85.8947 24.3442 86.2792 23.6981 86.7918 23.1213C87.3152 22.5446 87.9613 22.0853 88.7303 21.7435C89.4993 21.3911 90.4018 21.2148 91.4378 21.2148C92.4631 21.2148 93.3603 21.3911 94.1293 21.7435C94.8983 22.0853 95.5391 22.5446 96.0518 23.1213C96.5752 23.6981 96.965 24.3442 97.2213 25.0598C97.4776 25.7647 97.6058 26.475 97.6058 27.1906V27.543C97.6058 28.1945 97.4776 28.8727 97.2213 29.5777C96.9757 30.2719 96.5965 30.9234 96.0838 31.5322C95.5819 32.1303 94.9411 32.6162 94.1613 32.9901C93.3923 33.3639 92.4845 33.5508 91.4378 33.5508ZM91.4378 31.4361C92.036 31.4361 92.57 31.3293 93.0399 31.1156C93.5205 30.902 93.9264 30.6083 94.2575 30.2345C94.5993 29.85 94.8556 29.4174 95.0265 28.9368C95.2081 28.4455 95.2988 27.9275 95.2988 27.3828C95.2988 26.7954 95.2081 26.256 95.0265 25.7647C94.8556 25.2734 94.5993 24.8462 94.2575 24.4831C93.9264 24.1199 93.5205 23.8369 93.0399 23.634C92.5593 23.431 92.0253 23.3296 91.4378 23.3296C90.8398 23.3296 90.3003 23.431 89.8197 23.634C89.3391 23.8369 88.9279 24.1199 88.5861 24.4831C88.2551 24.8462 87.9987 25.2734 87.8171 25.7647C87.6463 26.256 87.5608 26.7954 87.5608 27.3828C87.5608 27.9275 87.6463 28.4455 87.8171 28.9368C87.9987 29.4174 88.2551 29.85 88.5861 30.2345C88.9279 30.6083 89.3391 30.902 89.8197 31.1156C90.3003 31.3293 90.8398 31.4361 91.4378 31.4361ZM101.711 33.3265V31.5001H104.643C105.177 31.5001 105.583 31.3559 105.86 31.0676C106.138 30.7686 106.277 30.3627 106.277 29.85C106.277 29.3373 106.138 28.9422 105.86 28.6645C105.583 28.3761 105.177 28.2319 104.643 28.2319H101.711V26.8381H104.482C105.262 26.8381 105.956 26.9342 106.565 27.1265C107.185 27.3081 107.665 27.6178 108.007 28.0557C108.359 28.4936 108.536 29.081 108.536 29.818V30.0423C108.536 30.7365 108.381 31.3293 108.071 31.8206C107.772 32.3012 107.318 32.675 106.709 32.942C106.111 33.1983 105.369 33.3265 104.482 33.3265H101.711ZM99.8044 33.3265V21.4712H102.031V33.3265H99.8044ZM101.711 27.8634V26.4696H104.21C104.755 26.4696 105.155 26.3254 105.412 26.0371C105.668 25.7487 105.796 25.3642 105.796 24.8836C105.796 24.403 105.668 24.0185 105.412 23.7301C105.155 23.4417 104.755 23.2975 104.21 23.2975H101.711V21.4712H104.002C105.326 21.4712 106.33 21.7489 107.014 22.3043C107.708 22.8596 108.055 23.6553 108.055 24.6913V24.9156C108.055 25.6419 107.879 26.224 107.526 26.6619C107.185 27.0891 106.709 27.3988 106.101 27.5911C105.492 27.7727 104.792 27.8634 104.002 27.8634H101.711ZM116.267 33.5508C115.209 33.5508 114.291 33.3639 113.511 32.9901C112.742 32.6162 112.101 32.1303 111.589 31.5322C111.087 30.9234 110.708 30.2719 110.451 29.5777C110.206 28.8727 110.083 28.1945 110.083 27.543V27.1906C110.083 26.475 110.211 25.7647 110.467 25.0598C110.724 24.3442 111.108 23.6981 111.621 23.1213C112.144 22.5446 112.79 22.0853 113.559 21.7435C114.328 21.3911 115.231 21.2148 116.267 21.2148C117.292 21.2148 118.189 21.3911 118.958 21.7435C119.727 22.0853 120.368 22.5446 120.881 23.1213C121.404 23.6981 121.794 24.3442 122.05 25.0598C122.307 25.7647 122.435 26.475 122.435 27.1906V27.543C122.435 28.1945 122.307 28.8727 122.05 29.5777C121.805 30.2719 121.425 30.9234 120.913 31.5322C120.411 32.1303 119.77 32.6162 118.99 32.9901C118.221 33.3639 117.314 33.5508 116.267 33.5508ZM116.267 31.4361C116.865 31.4361 117.399 31.3293 117.869 31.1156C118.349 30.902 118.755 30.6083 119.086 30.2345C119.428 29.85 119.685 29.4174 119.855 28.9368C120.037 28.4455 120.128 27.9275 120.128 27.3828C120.128 26.7954 120.037 26.256 119.855 25.7647C119.685 25.2734 119.428 24.8462 119.086 24.4831C118.755 24.1199 118.349 23.8369 117.869 23.634C117.388 23.431 116.854 23.3296 116.267 23.3296C115.669 23.3296 115.129 23.431 114.649 23.634C114.168 23.8369 113.757 24.1199 113.415 24.4831C113.084 24.8462 112.828 25.2734 112.646 25.7647C112.475 26.256 112.39 26.7954 112.39 27.3828C112.39 27.9275 112.475 28.4455 112.646 28.9368C112.828 29.4174 113.084 29.85 113.415 30.2345C113.757 30.6083 114.168 30.902 114.649 31.1156C115.129 31.3293 115.669 31.4361 116.267 31.4361ZM126.588 33.3105V31.1957H129.007C129.616 31.1957 130.155 31.105 130.625 30.9234C131.106 30.7311 131.512 30.4642 131.843 30.1224C132.174 29.7806 132.425 29.3801 132.596 28.9208C132.777 28.4509 132.868 27.9329 132.868 27.3668C132.868 26.7794 132.777 26.256 132.596 25.7968C132.425 25.3268 132.174 24.9263 131.843 24.5952C131.512 24.2641 131.106 24.0131 130.625 23.8422C130.155 23.6714 129.616 23.5859 129.007 23.5859H126.588V21.4712H128.863C129.92 21.4712 130.844 21.626 131.634 21.9358C132.425 22.2455 133.082 22.6727 133.605 23.2174C134.128 23.7515 134.518 24.3656 134.774 25.0598C135.041 25.7434 135.175 26.4536 135.175 27.1906V27.543C135.175 28.2479 135.041 28.9422 134.774 29.6257C134.518 30.3093 134.128 30.9288 133.605 31.4841C133.082 32.0395 132.425 32.4828 131.634 32.8138C130.844 33.1449 129.92 33.3105 128.863 33.3105H126.588ZM124.633 33.3105V21.4712H126.908V33.3105H124.633ZM135.605 33.2464L139.594 21.5513H143.311L147.412 33.2464H145.073L141.597 23.1053L142.414 23.4577H140.411L141.244 23.1053L137.88 33.2464H135.605ZM138.393 30.1384L139.113 28.2159H143.856L144.56 30.1384H138.393Z" fill="black"></path></g><defs><clipPath id="clip0_591_4294"><rect width="82.9307" height="13.1935" fill="black" transform="translate(65.0693 20.9961)"></rect></clipPath></defs></svg> 