<?xml version="1.0" encoding="UTF-8"?>
<!DOCTYPE svg PUBLIC "-//W3C//DTD SVG 1.1//EN" "http://www.w3.org/Graphics/SVG/1.1/DTD/svg11.dtd">
<!-- Creator: CorelDRAW -->
<svg xmlns="http://www.w3.org/2000/svg" xml:space="preserve" width="158.75mm" height="39.6874mm" version="1.1" style="shape-rendering:geometricPrecision; text-rendering:geometricPrecision; image-rendering:optimizeQuality; fill-rule:evenodd; clip-rule:evenodd"
viewBox="0 0 15874.98 3968.74"
 xmlns:xlink="http://www.w3.org/1999/xlink"
 xmlns:xodm="http://www.corel.com/coreldraw/odm/2003">
 <defs>
  <style type="text/css">
   <![CDATA[
    .fil1 {fill:#030303}
    .fil3 {fill:#A8AD00}
    .fil2 {fill:#030303;fill-rule:nonzero}
    .fil0 {fill:#A8AD00;fill-rule:nonzero}
   ]]>
  </style>
 </defs>
 <g id="Слой_x0020_1">
  <metadata id="CorelCorpID_0Corel-Layer"/>
  <g id="_2455661552928">
   <path class="fil0" d="M6521.41 1437.79c-13.32,-60.63 -42.18,-116.91 -83.51,-163.17 -43.92,-49.42 -96.47,-90.81 -154.85,-121.81 -62.38,-33.64 -129.32,-58.65 -198.55,-73.92 -62.71,-13.98 -127.1,-21.13 -191.4,-21.13 -10.28,0 -20.95,0.21 -31.14,0.54 -18.43,-33.07 -39.14,-65.35 -61.42,-95.92 -10.82,-15.06 -22.42,-30.1 -34.15,-44.43 -7.72,-9.32 -15.75,-18.31 -23.69,-27.3l3.19 -2.37 8.84 -6.86 2.22 -1.83 1.27 -1.02 5.17 -4.21c6.25,-5.26 12.53,-10.89 18.45,-16.54l0.97 -0.96 0.39 -0.33 0.57 -0.63c5.71,-5.56 11.39,-11.39 16.74,-17.35l3.97 -4.59 1.74 -1.99 2.8 -3.25c1.74,-2.07 3.03,-4.29 4.78,-6.43 3.58,-4.6 7.48,-9.23 10.73,-14.01 1.26,-1.74 2.13,-3.66 3.34,-5.5 0.87,-1.35 2.07,-2.61 2.94,-3.97 1.27,-2.07 2.14,-4.2 3.34,-6.19 3.67,-6.19 7,-12.41 9.95,-18.7 1.02,-1.98 2.37,-3.96 3.25,-6.04 0.63,-1.5 0.96,-3.04 1.59,-4.54 0.87,-2.13 2.07,-4.15 2.86,-6.19 1.68,-4.6 2.79,-9.32 4.14,-13.92 0.73,-2.31 1.84,-4.6 2.38,-6.91l0.48 -2.38c2.43,-9.74 4.06,-19.66 4.87,-29.61l1.92 -24.83 -0.33 1.93c0.78,-9.23 0.87,-18.52 0.24,-27.84 -3.54,-39.32 -19.75,-76.48 -46.14,-105.79 -29.22,-32.34 -65.02,-58.22 -104.91,-75.84 -45.7,-20.65 -94.39,-34.81 -144.09,-41.69 -55.67,-7.97 -112.15,-9.32 -168.07,-3.97 -54.83,5.02 -109.27,16.29 -161.7,33 -24.41,7.97 -48.27,17.2 -71.57,27.84 -21.95,10.1 -43.26,21.46 -63.88,34.21 -38.54,-9.77 -78.04,-18.22 -117.15,-24.83 -19.57,-3.22 -39.68,-6.61 -59.61,-9.23 -18.13,-2.37 -54.8,-6.43 -54.8,-6.43 -1.14,-25.1 -7.03,-49.9 -17.26,-72.9 -15.39,-30.21 -39.14,-55.46 -68.38,-72.63 -32.05,-16.62 -66.89,-27.53 -102.69,-32.19 -23.03,-3.13 -46.27,-4.75 -69.5,-4.75 -20.05,0 -40.29,1.26 -60.16,3.54 -89.79,10.05 -176.79,39.05 -254.82,84.57 -34.63,20.08 -66.68,44.7 -95.06,72.89 -25.1,24.56 -45.21,53.93 -59.01,86.25 -58.29,15.81 -116.45,34.36 -173.09,55.19 -18.85,6.86 -37.54,14.01 -56.15,21.31 -10.94,-8.89 -23.09,-16.38 -35.99,-22.24 -14.3,-6.52 -29.36,-11.51 -44.7,-14.91 -17.19,-3.82 -34.87,-6.25 -52.45,-7.06 -6.68,-0.31 -13.5,-0.52 -20.2,-0.52 -13.05,0 -26.13,0.67 -39.05,1.87 -43.32,4.24 -86.07,13.59 -127.22,27.68 -41.85,14.16 -82.01,32.53 -120.1,54.81 -36.79,21.25 -71.39,46.86 -102.62,75.69 -29.01,26.42 -53.84,57.24 -73.5,91.17 -8.51,15.12 -15.42,31.03 -20.53,47.56 -4.45,14.46 -6.98,29.55 -7.4,44.67 -0.39,13.83 1.5,27.6 5.56,40.79 4.93,12.57 10.88,24.65 17.89,36.2 -40.55,35.77 -80.75,74.04 -118.23,113 -12.72,13.19 -25.37,26.63 -37.7,40.25l-15.12 -0.15c-46.14,1.98 -91.84,10.64 -135.54,25.46 -46.81,15.66 -91.93,36.52 -134.14,61.93 -43.59,25.94 -84.32,56.48 -121.38,90.99 -36.65,33.79 -69.02,72.39 -95.87,114.41 -23.93,36.59 -40.97,77.38 -50.26,120.1 -6.19,34.99 -4.21,70.79 5.8,104.76 9.71,27.36 26.88,51.46 49.54,69.5 8.27,8.51 17.41,15.99 27.3,22.43 10.73,6.91 22.03,12.71 33.88,17.4 13.13,5.08 26.63,8.99 40.4,11.61 14.55,2.79 29.43,4.53 44.22,5.11 -2.95,12.65 -5.95,25.28 -8.42,37.93 -7.27,36.86 -12.74,74.55 -16.26,111.8 -1.56,18.55 -3.1,37.67 -3.73,56.27 -84.98,53.21 -159.62,121.57 -220.26,201.29 -20.86,27.66 -39.98,57.03 -56.93,87.3 -31.72,55.31 -54.59,115.61 -67.52,178.11 -5.53,26.34 -8.36,53.24 -8.36,80.14 0,28.14 3.13,56.37 9.17,83.78 10.97,49.06 36.05,93.86 72.15,128.85 11.12,10.1 23.06,19.42 35.56,27.83l21.95 14.16c15.66,10.13 32.58,18.61 50.11,25.07 18.97,7.16 38.78,12.36 58.83,15.42l3.96 0.58 3.97 0.63 3.91 0.48 3.97 0.48c9.77,1.08 19.69,1.83 29.46,2.13l1.8 0.03c4.24,0.12 8.57,0.21 12.84,0.21 9.32,0 18.64,-0.33 27.9,-0.99l6.04 -0.48 0.78 0 0.78 -0.15 4.84 -0.39c12.33,-1.26 24.68,-3.04 36.83,-5.23l6.37 -1.26 1.35 -0.24 3.91 -0.79c15.18,-3.12 30.48,-7.03 45.39,-11.48l0.03 0.06c14.82,-4.48 29.61,-9.59 44.07,-15.15l5.56 -2.22 1.26 -0.4 4.15 -1.68c14.82,-5.95 29.64,-12.71 44.01,-19.84l1.02 -0.48 0.21 0 0.25 -0.24c14.63,-7.19 29.43,-15.21 43.55,-23.51l4.78 -2.79 1.21 -0.79 5.26 -3.09c13.34,-8.18 26.81,-16.96 39.71,-25.94 11.12,11.21 21.94,22.42 33.58,33.39 17.64,16.39 175.52,143.18 176.72,143.97 -29.82,78.36 -46.38,161.45 -48.88,245.29 -0.18,6.65 -0.33,13.5 -0.33,20.17 0,73.23 12.84,145.98 37.82,214.76 26.45,73.47 69.71,139.84 126.05,193.92 33.88,31.9 72.38,58.53 114.29,78.91 -3.82,-1.92 -7.73,-3.57 -11.36,-5.56l19.08 10.01c34.21,17.89 70.86,31.48 108.47,40.29l5.17 1.2 5.17 1.11 5.17 1.11 5.17 1.02 7.54 1.27 6.77 1.11 6.19 1.11c6.91,0.96 13.77,1.84 20.68,2.56l0.96 0.09 3.67 0.33c5.41,0.57 10.82,1.02 16.14,1.35 3.04,0.24 5.95,0.24 8.9,0.39l7.31 0.33 4.69 0.15c5.56,0.15 11.12,0.15 16.71,0.15l5.32 -0.15 5.17 -0.15c2.07,0 4.15,0 6.13,-0.15l16.72 -0.96 4.54 -0.39 5.02 -0.48 7.24 -0.63c5.08,-0.57 10.1,-1.12 15.18,-1.84l5.08 -0.78 4.15 -0.57 5.95 -0.87c5.02,-0.81 10.13,-1.81 15.09,-2.74 2.38,-0.39 4.78,-0.96 7.07,-1.44l3.67 -0.78 4.44 -0.78 14.31 -3.43 10.25 -2.62 1.36 -0.33 0.78 -0.24 1.92 -0.48c9.53,-2.58 19.15,-5.47 28.53,-8.51l0.48 -0.15 1.02 -0.39c8.72,-2.82 17.65,-6.04 26.25,-9.25l3.24 -1.36 3.19 -1.2 7.24 -2.86 13.68 -5.74 6.44 -2.94 3.66 -1.6 3.58 -1.59c8,-3.67 15.99,-7.67 23.84,-11.66l2.37 -1.21 0.97 -0.39c9.16,-4.75 18.36,-9.86 27.2,-14.97l0.57 -0.33 1.93 -1.11c8.2,-4.72 16.62,-9.83 24.68,-14.94l2.37 -1.59 2.95 -1.93 8.02 -5.26c4.84,-3.18 9.62,-6.52 14.31,-9.86l3.34 -2.37 3.34 -2.38 7.54 -5.5 13.92 -10.58 3.34 -2.71 1.35 -1.02 0.78 -0.72 8.27 -6.52c14.97,-12.24 29.7,-25.25 43.62,-38.63l0.78 -0.78 0.96 -0.78c16.2,-15.52 32.1,-32.2 46.89,-49.06l1.84 -2.08 1.59 -1.68c11.36,-13.23 22.73,-27.24 33.28,-41.16l5.89 -8.26c2.86,-3.82 5.56,-7.73 8.27,-11.55 11.3,-15.9 22.18,-32.13 32.37,-48.84l3.19 -4.78 0.78 -1.6 1.59 -2.55c12.75,-21.5 24.62,-44.04 35.18,-66.68 2.7,-5.56 5.56,-10.97 8.02,-16.62 5.89,-13.14 11.31,-26.4 16.48,-39.92l1.2 -2.8c5.65,-14.88 10.88,-29.91 15.66,-45.09 1.68,-5.26 3.04,-10.67 4.54,-15.99l4.21 -14.64c5.41,-19.96 10.34,-40.1 14.31,-60.52l0.15 -0.96 0.15 -1.02 0.15 -0.96 0.15 -0.96c32.58,-5.29 65.14,-11.97 97.46,-18.88l5.08 -1.11 1.35 -0.24 1.98 -0.58c7.97,-1.74 16.06,-3.48 24.02,-5.41 15.75,-3.66 31.51,-7.54 47.17,-11.6 8.2,-2.07 16.38,-4.39 24.59,-6.61 1.83,-0.48 3.72,-0.88 5.56,-1.45l4.39 -1.26 12.41 -3.34c26.85,-7.51 55.04,-16.35 81.62,-24.95l4.15 -1.2 2.13 -0.78 5.41 -1.74c30.87,-10.16 62.56,-21.68 92.92,-33.22l0 0.18c26.57,35.95 56.49,69.35 89.25,99.83 108.37,100.1 244.04,166.27 389.68,189.84l6.2 0.96 6.37 0.96 6.37 0.87 6.28 0.78c8.27,1.12 16.48,2.08 24.74,2.8l11.94 0.96 4.78 0.33 7.96 0.63c14.4,0.79 29.07,1.24 43.56,1.24 1.81,0 3.76,0 5.53,0l3.16 0.03 2.47 -0.09 13.67 -0.33c12.81,-0.46 25.86,-1.24 38.57,-2.38l7.16 -0.78 3.03 -0.24c2.95,-0.33 5.89,-0.57 8.75,-0.96 16.62,-1.93 33.43,-4.69 49.87,-7.76l0.33 0.03 0.15 -0.09 0.63 -0.15c16.15,-3.07 32.26,-6.91 48.13,-11.18l8.75 -2.56 2.13 -0.57 4.54 -1.35c15.06,-4.42 30.09,-9.5 44.76,-15.06l5.17 -1.99 2.08 -0.78 7.15 -2.85c14.34,-5.81 28.65,-12.21 42.42,-19.06l2.37 -1.2 1.27 -0.64c16.8,-8.53 33.45,-17.82 49.36,-27.71l0.48 -0.24 0.33 -0.24 0.96 -0.57c13.68,-8.54 27.24,-17.86 40.22,-27.54l4.39 -3.43 2.08 -1.59 7.06 -5.41c8.78,-6.89 17.5,-14.28 25.91,-21.77l7.73 -7.15 2.37 -2.13 3.97 -3.67c9.14,-8.72 18.25,-17.83 26.82,-27.09l6.13 -6.91 2.13 -2.38 4.3 -4.78c10.22,-11.87 20.08,-24.28 29.22,-36.94l0.39 -0.57 0.15 -0.24 0.48 -0.57c9.38,-13.02 18.37,-26.61 26.61,-40.38l1.44 -2.7c1.92,-3.19 3.49,-6.52 5.32,-9.77 4.6,-8.21 9.38,-16.38 13.59,-24.89 1.59,-3.19 2.79,-6.37 4.21,-9.56 2.37,-4.84 4.54,-9.86 6.76,-14.88 2.07,-4.78 4.45,-9.56 6.37,-14.31 2.47,-6.13 4.45,-12.48 6.68,-18.7 1.74,-4.78 3.48,-9.56 5.08,-14.31 0.78,-2.37 1.83,-4.69 2.55,-7.06 4.21,-13.53 7.97,-27.21 11.12,-41.12l4.21 -18.22c-0.24,0.96 -0.63,1.83 -0.78,2.79 9.77,-41.93 14.79,-85.13 14.79,-128.24 0,-14.82 -0.63,-29.79 -1.77,-44.55 -3.49,-45.27 -12.3,-90.21 -26,-133.5 -13.29,-41.84 -31.06,-82.55 -52.7,-120.81 -21.19,-37.58 -46.15,-73.2 -74.04,-106.12 -25.58,-29.94 -53.81,-58.11 -83.93,-83.48 11.93,-19.33 23.69,-38.66 34.69,-58.23 26.6,-47.88 51.85,-97.66 74.16,-147.63 11.12,-24.59 21.7,-49.15 31.8,-73.89l5.56 0.24 5.57 0.15 5.41 0.09 5.56 0.09c7.15,0.16 14.31,0.16 21.46,0l7.64 -0.15 4.39 -0.09 9.47 -0.24c12.8,-0.36 26.12,-1.32 39.01,-2.37l1.75 -0.15 1.35 -0.15c16.2,-1.38 32.41,-3.46 48.4,-5.8l0.54 0.03 0.57 -0.15c15,-2.2 30.33,-5.11 45.15,-8.18l2.47 -0.63 0.63 -0.09 0.87 -0.24 10.25 -2.32c9.17,-2.13 18.37,-4.48 27.33,-6.91l8.02 -2.38 1.6 -0.39 3.48 -0.96c12.72,-3.85 25.5,-8.11 37.97,-12.56l2.38 -0.97 1.5 -0.48 8.27 -3.18c11.12,-4.09 22.3,-8.78 33.12,-13.62l1.02 -0.48 1.36 -0.63c11.42,-5.26 22.84,-10.86 33.91,-16.69l3.81 -2.07 0.79 -0.39 0.78 -0.48 5.8 -3.19c10.22,-5.74 20.26,-11.9 30.06,-18.31l0.96 -0.57 1.35 -0.78c11.07,-7.3 21.98,-15.21 32.44,-23.3l0.15 -0.15c10.46,-8.14 20.74,-16.89 30.45,-25.85l0.78 -0.78 0.79 -0.63c6.82,-6.47 13.58,-13.26 20.02,-20.14l5.08 -5.65 1.59 -1.6 1.2 -1.5 4.15 -4.69c3.91,-4.54 7.64,-9.14 11.21,-13.77 2.08,-2.61 3.97,-5.32 5.9,-7.96l2.22 -3.04 2.32 -3.19c3.33,-4.78 6.52,-9.56 9.55,-14.31l5.42 -9.23 3.18 -5.5c0.78,-1.44 1.84,-2.85 2.62,-4.39 3.45,-6.25 6.73,-12.77 9.77,-19.35l1.74 -4.21 2.32 -5.56c1.44,-3.34 2.94,-6.68 4.2,-10.11 2.47,-6.58 4.81,-13.37 6.83,-20.11l7.48 -24.98c-2.61,8.84 -6.04,17.5 -9.56,26.1 14.37,-35.08 21.86,-72.78 21.86,-110.72 0,-19.9 -2.08,-39.8 -6.07,-59.25l-0.12 -0.03zm-708.51 1218.01c0,5.57 0,11.13 -0.33,16.72 -0.09,3.82 -0.39,7.72 -0.64,11.6 -4.38,40.76 -15.3,80.78 -32.04,118.23 -25.94,56.76 -64.63,106.9 -112.91,146.37 -50.59,41.42 -109.51,71.57 -172.76,88.44 -43.44,11.48 -88.32,17.43 -133.23,17.43 -25.16,0 -50.47,-1.89 -75.3,-5.5 -69.44,-9.8 -136.57,-33.06 -197.26,-68.24 -56.28,-32.49 -106.21,-75.27 -146.97,-125.77 -32.68,-40.67 -58.53,-86.58 -76.36,-135.67 -3.82,-11.48 -7.15,-23.38 -9.95,-35.17l-0.24 -1.02c-3.4,-15.12 -6.04,-30.54 -7.75,-45.96l-0.09 -0.78c-1.51,-14.64 -2.35,-29.52 -2.35,-44.25 0,-0.61 0,-1.3 0,-1.9l0 -1.83c0.09,-15.69 1.14,-31.39 3.04,-46.9 0.24,-2.13 0.78,-4.21 1.11,-6.37 2.01,-14.55 5.02,-29.1 8.66,-43.35 1.26,-5.08 2.85,-10.01 4.39,-14.94 3.18,-10.88 6.91,-21.46 10.97,-31.89 1.98,-4.93 3.91,-9.77 5.95,-14.55 5.02,-11.34 10.67,-22.49 16.71,-33.19 1.6,-2.95 3.04,-5.95 4.78,-8.84 13.83,-23.21 30.06,-45.12 48.19,-65.14l1.26 -1.35c8.6,-9.38 17.65,-18.31 27.06,-26.88l0.78 -0.78c9.62,-8.6 19.66,-16.86 30.06,-24.65l0.57 -0.39c10.49,-7.88 21.41,-15.18 32.62,-22.19l0.39 -0.24c11.36,-6.91 23.06,-13.37 34.99,-19.33l0.57 -0.33c11.94,-5.89 24.26,-11.3 36.92,-16.23l0.57 -0.24c12.65,-4.93 25.52,-9.38 38.75,-13.2l0.78 -0.24c13.14,-3.81 26.48,-7.15 40.25,-9.86l1.02 -0.15c13.68,-2.7 27.51,-4.84 41.67,-6.37l1.26 -0.24c14.25,-1.5 28.65,-2.38 43.35,-2.8l0.42 0.03c3.3,-0.06 6.94,-0.12 10.31,-0.12 134.16,0 263.72,49.97 363.2,139.94 44.91,40.46 82.3,88.98 109.84,142.79 30.87,60.42 47.35,127.43 47.77,195.3l-0.03 0zm-186.68 -2101.5c28.22,13.28 53.3,32.46 73.32,56.3 18.75,20.53 29.43,47.17 29.91,74.91 -2.38,21.95 -10.34,42.96 -23.3,60.76 -19.63,29.34 -45.15,54.38 -74.73,73.65 -34.84,23.23 -72.93,41.36 -113.03,53.78 -44.37,14 -90.61,22.3 -137.11,24.5 -8.93,0.48 -18.07,0.78 -27.05,0.78 -35.3,0 -70.68,-3.88 -105.13,-11.49 -35.98,-7.72 -70.37,-21.55 -101.66,-40.82 -26.49,-14.76 -49.12,-35.62 -66.02,-60.81 -6.37,-11.13 -53.12,-93.46 81.2,-187.94 35.95,-23.87 75.09,-42.57 116.21,-55.59l0.39 -0.09c9.14,-3.03 18.52,-5.74 28.08,-8.26l0.72 -0.24c9.56,-2.38 19.09,-4.78 29.04,-6.68l0.87 -0.24c10.01,-1.98 20.14,-3.82 30.21,-5.23l0.3 0.03c10.5,-1.47 21.17,-2.7 31.69,-3.58 14.55,-1.2 29.22,-1.89 43.83,-1.89 26.39,0 52.9,2.16 78.91,6.22 35.8,5.5 70.7,16.3 103.41,31.99l-0.06 -0.06zm113.51 1174.36c-50.38,-16.53 -97.88,-41.27 -140.39,-73.02 -36.55,-26.93 -67.27,-61.23 -90.09,-100.52 -16.77,-29.7 -26.84,-62.92 -29.28,-96.95 0.39,-10.19 1.59,-20.29 3.43,-30.3 0.63,-3.58 1.59,-7.06 2.37,-10.58 1.84,-7.64 4.06,-15.12 6.68,-22.58 1.26,-3.42 2.46,-6.91 3.96,-10.34 3.34,-8.2 7.16,-16.14 11.55,-23.87 1.2,-2.13 2.13,-4.38 3.42,-6.37 10.5,-17.25 22.88,-33.43 36.74,-48.13l1.02 -1.11c6.89,-7.09 14.13,-13.95 21.58,-20.35l0.64 -0.57c7.78,-6.61 15.9,-12.96 24.5,-19.09l0.39 -0.24c8.74,-6.13 17.73,-11.93 27.2,-17.5l0.24 -0.15c9.47,-5.56 19.24,-10.82 29.43,-15.75l0.57 -0.24c10.22,-4.93 20.9,-9.56 31.45,-13.68l0.39 -0.15c10.88,-4.3 22.03,-8.2 33.4,-11.69l0.78 -0.24c11.3,-3.49 22.99,-6.67 34.99,-9.47l0.78 -0.24c11.93,-2.71 24.17,-5.08 36.67,-7.16l1.12 -0.15c12.56,-1.98 25.37,-3.57 38.41,-4.78l0.37 0c18.21,-1.56 36.67,-2.46 54.98,-2.46 49.12,0 98.18,5.92 145.88,17.56 49.54,12.02 97.04,31.02 141.17,56.48 40.97,23.39 77.32,54.02 107.23,90.36 28.07,33.79 46.92,74.37 54.65,117.63 1.86,11.52 2.82,23.21 2.82,34.9 0,9.5 -0.63,19.09 -1.86,28.47 -0.39,2.95 -1.11,5.8 -1.59,8.75 -2.8,9.14 -6.2,18.13 -10.1,26.96 -19.87,41.37 -49.48,77.32 -86.31,104.59 -42.59,31.92 -90.87,55.76 -142.07,70.25 -52.48,15.18 -107.04,22.94 -161.73,22.94 -5.83,0 -11.78,-0.16 -17.55,-0.28 -60.39,-1.38 -120.49,-11.9 -177.81,-31.02l-0.03 0.09zm-988.26 -1287.84c5.8,7.15 10.1,15.42 12.42,24.35 0.45,3.12 0.66,6.28 0.66,9.47 0,6.34 -0.87,12.71 -2.56,18.81 -6.37,25.62 -18.85,49.24 -36.43,68.81 -20.95,23.96 -45.48,44.67 -72.69,61.24 -30.78,19 -63.64,34.27 -98.06,45.48 -35.86,11.93 -73.11,19.42 -110.8,22.28 -33.58,2.94 -67.37,0.78 -100.29,-6.38 -25.64,-5.29 -49.99,-16.02 -71.21,-31.41 -14.1,-9.29 -25.19,-22.64 -31.72,-38.24 -0.48,-1.53 -0.84,-3.1 -1.05,-4.69l0 -0.33c-0.54,-4.12 -0.81,-8.3 -0.81,-12.44 0,-0.94 0.03,-1.9 0.06,-2.83l-0.06 -0.63c0.24,-5.32 0.87,-10.67 1.86,-15.9l0 -0.33c1.21,-5.75 2.71,-11.37 4.6,-16.87 0.33,-0.78 0.79,-1.59 1.12,-2.55 2.19,-5.84 4.81,-11.64 7.72,-17.17l3.49 -6.04c2.55,-4.45 5.32,-8.84 8.36,-13.2l4.38 -6.04c3.67,-4.78 7.55,-9.56 11.7,-14.16l3.43 -3.91 3.18 -3.09c9.08,-9.47 18.76,-18.31 29.1,-26.4l0.39 -0.39c11.85,-9.23 24.35,-17.88 37.28,-25.61l0.15 -0.09c13.59,-8.21 27.68,-15.66 42.14,-22.27l0.15 -0.1c15.03,-6.82 30.49,-13.01 46.03,-18.27l0.21 0c15.99,-5.41 32.28,-9.95 48.85,-13.53l0.33 -0.15c16.68,-3.67 33.82,-6.46 50.83,-8.18 13.53,-1.47 27.24,-2.25 40.85,-2.25 13.83,0 27.81,0.81 41.58,2.31 23.3,2.56 46.14,8.42 67.76,17.41 18.24,7.45 34.78,18.64 48.51,32.77 3.07,3.27 5.96,6.79 8.6,10.43l-0.06 0.09zm-1353.71 398.22c3.43,-6.05 7.16,-12.09 11.31,-18.07 4.78,-6.89 9.95,-13.68 15.36,-20.11l5.32 -6.38c4.45,-4.93 9.14,-9.86 14.01,-14.69l3.9 -3.97 3.49 -3.19c10.34,-9.56 21.07,-18.7 32.38,-27.11l0.48 -0.4c12.59,-9.34 25.7,-18.12 39.2,-26.03l0.15 -0.09c13.8,-8.05 28.19,-15.57 42.71,-22.24l0.15 -0.15c14.7,-6.74 29.76,-12.72 45.07,-17.86l0.12 0.03c15.12,-5.17 30.63,-9.38 46.2,-12.72l0.39 -0.15c15.36,-3.24 30.93,-5.56 46.6,-7 19.08,-1.68 38.32,-1.44 57.41,0.78 16.24,1.83 32.23,5.89 47.41,11.94 13.14,5.17 25.22,12.65 35.8,22.03 4.78,4.39 9.14,9.23 12.96,14.55 1.83,2.46 3.33,5.17 4.51,7.97 0.96,2.55 1.59,5.17 1.98,7.87 3.19,22.76 -0.33,45.97 -10.1,66.83 -12.05,26.72 -28.95,51.13 -49.72,71.84 -23.66,24.08 -50.41,45.19 -79.36,62.56 -30.54,18.58 -63.31,33.82 -97.25,45 -33.1,11.12 -67.46,17.83 -102.3,19.87 -5.26,0.36 -10.58,0.57 -15.84,0.57 -23.75,0 -47.47,-3.69 -70.1,-10.88 -20.8,-6.46 -39.41,-18.7 -53.6,-35.23 -2.68,-5.26 -4.81,-10.82 -6.34,-16.5l0 -0.24c-0.94,-4.15 -1.6,-8.45 -1.93,-12.72l-0.03 -0.3c-0.18,-2.62 -0.27,-5.26 -0.27,-7.88 0,-1.8 0.06,-3.63 0.15,-5.41l0 -0.39c0.57,-9.65 2.35,-19.21 5.26,-28.41l0.24 -0.78c1.45,-4.6 3.19,-9.38 5.17,-14.31l0.48 -0.96c2.14,-5.05 4.54,-10.1 7.13,-14.94l1.59 -2.7 -0.09 -0.03zm-184.75 603.83c-17.5,33.76 -40.19,64.84 -66.95,91.87 -57.29,58.74 -128.03,102.9 -206.04,128.54 -34.21,11.36 -70.16,17.19 -106.23,17.19 -1.15,0 -2.35,0 -3.49,0 -0.24,-0.03 -0.48,-0.03 -0.72,-0.03 -29.67,0 -58.95,-7.51 -84.92,-21.79 -5.84,-3.43 -11.37,-7.37 -16.48,-11.75 -2.61,-3.16 -5.08,-6.53 -7.33,-9.95l-0.24 -0.4c-3.7,-6.34 -6.77,-13.07 -9.14,-20.05l-0.15 -0.39c-2.41,-7.12 -4.15,-14.49 -5.2,-21.94l0 -0.24c-1.11,-7.97 -1.51,-15.9 -1.2,-23.87l0 -0.39c0.33,-8.51 1.26,-16.96 2.85,-25.28l0 -0.15c1.74,-8.99 4.06,-17.89 7.01,-26.58l0.15 -0.48c3.09,-9.23 6.76,-18.3 10.88,-27.2l0.33 -0.57c4.54,-9.71 9.56,-19.09 15.12,-28.23l2.22 -3.43c4.78,-7.78 10.01,-15.42 15.52,-22.99l6.13 -7.97c4.57,-5.8 9.32,-11.69 14.13,-17.29l6.91 -7.96c5.65,-6.19 11.54,-12.33 17.65,-18.31 1.59,-1.59 3.09,-3.25 4.78,-4.78l4.29 -3.97c12.42,-11.69 25.47,-22.75 38.96,-33.15l0.58 -0.4c14.69,-11.12 29.97,-21.46 45.72,-31.02l0.24 -0.09c15.6,-9.47 31.8,-18.07 48.37,-25.76l0.12 0c16.23,-7.55 32.76,-14.16 49.72,-19.72l0.39 -0.09c8.21,-2.71 16.29,-5.08 24.5,-7.16l0.63 -0.24c8.06,-2.04 16.26,-3.9 24.38,-5.41l0.78 -0.09c8.12,-1.59 16.23,-2.7 24.26,-3.57l0.21 0c8.21,-0.97 16.29,-1.45 24.26,-1.6 14.88,-0.48 29.76,0.48 44.37,2.86 12.9,2.13 25.52,5.65 37.61,10.67 10.97,4.54 21.22,10.49 30.54,17.83 5.89,4.29 11.12,9.47 15.42,15.27 10.97,18.6 15.75,40.16 13.83,61.65 -1.66,30.9 -10.16,61.15 -24.77,88.41zm-111.92 1050.79c-34.99,41.36 -75.57,77.94 -120.42,108.49 -42.33,29.15 -89.17,51.91 -138.38,67 -31.35,9.89 -64.12,14.97 -97.06,14.97 -13.11,0 -26.34,-0.81 -39.32,-2.4 -27.93,-3.7 -54.89,-13.08 -79.06,-27.51 -6.5,-5.86 -12.93,-11.96 -19,-18.16 -5.08,-6.25 -10.31,-13.07 -15.21,-19.57 -7.55,-11.36 -13.86,-23.53 -18.76,-36.16l-0.33 -0.96c-2.47,-6.43 -4.63,-13.08 -6.43,-19.72l-0.09 -0.39c-3.7,-14.28 -6.17,-28.89 -7.31,-43.53l-0.09 -0.63c-0.51,-6.92 -0.78,-13.86 -0.78,-20.8 0,-0.57 0,-1.12 0,-1.69l0 -0.78c0.12,-7.72 0.6,-15.54 1.29,-23.21l0 -0.39c1.56,-16.53 4.36,-33.09 8.24,-49.27l0.09 -0.48c2.01,-8.23 4.36,-16.68 6.91,-24.77l0.33 -0.96c2.62,-8.27 5.56,-16.53 8.75,-24.98l0.24 -0.39c3.19,-8.12 11.06,-25.94 11.36,-26.73 3.91,-8.35 8.03,-16.71 12.57,-25.13 0.87,-1.74 15.66,-27.29 22.67,-38.02 2.46,-3.91 19.33,-27.99 25.46,-35.96l8.66 -11.12c7,-8.75 25.85,-30.21 27.92,-32.47 17.08,-18.36 35.5,-35.68 54.86,-51.64 8.75,-7.3 17.74,-14.31 26.82,-21.07l0.78 -0.57c9.23,-6.77 18.52,-13.2 28.08,-19.33l0.48 -0.33c9.56,-6.2 19.24,-12.03 29.04,-17.5l0.33 -0.15c9.86,-5.5 19.72,-10.58 29.67,-15.36l0.57 -0.24c9.86,-4.69 19.81,-8.99 29.76,-12.9l0.57 -0.33c10.01,-3.91 20.05,-7.39 30.06,-10.49l0.57 -0.24c9.74,-3.01 19.87,-5.71 29.85,-7.94l0.78 -0.15c9.86,-2.22 19.72,-3.96 29.58,-5.32l0.97 -0.15c9.86,-1.35 19.72,-2.22 29.52,-2.61l0.27 0c9.86,-0.39 19.72,-0.24 29.58,0.39 14.01,0.78 27.98,2.85 41.66,6.13 12.72,3.04 25.13,7.31 37.07,12.72 11.36,5.08 22.27,11.36 32.28,18.69 7.16,5.57 13.83,11.55 20.05,18.07 7.31,9.56 13.77,19.66 19.09,30.39 15.66,33.58 22.91,70.41 21.23,107.38 -1.99,45.96 -12.78,91.33 -31.45,133.35 -21.19,48.82 -49.69,94.39 -84.26,134.86l-0.06 0.06zm1677.44 -1846.68l0.39 -0.4 1.02 -0.78c6.07,-5.29 11.99,-10.79 17.71,-16.41l0.48 -0.48 2.13 -2.23c3.97,-3.9 7.73,-7.78 11.3,-11.69l2.86 -3.19 4.69 -5.56 5.17 -5.95c1.83,-2.22 3.43,-4.54 5.08,-6.76 1.35,-1.84 2.8,-3.58 4.06,-5.41l2.13 -2.86c3.58,-5.02 6.92,-10.01 9.95,-15.12 46.72,5.74 93.25,13.95 139.25,23.99 8.74,1.98 17.49,4.21 26.24,6.37 -3.67,4.21 -7.88,8.27 -11.21,12.72 -8.12,10.25 -15.43,21.16 -21.89,32.52 -6.25,11.01 -11.63,22.52 -15.93,34.33 -7.49,20.93 -11.36,43.05 -11.36,65.3 0,15.3 1.8,30.54 5.41,45.39 5.89,32.04 19.66,62.19 40.1,87.66 24.41,29.21 54.38,53.41 88.11,71.09 40.88,21.7 84.89,37.43 130.31,46.53 54.08,10.19 108.97,14.49 164.01,12.9 4.99,0.09 10.29,0.21 15.34,0.21 77.1,0 153.37,-17.1 223.05,-49.96 27.14,33.04 52,68.21 74.07,104.79 3.34,5.56 6.43,11.37 9.71,17.02 -47.26,11.6 -93.28,28.25 -136.93,49.66 -43.2,21.19 -83.39,48.31 -119.25,80.41 -33.07,29.52 -60.84,64.84 -81.71,104.01 -22.81,43.17 -34.81,91.39 -34.81,140.27 0,6.73 0.27,13.52 0.69,20.23l1.69 22.81c3.27,42.06 14.91,83.15 34.18,120.67 21.22,41.27 49.15,78.73 82.54,110.8 37.94,36.59 80.57,67.94 126.95,93.07 50.11,27.21 103.17,48.52 158.12,63.64 -4.93,12.18 -9.77,24.41 -15.27,36.59 -17.31,38.66 -36.7,76.65 -57.63,113.27 -10.82,18.75 -22.12,37.54 -33.87,56.06 -91.69,-45.06 -191.91,-71.06 -293.88,-76.11 -12.27,-0.64 -24.83,-0.97 -37.22,-0.97 -66.85,0 -133.47,9.56 -197.56,28.23 -70.61,20.74 -137.44,53.57 -196.84,96.83 -58.2,42.38 -108.07,95.5 -146.79,156.17 -40.49,63.75 -67.3,135.36 -78.79,209.97 -4.5,28.62 -6.76,57.66 -6.76,86.7 0,20.53 1.17,41.24 3.37,61.62 2.7,24.83 6.91,49.48 12.71,73.8 5.96,24.65 13.44,49 22.28,72.69 -51.5,18.76 -104.64,35.86 -157.55,50.38 -49.96,13.65 -101.25,25.95 -152.32,35.47l-0.39 -3.66 -0.96 -6.92c-1.66,-12.83 -4.03,-25.76 -6.56,-38.44l0 -0.4 -0.15 -0.24 -0.33 -1.59c-4.21,-20.29 -9.62,-40.64 -15.96,-60.42l-0.09 -0.48 -0.15 -0.24 -0.48 -1.6c-6.22,-18.97 -13.56,-37.78 -21.74,-55.91l-0.15 -0.48 -0.15 -0.33 -0.87 -1.99c-5.17,-11.36 -10.88,-22.69 -16.83,-33.69l-2.47 -4.39 -2.46 -4.39 -2.56 -4.39 -2.46 -4.3 -10.19 -17.01c1.2,1.98 2.07,4.29 3.24,6.37 -19.51,-34.12 -43.19,-66.02 -70.25,-94.63 -38.03,-40.11 -83.06,-73.08 -132.78,-97.25 -50.77,-24.5 -105.72,-39.8 -161.82,-45.03 -16.71,-1.45 -33.73,-2.32 -50.56,-2.32 -40.85,0 -81.62,4.63 -121.42,13.8 -57.11,13.2 -112.15,34.21 -163.53,62.29 -53.6,29.19 -103.68,65.17 -148.56,106.59 -47.35,43.56 -89.61,93.1 -125.17,146.73 -50.48,-29.61 -98.54,-63.58 -143.4,-101.12 -7.96,-6.68 -15.36,-13.68 -23.05,-20.54l-0.78 -0.78c16.23,-17.1 31.74,-34.99 46.44,-53.45l0.15 -0.24 0.15 -0.15c4.6,-5.89 8.6,-12.08 13.05,-18.06 9.47,-12.72 19.09,-25.22 27.74,-38.42l0.24 -0.39 0.34 -0.39c4.93,-7.55 8.89,-15.42 13.52,-23.06 7.16,-11.84 14.64,-23.39 21.02,-35.47l0.33 -0.72 0.39 -0.63c4.39,-8.36 7.72,-17.02 11.69,-25.47 5.41,-11.45 16.29,-35.14 16.38,-35.32l12.48 -33.79c16.83,-53.17 25.52,-108.82 25.52,-164.58 0,-2.65 -0.06,-5.5 -0.06,-8.09 -3.52,-152.62 -127.01,-275.33 -279.66,-277.94 -6.49,-0.24 -13.22,-0.45 -19.78,-0.45 -10.01,0 -20.14,0.45 -30.09,1.14 -16.89,1.2 -33.91,3.49 -50.56,6.55 -16.96,3.1 -33.88,7.16 -50.89,12.03 -11.13,3.18 -22.19,7.3 -33.25,11.21 0.33,-6.85 0.39,-13.77 0.87,-20.68l0.15 -1.75c0.78,-13.43 2.07,-26.87 3.58,-40.31l0.72 -6.52c1.44,-12.81 3.19,-25.7 5.17,-38.57l1.02 -6.28c2.23,-13.53 4.6,-27.21 7.49,-40.88l3.42 -0.88 10.34 -2.85c5.84,-1.66 11.79,-3.55 17.56,-5.38l0.12 0.03 0.15 -0.09c8.87,-2.77 17.8,-6.05 26.51,-9.23l4.15 -1.59 1.21 -0.4 3.42 -1.35c8.69,-3.37 17.59,-7.09 26.16,-10.85l0.87 -0.48 0.63 -0.24c8.21,-3.52 16.59,-7.52 24.68,-11.49l5.26 -2.7 0.72 -0.24 0.24 -0.15 2.71 -1.44c15.45,-7.82 30.75,-16.45 45.51,-25.47l9.32 -5.74 1.98 -1.26 0.63 -0.39 6.62 -4.21c13.89,-9.02 27.65,-18.73 40.82,-28.65l8.36 -6.37 0.63 -0.48 0.48 -0.48 3.1 -2.32c12.2,-9.59 24.37,-19.84 35.95,-30.33 2.37,-2.13 4.39,-4.45 6.67,-6.61 5.02,-4.69 9.77,-9.56 14.64,-14.31 5.74,-5.74 11.79,-11.12 17.26,-17.02 3.96,-4.29 7.48,-8.89 11.36,-13.28 2.55,-2.86 5.56,-5.56 7.97,-8.42 3.96,-4.6 7.54,-9.38 11.21,-14.07 1.2,-1.44 2.55,-2.79 3.67,-4.21l1.68 -2.37c9.14,-11.94 17.5,-23.87 25.37,-36.11 0.63,-1.02 1.5,-1.98 2.14,-3.03 0.96,-1.59 1.59,-3.1 2.55,-4.6 7.22,-11.78 14.04,-23.9 20.11,-36.25l15.6 -36.2c10.7,-25.31 16.24,-52.57 16.24,-80.08 0,-55.94 -22.85,-109.51 -63.19,-148.23 -14.61,-11.88 -30.91,-21.65 -48.25,-28.89 6.91,-7.55 13.68,-15.12 20.68,-22.52 29.85,-31.5 61.51,-62.52 93.58,-91.68 9.38,4.78 19.09,8.99 29.04,12.32 10.97,3.73 22.28,6.68 33.58,8.84 12.56,2.38 25.22,3.97 37.94,4.93 13.43,0.87 52.81,0 53.78,-0.09 7.6,-0.51 15.45,-1.32 23.02,-2.16l0.54 0 0.72 -0.15c12.06,-1.42 24.14,-3.31 36.05,-5.57l4.45 -0.78c9.02,-1.98 18.24,-4.12 27.23,-6.25l3.19 -0.78 1.02 -0.33 4.3 -1.11c8.33,-2.17 16.77,-4.72 25.01,-7.28l5.65 -1.83 0.33 -0.15 0.33 -0.09 1.75 -0.57c10.58,-3.49 21.25,-7.4 31.59,-11.46l1.59 -0.63 6.14 -2.37c5.05,-2.11 10.34,-4.48 15.48,-6.68l13.77 -6.19 9.22 -4.39c7.79,-3.76 15.7,-7.99 23.3,-11.96l0.63 -0.33 0.39 -0.15c10.43,-5.54 21.02,-11.61 31.09,-17.77l0.96 -0.57 0.15 -0.09 0.33 -0.24c10.22,-6.43 20.62,-13.17 30.6,-20.17 6.92,-4.96 14.1,-10.28 20.89,-15.33l6.44 -5.08 1.68 -1.36 2.23 -1.74c6.67,-5.44 13.28,-11.12 19.69,-16.8l1.59 -1.6c9.14,-8.11 18.16,-16.95 26.63,-25.82l1.51 -1.68 1.2 -1.21c1.5,-1.59 2.61,-3.24 4.06,-4.84 6.76,-7.48 13.13,-15.03 19.09,-22.66l3.33 -3.97c1.35,-1.83 2.38,-3.73 3.67,-5.56 5.02,-6.86 9.56,-13.83 13.83,-20.83 1.26,-1.99 2.85,-3.97 3.97,-6.05 0.72,-1.02 1.02,-2.13 1.59,-3.24 4.93,-8.6 9.32,-17.5 13.2,-26.64l1.44 -2.85 0.09 -0.24 0.09 -0.33 0.15 -0.24 0.09 -0.24c3.22,-8.18 6.04,-16.57 8.27,-25.08l1.35 -5.95 0.15 -0.39 0 -0.33 0.39 -1.35c1.68,-8.27 2.8,-16.69 3.31,-25.1l0 -2.32 0.09 -0.24 0 -0.24 0.09 -2.55c-0.03,-0.39 -0.03,-0.88 -0.03,-1.33 0,-6.4 -0.45,-12.8 -1.3,-19.15l-0.57 -3.57 0 -0.15 -0.15 -0.96c-0.57,-3.1 -1.26,-6.2 -2.07,-9.23l-0.96 -3.67c-0.69,-2.38 -1.57,-4.81 -2.38,-7.16l-1.26 -3.57 -1.59 -3.91c13.76,-5.26 27.59,-10.43 41.51,-15.42l5.95 -2.14c13.05,-4.6 26.25,-9.13 39.38,-13.52l5.74 -1.93c13.77,-4.54 27.6,-8.9 41.52,-13.19l1.68 -0.49c13.68,-4.14 27.3,-8.2 41.04,-12.02 3.03,11.84 6.67,23.54 10.88,34.99 7.54,19.24 18.94,36.83 33.4,51.62 17.34,16.62 37.54,29.97 59.64,39.44 26.63,11.54 54.8,19.42 83.6,23.53 23.14,3.4 46.62,5.08 70.07,5.08 15.9,0 31.98,-0.84 47.77,-2.34 4.14,-0.33 8.44,-0.84 12.59,-1.26l5.89 -0.72 2.38 -0.25 4.39 -0.57c8.35,-1.05 16.89,-2.43 25.13,-3.81l1.59 -0.33 1.11 -0.16 17.83 -3.42 13.38 -2.95 1.44 -0.33 5.56 -1.26c8.45,-2.02 16.99,-4.27 25.4,-6.61l0.18 -0.03 0.15 -0.09 1.12 -0.34c16.95,-4.72 33.99,-10.46 50.38,-16.68 2.58,-0.96 5.35,-2.07 7.93,-3.04l2.23 -0.87 0.48 -0.15 5.26 -2.13c15.75,-6.44 31.53,-13.59 46.68,-21.29l5.57 -2.85 0.15 -0.09 0.39 -0.24 1.59 -0.78c7.73,-4.03 15.6,-8.45 23.21,-12.84l1.44 -0.78 0.87 -0.57 5.56 -3.34c6.29,-3.85 12.63,-7.97 18.73,-11.99l1.5 -0.97c6.5,-4.32 13.17,-9.1 19.57,-13.73l2.8 -2.14 5.02 -3.72c3.34,-2.56 6.61,-5.18 9.77,-7.79l7.97 -6.67 0.12 -0.15zm-1241.01 2796c-4.93,-3.42 -9.86,-6.76 -14.55,-10.34l-7.79 -6.67c-5.47,-4.57 -10.91,-9.38 -16.08,-14.25 -2.86,-2.71 -5.56,-5.56 -8.36,-8.42 -13.68,-14.04 -26.3,-29.25 -37.42,-45.36l-1.6 -2.31c-5.92,-8.75 -11.57,-17.86 -16.68,-27.06l-0.33 -0.48c-5.38,-9.68 -10.43,-19.75 -14.88,-29.88l-0.33 -0.57c-4.51,-10.25 -8.75,-20.77 -12.42,-31.39l-0.33 -0.78c-3.61,-10.67 -6.85,-21.43 -9.62,-32.28l-0.33 -1.21c-2.67,-10.85 -5.17,-22.06 -7.03,-33.03l-0.15 -0.96c-3.88,-23.03 -6.17,-46.45 -6.56,-69.75l0 -1.02c-0.24,-11.78 0,-23.54 0.63,-35.47l0 -1.44c0.79,-11.7 1.84,-23.39 3.34,-35.14l0.09 -1.03c1.59,-11.84 3.49,-23.68 5.89,-35.71l0.24 -1.2c2.38,-11.7 5.17,-23.39 8.36,-35.14l0.78 -3.04c3.34,-11.93 7.01,-23.87 11.12,-35.8 0.79,-2.23 1.84,-4.39 2.62,-6.62 5.56,-15.36 11.69,-30.21 18.46,-44.79 2.37,-5.17 5.02,-10.34 7.54,-15.42 5.56,-11.12 11.46,-22.03 17.59,-32.76 2.94,-5.02 5.8,-10.01 8.84,-14.88 7.24,-11.61 14.88,-22.91 22.81,-33.88 2.14,-3.04 4.15,-6.14 6.38,-9.08 17.64,-23.48 37.21,-45.78 58.25,-66.29l1.6 -1.44c9.68,-9.26 19.84,-18.4 30.15,-27.02l0.87 -0.79c10.58,-8.74 21.31,-16.95 32.29,-24.83l0.48 -0.33c10.91,-7.78 22.39,-15.3 33.94,-22.15l0.24 -0.15c11.6,-6.92 23.29,-13.29 35.23,-19.09l0.57 -0.33c11.84,-5.8 23.87,-11.12 35.95,-15.9l0.63 -0.15c12.18,-4.78 24.41,-8.9 36.83,-12.57l0.72 -0.15c12.23,-3.58 24.65,-6.61 37.21,-9.08l0.97 -0.15c12.47,-2.37 24.98,-4.21 37.6,-5.41l1.12 -0.09c12.71,-1.2 25.46,-1.74 38.17,-1.68l0.36 0.06c37.76,-0.03 75.22,6.19 110.9,18.21 66.4,22.37 124.03,65.42 164.34,122.68 28.95,45.91 48.37,97.28 57.03,150.88 9.95,62.2 7.96,125.65 -5.8,187.16 -29.28,133.11 -104.38,251.88 -212.08,335.42 -50.72,39.53 -108.86,68.87 -170.81,86.19 -33.88,9.5 -68.96,14.33 -104.16,14.33 -26.04,0 -52.13,-2.67 -77.59,-7.87 -37.22,-7.97 -72.87,-22.28 -105.21,-42.33l-0.03 0.03zm-41.07 223.27c5.26,2.37 10.67,4.54 16,6.67 -4.54,-1.83 -9.14,-3.58 -13.53,-5.56l-2.47 -1.11zm27.54 11.36c6.19,2.37 12.47,4.45 18.85,6.52 -5.74,-1.92 -11.55,-3.72 -17.2,-5.8l-1.59 -0.72 -0.06 0zm29.58 10.1l-0.96 -0.33c0.3,0.06 0.78,0.24 1.02,0.3l-0.06 0.03z"/>
   <path class="fil1" d="M7836.61 1517.66c-26.88,-37.45 -62.14,-68.21 -102.81,-89.91 -44.1,-22.3 -92.89,-34 -142.34,-34 -3.13,0 -6.34,0.09 -9.41,0.15 -31.29,0.12 -62.44,4.84 -92.38,13.89 -30.72,9.05 -59.73,23.51 -85.4,42.72 -25.67,19.27 -46.84,44.04 -61.93,72.38 -16.29,31.81 -24.35,67.13 -23.48,102.84 -1.35,33.97 6.38,67.61 22.58,97.58 15.18,25.76 35.62,48.04 59.97,65.38 26.25,18.7 54.89,33.73 85.2,44.55 31.8,11.61 65.23,23.24 99.98,34.84 42.96,13.92 86.06,29.04 129.56,45.34 41.88,15.39 81.5,36.94 117.27,63.64 35.23,26.63 64.27,60.45 85.19,99.35 23.69,47.25 34.99,99.74 33.1,152.56 0.03,2.79 0.12,5.83 0.12,8.72 0,52.3 -12.14,103.95 -35.35,150.78 -22.1,43.08 -53.33,80.93 -91.51,110.75 -38.39,29.37 -82.15,51.34 -128.72,64.39 -47.22,13.8 -96.28,20.95 -145.55,21.01 -37.46,0 -74.86,-3.82 -111.59,-11.36 -36.59,-7.4 -72.3,-18.79 -106.36,-33.97 -33.67,-15.09 -65.32,-34.48 -94.12,-57.54 -29.01,-23.12 -54.89,-50.23 -76.68,-80.29l108.16 -80.08c27.92,45.36 66.55,83.44 112.36,110.71 49.09,29.07 105.25,44.49 162.33,44.49 2.53,0 5.17,-0.03 7.64,-0.09 32.5,-0.15 64.93,-5.2 95.95,-14.79 31.81,-9.56 61.72,-24.98 87.96,-45.33 26.25,-20.53 48.28,-45.96 64.57,-75 16.6,-32.62 25.28,-68.81 25.28,-105.46 0,-36.64 -8.68,-72.84 -25.31,-105.48 -16.8,-28.44 -39.74,-52.85 -67.09,-71.46 -29.67,-20.02 -62.08,-36.25 -95.93,-47.94 -36.04,-12.72 -73.8,-25.53 -113.33,-38.33 -40.43,-12.57 -80.95,-27.51 -120.21,-43.53 -38.48,-15.66 -74.49,-37.22 -106.39,-63.73 -31.68,-26.54 -57.59,-59.61 -75.84,-96.8 -19.09,-41.21 -28.98,-86.18 -28.98,-131.63 0,-3.16 0.09,-6.44 0.15,-9.53 0,-2.71 -0.09,-5.53 -0.09,-8.27 0,-50.56 12.32,-100.49 35.89,-145.23 22.82,-41.84 54.71,-78.21 93.19,-106.32 38.39,-27.87 81.59,-48.52 127.31,-60.9 44.76,-12.63 91.18,-19.18 137.74,-19.3 4.33,-0.12 8.84,-0.18 13.26,-0.18 69.5,0 138.28,15.3 201.17,44.73 52.36,24.11 98.42,60.33 134.22,105.48l-99.35 80.17z"/>
   <path class="fil2" d="M9025.61 2145.28c0.03,1.5 0.03,3 0.03,4.54 0,56.93 -10.97,113.48 -32.22,166.26 -41.31,103.5 -123.77,185.3 -227.54,225.79 -54.35,21.29 -112.43,32.32 -170.89,32.32 -1.72,0 -3.61,-0.06 -5.26,-0.06 -1.48,0.09 -2.95,0.09 -4.42,0.09 -58.17,0 -115.86,-11.03 -169.94,-32.32 -103.74,-40.49 -186.23,-122.38 -227.47,-225.88 -21.25,-54.35 -32.23,-112.39 -32.23,-170.8 0,-58.41 10.98,-116.46 32.26,-170.75 41.24,-103.53 123.73,-185.39 227.5,-225.85 54.02,-21.28 111.71,-32.31 169.88,-32.31 1.47,0 2.94,0 4.42,0 1.74,0 3.45,0 5.17,0 58.46,0 116.54,10.97 170.95,32.28 103.71,40.49 186.2,122.35 227.44,225.82 21.95,54.23 32.92,112.31 32.29,170.84l0.03 0.03zm-125.5 0c0,-0.78 0,-1.66 0,-2.44 0,-42.8 -7.4,-85.43 -21.8,-125.74 -13.62,-38.51 -34.72,-74.13 -61.89,-104.64 -27.3,-30.01 -60.61,-54.02 -97.67,-70.53 -39.14,-17.25 -81.65,-26.21 -124.46,-26.21 -1.5,0 -3.06,0.03 -4.5,0.03 -1.63,0 -3.34,-0.03 -4.96,-0.03 -42.42,0 -84.48,8.96 -123.22,26.21 -36.68,16.63 -69.66,40.67 -96.71,70.53 -27.24,30.48 -48.37,66.13 -61.96,104.67 -14.4,41.12 -21.79,84.53 -21.79,128.12 0,43.59 7.39,86.99 21.76,128.12 13.59,38.57 34.69,74.13 61.96,104.67 26.96,29.76 59.88,53.54 96.71,69.68 38.86,16.69 80.74,25.34 123.04,25.34 1.71,0 3.45,-0.03 5.14,-0.03 44.31,0.63 88.28,-7.96 129.02,-25.28 37.15,-15.99 70.46,-39.77 97.67,-69.68 27.2,-30.54 48.27,-66.1 61.86,-104.67 14.4,-40.34 21.8,-82.97 21.8,-125.81 0,-0.78 0,-1.59 0,-2.37l0 0.06z"/>
   <path class="fil1" d="M9625.3 1836.67l-191.67 0 0 716.63 -118.59 0 0 -716.63 -170.84 0 0 -99.41 170.84 0 0 -223.11c-0.3,-6.17 -0.51,-12.48 -0.51,-18.7 0,-72.69 24.14,-143.42 68.51,-200.96 48.91,-51.7 117.02,-81.04 188.21,-81.04 7,0 14.01,0.33 20.98,0.84 15.12,0 31.41,0.78 48.85,2.55 16.53,1.6 32.86,4.78 48.85,9.56l-21.01 104.67c-12.6,-3.45 -25.49,-6.46 -38.36,-8.77 -13.56,-2.26 -27.33,-3.43 -41.09,-3.43 -0.82,0 -1.66,0 -2.47,0 -2.07,-0.03 -4.24,-0.09 -6.31,-0.09 -24.62,0 -48.97,5.41 -71.28,15.78 -19.69,9.86 -36.1,25.34 -47.07,44.46 -11.61,20.8 -19.3,43.59 -22.67,67.13 -4.03,26.27 -6.13,53.03 -6.13,79.63 0,0.75 0,1.53 0,2.28l0 209.2 191.76 0 0 99.41zm617.3 0l-230.12 0 0 476.02c-0.63,25.22 2.32,50.41 8.75,74.91 4.39,17.25 13.05,33.16 25.22,46.14 10.83,10.98 24.41,18.85 39.29,22.76 15.91,4.15 32.29,6.19 48.76,6.04 17.41,-0.09 34.69,-2.37 51.47,-6.91 17.82,-4.6 34.99,-10.97 51.46,-19.18l5.17 102.84c-21.07,8.2 -42.96,14.31 -65.38,18.31 -24.41,4.2 -49.24,6.28 -74.04,6.13 -23.51,-0.21 -46.99,-3.16 -69.77,-8.78 -24.77,-5.98 -48.01,-17.29 -68,-33.1 -22.07,-17.76 -39.65,-40.49 -51.38,-66.28 -13.37,-31.54 -20.32,-65.57 -20.32,-99.86 0,-3.31 0.06,-6.68 0.18,-9.96l0 -509.08 -169.09 0 0 -99.41 169.09 0 0 -230.09 118.53 -0.03 0 230.18 230.18 0 0 99.35z"/>
   <path class="fil2" d="M11170.14 2120.87l0 26.15c0,9.86 -0.64,19.81 -1.75,29.67l-676.46 0c0.87,39.53 9.14,78.49 24.41,115.02 14.49,35.23 35.8,67.21 62.77,94.18 27.05,26.96 59,48.51 94.18,63.64 37.63,15.45 78.09,23.47 118.83,23.47 55.31,0 109.75,-14.79 157.46,-42.71 40.91,-24.71 75.81,-58.44 101.96,-98.54l88.92 69.74c-42.35,56.42 -97.72,101.94 -161.3,132.57 -58.41,26.42 -121.93,40.13 -186.08,40.13 -0.99,0 -2.04,0 -3.04,0 -1.29,0 -2.61,0 -3.87,0 -56.34,0 -112.25,-11.03 -164.35,-32.32 -50.08,-20.41 -95.62,-51.13 -133.38,-89.85 -37.73,-39.23 -67.73,-85.55 -88.02,-136.06 -21.25,-52.66 -32.25,-109.21 -32.25,-166.08 0,-1.54 0,-3.16 0,-4.66 0,-1.51 0,-3.07 0,-4.57 0,-56.88 10.7,-113.33 31.38,-166.24 19.78,-50.53 49.45,-96.86 87.12,-136 75.63,-77.97 179.76,-122.1 288.4,-122.1 1.48,0 3.13,0.06 4.57,0.06 2.59,-0.06 5.47,-0.12 8.18,-0.12 55.19,0 109.99,11.03 160.89,32.34 46.53,19.87 88.13,49.63 122.07,87.18 32.92,37.4 58.05,80.95 73.98,128.12 16.78,49.42 25.41,101.37 25.41,153.58 0,1.11 0,2.29 0,3.37l-0.03 0.03zm-120.34 -38.36c-0.99,-70.4 -27.29,-138.22 -74.04,-190.89 -47.35,-48.76 -112.46,-76.35 -180.46,-76.35 -5.23,0 -10.49,0.18 -15.69,0.48 -0.81,-0.03 -1.71,-0.03 -2.55,-0.03 -36.83,0 -73.38,7.45 -107.26,21.79 -65.95,28.35 -119.31,79.91 -149.95,144.78 -15.03,31.41 -23.86,65.47 -26.24,100.22l556.19 0z"/>
   <path class="fil1" d="M11531.02 1737.26c4.3,46.05 6.82,93.04 7.03,139.42l3.46 0.06c24.89,-49.3 64.42,-89.88 113.27,-115.88 50.32,-29.13 107.5,-44.52 165.67,-44.52 7.03,-0.51 14.12,-0.78 21.16,-0.78 80.47,0 157.28,33.84 211.57,93.21 50.56,64.58 78.04,144.27 78.04,226.27 0,5.93 -0.18,11.88 -0.45,17.74l0 500.37 -118.47 0.06 0 -451.52c0,-1.68 0,-3.58 0,-5.26 0,-37.4 -3.58,-74.94 -10.5,-111.56 -5.86,-32.01 -18.03,-62.55 -35.8,-89.76 -17.07,-25.16 -40.55,-45.39 -68,-58.44 -31.14,-13.89 -64.96,-21.07 -99.08,-21.07 -2.7,0 -5.47,0.06 -8.14,0.15 -0.31,0 -0.64,0 -0.94,0 -65.2,0 -127.24,28.35 -169.9,77.62 -24.98,29.1 -43.92,62.82 -55.76,99.35 -13.92,43.02 -21.02,88.11 -21.02,133.38 0,2.85 0.06,5.92 0.12,8.75l0 418.36 -118.62 0 0 -636.31c0.03,-59.82 -2.58,-119.97 -6.79,-179.46l113.15 -0.12 0 -0.06z"/>
   <path class="fil2" d="M13624.8 1423.48c0.03,0.72 0.03,1.45 0.03,2.17 0,22.15 -9.5,43.28 -26.12,57.95 -15.33,15.09 -36.02,23.57 -57.54,23.57 -21.52,0 -42.21,-8.48 -57.54,-23.57 -16.68,-15.54 -26.15,-37.33 -26.15,-60.12 0,-22.78 9.47,-44.58 26.12,-60.12 15.36,-15.09 36.05,-23.57 57.57,-23.57 21.52,0 42.21,8.48 57.54,23.57 17.19,15.12 26.81,37.22 26.15,60.12l-0.06 0zm-24.32 1129.73l-118.53 0 0 -815.89 118.53 0 0 815.89z"/>
   <g>
    <path class="fil0" d="M12813.69 2484.34c-219.86,-0.03 -398.16,-178.33 -398.16,-398.19 0,-219.84 178.3,-398.13 398.16,-398.13 219.87,0 398.16,178.29 398.16,398.13 0,219.86 -178.29,398.16 -398.16,398.16l0 0.03zm0 -665.56c-147.66,0 -267.39,119.74 -267.39,267.37 0,147.66 119.73,267.39 267.39,267.39 147.66,0 267.4,-119.73 267.4,-267.39 0,-147.63 -119.74,-267.37 -267.4,-267.37zm0 1476.9c-2.58,0 -5.35,0.06 -7.96,0.06 -219.87,0 -398.16,-178.29 -398.16,-398.15 0,-219.87 178.29,-398.16 398.16,-398.16 2.61,0 5.38,0.06 7.96,0.09 216.65,4.33 390.2,181.33 390.2,398.07 0,216.74 -173.55,393.74 -390.2,398.06l0 0.03zm0 -665.49c-1.5,-0.03 -3.06,-0.06 -4.6,-0.06 -147.66,0 -267.39,119.74 -267.39,267.4 0,147.66 119.73,267.39 267.39,267.39 1.54,0 3.1,-0.03 4.6,-0.03 145.83,-2.5 262.8,-121.51 262.8,-267.36 0,-145.86 -116.97,-264.87 -262.8,-267.37l0 0.03z"/>
    <path class="fil3" d="M12516.06 2735.59c-64.72,-72.9 -100.56,-167.14 -100.56,-264.63 0,-88.11 29.28,-173.78 83.12,-243.47l103.41 80.09c-36.13,46.77 -55.73,104.25 -55.73,163.32 0,65.5 24.08,128.78 67.61,177.75l-97.82 86.94 -0.03 0zm526.37 -891.28l-125.66 -35.81c18.82,-79.21 73.98,-144.98 148.68,-177.36 25.29,-10.04 52.28,-15.51 79.49,-16.05l2.94 130.77c-11.6,0.21 -23.18,2.52 -34,6.82 -36.34,18.31 -62.52,51.95 -71.42,91.63l-0.03 0z"/>
   </g>
  </g>
 </g>
</svg>
