<svg width="141" height="43" viewBox="0 0 141 43" xmlns="http://www.w3.org/2000/svg"><title>D27C166F-2F7C-48FC-97B1-D71C58CA86A2</title><g fill="none" fill-rule="evenodd"><path d="M51.71 14.325a4.551 4.551 0 0 0-1.05-2.052 7 7 0 0 0-1.947-1.531 9.645 9.645 0 0 0-2.497-.929 11.016 11.016 0 0 0-2.797-.259 11.706 11.706 0 0 0-.772-1.207 12.2 12.2 0 0 0-.43-.558c-.097-.117-.198-.23-.298-.343l.04-.03.111-.086.028-.023.016-.013.065-.053a5.041 5.041 0 0 0 .232-.208l.012-.012.005-.004.007-.008a4.595 4.595 0 0 0 .211-.218l.05-.058.022-.025.035-.041c.022-.026.038-.054.06-.081.045-.058.094-.116.135-.176.016-.022.027-.046.042-.069.011-.017.026-.033.037-.05.016-.026.027-.053.042-.078.046-.078.088-.156.125-.235.013-.025.03-.05.041-.076.008-.019.012-.038.02-.057.011-.027.026-.052.036-.078.021-.058.035-.117.052-.175.009-.029.023-.058.03-.087l.006-.03a2.28 2.28 0 0 0 .061-.372l.024-.312-.004.024c.01-.116.011-.233.003-.35a2.292 2.292 0 0 0-.58-1.33 3.908 3.908 0 0 0-1.319-.953 6.605 6.605 0 0 0-1.812-.524c-.7-.1-1.41-.117-2.113-.05a9.52 9.52 0 0 0-2.033.414c-.307.1-.607.216-.9.35-.276.127-.544.27-.803.43a18.916 18.916 0 0 0-1.472-.312 20.717 20.717 0 0 0-.75-.115c-.228-.03-.689-.081-.689-.081a2.558 2.558 0 0 0-.217-.917 2.24 2.24 0 0 0-.86-.913 3.9 3.9 0 0 0-1.291-.405 6.433 6.433 0 0 0-1.63-.015 8.167 8.167 0 0 0-3.204 1.063 5.893 5.893 0 0 0-1.195.917 3.357 3.357 0 0 0-.742 1.084 26.506 26.506 0 0 0-2.175.694c-.237.086-.472.176-.706.268a2.1 2.1 0 0 0-.454-.28 2.861 2.861 0 0 0-.562-.187 3.895 3.895 0 0 0-.659-.089 5.202 5.202 0 0 0-.745.017 7.02 7.02 0 0 0-1.6.348c-.526.178-1.031.409-1.51.689a7.282 7.282 0 0 0-1.29.952 4.83 4.83 0 0 0-.924 1.146c-.107.19-.194.39-.258.598a2.098 2.098 0 0 0-.093.562c-.005.174.019.347.07.513.062.158.137.31.225.455a25.083 25.083 0 0 0-1.487 1.42c-.16.166-.319.335-.474.506l-.19-.002a6.155 6.155 0 0 0-1.704.321 8.527 8.527 0 0 0-1.687.778c-.548.326-1.06.71-1.526 1.144A7.31 7.31 0 0 0 2.899 14.4c-.301.46-.515.973-.632 1.51-.078.44-.053.89.073 1.317.122.344.338.647.623.874.104.107.219.201.343.282.135.087.277.16.426.219.165.064.335.113.508.146a3.8 3.8 0 0 0 .556.064c-.037.159-.075.318-.106.477a14.483 14.483 0 0 0-.204 1.405 13.12 13.12 0 0 0-.048.708 10.46 10.46 0 0 0-2.768 2.531 9.597 9.597 0 0 0-.716 1.097 7.601 7.601 0 0 0-.849 2.24 4.87 4.87 0 0 0 .01 2.061c.138.617.453 1.18.907 1.62.14.127.29.244.447.35l.276.178a3.211 3.211 0 0 0 .63.315 3.681 3.681 0 0 0 .74.194l.05.007.05.008.049.006.05.006a4.529 4.529 0 0 0 .37.027h.023a4.868 4.868 0 0 0 .512-.01l.076-.006h.01l.01-.002.061-.005a5.658 5.658 0 0 0 .462-.065l.08-.016.017-.003.049-.01a6.82 6.82 0 0 0 .571-.144h.001a7.74 7.74 0 0 0 .554-.19l.07-.028.016-.005.052-.021a7.906 7.906 0 0 0 .553-.25l.013-.006h.003l.003-.003a8.707 8.707 0 0 0 .547-.295l.06-.035.015-.01.066-.039a9.23 9.23 0 0 0 .5-.326c.14.141.276.282.422.42.222.206 2.207 1.8 2.222 1.81a9.476 9.476 0 0 0-.615 3.084 7.913 7.913 0 0 0 .471 2.954 6.394 6.394 0 0 0 1.585 2.438c.426.401.91.736 1.437.992-.048-.024-.097-.045-.143-.07l.24.126a5.805 5.805 0 0 0 1.364.506l.065.015.065.014.065.014.065.013.095.016.085.014.078.014c.087.012.173.023.26.032l.012.001.046.004c.068.007.136.013.203.017.038.003.075.003.112.005l.092.004.059.002c.07.002.14.002.21.002l.067-.002.065-.002c.026 0 .052 0 .077-.002l.21-.012.057-.005.063-.006.091-.008c.064-.007.127-.014.191-.023l.064-.01.052-.007.075-.011a7.3 7.3 0 0 0 .19-.034c.03-.005.06-.012.089-.018l.046-.01.056-.01.18-.043.129-.033.017-.004.01-.003.024-.006a7.605 7.605 0 0 0 .358-.107l.006-.002.013-.005a7.364 7.364 0 0 0 .33-.116l.041-.017.04-.015.091-.036.172-.072.081-.037.046-.02.045-.02a7.925 7.925 0 0 0 .3-.147l.03-.015.012-.005a7.974 7.974 0 0 0 .342-.188l.007-.004.024-.014a8.644 8.644 0 0 0 .31-.189l.03-.02.037-.024.101-.066c.061-.04.121-.082.18-.124l.042-.03.042-.03.095-.069.175-.133.042-.034.017-.013.01-.009.104-.082a9.369 9.369 0 0 0 .548-.485l.01-.01.012-.01a9.876 9.876 0 0 0 .589-.617l.023-.026.02-.021a10.168 10.168 0 0 0 .419-.517l.074-.104c.036-.048.07-.097.104-.145.142-.2.279-.404.407-.614l.04-.06.01-.02.02-.032a10.363 10.363 0 0 0 .442-.839c.034-.07.07-.138.101-.209.074-.165.142-.332.207-.502l.015-.035c.071-.187.137-.376.197-.567.021-.066.038-.134.057-.201l.053-.184c.068-.251.13-.504.18-.761l.002-.012.002-.013.002-.012.002-.012a26.412 26.412 0 0 0 1.226-.237l.064-.014.017-.003.025-.007c.1-.022.202-.044.302-.068.198-.046.396-.095.593-.146.103-.026.206-.055.309-.083.023-.006.047-.011.07-.018l.055-.016.156-.042a27.641 27.641 0 0 0 1.024-.313l.052-.015.027-.01.068-.022a26.964 26.964 0 0 0 1.169-.417h.001c.334.452.71.872 1.122 1.255a9.44 9.44 0 0 0 4.9 2.387l.078.012.08.012.08.011.079.01c.104.014.207.026.311.035l.15.012.06.004.1.008a9.212 9.212 0 0 0 .617.016h.04l.031-.001.172-.004a8.97 8.97 0 0 0 .484-.03l.09-.01.038-.003c.037-.004.074-.007.11-.012a8.606 8.606 0 0 0 .628-.097h.004l.002-.001.008-.002a8.604 8.604 0 0 0 .605-.14l.11-.032.027-.007.057-.017a8.307 8.307 0 0 0 .562-.19l.065-.025.026-.01.09-.036a7.842 7.842 0 0 0 .534-.24l.03-.015.016-.008a7.835 7.835 0 0 0 .62-.348l.006-.003.004-.003.012-.007a7.545 7.545 0 0 0 .506-.346l.055-.043.026-.02.089-.068a7.54 7.54 0 0 0 .326-.274l.097-.09.03-.027.05-.046a7.28 7.28 0 0 0 .337-.341l.077-.087.027-.03.054-.06a7.195 7.195 0 0 0 .367-.464l.005-.007.002-.003.006-.007a7.06 7.06 0 0 0 .334-.508l.018-.034c.024-.04.044-.082.067-.123.058-.103.118-.206.171-.313.02-.04.035-.08.053-.12.03-.061.057-.124.085-.187.026-.06.056-.12.08-.18.031-.077.056-.157.084-.235.022-.06.044-.12.064-.18.01-.03.023-.059.032-.089.053-.17.1-.342.14-.517l.053-.229c-.003.012-.008.023-.01.035a7.07 7.07 0 0 0 .164-2.172 7.502 7.502 0 0 0-.327-1.678 7.989 7.989 0 0 0-.663-1.519 8.627 8.627 0 0 0-.931-1.335 9.172 9.172 0 0 0-1.054-1.049c.15-.243.298-.486.436-.732a25 25 0 0 0 .931-1.856c.14-.309.273-.618.4-.929l.07.003.07.002.068.001.07.001c.09.002.18.002.27 0l.096-.002.055-.001.119-.003a10.888 10.888 0 0 0 .492-.03l.022-.002.017-.002a10.105 10.105 0 0 0 .608-.073h.007l.007-.002a9.918 9.918 0 0 0 .568-.103l.031-.008.008-.001.011-.003.129-.029a8.623 8.623 0 0 0 .343-.087l.101-.03.02-.005.044-.012a9.973 9.973 0 0 0 .477-.157l.03-.012.019-.006.104-.04a7.786 7.786 0 0 0 .416-.172l.013-.006.017-.008a7.902 7.902 0 0 0 .426-.21l.048-.026.01-.005.01-.006.073-.04a6.595 6.595 0 0 0 .378-.23l.012-.007.017-.01a7.19 7.19 0 0 0 .408-.293l.002-.002a5.983 5.983 0 0 0 .382-.325l.01-.01.01-.008a5.379 5.379 0 0 0 .252-.253l.064-.071.02-.02.015-.019.052-.059c.049-.057.096-.115.141-.173.026-.033.05-.067.074-.1l.028-.038.029-.04c.042-.06.082-.12.12-.18l.068-.116.04-.069c.01-.018.023-.036.033-.055a4.1 4.1 0 0 0 .123-.244l.022-.053.029-.07c.018-.042.037-.084.053-.127a3.79 3.79 0 0 0 .086-.253l.094-.314c-.033.111-.076.22-.12.328a3.665 3.665 0 0 0 .198-2.137zm-8.908 15.314c0 .07 0 .14-.004.21-.001.048-.005.097-.008.146a4.953 4.953 0 0 1-.403 1.487 5.147 5.147 0 0 1-1.42 1.84c-.636.521-1.377.9-2.172 1.112a6.507 6.507 0 0 1-2.622.15 6.87 6.87 0 0 1-2.48-.858 6.644 6.644 0 0 1-1.848-1.581 5.997 5.997 0 0 1-.96-1.706 5.489 5.489 0 0 1-.125-.442l-.003-.013a5.28 5.28 0 0 1-.097-.578l-.001-.01a5.162 5.162 0 0 1-.03-.58v-.023a5.11 5.11 0 0 1 .038-.59c.003-.027.01-.053.014-.08a5.01 5.01 0 0 1 .109-.545c.016-.064.036-.126.055-.188.04-.137.087-.27.138-.401.025-.062.049-.123.075-.183a4.93 4.93 0 0 1 .21-.417c.02-.037.038-.075.06-.111a5.13 5.13 0 0 1 .606-.819l.016-.017c.108-.118.222-.23.34-.338l.01-.01c.121-.108.247-.212.378-.31l.007-.005c.132-.099.269-.191.41-.279l.005-.003c.143-.087.29-.168.44-.243l.007-.004c.15-.074.305-.142.464-.204l.007-.003c.159-.062.321-.118.487-.166l.01-.003c.165-.048.333-.09.506-.124l.013-.002c.172-.034.346-.061.524-.08l.016-.003c.179-.019.36-.03.545-.035h.006a6.807 6.807 0 0 1 4.696 1.758 6.261 6.261 0 0 1 1.38 1.796 5.471 5.471 0 0 1 .601 2.455zM40.455 3.217c.355.167.67.408.922.708.236.258.37.593.376.942-.03.276-.13.54-.293.764a3.308 3.308 0 0 1-.94.926c-.438.292-.917.52-1.421.676a6.83 6.83 0 0 1-1.724.308 6.12 6.12 0 0 1-1.662-.135 4.08 4.08 0 0 1-1.278-.513 2.415 2.415 0 0 1-.83-.765c-.08-.14-.668-1.175 1.021-2.363.452-.3.944-.535 1.461-.699l.005-.001c.115-.038.233-.072.353-.104l.009-.003c.12-.03.24-.06.365-.084l.011-.003a6.95 6.95 0 0 1 .38-.065h.004a6.95 6.95 0 0 1 .398-.045 6.349 6.349 0 0 1 1.543.054c.45.069.889.205 1.3.402zm1.427 14.765a6.176 6.176 0 0 1-1.765-.918 4.18 4.18 0 0 1-1.133-1.264 2.9 2.9 0 0 1-.368-1.219c.005-.128.02-.255.043-.381.008-.045.02-.089.03-.133.023-.096.051-.19.084-.284.016-.043.031-.087.05-.13.042-.103.09-.203.145-.3.015-.027.027-.055.043-.08a3.59 3.59 0 0 1 .462-.605l.013-.014a4 4 0 0 1 .271-.256l.008-.007c.098-.083.2-.163.308-.24l.005-.003c.11-.077.223-.15.342-.22l.003-.002c.119-.07.242-.136.37-.198l.007-.003a5.75 5.75 0 0 1 .395-.172l.005-.002c.137-.054.277-.103.42-.147l.01-.003c.142-.044.289-.084.44-.119l.01-.003c.15-.034.304-.064.461-.09l.014-.002c.158-.025.319-.045.483-.06h.005a7.724 7.724 0 0 1 2.525.19c.623.151 1.22.39 1.775.71.515.294.972.679 1.348 1.136.353.425.59.935.687 1.479a2.718 2.718 0 0 1 .012.797c-.005.037-.014.073-.02.11-.035.115-.078.228-.127.339-.25.52-.622.972-1.085 1.315a5.47 5.47 0 0 1-1.786.883 7.314 7.314 0 0 1-2.254.285 7.63 7.63 0 0 1-2.236-.39zM29.457 1.79c.073.09.127.194.156.306a.89.89 0 0 1-.024.356c-.08.322-.237.619-.458.865a3.938 3.938 0 0 1-.914.77c-.387.239-.8.431-1.233.572-.451.15-.919.244-1.393.28-.422.037-.847.01-1.261-.08a2.327 2.327 0 0 1-.895-.395 1.068 1.068 0 0 1-.399-.481.339.339 0 0 1-.013-.059V3.92a1.167 1.167 0 0 1-.01-.192V3.72a1.3 1.3 0 0 1 .023-.2v-.004c.015-.072.034-.143.058-.212.004-.01.01-.02.014-.032a1.85 1.85 0 0 1 .097-.216l.044-.076c.032-.056.067-.111.105-.166l.055-.076c.046-.06.095-.12.147-.178l.043-.049.04-.039c.114-.119.236-.23.366-.332l.005-.005a4.62 4.62 0 0 1 .469-.322l.002-.001c.171-.103.348-.197.53-.28l.002-.001a5.87 5.87 0 0 1 .578-.23h.003c.201-.068.406-.125.614-.17l.004-.002a5.71 5.71 0 0 1 .639-.103 4.704 4.704 0 0 1 1.036.001c.293.032.58.106.852.219a1.8 1.8 0 0 1 .61.412 1.3 1.3 0 0 1 .108.131zm-17.02 5.007c.043-.076.09-.152.142-.227a3.415 3.415 0 0 1 .193-.253l.067-.08c.056-.062.115-.124.176-.185l.049-.05.044-.04c.13-.12.265-.235.407-.341l.006-.005a5.51 5.51 0 0 1 .493-.327l.002-.001a5.91 5.91 0 0 1 .537-.28l.002-.002a5.81 5.81 0 0 1 .566-.224h.002c.19-.065.385-.118.581-.16l.005-.002c.193-.041.389-.07.586-.088.24-.021.482-.018.722.01.204.023.405.074.596.15.165.065.317.159.45.277.06.055.115.116.163.183a.494.494 0 0 1 .056.1c.012.032.02.065.025.099.04.286-.004.578-.127.84a3.049 3.049 0 0 1-.625.904 5.054 5.054 0 0 1-.998.786 5.945 5.945 0 0 1-1.223.566c-.416.14-.848.224-1.286.25a2.906 2.906 0 0 1-1.08-.13 1.454 1.454 0 0 1-.674-.443 1.07 1.07 0 0 1-.08-.207v-.003a1.146 1.146 0 0 1-.024-.16V7.75a1.285 1.285 0 0 1-.002-.167v-.005a1.452 1.452 0 0 1 .066-.357l.003-.01c.018-.058.04-.118.065-.18l.006-.012a2.36 2.36 0 0 1 .09-.188l.02-.034zm-2.323 7.592a4.776 4.776 0 0 1-.842 1.155 6.43 6.43 0 0 1-2.59 1.616 4.237 4.237 0 0 1-1.38.216 2.218 2.218 0 0 1-1.077-.274 1.496 1.496 0 0 1-.207-.148 1.36 1.36 0 0 1-.092-.125l-.003-.005a1.375 1.375 0 0 1-.115-.252l-.002-.005a1.522 1.522 0 0 1-.065-.276v-.003c-.014-.1-.019-.2-.015-.3v-.005c.004-.107.016-.213.036-.318v-.002c.022-.113.051-.225.088-.334l.002-.006c.039-.116.085-.23.137-.342l.004-.007c.057-.122.12-.24.19-.355l.028-.043c.06-.098.126-.194.195-.289l.077-.1a5.35 5.35 0 0 1 .177-.218l.087-.1c.071-.078.145-.155.222-.23.02-.02.039-.041.06-.06l.054-.05c.156-.147.32-.286.49-.417l.007-.005c.185-.14.377-.27.575-.39l.003-.001c.196-.119.4-.227.608-.324h.002c.204-.095.412-.178.625-.248l.005-.001c.103-.034.205-.064.308-.09l.008-.003a4.7 4.7 0 0 1 .306-.068l.01-.001c.102-.02.204-.034.305-.045h.003c.103-.012.205-.018.305-.02.187-.006.374.006.558.036.162.027.321.071.473.134.138.057.267.132.384.224.074.054.14.119.194.192.138.234.198.505.174.775a2.673 2.673 0 0 1-.312 1.112zM8.707 27.6c-.44.52-.95.98-1.514 1.364a6.338 6.338 0 0 1-1.74.843 4.052 4.052 0 0 1-1.715.158 2.603 2.603 0 0 1-.994-.346 5.257 5.257 0 0 1-.239-.228 18.007 18.007 0 0 1-.192-.247 2.426 2.426 0 0 1-.235-.454l-.004-.012a2.668 2.668 0 0 1-.081-.248l-.001-.005a3.133 3.133 0 0 1-.092-.547l-.001-.008a3.404 3.404 0 0 1-.01-.283v-.01a3.78 3.78 0 0 1 .016-.291v-.005a4.54 4.54 0 0 1 .104-.62l.001-.006a4.93 4.93 0 0 1 .087-.311l.004-.012c.033-.104.07-.208.11-.314l.003-.005c.04-.102.139-.326.143-.336.049-.105.101-.21.158-.316.011-.022.197-.343.285-.478.031-.049.243-.352.32-.452l.109-.14c.088-.11.325-.38.351-.408a7.274 7.274 0 0 1 .69-.65c.11-.092.223-.18.337-.265l.01-.007c.116-.085.233-.166.353-.243l.006-.004c.12-.078.242-.151.365-.22l.004-.002c.124-.069.248-.133.373-.193l.007-.003c.124-.059.249-.113.374-.162l.007-.004c.126-.049.252-.093.378-.132l.007-.003a4.99 4.99 0 0 1 .376-.1l.01-.002c.124-.028.248-.05.372-.067l.012-.002c.124-.017.248-.028.371-.033h.004c.124-.005.248-.003.372.005.176.01.352.036.524.077.16.038.316.092.466.16.143.064.28.143.406.235.09.07.174.145.252.227.092.12.173.247.24.382.197.422.288.885.267 1.35a4.644 4.644 0 0 1-.396 1.677 6.745 6.745 0 0 1-1.06 1.696zm21.09-23.218l.005-.005.013-.01a5.3 5.3 0 0 0 .222-.206l.006-.006.027-.028c.05-.049.097-.098.142-.147l.036-.04.059-.07.065-.075c.023-.028.043-.057.064-.085.017-.023.035-.045.051-.068l.027-.036c.045-.063.087-.126.125-.19a19.175 19.175 0 0 1 1.75.303c.11.025.22.053.33.08-.046.053-.099.104-.141.16-.102.129-.194.266-.275.409a2.797 2.797 0 0 0-.2.43 2.43 2.43 0 0 0-.075 1.392c.074.403.247.782.504 1.102a3.66 3.66 0 0 0 1.108.894 6 6 0 0 0 1.639.585c.68.128 1.37.182 2.062.162a6.578 6.578 0 0 0 2.997-.625 11.083 11.083 0 0 1 .932 1.318c.042.07.081.143.122.214a8.48 8.48 0 0 0-1.722.624 6.57 6.57 0 0 0-1.5 1.01 4.767 4.767 0 0 0-1.027 1.308 3.773 3.773 0 0 0-.429 2.018l.021.287a4 4 0 0 0 .43 1.517c.267.519.618.99 1.038 1.393.477.46 1.013.854 1.596 1.17.63.342 1.297.61 1.988.8-.062.153-.123.307-.192.46a15.85 15.85 0 0 1-.725 1.424c-.136.236-.278.472-.426.705a9.469 9.469 0 0 0-3.694-.956 8.862 8.862 0 0 0-2.953.343 8.029 8.029 0 0 0-2.474 1.217 7.264 7.264 0 0 0-1.846 1.963 6.886 6.886 0 0 0-.991 2.64 7.069 7.069 0 0 0-.042 1.865c.034.312.087.622.16.928.075.31.169.616.28.914a26.702 26.702 0 0 1-1.98.634 23.907 23.907 0 0 1-1.915.445l-.005-.046-.012-.087a8.16 8.16 0 0 0-.083-.483v-.005l-.002-.003-.004-.02a7.598 7.598 0 0 0-.201-.76l-.001-.006-.002-.003-.006-.02a6.943 6.943 0 0 0-.273-.703l-.002-.006-.002-.004-.011-.025a6.83 6.83 0 0 0-.212-.424l-.031-.055-.031-.055-.032-.055-.031-.054-.128-.214c.015.025.026.054.041.08a6.27 6.27 0 0 0-.883-1.19 5.804 5.804 0 0 0-1.67-1.223 5.97 5.97 0 0 0-2.035-.565 6.795 6.795 0 0 0-2.162.144c-.718.166-1.41.43-2.056.783a9.377 9.377 0 0 0-1.867 1.34 10.12 10.12 0 0 0-1.574 1.845 13.2 13.2 0 0 1-1.803-1.272c-.1-.084-.193-.172-.29-.258l-.01-.01c.204-.215.399-.44.584-.672l.002-.003.002-.002c.058-.074.108-.152.164-.227.119-.16.24-.317.349-.483l.003-.005.004-.005c.062-.095.112-.194.17-.29.09-.149.184-.294.264-.446l.004-.009.005-.008c.055-.105.097-.214.147-.32.068-.144.205-.442.206-.444l.157-.425a6.83 6.83 0 0 0 .32-2.17 3.578 3.578 0 0 0-3.516-3.495 5.105 5.105 0 0 0-.627.008 5.865 5.865 0 0 0-.636.083c-.213.039-.426.09-.64.151-.14.04-.279.092-.418.141.004-.086.005-.173.011-.26l.002-.022c.01-.169.026-.338.045-.507l.009-.082c.018-.161.04-.323.065-.485l.013-.079c.028-.17.058-.342.094-.514l.043-.011.13-.036a6.99 6.99 0 0 0 .221-.067h.002l.002-.001a8.005 8.005 0 0 0 .333-.116l.052-.02.015-.005.043-.017a8.566 8.566 0 0 0 .329-.136l.011-.006.008-.003a8.39 8.39 0 0 0 .31-.145l.066-.034.009-.003.003-.002.034-.018a8.216 8.216 0 0 0 .573-.32l.117-.072.025-.016.008-.005.083-.053a9.276 9.276 0 0 0 .513-.36l.105-.08.008-.006.006-.006.039-.029a8.582 8.582 0 0 0 .452-.382c.03-.027.055-.056.084-.083.063-.059.123-.12.184-.18.072-.072.148-.14.217-.214.05-.054.094-.112.143-.167.032-.036.07-.07.1-.106.05-.058.095-.118.141-.177.015-.018.032-.035.046-.053l.021-.03c.115-.15.22-.3.319-.454.008-.013.019-.025.027-.038.012-.02.02-.039.032-.058a5.48 5.48 0 0 0 .253-.455l.196-.455a2.584 2.584 0 0 0-.59-2.871 2.483 2.483 0 0 0-.607-.363c.087-.095.172-.19.26-.283a21.45 21.45 0 0 1 1.177-1.153c.118.06.24.113.365.155.138.047.28.084.422.111.158.03.317.05.477.062.169.011.664 0 .676-.001a5.573 5.573 0 0 0 .29-.027h.007l.009-.002a6.284 6.284 0 0 0 .453-.07l.056-.01a13.79 13.79 0 0 0 .342-.078l.04-.01.013-.004.054-.014a7.709 7.709 0 0 0 .315-.092l.071-.023.004-.002.004-.001.022-.007a7.46 7.46 0 0 0 .397-.144l.02-.008.077-.03a8.375 8.375 0 0 0 .195-.083l.173-.078.116-.055a15.656 15.656 0 0 0 .293-.15l.008-.004.005-.002a8.94 8.94 0 0 0 .39-.225l.012-.007.002-.001.004-.003a8.57 8.57 0 0 0 .386-.254 13.705 13.705 0 0 0 .263-.193l.081-.064.021-.017.028-.022a6.798 6.798 0 0 0 .247-.21l.02-.02a5.94 5.94 0 0 0 .335-.325l.019-.021.015-.015c.019-.02.033-.041.051-.061.085-.094.165-.189.24-.285l.042-.05c.017-.023.03-.047.046-.07.063-.086.12-.174.174-.262.016-.025.036-.05.05-.076.009-.013.013-.027.02-.041.062-.108.117-.22.166-.335l.018-.036.001-.003.001-.004.002-.003.001-.003a2.752 2.752 0 0 0 .104-.315l.017-.075.002-.005v-.004l.005-.017a2.302 2.302 0 0 0 .041-.315v-.029l.001-.003v-.003l.001-.032a1.811 1.811 0 0 0-.016-.258l-.007-.045V5.26l-.002-.012a1.566 1.566 0 0 0-.026-.116l-.012-.046a3.258 3.258 0 0 0-.03-.09l-.016-.045-.02-.049c.173-.066.347-.131.522-.194l.075-.027c.164-.058.33-.115.495-.17l.072-.024c.173-.057.347-.112.522-.166l.021-.006c.172-.052.343-.103.516-.151.038.149.084.296.137.44.095.242.238.463.42.649.218.209.472.377.75.496.335.145.689.244 1.051.296a6.156 6.156 0 0 0 1.481.034 7.37 7.37 0 0 0 .159-.016l.074-.009.03-.003.055-.007a8.396 8.396 0 0 0 .316-.048l.02-.004.014-.002.224-.043.168-.037.018-.004.07-.016a8.642 8.642 0 0 0 .319-.084h.003l.002-.001.014-.004a7.472 7.472 0 0 0 .633-.21 7.63 7.63 0 0 0 .1-.038l.028-.011.006-.002.066-.027a7.851 7.851 0 0 0 .587-.267l.07-.036.002-.001.005-.003.02-.01a7.31 7.31 0 0 0 .292-.162l.018-.01.011-.007.07-.042a7.673 7.673 0 0 0 .235-.15l.019-.012a12.25 12.25 0 0 0 .247-.174l.035-.027.063-.047c.042-.032.083-.065.123-.098l.1-.084zM14.194 39.536c-.062-.043-.124-.085-.183-.13l-.098-.084a4.156 4.156 0 0 1-.202-.179c-.036-.034-.07-.07-.105-.106a4.325 4.325 0 0 1-.471-.57l-.02-.029a4.598 4.598 0 0 1-.21-.34l-.004-.006a4.78 4.78 0 0 1-.187-.376l-.004-.007a5.016 5.016 0 0 1-.156-.395l-.004-.01a5.23 5.23 0 0 1-.121-.406l-.004-.015a5.55 5.55 0 0 1-.089-.415l-.002-.012a5.853 5.853 0 0 1-.082-.877v-.013c-.003-.148 0-.296.008-.446v-.018c.01-.147.023-.294.042-.442l.001-.013c.02-.149.044-.298.074-.449l.003-.015c.03-.147.065-.294.105-.442l.01-.038c.042-.15.088-.3.14-.45.01-.028.023-.055.033-.083.07-.193.147-.38.232-.563.03-.065.063-.13.095-.194.07-.14.144-.277.221-.412.037-.063.073-.126.111-.187.091-.146.187-.288.287-.426.027-.038.052-.077.08-.114a7.201 7.201 0 0 1 .732-.833l.02-.018a7.12 7.12 0 0 1 .379-.341l.011-.01c.133-.11.268-.213.406-.312l.006-.004a6.6 6.6 0 0 1 .427-.278l.003-.002c.146-.087.293-.167.443-.24l.007-.004c.149-.073.3-.14.452-.2l.008-.002c.153-.06.307-.112.463-.158l.009-.002c.154-.045.31-.083.468-.114l.012-.002c.157-.03.314-.053.473-.068l.014-.001c.16-.015.32-.022.48-.021h.005a4.38 4.38 0 0 1 1.394.23 4.143 4.143 0 0 1 2.066 1.542c.364.577.608 1.223.717 1.897.125.782.1 1.58-.073 2.353a7.326 7.326 0 0 1-2.666 4.217 6.206 6.206 0 0 1-2.148 1.084 4.854 4.854 0 0 1-2.285.081c-.468-.1-.916-.28-1.323-.532zm-.516 2.807c.066.03.134.057.201.084-.057-.023-.115-.045-.17-.07l-.031-.014zm.346.143c.078.03.157.056.237.082-.072-.024-.145-.047-.216-.073l-.02-.009zm.372.127l-.012-.004a6.229 6.229 0 0 0 .012.004z" fill="#A8AD00" fill-rule="nonzero"/><path d="M68.246 15.329a3.799 3.799 0 0 0-1.293-1.13 3.957 3.957 0 0 0-1.908-.426 4.087 4.087 0 0 0-1.161.175 3.375 3.375 0 0 0-1.074.537 2.756 2.756 0 0 0-.779.91c-.205.4-.306.844-.295 1.293-.017.427.08.85.284 1.227.191.324.448.604.754.822.33.235.69.424 1.071.56.4.146.82.292 1.257.438.54.175 1.082.365 1.629.57a5.838 5.838 0 0 1 1.475.8c.443.335.808.76 1.071 1.249.298.594.44 1.254.416 1.918a4.265 4.265 0 0 1-.443 2.006 4.2 4.2 0 0 1-1.151 1.392 4.786 4.786 0 0 1-1.618.81 6.571 6.571 0 0 1-1.83.264c-.471 0-.941-.048-1.403-.143a6.353 6.353 0 0 1-1.337-.427 5.44 5.44 0 0 1-1.184-.723 5.224 5.224 0 0 1-.964-1.01l1.36-1.007a4.151 4.151 0 0 0 1.413 1.392 3.997 3.997 0 0 0 2.137.559 4.141 4.141 0 0 0 1.206-.186c.4-.12.776-.314 1.106-.57.33-.258.607-.578.812-.943a2.924 2.924 0 0 0 0-2.652 2.828 2.828 0 0 0-.844-.899 5.172 5.172 0 0 0-1.206-.603c-.453-.16-.928-.321-1.425-.482a18.544 18.544 0 0 1-1.512-.548 5.102 5.102 0 0 1-1.337-.8 3.74 3.74 0 0 1-.954-1.217 3.947 3.947 0 0 1-.362-1.775 3.919 3.919 0 0 1 .45-1.93 4.066 4.066 0 0 1 1.172-1.337 4.91 4.91 0 0 1 1.6-.766 6.497 6.497 0 0 1 1.732-.242 5.969 5.969 0 0 1 2.696.56 4.622 4.622 0 0 1 1.688 1.326l-1.249 1.008z" fill="#FFF"/><path d="M83.195 23.22a5.594 5.594 0 0 1-.405 2.148 5.06 5.06 0 0 1-2.86 2.839 5.886 5.886 0 0 1-2.215.406 5.82 5.82 0 0 1-2.192-.406 5.06 5.06 0 0 1-2.86-2.84 5.89 5.89 0 0 1 0-4.295 5.057 5.057 0 0 1 2.86-2.839 5.82 5.82 0 0 1 2.192-.406 5.886 5.886 0 0 1 2.214.406 5.057 5.057 0 0 1 2.86 2.839c.276.682.414 1.412.406 2.148zm-1.578 0a4.695 4.695 0 0 0-.274-1.611 3.968 3.968 0 0 0-.778-1.316 3.694 3.694 0 0 0-1.228-.887 3.882 3.882 0 0 0-1.622-.329 3.806 3.806 0 0 0-1.611.329 3.72 3.72 0 0 0-1.216.887 3.94 3.94 0 0 0-.779 1.316 4.874 4.874 0 0 0 0 3.222c.171.485.436.932.779 1.316.339.374.753.673 1.216.876a3.913 3.913 0 0 0 1.611.318c.557.008 1.11-.1 1.622-.318.467-.201.886-.5 1.228-.876.342-.384.607-.831.778-1.316a4.699 4.699 0 0 0 .274-1.611z" fill="#FFF" fill-rule="nonzero"/><path d="M90.735 19.34h-2.41v9.01h-1.491v-9.01h-2.148v-1.25h2.148v-2.805a4.136 4.136 0 0 1 .855-2.762 3.258 3.258 0 0 1 2.63-1.008c.19 0 .395.01.614.032.208.02.413.06.614.12l-.264 1.316a5.69 5.69 0 0 0-.482-.11 3.114 3.114 0 0 0-.548-.043 2.121 2.121 0 0 0-.975.197 1.411 1.411 0 0 0-.592.559 2.45 2.45 0 0 0-.285.844 6.54 6.54 0 0 0-.077 1.03v2.63h2.411v1.25zM98.496 19.34h-2.893v5.985c-.008.317.029.634.11.942.055.217.164.417.317.58.136.138.307.237.494.286.2.052.406.078.613.076.219-.001.436-.03.647-.087.224-.058.44-.138.647-.241l.065 1.293c-.265.103-.54.18-.822.23-.307.053-.619.079-.931.077a3.8 3.8 0 0 1-.877-.11 2.217 2.217 0 0 1-.855-.416 2.278 2.278 0 0 1-.646-.833 3.215 3.215 0 0 1-.253-1.381V19.34h-2.126v-1.25h2.126v-2.893h1.49v2.894h2.894v1.249z" fill="#FFF"/><path d="M110.158 22.913v.329c0 .124-.008.249-.022.373h-8.505c.011.497.115.987.307 1.446.182.443.45.845.789 1.184.34.339.742.61 1.184.8a3.918 3.918 0 0 0 3.474-.241 4.007 4.007 0 0 0 1.282-1.239l1.118.877a5.552 5.552 0 0 1-2.028 1.666 5.672 5.672 0 0 1-2.378.505 5.458 5.458 0 0 1-2.115-.406 4.956 4.956 0 0 1-1.677-1.13 5.334 5.334 0 0 1-1.107-1.71 5.584 5.584 0 0 1-.405-2.147 5.738 5.738 0 0 1 .394-2.148 5.207 5.207 0 0 1 1.096-1.71 5.049 5.049 0 0 1 3.683-1.535 5.23 5.23 0 0 1 2.126.406c.585.25 1.108.624 1.535 1.096.414.47.73 1.018.93 1.611a6 6 0 0 1 .319 1.973zm-1.513-.482a3.697 3.697 0 0 0-.931-2.4 3.161 3.161 0 0 0-2.466-.954 3.454 3.454 0 0 0-1.381.274 3.703 3.703 0 0 0-1.885 1.82c-.189.395-.3.823-.33 1.26h6.993z" fill="#FFF" fill-rule="nonzero"/><path d="M114.695 18.09a20.16 20.16 0 0 1 .088 1.754h.044c.313-.62.81-1.13 1.424-1.457a4.158 4.158 0 0 1 2.083-.56 3.605 3.605 0 0 1 2.926 1.162 4.616 4.616 0 0 1 .976 3.069v6.291h-1.49v-5.677a7.507 7.507 0 0 0-.132-1.469 3.075 3.075 0 0 0-.45-1.128 2.15 2.15 0 0 0-.855-.735 3.062 3.062 0 0 0-1.348-.263 2.826 2.826 0 0 0-2.148.976c-.314.366-.552.79-.701 1.249a5.458 5.458 0 0 0-.263 1.787v5.26h-1.491v-8a33.484 33.484 0 0 0-.087-2.258h1.424z" fill="#FFF"/><path d="M141.02 14.145a.973.973 0 0 1-.328.756 1.032 1.032 0 0 1-1.447 0 1.034 1.034 0 0 1 0-1.512 1.032 1.032 0 0 1 1.447 0c.216.19.337.468.329.756zm-.306 14.204h-1.49V18.091h1.49v10.258z" fill="#FFF" fill-rule="nonzero"/><g fill="#A8AD00"><path d="M130.822 27.483a5.006 5.006 0 1 1 0-10.012 5.006 5.006 0 0 1 0 10.012zm0-8.368a3.362 3.362 0 1 0 0 6.724 3.362 3.362 0 0 0 0-6.724zM130.822 37.684a5.006 5.006 0 1 1 0-10.01 5.006 5.006 0 0 1 0 10.01zm0-8.367a3.362 3.362 0 1 0 0 6.723 3.362 3.362 0 0 0 0-6.723z" fill-rule="nonzero"/><path d="M127.08 30.642a5.008 5.008 0 0 1-.22-6.388l1.3 1.007a3.363 3.363 0 0 0 .15 4.288l-1.23 1.093zM133.698 19.436l-1.58-.45a3.25 3.25 0 0 1 1.869-2.23 2.875 2.875 0 0 1 1-.202l.037 1.644a1.223 1.223 0 0 0-.428.086c-.457.23-.786.653-.898 1.152z"/></g></g></svg>