<?xml version="1.0" encoding="UTF-8"?>
<!DOCTYPE svg PUBLIC "-//W3C//DTD SVG 1.1//EN" "http://www.w3.org/Graphics/SVG/1.1/DTD/svg11.dtd">
<!-- Creator: CorelDRAW -->
<svg xmlns="http://www.w3.org/2000/svg" xml:space="preserve" width="158.75mm" height="39.6874mm" version="1.1" style="shape-rendering:geometricPrecision; text-rendering:geometricPrecision; image-rendering:optimizeQuality; fill-rule:evenodd; clip-rule:evenodd"
viewBox="0 0 15874.98 3968.74"
 xmlns:xlink="http://www.w3.org/1999/xlink"
 xmlns:xodm="http://www.corel.com/coreldraw/odm/2003">
 <defs>
  <style type="text/css">
   <![CDATA[
    .fil4 {fill:#F8AE39}
    .fil0 {fill:#F9C25B}
    .fil5 {fill:#FA7B26}
    .fil6 {fill:#FA7C27}
    .fil2 {fill:#FB9D53}
    .fil1 {fill:#FC561D}
    .fil3 {fill:white}
   ]]>
  </style>
 </defs>
 <g id="Слой_x0020_1">
  <metadata id="CorelCorpID_0Corel-Layer"/>
  <g id="_2228569335952">
   <path class="fil0" d="M204.09 1101.48l645.49 397.12 87.27 10.59c92.6,-131.6 179.11,-144.96 324.53,-225.13 121.76,-67.15 265.55,-178.74 413.28,-186.46 191.72,-10.01 689.79,294.75 758.29,412.7l61.85 -2.04c130.11,-174.02 543.53,-260.67 687.22,-456.75 -52.74,-197.57 -345.76,-291.08 -701.35,-489.86 -841.85,-470.57 -651.58,-566.36 -1580.6,-5.33 -459.14,277.22 -674.72,279.57 -695.98,545.16z"/>
   <path class="fil1" d="M3182.02 2882.21c-192.65,-56.83 -601.37,-253.12 -740.59,-416.06l-25.59 0.52c-113.14,116.85 -533.39,376.27 -743.39,369.17 -146.84,-4.95 -427.38,-176.13 -560.58,-262.43l-146.31 -107.26 -74.25 37.23 -168.79 72.14c-155.39,79.34 -455.3,239.51 -564.25,354.35 82.87,123.73 189.82,181.01 336.2,259.38 1571.91,841.75 870.49,769.44 2367.28,15.93 357.08,-179.8 307.04,-161.52 320.27,-322.97z"/>
   <path class="fil2" d="M204.09 1915.48c24.76,315.25 253.29,238.75 579.27,482.45 87.48,65.42 44.5,18.53 107.95,105.45l74.25 -37.23c109.54,-85.81 524.97,-362.93 706.06,-370.62 226.17,-9.56 604.38,265.73 744.22,371.14l25.59 -0.52c214.58,-140.11 493.95,-287.36 740.59,-414.7 -20.33,-226.39 -105.28,-230.4 -264.86,-322.77 -112.31,-65 -309.77,-188.7 -422.36,-220.42l-61.85 2.04c-118.09,63.55 -255.65,147.11 -370.55,208.17 -128.35,68.19 -240.69,149.4 -346.45,197.57 -154.04,-25.21 -607.26,-315.32 -779.1,-406.85l-87.27 -10.59 -187.32 97.48c-175.06,96.73 -353.76,175.27 -458.17,319.4z"/>
   <path class="fil3" d="M10878.82 1601.28l0 1099.5 320.72 0 0 -1099.5c0,-194.11 274.87,-194.11 274.87,0l0 1099.5 320.72 0 0 -1099.5c0,-194.11 274.9,-194.11 274.9,0l0 1099.5 320.68 0c0,-734.46 158.13,-1557.67 -458.13,-1557.67 -182.82,0 -153.28,67.04 -281.9,74.35 -0.48,0.03 -771.86,-277.01 -771.86,383.82z"/>
   <path class="fil3" d="M7763.44 1280.56l0 1420.22 320.72 0 0 -962.09 436.42 754.75c131.43,227.6 39.2,207.34 434.07,207.34l0 -1557.67 -274.9 0 0 962.12c-237.64,-159.17 -432.37,-962.12 -687.22,-962.12 -148.64,0 -229.09,-18.05 -229.09,137.45z"/>
   <path class="fil3" d="M6297.4 1921.96c0,-673.71 916.27,-500.18 916.27,-137.45 0,226.56 -1.76,641.4 -412.32,641.4 -287.54,0 -503.95,-216.41 -503.95,-503.95zm-320.72 0c0,560.26 772.9,1318.34 1493.64,394.07 175.06,-224.52 155.12,-544.16 -0.17,-742.15 -150.75,-192.2 -271.89,-430.77 -714.61,-430.77 -260.4,0 -409.27,97.14 -540.91,237.91 -69.36,74.18 -107.6,125.06 -147.84,218.73 -16.48,38.41 -90.11,276.95 -90.11,322.21z"/>
   <path class="fil3" d="M9962.55 2425.91c-714.54,0 -561.27,-962.08 -137.45,-962.08 267.49,0 590.98,29.71 575.78,504.64 -6.76,210.25 -205.43,457.44 -438.33,457.44zm-45.82 320.69c378.35,0 778.86,-332.46 778.86,-687.19 0,-1319.31 -1561.1,-1099.74 -1529.24,-97.48 7.24,227.45 96.03,417.33 211.59,544.64 94.48,104.03 371.01,240.03 538.79,240.03z"/>
   <path class="fil3" d="M4693.88 1601.28c0,110.5 18.52,221.81 65.07,301.43 221.33,378.48 805.41,33.83 805.41,339.93 0,211.36 -257.51,137.46 -778.85,137.46l0 320.68c420.25,0 1099.57,134.02 1099.57,-458.14 0,-176.16 -150.05,-386.2 -283.83,-449.16 -225.8,-106.25 -586.66,45.33 -586.66,-192.2 0,-215.13 281.45,-137.45 824.68,-137.45 0,-375.27 54.02,-320.72 -503.99,-320.72 -347.35,0 -641.4,118.85 -641.4,458.17z"/>
   <path class="fil3" d="M15368.64 2334.28c-432.09,207.34 -824.63,-255.58 -824.63,366.5l687.18 0c332.05,0 527.89,-350.5 383.96,-655.53 -222.61,-471.82 -507.28,-191.72 -842.09,-352.37 25.59,-307.53 150.23,-229.05 824.67,-229.05l0 -320.72c-307.35,0 -1410.08,-83.95 -1086,670.25 259.46,603.79 813.38,-2.43 856.91,520.92z"/>
   <path class="fil3" d="M13123.75 1967.78c0,411.17 427.31,778.82 733.04,778.82 195.25,0 418.83,-113.97 549.77,-183.24 -31.69,-118.71 -79.83,-165.98 -137.45,-274.9 -63.38,33.56 -244.85,137.45 -320.72,137.45 -837.38,0 -568.58,-1420.15 320.72,-824.63 46.33,-173.57 89.62,-115.53 137.45,-320.72 -303.89,-70.79 -84.95,-137.45 -595.59,-137.45 -376.61,0 -687.22,425.65 -687.22,824.67z"/>
   <path class="fil4" d="M936.85 1509.19c171.84,91.53 625.06,381.64 779.1,406.85 105.76,-48.17 218.1,-129.38 346.45,-197.57 114.9,-61.06 252.46,-144.62 370.55,-208.17 -68.5,-117.95 -566.57,-422.71 -758.29,-412.7 -147.73,7.72 -291.52,119.31 -413.28,186.46 -145.42,80.17 -231.93,93.53 -324.53,225.13z"/>
   <path class="fil5" d="M965.56 2466.15l146.31 107.26c133.2,86.3 413.74,257.48 560.58,262.43 210,7.1 630.25,-252.32 743.39,-369.17 -139.84,-105.41 -518.05,-380.7 -744.22,-371.14 -181.09,7.69 -596.52,284.81 -706.06,370.62z"/>
   <path class="fil3" d="M12619.8 1280.56l0 1420.22 320.68 0 0 -1557.67 -183.27 0c-105.55,0 -137.41,31.89 -137.41,137.45z"/>
   <path class="fil6" d="M2441.43 2466.15c139.22,162.94 547.94,359.23 740.59,416.06l0 -830.76c-246.64,127.34 -526.01,274.59 -740.59,414.7z"/>
   <path class="fil4" d="M204.09 1915.48c104.41,-144.13 283.11,-222.67 458.17,-319.4l187.32 -97.48 -645.49 -397.12 0 814z"/>
  </g>
 </g>
</svg>
