<?xml version="1.0" encoding="UTF-8"?>
<!DOCTYPE svg PUBLIC "-//W3C//DTD SVG 1.1//EN" "http://www.w3.org/Graphics/SVG/1.1/DTD/svg11.dtd">
<!-- Creator: CorelDRAW -->
<svg xmlns="http://www.w3.org/2000/svg" xml:space="preserve" width="50mm" height="20mm" version="1.1" style="shape-rendering:geometricPrecision; text-rendering:geometricPrecision; image-rendering:optimizeQuality; fill-rule:evenodd; clip-rule:evenodd"
viewBox="0 0 5000 2000"
 xmlns:xlink="http://www.w3.org/1999/xlink"
 xmlns:xodm="http://www.corel.com/coreldraw/odm/2003">
 <defs>
  <style type="text/css">
   <![CDATA[
    .fil4 {fill:#F8AE39}
    .fil0 {fill:#F9C25B}
    .fil5 {fill:#FA7B26}
    .fil6 {fill:#FA7C27}
    .fil2 {fill:#FB9D53}
    .fil1 {fill:#FC561D}
    .fil3 {fill:white}
   ]]>
  </style>
 </defs>
 <g id="Слой_x0020_1">
  <metadata id="CorelCorpID_0Corel-Layer"/>
  <g id="_2228569335952">
   <path class="fil0" d="M280.65 780.51l186.39 114.67 25.2 3.06c26.74,-38 51.72,-41.86 93.71,-65.01 35.16,-19.39 76.68,-51.61 119.34,-53.84 55.36,-2.89 199.18,85.11 218.96,119.17l17.86 -0.59c37.57,-50.25 156.95,-75.27 198.44,-131.89 -15.23,-57.05 -99.84,-84.05 -202.52,-141.45 -243.09,-135.88 -188.15,-163.54 -456.41,-1.54 -132.58,80.05 -194.83,80.73 -200.97,157.42z"/>
   <path class="fil1" d="M1140.55 1294.71c-55.63,-16.41 -173.65,-73.09 -213.85,-120.14l-7.39 0.15c-32.67,33.74 -154.02,108.65 -214.66,106.6 -42.4,-1.43 -123.41,-50.86 -161.87,-75.78l-42.25 -30.97 -21.44 10.75 -48.74 20.83c-44.87,22.91 -131.47,69.16 -162.93,102.32 23.93,35.73 54.81,52.27 97.08,74.9 453.9,243.06 251.36,222.18 683.57,4.6 103.11,-51.92 88.66,-46.64 92.48,-93.26z"/>
   <path class="fil2" d="M280.65 1015.56c7.15,91.03 73.14,68.94 167.27,139.31 25.26,18.89 12.85,5.35 31.17,30.45l21.44 -10.75c31.63,-24.78 151.59,-104.8 203.88,-107.02 65.31,-2.76 174.52,76.73 214.9,107.17l7.39 -0.15c61.96,-40.46 142.63,-82.98 213.85,-119.75 -5.87,-65.37 -30.4,-66.53 -76.48,-93.2 -32.43,-18.77 -89.45,-54.49 -121.96,-63.65l-17.86 0.59c-34.1,18.35 -73.82,42.48 -107,60.11 -37.06,19.69 -69.5,43.14 -100.04,57.05 -44.48,-7.28 -175.35,-91.05 -224.97,-117.48l-25.2 -3.06 -54.09 28.15c-50.55,27.93 -102.15,50.61 -132.3,92.23z"/>
   <path class="fil3" d="M3363.06 924.83l0 317.49 92.61 0 0 -317.49c0,-56.05 79.37,-56.05 79.37,0l0 317.49 92.61 0 0 -317.49c0,-56.05 79.38,-56.05 79.38,0l0 317.49 92.6 0c0,-212.08 45.66,-449.79 -132.29,-449.79 -52.79,0 -44.26,19.36 -81.4,21.47 -0.14,0.01 -222.88,-79.99 -222.88,110.83z"/>
   <path class="fil3" d="M2463.47 832.22l0 410.1 92.61 0 0 -277.81 126.02 217.94c37.95,65.72 11.32,59.87 125.34,59.87l0 -449.79 -79.38 0 0 277.82c-68.62,-45.96 -124.85,-277.82 -198.44,-277.82 -42.92,0 -66.15,-5.21 -66.15,39.69z"/>
   <path class="fil3" d="M2040.14 1017.43c0,-194.54 264.58,-144.43 264.58,-39.69 0,65.42 -0.51,185.21 -119.06,185.21 -83.03,0 -145.52,-62.49 -145.52,-145.52zm-92.61 0c0,161.78 223.18,380.68 431.3,113.79 50.55,-64.83 44.79,-157.13 -0.05,-214.3 -43.53,-55.5 -78.51,-124.39 -206.35,-124.39 -75.19,0 -118.18,28.05 -156.19,68.7 -20.03,21.42 -31.07,36.11 -42.69,63.16 -4.76,11.09 -26.02,79.97 -26.02,93.04z"/>
   <path class="fil3" d="M3098.48 1162.95c-206.33,0 -162.07,-277.81 -39.69,-277.81 77.24,0 170.65,8.58 166.26,145.72 -1.95,60.71 -59.32,132.09 -126.57,132.09zm-13.23 92.6c109.25,0 224.9,-96 224.9,-198.43 0,-380.96 -450.78,-317.56 -441.58,-28.15 2.09,65.68 27.73,120.51 61.1,157.27 27.28,30.04 107.13,69.31 155.58,69.31z"/>
   <path class="fil3" d="M1577.11 924.83c0,31.91 5.35,64.05 18.79,87.04 63.91,109.29 232.57,9.77 232.57,98.16 0,61.03 -74.36,39.69 -224.9,39.69l0 92.6c121.35,0 317.51,38.7 317.51,-132.29 0,-50.87 -43.33,-111.52 -81.96,-129.7 -65.2,-30.68 -169.4,13.09 -169.4,-55.5 0,-62.12 81.27,-39.69 238.13,-39.69 0,-108.36 15.6,-92.61 -145.53,-92.61 -100.3,0 -185.21,34.32 -185.21,132.3z"/>
   <path class="fil3" d="M4659.53 1136.49c-124.77,59.87 -238.12,-73.8 -238.12,105.83l198.43 0c95.88,0 152.43,-101.21 110.87,-189.29 -64.28,-136.24 -146.48,-55.36 -243.16,-101.75 7.39,-88.8 43.38,-66.14 238.13,-66.14l0 -92.61c-88.75,0 -407.17,-24.24 -313.59,193.54 74.92,174.35 234.87,-0.7 247.44,150.42z"/>
   <path class="fil3" d="M4011.3 1030.66c0,118.73 123.39,224.89 211.67,224.89 56.38,0 120.94,-32.91 158.75,-52.91 -9.15,-34.28 -23.05,-47.93 -39.69,-79.38 -18.3,9.69 -70.7,39.69 -92.61,39.69 -241.8,0 -164.18,-410.08 92.61,-238.12 13.38,-50.12 25.88,-33.36 39.69,-92.61 -87.75,-20.44 -24.53,-39.69 -171.98,-39.69 -108.75,0 -198.44,122.91 -198.44,238.13z"/>
   <path class="fil4" d="M492.24 898.24c49.62,26.43 180.49,110.2 224.97,117.48 30.54,-13.91 62.98,-37.36 100.04,-57.05 33.18,-17.63 72.9,-41.76 107,-60.11 -19.78,-34.06 -163.6,-122.06 -218.96,-119.17 -42.66,2.23 -84.18,34.45 -119.34,53.84 -41.99,23.15 -66.97,27.01 -93.71,65.01z"/>
   <path class="fil5" d="M500.53 1174.57l42.25 30.97c38.46,24.92 119.47,74.35 161.87,75.78 60.64,2.05 181.99,-72.86 214.66,-106.6 -40.38,-30.44 -149.59,-109.93 -214.9,-107.17 -52.29,2.22 -172.25,82.24 -203.88,107.02z"/>
   <path class="fil3" d="M3865.78 832.22l0 410.1 92.6 0 0 -449.79 -52.92 0c-30.48,0 -39.68,9.21 -39.68,39.69z"/>
   <path class="fil6" d="M926.7 1174.57c40.2,47.05 158.22,103.73 213.85,120.14l0 -239.89c-71.22,36.77 -151.89,79.29 -213.85,119.75z"/>
   <path class="fil4" d="M280.65 1015.56c30.15,-41.62 81.75,-64.3 132.3,-92.23l54.09 -28.15 -186.39 -114.67 0 235.05z"/>
  </g>
 </g>
</svg>
