<?xml version="1.0" encoding="UTF-8"?>
<!DOCTYPE svg PUBLIC "-//W3C//DTD SVG 1.1//EN" "http://www.w3.org/Graphics/SVG/1.1/DTD/svg11.dtd">
<!-- Creator: CorelDRAW -->
<svg xmlns="http://www.w3.org/2000/svg" xml:space="preserve" width="158.75mm" height="79.375mm" version="1.1" style="shape-rendering:geometricPrecision; text-rendering:geometricPrecision; image-rendering:optimizeQuality; fill-rule:evenodd; clip-rule:evenodd"
viewBox="0 0 15875 7937.5"
 xmlns:xlink="http://www.w3.org/1999/xlink"
 xmlns:xodm="http://www.corel.com/coreldraw/odm/2003">
 <defs>
  <style type="text/css">
   <![CDATA[
    .fil5 {fill:#2F261A}
    .fil1 {fill:#5E72FF}
    .fil3 {fill:#6954F1}
    .fil2 {fill:#7B00B6}
    .fil4 {fill:#A20094}
    .fil0 {fill:#FF001E}
   ]]>
  </style>
 </defs>
 <g id="Слой_x0020_1">
  <metadata id="CorelCorpID_0Corel-Layer"/>
  <g id="_2227904745424">
   <path class="fil0" d="M6657.95 3901.18l0 -8.81c-34.67,-18.17 -63.27,-63.83 -89.65,-93.34 -436.47,-488.27 -473.08,-1255.41 -87.12,-1822.22 54.13,-79.49 157.75,-185.51 171.88,-209.83 -144.88,-181.39 -489.77,-343.7 -710.76,-389.16 -762.45,-156.86 -1475.24,274.48 -1711.63,975.18 -152.88,453.15 -72.63,935.73 183.5,1322.5 315.44,476.33 929.02,743.69 1524.59,611.32 151.52,-33.68 288.42,-82.69 402.48,-151.6 196.35,-118.63 162.47,-103.25 316.71,-234.04z"/>
   <path class="fil1" d="M8672.91 1715.69c21.63,63.97 488.17,385.93 487.22,1118.39 -0.94,727.97 -466.16,1052.86 -487.22,1118.42l317.3 215.7c112.8,55.09 264.68,106.2 403.16,130.38 407.12,71.09 772.69,-33.12 1068.46,-229.09 273.86,-181.44 476.93,-446.03 582.18,-761.97 231.42,-694.7 -88.12,-1482.03 -740.2,-1807.32 -353.9,-176.54 -808.01,-219.18 -1216.7,-46.96 -102.31,43.11 -361.53,179.45 -414.2,262.45z"/>
   <path class="fil2" d="M6670.93 1766.98c9.1,26.68 60.36,77.64 82.84,102.44 361.26,398.59 455.1,1086.53 217.16,1582.22 -77.64,161.76 -201.43,354.14 -312.98,440.73l0 8.81 94.06 83.71c164.4,133.14 370.33,239.65 580.18,291.96 458.66,114.35 912.29,-2.8 1278.71,-283.2 20.55,-15.72 30.43,-27.29 51.36,-41.15 -26.56,-60.9 -198.73,-161.73 -344.09,-466.22 -240.56,-503.88 -184.47,-1120.98 154.96,-1559.58l188.97 -211.01c-522.82,-454.38 -1230.5,-494.97 -1812.09,-108.83 -38.66,25.67 -65.63,45.57 -99.03,75.4 -33.5,29.9 -78.02,50.83 -80.05,84.72z"/>
   <path class="fil3" d="M8662.26 3952.5l10.65 0c21.06,-65.56 486.28,-390.45 487.22,-1118.42 0.95,-732.46 -465.59,-1054.42 -487.22,-1118.39l-10.81 0 -188.97 211.01c-339.43,438.6 -395.52,1055.7 -154.96,1559.58 145.36,304.49 317.53,405.32 344.09,466.22z"/>
   <path class="fil4" d="M6657.95 3892.37c111.55,-86.59 235.34,-278.97 312.98,-440.73 237.94,-495.69 144.1,-1183.63 -217.16,-1582.22 -22.48,-24.8 -73.74,-75.76 -82.84,-102.44l-17.87 0c-14.13,24.32 -117.75,130.34 -171.88,209.83 -385.96,566.81 -349.35,1333.95 87.12,1822.22 26.38,29.51 54.98,75.17 89.65,93.34z"/>
   <path class="fil5" d="M10488.48 6137.99c-47.9,0 -71.82,-23.92 -71.82,-71.82l0 -687.46c0,-89.65 153.91,-147.59 153.91,123.14l0 430.94c0,76.69 -9.94,205.2 -82.09,205.2zm82.09 -964.48c-15.65,-18 -3.03,-3.76 -16.85,-24.19 -144.94,-214.22 -496.18,-140.85 -496.18,157.57l0 749.03c0,110.44 38.94,254.01 118.48,312.46 122.3,89.87 277.06,62.84 381.65,-89.37 12.17,-17.7 1.38,-4.62 12.9,-17.88l0 123.13 359.12 0 0 -1662.22 -359.12 0 0 451.47z"/>
   <path class="fil5" d="M6055.9 5183.77l0 -123.13 -348.86 0 0 1323.62 359.12 0 0 -923.46c0,-97.2 44.41,-102.61 92.35,-102.61 55.14,0 61.56,85.72 61.56,143.66l0 882.41 359.12 0 0 -1056.84c0,-151.12 -78.95,-297.56 -225.73,-297.56 -151.64,0 -186.43,14.51 -274.17,126 -8.9,11.32 -15.86,19.25 -23.39,27.91z"/>
   <path class="fil5" d="M9472.68 6168.79c-26.32,0 -54.01,-11.98 -71.82,-20.53 -19.84,-85.15 -19.84,-766.48 0,-851.64 93.12,-44.66 143.65,-18.85 143.65,102.62l0 646.41c0,61.07 -12.13,123.14 -71.83,123.14zm-441.2 -790.08l0 687.46c0,203.08 174.14,348.87 379.64,348.87 194.28,0 375.71,-13.9 462.15,-225.31 51.68,-126.42 30.36,-586.91 30.36,-759.72 0,-112.87 -29.7,-210.39 -101.04,-288.85 -163.55,-179.86 -771.11,-178.24 -771.11,237.55z"/>
   <path class="fil5" d="M5040.1 5347.94c0,-43.64 31.88,-71.84 71.83,-71.84 69.69,0 82.08,54.04 82.08,123.14l0 133.38 -153.91 0 0 -184.68zm-359.12 30.77l0 697.73c0,104.36 58.83,191.95 115.13,244 149.43,138.13 757.02,201.8 757.02,-305.56l0 -123.14 -359.12 0c0,152.04 29.67,339.68 -143.65,256.52 -21.93,-94.14 -10.26,-265.24 -10.26,-369.38l513.03 0c0,-134.12 15.13,-408.76 -27.34,-516.47 -19.14,-48.52 -42.44,-86.86 -73.7,-121.25 -25.93,-28.53 -77.11,-59.84 -118.54,-76.41 -245.61,-98.34 -652.57,-16.04 -652.57,313.96z"/>
   <path class="fil5" d="M11535.06 6189.31c-96.21,0 -71.82,-170.32 -71.82,-277.05 0,-54.62 21.22,-88.23 51.04,-113.13 27.72,-23.14 69.74,-54.02 102.87,-71.55 0,129.72 43.21,461.73 -82.09,461.73zm-420.68 -851.63l0 143.65 307.82 0c82.71,0 -39.67,-205.23 112.86,-205.23 107.96,0 88.59,145.2 51.6,205.51 -17.98,29.3 -45.75,46.37 -78.98,64.67 -64.41,35.48 -125.78,51.77 -191.75,85.3 -225,114.33 -222.07,255 -222.07,465.38 0,175.15 81.17,318.08 256.51,318.08 201.14,0 184.04,-50.59 277.04,-112.87l0 82.09 338.6 0 0 -841.37c0,-265.81 -34.21,-513.03 -369.38,-513.03l-102.61 0c-186.78,0 -379.64,122.86 -379.64,307.82z"/>
   <path class="fil5" d="M3521.53 6189.31c-96.21,0 -71.82,-170.32 -71.82,-277.05 0,-90.76 77.86,-144.44 153.91,-184.68 0,129.72 43.2,461.73 -82.09,461.73zm-420.68 -851.63l0 143.65 307.81 0c82.72,0 -39.66,-205.23 112.87,-205.23 29.6,0 50.92,9.93 63.5,28.85 32.18,48.42 14.73,133.23 -11.91,176.66 -17.97,29.3 -45.74,46.37 -78.97,64.67 -64.42,35.48 -125.78,51.77 -191.75,85.3 -225,114.33 -222.07,255 -222.07,465.38 0,175.15 81.17,318.08 256.51,318.08 201.14,0 184.04,-50.59 277.04,-112.87l0 82.09 338.6 0 0 -841.37c0,-265.81 -34.21,-513.03 -369.38,-513.03l-102.61 0c-186.78,0 -379.64,122.86 -379.64,307.82z"/>
   <path class="fil5" d="M12284.09 6322.7c0,50.81 -95.32,41.04 -143.65,41.04l0 256.51c253.32,0 461.42,39.19 541.56,-217.73 41.45,-132.92 64.19,-302.94 92.03,-441.51l128.22 -672.11c12.43,-61.45 38.52,-156.03 38.52,-228.26l-348.86 0c-4.05,181.71 -82.09,697.67 -82.09,882.41l-10.26 0c0,-65.81 -17.54,-144.24 -20.59,-215.4 -7.64,-178.24 -61.49,-510.89 -61.49,-667.01l-369.38 0c0.99,44.59 20.44,117.81 28.25,156.44 11.16,55.21 17.78,99.84 29.03,155.65 22.04,109.4 178.71,873.12 178.71,949.97z"/>
   <path class="fil5" d="M7297.44 5368.46c0,307.86 143.98,365.38 357.8,534.87 281.65,223.23 -49.99,403.69 -49.99,121.81l0 -61.58 -318.07 0 0 143.66c0,194.22 152.95,307.82 348.85,307.82 170.34,0 311.06,-0.24 412.8,-161.8 61.71,-98 72.13,-269.42 24.31,-388.17 -58.46,-145.18 -229.49,-248.77 -356.64,-351.35 -251.53,-202.93 52.92,-359.33 52.92,-114.48l0 51.29 318.08 0 0 -112.85c0,-191.82 -155.59,-307.82 -348.86,-307.82l-71.82 0c-202.34,0 -369.38,141.23 -369.38,338.6z"/>
   <polygon class="fil5" points="8169.59,5040.12 8415.84,5040.12 8415.84,6384.26 8795.48,6384.26 8795.48,5040.12 9041.74,5040.12 9041.74,4722.04 8169.59,4722.04 "/>
   <polygon class="fil5" points="2228.7,5040.12 2474.95,5040.12 2474.95,6384.26 2854.59,6384.26 2854.59,5040.12 3100.85,5040.12 3100.85,4722.04 2228.7,4722.04 "/>
   <path class="fil5" d="M6763.88 5070.89l-82.08 0 0 256.53 82.08 0 0 841.37c0,72.77 18.79,142.37 53.72,182.27 74.7,85.34 273.29,63.98 397.75,63.98l0 -277.05 -71.82 0c-8.56,-36.72 -20.53,-48.2 -20.53,-92.34l0 -718.23 92.35 0 0 -256.53 -92.35 0 0 -287.29 -359.12 0 0 287.29z"/>
   <polygon class="fil5" points="4126.91,6384.26 4486.03,6384.26 4486.03,4722.04 4126.91,4722.04 "/>
   <path class="fil0" d="M12971.55 6158.52c0,347.28 461.73,340.26 461.73,0 0,-110.38 -115.2,-215.47 -225.74,-215.47 -121.46,0 -235.99,95.3 -235.99,215.47z"/>
   <path class="fil5" d="M8220.89 6763.9l0 400.17 61.56 0c0,-199.43 -22.1,-266.78 102.61,-266.78 63.32,0 41.04,164.12 41.04,266.78l61.57 0c0,-205.51 28.45,-318.08 -123.13,-318.08 -40.93,0 -62.24,20.12 -82.09,41.03l0 -153.91c-41.57,0 -61.56,-5.69 -61.56,30.79z"/>
   <path class="fil5" d="M7728.38 6897.29c46.66,0 76.7,17.39 82.08,82.07l-164.16 0c3.77,-45.38 31.61,-82.07 82.08,-82.07zm-143.65 102.6c0,245.53 273.81,206.59 277.04,61.56 -62.45,0 -33.37,-6.72 -60.53,21.57 -29.75,30.99 -14.63,40 -72.86,40 -57.38,0 -80.8,-34.83 -82.08,-92.34l225.73 0c0,-274.43 -287.3,-216.21 -287.3,-30.79z"/>
   <path class="fil5" d="M8046.46 7174.32c81.13,0 113.3,-36.88 133.39,-123.12l-61.57 0c-6.9,82.98 -140.74,126.94 -147.26,-34.99 -6.07,-150.99 139.55,-150.01 147.26,-57.37l61.57 0c-23.39,-100.37 -53.45,-112.85 -133.39,-112.85 -188.28,0 -192.63,328.33 0,328.33z"/>
   <path class="fil5" d="M7461.61 6845.99c-50.65,1.13 -50.18,0.64 -51.31,51.3l51.31 0c0,228.47 -28.21,297.25 102.6,266.78l0 -41.05c-27.7,-2.3 -27.91,-4.81 -51.3,-10.27l0 -215.46 51.3 0 0 -51.3 -51.3 0 0 -82.09 -51.3 0 0 82.09z"/>
  </g>
 </g>
</svg>
