<?xml version="1.0" encoding="UTF-8"?>
<!DOCTYPE svg PUBLIC "-//W3C//DTD SVG 1.1//EN" "http://www.w3.org/Graphics/SVG/1.1/DTD/svg11.dtd">
<!-- Creator: CorelDRAW -->
<svg xmlns="http://www.w3.org/2000/svg" xml:space="preserve" width="158.75mm" height="39.6874mm" version="1.1" style="shape-rendering:geometricPrecision; text-rendering:geometricPrecision; image-rendering:optimizeQuality; fill-rule:evenodd; clip-rule:evenodd"
viewBox="0 0 15874.98 3968.74"
 xmlns:xlink="http://www.w3.org/1999/xlink"
 xmlns:xodm="http://www.corel.com/coreldraw/odm/2003">
 <defs>
  <style type="text/css">
   <![CDATA[
    .fil5 {fill:black}
    .fil1 {fill:#5E72FF}
    .fil3 {fill:#6954F1}
    .fil2 {fill:#7B00B6}
    .fil4 {fill:#A20094}
    .fil0 {fill:#FF001E}
   ]]>
  </style>
 </defs>
 <g id="Слой_x0020_1">
  <metadata id="CorelCorpID_0Corel-Layer"/>
  <g id="_2264321800112">
   <path class="fil0" d="M7624.61 1838.48l0 -5.15c-20.24,-10.6 -36.94,-37.27 -52.35,-54.5 -254.85,-285.1 -276.23,-733.03 -50.87,-1064 31.61,-46.41 92.11,-108.32 100.36,-122.52 -84.59,-105.91 -285.97,-200.68 -415.01,-227.23 -445.2,-91.59 -861.4,160.27 -999.43,569.41 -89.26,264.6 -42.4,546.38 107.15,772.21 184.19,278.13 542.46,434.25 890.21,356.96 88.48,-19.67 168.41,-48.29 235.01,-88.52 114.65,-69.27 94.87,-60.29 184.93,-136.66z"/>
   <path class="fil1" d="M8801.15 562.37c12.63,37.35 285.04,225.34 284.49,653.03 -0.55,425.06 -272.19,614.76 -284.49,653.04l185.27 125.95c65.87,32.17 154.55,62.01 235.41,76.13 237.72,41.51 451.17,-19.34 623.87,-133.76 159.91,-105.95 278.48,-260.44 339.94,-444.92 135.13,-405.64 -51.45,-865.36 -432.2,-1055.3 -206.65,-103.08 -471.8,-127.98 -710.44,-27.42 -59.74,25.17 -211.1,104.78 -241.85,153.25z"/>
   <path class="fil2" d="M7632.19 592.31c5.31,15.58 35.24,45.34 48.37,59.82 210.94,232.74 265.73,634.43 126.8,923.86 -45.34,94.45 -117.62,206.78 -182.75,257.34l0 5.15 54.92 48.88c95.99,77.74 216.24,139.93 338.77,170.47 267.81,66.77 532.69,-1.63 746.64,-165.36 12,-9.18 17.77,-15.93 29.99,-24.03 -15.51,-35.55 -116.04,-94.43 -200.91,-272.22 -140.47,-294.22 -107.72,-654.55 90.48,-910.64l110.34 -123.21c-305.28,-265.32 -718.49,-289.02 -1058.09,-63.55 -22.57,14.99 -38.32,26.61 -57.82,44.03 -19.56,17.45 -45.56,29.68 -46.74,49.46z"/>
   <path class="fil3" d="M8794.93 1868.44l6.22 0c12.3,-38.28 283.94,-227.98 284.49,-653.04 0.55,-427.69 -271.86,-615.68 -284.49,-653.03l-6.31 0 -110.34 123.21c-198.2,256.09 -230.95,616.42 -90.48,910.64 84.87,177.79 185.4,236.67 200.91,272.22z"/>
   <path class="fil4" d="M7624.61 1833.33c65.13,-50.56 137.41,-162.89 182.75,-257.34 138.93,-289.43 84.14,-691.12 -126.8,-923.86 -13.13,-14.48 -43.06,-44.24 -48.37,-59.82l-10.44 0c-8.25,14.2 -68.75,76.11 -100.36,122.52 -225.36,330.97 -203.98,778.9 50.87,1064 15.41,17.23 32.11,43.9 52.35,54.5z"/>
   <path class="fil5" d="M9861.26 3144.56c-27.96,0 -41.93,-13.97 -41.93,-41.94l0 -401.41c0,-52.34 89.87,-86.18 89.87,71.9l0 251.63c0,44.78 -5.81,119.82 -47.94,119.82zm47.94 -563.16c-9.14,-10.51 -1.77,-2.2 -9.84,-14.13 -84.63,-125.08 -289.72,-82.24 -289.72,92.01l0 437.36c0,64.48 22.74,148.31 69.18,182.44 71.41,52.48 161.77,36.7 222.85,-52.18 7.1,-10.34 0.8,-2.7 7.53,-10.44l0 71.9 209.69 0 0 -970.58 -209.69 0 0 263.62z"/>
   <path class="fil5" d="M7273.07 2587.39l0 -71.9 -203.7 0 0 772.87 209.69 0 0 -539.22c0,-56.75 25.93,-59.91 53.92,-59.91 32.2,0 35.95,50.05 35.95,83.88l0 515.25 209.69 0 0 -617.1c0,-88.24 -46.1,-173.74 -131.8,-173.74 -88.55,0 -108.86,8.47 -160.09,73.57 -5.2,6.61 -9.26,11.24 -13.66,16.3z"/>
   <path class="fil5" d="M9268.14 3162.54c-15.37,0 -31.54,-6.99 -41.94,-11.99 -11.58,-49.71 -11.58,-447.55 0,-497.27 54.37,-26.08 83.88,-11.01 83.88,59.92l0 377.44c0,35.66 -7.08,71.9 -41.94,71.9zm-257.62 -461.33l0 401.41c0,118.58 101.68,203.71 221.67,203.71 113.44,0 219.38,-8.12 269.85,-131.56 30.18,-73.82 17.73,-342.7 17.73,-443.6 0,-65.91 -17.34,-122.85 -59,-168.66 -95.5,-105.02 -450.25,-104.08 -450.25,138.7z"/>
   <path class="fil5" d="M6679.94 2683.25c0,-25.49 18.62,-41.95 41.94,-41.95 40.7,0 47.93,31.55 47.93,71.9l0 77.88 -89.87 0 0 -107.83zm-209.69 17.96l0 407.41c0,60.93 34.35,112.08 67.23,142.47 87.25,80.66 442.02,117.83 442.02,-178.42l0 -71.9 -209.69 0c0,88.78 17.33,198.34 -83.88,149.78 -12.8,-54.96 -5.99,-154.87 -5.99,-215.68l299.56 0c0,-78.31 8.84,-238.67 -15.96,-301.57 -11.18,-28.33 -24.78,-50.71 -43.04,-70.79 -15.14,-16.66 -45.02,-34.94 -69.21,-44.62 -143.41,-57.42 -381.04,-9.37 -381.04,183.32z"/>
   <path class="fil5" d="M10472.37 3174.52c-56.18,0 -41.94,-99.45 -41.94,-161.77 0,-31.89 12.39,-51.51 29.8,-66.05 16.19,-13.51 40.72,-31.55 60.07,-41.78 0,75.74 25.23,269.6 -47.93,269.6zm-245.64 -497.27l0 83.88 179.74 0c48.29,0 -23.17,-119.83 65.9,-119.83 63.03,0 51.72,84.78 30.12,120 -10.49,17.1 -26.71,27.07 -46.11,37.76 -37.61,20.71 -73.44,30.23 -111.97,49.8 -131.37,66.76 -129.66,148.9 -129.66,271.74 0,102.27 47.39,185.73 149.77,185.73 117.45,0 107.47,-29.54 161.77,-65.91l0 47.94 197.71 0 0 -491.28c0,-155.21 -19.98,-299.56 -215.68,-299.56l-59.92 0c-109.06,0 -221.67,71.74 -221.67,179.73z"/>
   <path class="fil5" d="M5793.25 3174.52c-56.18,0 -41.94,-99.45 -41.94,-161.77 0,-52.99 45.46,-84.34 89.87,-107.83 0,75.74 25.22,269.6 -47.93,269.6zm-245.64 -497.27l0 83.88 179.73 0c48.3,0 -23.16,-119.83 65.91,-119.83 17.28,0 29.73,5.8 37.07,16.84 18.79,28.28 8.6,77.8 -6.95,103.16 -10.49,17.1 -26.71,27.07 -46.11,37.76 -37.62,20.71 -73.44,30.23 -111.96,49.8 -131.38,66.76 -129.67,148.9 -129.67,271.74 0,102.27 47.39,185.73 149.77,185.73 117.45,0 107.47,-29.54 161.77,-65.91l0 47.94 197.71 0 0 -491.28c0,-155.21 -19.98,-299.56 -215.68,-299.56l-59.92 0c-109.06,0 -221.67,71.74 -221.67,179.73z"/>
   <path class="fil5" d="M10909.73 3252.41c0,29.67 -55.66,23.96 -83.88,23.96l0 149.78c147.91,0 269.42,22.88 316.22,-127.13 24.2,-77.61 37.48,-176.89 53.73,-257.8l74.87 -392.45c7.26,-35.88 22.49,-91.1 22.49,-133.28l-203.7 0c-2.36,106.1 -47.93,407.37 -47.93,515.24l-5.99 0c0,-38.42 -10.24,-84.22 -12.02,-125.77 -4.46,-104.08 -35.91,-298.31 -35.91,-389.47l-215.68 0c0.58,26.04 11.94,68.79 16.5,91.35 6.51,32.23 10.38,58.29 16.95,90.88 12.87,63.88 104.35,509.82 104.35,554.69z"/>
   <path class="fil5" d="M7998.01 2695.23c0,179.76 84.07,213.34 208.92,312.31 164.46,130.34 -29.19,235.71 -29.19,71.12l0 -35.95 -185.72 0 0 83.88c0,113.41 89.31,179.74 203.69,179.74 99.46,0 181.63,-0.14 241.04,-94.48 36.03,-57.22 42.11,-157.31 14.19,-226.65 -34.13,-84.77 -134,-145.26 -208.24,-205.16 -146.87,-118.49 30.9,-209.81 30.9,-66.84l0 29.95 185.73 0 0 -65.9c0,-112 -90.85,-179.73 -203.7,-179.73l-41.94 0c-118.15,0 -215.68,82.46 -215.68,197.71z"/>
   <polygon class="fil5" points="8507.26,2503.51 8651.05,2503.51 8651.05,3288.36 8872.72,3288.36 8872.72,2503.51 9016.51,2503.51 9016.51,2317.78 8507.26,2317.78 "/>
   <polygon class="fil5" points="5038.36,2503.51 5182.15,2503.51 5182.15,3288.36 5403.82,3288.36 5403.82,2503.51 5547.61,2503.51 5547.61,2317.78 5038.36,2317.78 "/>
   <path class="fil5" d="M7686.46 2521.48l-47.92 0 0 149.78 47.92 0 0 491.28c0,42.49 10.97,83.13 31.37,106.43 43.62,49.83 159.57,37.36 232.25,37.36l0 -161.77 -41.94 0c-5,-21.44 -11.99,-28.15 -11.99,-53.92l0 -419.38 53.93 0 0 -149.78 -53.93 0 0 -167.75 -209.69 0 0 167.75z"/>
   <polygon class="fil5" points="6146.73,3288.36 6356.42,3288.36 6356.42,2317.78 6146.73,2317.78 "/>
   <path class="fil0" d="M11311.14 3156.55c0,202.77 269.6,198.67 269.6,0 0,-64.46 -67.26,-125.82 -131.81,-125.82 -70.92,0 -137.79,55.65 -137.79,125.82z"/>
   <path class="fil5" d="M8537.21 3510.03l0 233.66 35.95 0c0,-116.45 -12.91,-155.78 59.91,-155.78 36.98,0 23.97,95.83 23.97,155.78l35.95 0c0,-120 16.61,-185.73 -71.9,-185.73 -23.9,0 -36.34,11.75 -47.93,23.96l0 -89.87c-24.27,0 -35.95,-3.32 -35.95,17.98z"/>
   <path class="fil5" d="M8249.64 3587.91c27.24,0 44.78,10.16 47.92,47.93l-95.85 0c2.2,-26.5 18.46,-47.93 47.93,-47.93zm-83.88 59.91c0,143.37 159.88,120.63 161.76,35.95 -36.46,0 -19.48,-3.93 -35.34,12.59 -17.37,18.1 -8.54,23.36 -42.54,23.36 -33.51,0 -47.18,-20.34 -47.93,-53.92l131.8 0c0,-160.24 -167.75,-126.24 -167.75,-17.98z"/>
   <path class="fil5" d="M8435.36 3749.67c47.38,0 66.16,-21.53 77.89,-71.89l-35.95 0c-4.03,48.46 -82.18,74.12 -85.99,-20.43 -3.54,-88.16 81.49,-87.59 85.99,-33.5l35.95 0c-13.66,-58.6 -31.21,-65.89 -77.89,-65.89 -109.93,0 -112.47,191.71 0,191.71z"/>
   <path class="fil5" d="M8093.87 3557.96c-29.58,0.66 -29.3,0.37 -29.96,29.95l29.96 0c0,133.41 -16.47,173.57 59.91,155.78l0 -23.97c-16.18,-1.34 -16.3,-2.81 -29.96,-6l0 -125.81 29.96 0 0 -29.95 -29.96 0 0 -47.93 -29.95 0 0 47.93z"/>
  </g>
 </g>
</svg>
