<?xml version="1.0" encoding="UTF-8"?>
<!DOCTYPE svg PUBLIC "-//W3C//DTD SVG 1.1//EN" "http://www.w3.org/Graphics/SVG/1.1/DTD/svg11.dtd">
<!-- Creator: CorelDRAW -->
<svg xmlns="http://www.w3.org/2000/svg" xml:space="preserve" width="158.75mm" height="79.375mm" version="1.1" style="shape-rendering:geometricPrecision; text-rendering:geometricPrecision; image-rendering:optimizeQuality; fill-rule:evenodd; clip-rule:evenodd"
viewBox="0 0 15875 7937.5"
 xmlns:xlink="http://www.w3.org/1999/xlink"
 xmlns:xodm="http://www.corel.com/coreldraw/odm/2003">
 <defs>
  <style type="text/css">
   <![CDATA[
    .fil71 {fill:#23033B}
    .fil104 {fill:#25083E}
    .fil108 {fill:#270C41}
    .fil96 {fill:#2A1344}
    .fil91 {fill:#2D1D49}
    .fil74 {fill:#2F214B}
    .fil49 {fill:#30234B}
    .fil98 {fill:#31274D}
    .fil44 {fill:#31284D}
    .fil41 {fill:#322B4E}
    .fil46 {fill:#332E4F}
    .fil130 {fill:#33304F}
    .fil23 {fill:#343151}
    .fil57 {fill:#353652}
    .fil59 {fill:#363953}
    .fil79 {fill:#373A54}
    .fil53 {fill:#373D54}
    .fil97 {fill:#383D56}
    .fil69 {fill:#394156}
    .fil45 {fill:#394557}
    .fil64 {fill:#3B4659}
    .fil100 {fill:#3B4958}
    .fil39 {fill:#3B4C59}
    .fil86 {fill:#3C4B5C}
    .fil78 {fill:#3C4E5C}
    .fil62 {fill:#3D515B}
    .fil54 {fill:#3E515D}
    .fil61 {fill:#3E555C}
    .fil60 {fill:#3F595E}
    .fil26 {fill:#405D5F}
    .fil113 {fill:#415960}
    .fil123 {fill:#425E62}
    .fil112 {fill:#435F61}
    .fil15 {fill:#436562}
    .fil70 {fill:#436862}
    .fil111 {fill:#456464}
    .fil28 {fill:#456D65}
    .fil118 {fill:#466A66}
    .fil105 {fill:#476C68}
    .fil13 {fill:#477567}
    .fil51 {fill:#477768}
    .fil102 {fill:#486E68}
    .fil121 {fill:#497169}
    .fil114 {fill:#49756A}
    .fil11 {fill:#497E6A}
    .fil56 {fill:#4A816B}
    .fil126 {fill:#4B796C}
    .fil42 {fill:#4B856C}
    .fil81 {fill:#4C7A6D}
    .fil90 {fill:#4C876D}
    .fil120 {fill:#4D7D6E}
    .fil48 {fill:#4D8A6E}
    .fil82 {fill:#4E826F}
    .fil30 {fill:#4E8D6F}
    .fil117 {fill:#4F8570}
    .fil18 {fill:#4F9171}
    .fil31 {fill:#4F9471}
    .fil128 {fill:#508672}
    .fil116 {fill:#518973}
    .fil85 {fill:#518C73}
    .fil5 {fill:#519973}
    .fil119 {fill:#528E74}
    .fil63 {fill:#529E75}
    .fil131 {fill:#539176}
    .fil52 {fill:#53A176}
    .fil65 {fill:#53A376}
    .fil88 {fill:#549476}
    .fil110 {fill:#559979}
    .fil14 {fill:#55A778}
    .fil99 {fill:#56A979}
    .fil89 {fill:#579D79}
    .fil37 {fill:#57AD7A}
    .fil92 {fill:#57AE7A}
    .fil129 {fill:#58A17B}
    .fil8 {fill:#58B17C}
    .fil101 {fill:#58B37B}
    .fil124 {fill:#59A27B}
    .fil40 {fill:#59B67D}
    .fil106 {fill:#5AA57E}
    .fil135 {fill:#5AB87E}
    .fil109 {fill:#5BA97E}
    .fil107 {fill:#5BAD81}
    .fil55 {fill:#5BBB7E}
    .fil33 {fill:#5CBD80}
    .fil132 {fill:#5CBF80}
    .fil16 {fill:#5DC281}
    .fil103 {fill:#5EB383}
    .fil47 {fill:#5EC583}
    .fil43 {fill:#5FC883}
    .fil73 {fill:#5FCA84}
    .fil67 {fill:#60BA85}
    .fil38 {fill:#60CB85}
    .fil34 {fill:#61CD86}
    .fil127 {fill:#62BD87}
    .fil25 {fill:#62D187}
    .fil93 {fill:#62D188}
    .fil77 {fill:#63C188}
    .fil27 {fill:#63D487}
    .fil1 {fill:#63D689}
    .fil87 {fill:#65C98B}
    .fil22 {fill:#65DB8B}
    .fil66 {fill:#65DC8B}
    .fil2 {fill:#66DD8C}
    .fil58 {fill:#67CC8D}
    .fil122 {fill:#67D18E}
    .fil6 {fill:#67E18E}
    .fil68 {fill:#67E78F}
    .fil84 {fill:#68D18F}
    .fil83 {fill:#69D58F}
    .fil21 {fill:#69E38E}
    .fil12 {fill:#69E690}
    .fil50 {fill:#69EA91}
    .fil94 {fill:#6AD690}
    .fil4 {fill:#6AE791}
    .fil133 {fill:#6BD992}
    .fil19 {fill:#6BEB93}
    .fil7 {fill:#6BED94}
    .fil75 {fill:#6CDD93}
    .fil72 {fill:#6CF193}
    .fil125 {fill:#6DE395}
    .fil24 {fill:#6DF095}
    .fil80 {fill:#6DF595}
    .fil17 {fill:#6EF195}
    .fil32 {fill:#6EF396}
    .fil76 {fill:#6EFA96}
    .fil9 {fill:#6FF598}
    .fil95 {fill:#70E697}
    .fil134 {fill:#70EB97}
    .fil10 {fill:#70F698}
    .fil20 {fill:#71F899}
    .fil115 {fill:#71FC99}
    .fil3 {fill:#72FA9A}
    .fil0 {fill:#74FC9D}
    .fil35 {fill:#74FE9E}
    .fil36 {fill:#75FD9E}
    .fil29 {fill:#76FE9F}
   ]]>
  </style>
 </defs>
 <g id="Слой_x0020_1">
  <metadata id="CorelCorpID_0Corel-Layer"/>
  <g id="_2228569373632">
   <path class="fil0" d="M8922.73 1232.95c89.41,190.09 389.71,596.81 551.98,705.47 86.49,-57.92 148.61,-124.87 211.89,-206.02 40.32,-51.7 65.87,-75.27 99.59,-118.88 80.21,-103.74 60.16,-14.94 53.13,-133.66 -142.03,-120.9 -325.96,-448.3 -399.88,-458.73 -94.46,-22.97 -34.35,-22.55 -130.16,9.99 -25.37,8.61 -100.88,53.97 -135.26,72.06 -51.48,27.1 -180.44,82.4 -251.29,129.77z"/>
   <path class="fil1" d="M6123.75 2846.58c172.4,52.75 193.73,49.31 292.69,141.48l660.66 540.72c29.35,23.13 44.38,32.48 62.18,47.02l320.94 273.41c5.96,4.79 14.15,11.4 20.23,16.2 6.17,4.86 14.66,11.1 20.91,15.93l174.59 173.48c131.41,-53.5 61.15,10.76 140.92,-103.69l-1516.76 -1324.44c-93.84,8.54 -39.69,-11.44 -95.58,60.11 -32.88,42.08 -61.18,116.35 -80.78,159.78z"/>
   <path class="fil2" d="M7922.86 3772.63c119.84,-38.99 27.03,54.36 105.65,-63.86 -196.53,-70.99 -876.28,-775.17 -1039.43,-942.21 -171.35,-175.44 -172.6,-303.76 -300.96,-352.88l-105.64 18.57c106.85,288.01 61.43,289.99 432.96,594.31l533.23 488.07c71.72,58.27 106.99,82.27 170.75,144.27 85.82,83.44 60.3,103.85 203.44,113.73z"/>
   <path class="fil3" d="M8663.43 1409.14c64.33,26.07 178.17,245.23 281.63,383.52 99.56,133.08 230.73,295.73 388.56,351.37 88.09,-106.32 108.75,-84.47 141.09,-205.61 -162.27,-108.66 -462.57,-515.38 -551.98,-705.47 -49.31,21.59 -76.74,24.21 -131.41,55.26 -165.24,93.84 -67.43,24.73 -127.89,120.93z"/>
   <path class="fil4" d="M7111.4 2197.03l396.54 507.21c59.96,76.17 58.4,83.08 128.99,154.92 125.68,127.93 443.18,463.21 638.49,560.56l70.55 -105.64 -523.37 -501.22c-221.11,-272.08 -174.51,-132.03 -444.79,-546.33 -89.9,-137.8 -66.06,-108.35 -125.32,-123.67 -100.89,-43.76 -38.89,-30.7 -70.54,7.2 -141.73,0 -15.48,-8.5 -70.55,46.97z"/>
   <path class="fil5" d="M5227.02 4407.55c73.34,118.37 140.62,115.86 339.55,241.98 136.23,86.37 232.11,149.81 360.47,239.09 177.08,123.16 488.05,389.62 657.56,471.31 92.96,-31.05 67.08,5.42 92.58,-70.54 -83.24,-124.63 -480.77,-402.27 -638.61,-512.64 -99.66,-69.69 -646.77,-446.19 -726.11,-461.8 -5.54,4.39 -14.65,3.77 -16.72,13.04 -2.21,9.94 -14.14,11.71 -17.06,14.99 -5.34,5.97 -41.66,51.19 -51.66,64.57z"/>
   <path class="fil6" d="M6688.12 2413.68c128.36,49.12 129.61,177.44 300.96,352.88 163.15,167.04 842.9,871.22 1039.43,942.21 28.85,-46.81 40.66,-72.49 61.77,-112.5 -314.51,-231.15 -906.05,-775.51 -1114.24,-1101.45 -63.23,-98.99 -68.57,-131.14 -146.83,-159.62 -77.99,8.88 9.76,-38.88 -81.31,17.96 -69.89,43.62 -7.69,-2.66 -59.78,60.52z"/>
   <path class="fil7" d="M7534.68 2008.79c166.95,321.93 405.43,555.13 551.35,716.99 117.96,130.85 299.69,343.9 471.58,376.48 35.21,-84.59 -27.1,-46.71 70.54,-113.34 -93.82,-45.48 -24.22,-5.69 -102.06,-64.51l-206.87 -182.95c-92.53,-88.32 -150.22,-156.84 -236.44,-260.14 -161.05,-192.96 -303.88,-371.84 -396.8,-613.45 -142.45,52.43 -106.72,8.48 -151.3,140.92z"/>
   <path class="fil8" d="M5519.09 3913.73c61.67,92.12 235.11,180.74 351.28,251.95 112.27,68.83 236.63,160.06 385.61,254.5 223.39,141.59 535.54,448.92 714.33,523.16 83.54,-54.06 53.21,-44.23 105.82,-78.71l-740.44 -556.07c-135.62,-89.85 -248.96,-162.85 -377.86,-259.7 -122.29,-91.87 -257.81,-145 -363.18,-241.13 -71.23,57.59 -42.45,21.62 -75.56,106z"/>
   <path class="fil9" d="M8130.43 1656.23c96.92,263.39 192.83,342.68 344.62,539.4 101.54,131.61 316.41,351.85 470.56,444.18 42.1,-98.9 42.18,-120.01 141.1,-172.47 -240.52,-42.12 -198.36,-91.31 -418.26,-360.7 -4.72,-5.78 -11.45,-13.6 -16.22,-19.38 -147.74,-178.87 -255.25,-305.76 -341.36,-536.85l-180.44 105.82z"/>
   <path class="fil10" d="M8310.87 1550.41c86.11,231.09 193.62,357.98 341.36,536.85 4.77,5.78 11.5,13.6 16.22,19.38 219.9,269.39 177.74,318.58 418.26,360.7 58.42,-115.75 82.24,-161.73 176.36,-211.64l-211.46 0c-75.8,-113.2 -340.77,-358.61 -450.83,-581.46l-78.55 -180.01c-3.96,-7.26 -27.58,-40.53 -34.99,-49.64 -39.57,51.14 -96.31,65.41 -176.37,105.82z"/>
   <path class="fil11" d="M4924.45 4953.89c185.52,86.29 490.22,284.17 662.84,413.94 163.67,123.04 493.78,389.98 642.28,460.51l63.16 -80.4c-53.21,-130.86 -475.07,-400.73 -619.12,-500.37 -138.19,-95.59 -524.18,-370.92 -678.61,-415.5 -42.59,59.84 -36.49,56.7 -70.55,121.82z"/>
   <path class="fil12" d="M6992.08 2220.61c89.3,310.55 606.6,799.37 861.31,1022.06 126.94,110.98 188.19,227.8 351.48,236.98l70.55 -59.93c-195.31,-97.35 -512.81,-432.63 -638.49,-560.56 -70.59,-71.84 -69.03,-78.75 -128.99,-154.92l-396.54 -507.21c-76.33,-0.3 -54.95,-4.88 -119.32,23.58z"/>
   <path class="fil13" d="M2430.88 6030.13c15.35,45.41 -1.24,30.46 59.72,88.09 134.91,-35.61 406.4,-258.56 584.6,-344.85 227.78,-110.29 471.87,-146.8 791.06,-154.82l0 -152.8c-393.5,-13.35 -551.66,18.05 -822.97,164.17 -200.97,108.23 -475.91,259.3 -612.41,400.21z"/>
   <path class="fil14" d="M5383.01 4175.26c181.57,60.2 574.75,347.69 730.08,454.7 120.06,82.73 239.88,166.92 352.54,249.73 139.99,102.89 209.13,202.92 363.58,253.8l70.55 -87.82 -62.01 -46.95c-545.18,-410.72 -746.74,-573.29 -1384.2,-955.24 -80.04,66.97 -45.56,19.14 -70.54,131.78z"/>
   <path class="fil15" d="M2561.14 6245.42l70.55 93.86c433.48,-142.63 613.69,-395.34 1234.57,-381.84l0 -188.99c-298.2,7.91 -642.78,73.01 -790.2,165.82l-514.92 311.15z"/>
   <path class="fil16" d="M5700.47 3574.17c351.66,73.59 1242.39,848.55 1552.02,1045.02 79.48,-87.71 41.85,-31.99 37.96,-105.82 -74.85,-77.16 -239.91,-191.26 -333.34,-267.86 -133.63,-109.57 -265.87,-200 -383.72,-283.39 -271.02,-191.77 -507.57,-381.64 -767.1,-507.12 -61.32,19.61 5.96,-27.46 -58.47,48.2 -24.58,28.87 -3.62,19.05 -47.35,70.97z"/>
   <path class="fil17" d="M7852.14 1832.42c17.77,85.45 99.99,210.51 156.65,295.79 163.5,246.07 427.66,572.55 689.91,727.49 78.48,-25.1 -15.76,61.27 46.96,-28.56 47.82,-68.48 22.12,-11.04 23.76,-77.43 -45.03,-99.71 -136.55,-139.52 -212.11,-208.79l-296.07 -381.56c-4.34,-5.96 -10.88,-14.14 -15.27,-20.05l-45.14 -60.55c-4.46,-5.59 -10.79,-13.84 -15.33,-19.34 -71.76,-86.7 -163.06,-157.13 -192.27,-297.54 -94.59,-51.29 -35.41,-41.89 -70.54,0.17 -141.81,0 -14.97,-13.5 -70.55,70.37z"/>
   <path class="fil18" d="M2689.19 5237.56c-43.28,98.28 -130.85,170.23 -217.19,243.91 -97.6,83.28 -189.18,134.92 -266.52,231.2 6.33,122.6 -10.48,42.51 46.13,70.55 299.78,-244.68 645.02,-602.69 1034.46,-675.4 203.62,-38.02 368.7,-53.06 580.19,-40.26l0 -205.53c-223.58,17.22 -433.84,78.31 -651.24,138.24 -133.59,36.82 -158.57,22.68 -265.52,112.33 -94.03,78.81 -163.73,109.91 -260.31,124.96z"/>
   <path class="fil19" d="M7397.66 2008.97c92.46,266.26 262.88,491.81 450.07,674.99 197.61,193.37 299.18,370.83 545.38,524.3 121.33,-56.82 72.3,-57.11 164.5,-106 -171.89,-32.58 -353.62,-245.63 -471.58,-376.48 -145.92,-161.86 -384.4,-395.06 -551.35,-716.99 -71.03,-27.13 0.29,-46.74 -137.02,0.18z"/>
   <path class="fil20" d="M8487.24 1444.59c7.41,9.11 31.03,42.38 34.99,49.64l78.55 180.01c110.06,222.85 375.03,468.26 450.83,581.46l211.46 0c44.18,-85.45 26.98,-67.04 70.55,-111.67 -157.83,-55.64 -289,-218.29 -388.56,-351.37 -103.46,-138.29 -217.3,-357.45 -281.63,-383.52 -123.98,-30.16 -32.1,-37.29 -176.19,35.45z"/>
   <path class="fil21" d="M6829.21 2335.2c78.26,28.48 83.6,60.63 146.83,159.62 208.19,325.94 799.73,870.3 1114.24,1101.45l114.59 -116.62c-163.29,-9.18 -224.54,-126 -351.48,-236.98 -254.71,-222.69 -772.01,-711.51 -861.31,-1022.06l-162.87 114.59z"/>
   <path class="fil22" d="M6300.11 2626.69l1516.76 1324.44 35.27 -72.68c-38.11,-142.74 -30.05,-66.49 -148.35,-169.1l-572.27 -485.94c-109.52,-91.01 -615.02,-633.11 -690.31,-650.25 -94.6,-51.28 -35.42,-41.88 -70.55,0.18 -142.31,0 -15.02,-10.18 -70.55,53.35z"/>
   <path class="fil23" d="M4007.35 6554.22c230.36,104.38 354.39,182.18 547.08,339.37 94.11,76.78 386.38,302.26 445.59,406.38 90.46,-70.36 87.57,-121.99 171.35,-184.34 -148.01,-29.99 -185.25,-70.93 -300.87,-185.29l-497.01 -379.02c-34.05,-22.44 -84.87,-51.45 -127.01,-82.11 -43.87,-31.91 -31.95,-21.77 -62.42,-50.35l-61.62 -71.27 -115.09 206.63z"/>
   <path class="fil24" d="M7685.98 1867.87c92.92,241.61 235.75,420.49 396.8,613.45 86.22,103.3 143.91,171.82 236.44,260.14l206.87 182.95c77.84,58.82 8.24,19.03 102.06,64.51 87.64,-101.65 38.26,-34 70.55,-133.22 -262.25,-154.94 -526.41,-481.42 -689.91,-727.49 -56.66,-85.28 -138.88,-210.34 -156.65,-295.79 -123.67,-30.08 -32.72,-41.07 -166.16,35.45z"/>
   <path class="fil25" d="M5998.78 3031.89c29.75,53.77 65.34,101.99 83.31,149.07 153.33,-1.14 129.5,-2 228.94,85.73l529.86 388.18c142.87,112.77 625.89,532.58 764.34,560.54l19.32 -54.95c-151.76,-67.42 -838.33,-639.9 -899.4,-746.94 -45.91,-60.08 -238.6,-203.66 -305.87,-253.57 -72.6,-53.86 -229.23,-201.62 -330.81,-212.82 -5.53,3.35 -14.71,1.56 -16.69,9.86 -2.18,9.14 -14.47,9.56 -17.38,12.41 -1.06,1.05 -52.99,59.29 -55.62,62.49z"/>
   <path class="fil26" d="M4606.99 5549.95c203.36,84.51 466.65,273.63 626.07,384.58 176.23,122.64 409.09,347.31 573.23,418.91 57.68,-95.4 22.84,-69.09 140.91,-128.54 -152.42,-10.49 -251.26,-116.81 -350.28,-196.78 -108.62,-87.72 -192.37,-144.73 -302.56,-225.9 -177.41,-130.68 -423.17,-296.08 -616.82,-387.32 -85.29,81.29 -43.96,16.52 -70.55,135.05z"/>
   <path class="fil27" d="M6088.47 2947.13c101.58,11.2 258.21,158.96 330.81,212.82 67.27,49.91 259.96,193.49 305.87,253.57l718.27 515.86c121.44,127.28 169.83,61.85 181.13,231.08 77.21,-76.03 63.07,-41.29 51.4,-105.64l-174.59 -173.48c-6.25,-4.83 -14.74,-11.07 -20.91,-15.93 -6.08,-4.8 -14.27,-11.41 -20.23,-16.2l-320.94 -273.41c-17.8,-14.54 -32.83,-23.89 -62.18,-47.02l-660.66 -540.72c-98.96,-92.17 -120.29,-88.73 -292.69,-141.48 -65.17,49.93 -19.71,-12.22 -35.28,100.55z"/>
   <path class="fil28" d="M4748.09 5266.3c213.65,67.27 498.84,284.93 674.4,403.89 122.75,83.16 196.01,142.09 304.6,224.51 234.07,177.68 213.26,124.12 252.62,276.52 22.29,-109.17 49.2,-86.18 108.76,-178.31 -289.34,-189.65 -889.85,-750.25 -1269.84,-829.82 -59.63,64.73 -47.23,37.19 -70.54,103.21z"/>
   <path class="fil29" d="M10109.63 668.4c81.9,30.68 -3.56,-8.32 93.72,109.65 110.98,134.59 25.45,72.71 188.47,137.26 72.71,-144.05 61.38,-105.57 149.18,-204.65 62.06,-70.04 76.7,-100.66 142.09,-174.09 83.34,-93.57 245.47,-258.35 273.1,-361.82 -185.51,98.16 -734.53,315.4 -846.56,493.65z"/>
   <path class="fil30" d="M5107.38 4619.19c100.04,108.49 228.71,170.09 349.49,247.03l958.81 705.35c120.76,-55.04 56.56,3.13 131.35,-103.22 -130.5,-17.05 -232.73,-144.02 -341.81,-225.27 -119.27,-88.85 -205.95,-144.26 -329.8,-234.93 -239.82,-175.56 -461.12,-307.47 -704.05,-448.45 -52.83,15.49 -11.91,-43.27 -63.99,59.49z"/>
   <path class="fil28" d="M2490.6 6118.22c23.05,65.23 37.24,74.13 70.54,127.2l514.92 -311.15c147.42,-92.81 492,-157.91 790.2,-165.82l0 -149.9c-319.19,8.02 -563.28,44.53 -791.06,154.82 -178.2,86.29 -449.69,309.24 -584.6,344.85z"/>
   <path class="fil31" d="M5171.37 4559.7c242.93,140.98 464.23,272.89 704.05,448.45 123.85,90.67 210.53,146.08 329.8,234.93 109.08,81.25 211.31,208.22 341.81,225.27 90.43,-136.59 31.73,-20.24 37.57,-108.42 -169.51,-81.69 -480.48,-348.15 -657.56,-471.31 -128.36,-89.28 -224.24,-152.72 -360.47,-239.09 -198.93,-126.12 -266.21,-123.61 -339.55,-241.98 -44.51,79.09 -35.48,52.57 -55.65,152.15z"/>
   <path class="fil32" d="M7993.23 1761.88c29.21,140.41 120.51,210.84 192.27,297.54 4.54,5.5 10.87,13.75 15.33,19.34l45.14 60.55c4.39,5.91 10.93,14.09 15.27,20.05l296.07 381.56c75.56,69.27 167.08,109.08 212.11,208.79 120.12,-48.91 18.51,-0.81 112.05,-60.71 66.61,-42.66 -9.42,-2.31 64.14,-49.19 -154.15,-92.33 -369.02,-312.57 -470.56,-444.18 -151.79,-196.72 -247.7,-276.01 -344.62,-539.4 -184.23,45.32 -92.05,33.8 -137.2,105.65z"/>
   <path class="fil33" d="M7158.55 4689.74c89.28,-33.9 26.99,46.95 93.94,-70.55 -309.63,-196.47 -1200.36,-971.43 -1552.02,-1045.02l-35.28 84.67c127.44,27.93 638.4,395.12 784.14,496.98 278.14,194.4 468.97,378.43 709.22,533.92z"/>
   <path class="fil34" d="M6082.09 3180.96c63.84,151.96 562.73,472.84 696.8,573.13 155.79,116.55 616.27,452.66 691.09,582.92l135.25 -121.6c-138.45,-27.96 -621.47,-447.77 -764.34,-560.54l-529.86 -388.18c-99.44,-87.73 -75.61,-86.87 -228.94,-85.73z"/>
   <path class="fil35" d="M9686.35 809.85c169.96,143.56 196.02,328.7 388.01,405.55 53.44,-18.55 1.94,23.2 78.79,-45.58 59.85,-53.56 38.24,-45.49 77.66,-97.94 54.06,-71.94 89.54,-118.67 161.01,-156.57 -163.02,-64.55 -77.49,-2.67 -188.47,-137.26 -97.28,-117.97 -11.82,-78.97 -93.72,-109.65 -101.45,-24.68 -18.44,-19.78 -105.53,2.15 -20.09,5.06 -86.94,39.22 -118.67,56.01 -76.37,40.44 -114.25,70.8 -199.08,83.29z"/>
   <path class="fil36" d="M9439.44 1021.13c73.92,10.43 257.85,337.83 399.88,458.73 146.98,-68.83 173.61,-114.08 235.04,-264.46 -191.99,-76.85 -218.05,-261.99 -388.01,-405.55 -63.58,45.09 -95.33,53.75 -131.54,78.69 -119.35,82.21 -51.23,-13.54 -115.37,132.59z"/>
   <path class="fil37" d="M5453.55 4043.48c637.46,381.95 839.02,544.52 1384.2,955.24l62.01 46.95 70.55 -102.33c-178.79,-74.24 -490.94,-381.57 -714.33,-523.16 -148.98,-94.44 -273.34,-185.67 -385.61,-254.5 -116.17,-71.21 -289.61,-159.83 -351.28,-251.95 -47.91,59.98 -36.81,48.49 -65.54,129.75z"/>
   <path class="fil38" d="M5876.83 3283.82c191.41,26.03 659.74,407.66 813.54,522.93 179.3,134.37 629.45,449.13 728.46,600.8 61.19,-28.89 38.38,53.23 51.15,-70.54 -74.82,-130.26 -535.3,-466.37 -691.09,-582.92 -134.07,-100.29 -632.96,-421.17 -696.8,-573.13 -17.97,-47.08 -53.56,-95.3 -83.31,-149.07 -40.51,85.22 -80.31,166.59 -121.95,251.93z"/>
   <path class="fil39" d="M4410.92 5853.76l1085.47 811.29c108.59,-52.06 10.65,5.89 77.31,-50.47 21.9,-18.52 22.87,-29.27 56.22,-62.97 -174.08,-72.08 -147.38,-86.81 -289.03,-193.67 -106.59,-80.41 -163.55,-130.88 -281.35,-210.67 -131.17,-88.86 -479.15,-336.15 -593.64,-364.23 -63.19,27.59 -5.52,-27.54 -54.98,70.72z"/>
   <path class="fil40" d="M5594.65 3807.73c105.37,96.13 240.89,149.26 363.18,241.13 128.9,96.85 242.24,169.85 377.86,259.7l740.44 556.07c29.98,-96.81 9.93,-41.3 18.89,-104.34 -146.58,-153.03 -522.78,-413.48 -709.12,-541.55 -238.56,-163.97 -495.82,-366.42 -755.98,-489.75 -61.22,23.94 -5.75,-18.38 -35.27,78.74z"/>
   <path class="fil41" d="M3901.53 6790.01c122.1,38.71 338.38,201.16 429.66,291.86 124.84,124.05 226.83,239.14 272.61,429.74l104.43 0c52.47,-2 106.27,-9.71 148.87,-35.27 -19.51,-180.06 -457.95,-551.47 -616.3,-656.73l-245.95 -142.08c-3.49,-10.51 -15.67,-7.54 -22.77,-12.48 -52.41,57.83 -38.75,40.17 -70.55,124.96z"/>
   <path class="fil42" d="M4995 4832.07c154.43,44.58 540.42,319.91 678.61,415.5 144.05,99.64 565.91,369.51 619.12,500.37 37.15,-36.39 21.1,-1.78 53.08,-57.61 44.03,-76.88 23.35,-15.64 25.03,-83.48 -228.69,-153.49 -394.03,-293.42 -608.34,-447.17 -156.59,-112.34 -497.24,-353.64 -696.95,-430.41 -5.57,5.58 -14.87,6.03 -16.8,16.67 -1.96,10.83 -13.5,14.21 -16,18.01 -32.28,49.19 -15.95,23.24 -37.75,68.12z"/>
   <path class="fil43" d="M5841.56 3349.35c233.53,156.38 549.4,351.56 780.27,525.21 243.39,183.06 610.78,432.8 743.5,603.54 83.29,-55.85 37.47,-25.41 53.5,-70.55 -99.01,-151.67 -549.16,-466.43 -728.46,-600.8 -153.8,-115.27 -622.13,-496.9 -813.54,-522.93 -45.06,20.93 -35.27,-55.97 -35.27,65.53z"/>
   <path class="fil44" d="M3860.93 6828.67l1.76 31.26c72.29,220.95 323.1,190.13 446.91,651.68l294.2 0c-45.78,-190.6 -147.77,-305.69 -272.61,-429.74 -91.28,-90.7 -307.56,-253.15 -429.66,-291.86l-40.6 38.66z"/>
   <path class="fil45" d="M4360.08 5994.68c47.87,84.33 174.94,132.29 249.82,179.5l310.16 220.41c6.67,4.31 15.78,9.47 22.35,13.77l161.29 118.06c15.5,11.75 51.71,38.77 59.44,45.18l222.11 199.27c103.65,-44.71 32.35,15.91 88.47,-45.07 56.8,-61.72 20.25,11.75 22.67,-60.75l-1085.47 -811.29c-31.29,64.72 -26.93,64.21 -50.84,140.92z"/>
   <path class="fil46" d="M3972.08 6665.05c7.1,4.94 19.28,1.97 22.77,12.48l245.95 142.08c158.35,105.26 596.79,476.67 616.3,656.73 48.08,-59.84 93.09,-110.96 142.92,-176.37 -59.21,-104.12 -351.48,-329.6 -445.59,-406.38 -192.69,-157.19 -316.72,-234.99 -547.08,-339.37 -26.4,51.29 -22.41,41.28 -35.27,110.83z"/>
   <path class="fil47" d="M5806.29 3455c259.53,125.48 496.08,315.35 767.1,507.12 117.85,83.39 250.09,173.82 383.72,283.39 93.43,76.6 258.49,190.7 333.34,267.86l74.88 -35.27c-132.72,-170.74 -500.11,-420.48 -743.5,-603.54 -230.87,-173.65 -546.74,-368.83 -780.27,-525.21 -46.19,28.02 -35.27,-60.32 -35.27,105.65z"/>
   <path class="fil48" d="M2251.61 5783.22c23.82,59.51 8.02,40.33 74.32,70.54 108.68,-120.16 391.36,-363.32 560.65,-409.35 84.78,-236.1 785.82,-326.5 979.68,-283.35l0 -93.5c-211.49,-12.8 -376.57,2.24 -580.19,40.26 -389.44,72.71 -734.68,430.72 -1034.46,675.4z"/>
   <path class="fil49" d="M3766.88 7001.14l6.76 49.92c-91.36,206.39 -52.5,28.83 30.22,139.67 152.42,204.21 -3.03,-133.49 182.56,284.77 3.4,7.66 14.3,26.54 21.1,36.11l302.08 0c-123.81,-461.55 -374.62,-430.73 -446.91,-651.68l-37.53 25.93 -58.28 115.28z"/>
   <path class="fil11" d="M2342.82 5959.41l46.87 35.33c4.03,3.32 16.29,13.67 20.04,16.8 4.03,3.37 14.1,12.39 21.15,18.59 136.5,-140.91 411.44,-291.98 612.41,-400.21 271.31,-146.12 429.47,-177.52 822.97,-164.17l0 -105.64c-349.08,0 -639.77,-1.32 -862.07,152 -108,74.49 -213.75,130.28 -326.11,208.71 -106.53,74.36 -207.66,187.05 -335.26,238.59z"/>
   <path class="fil50" d="M7252.49 2142.86c59.26,15.32 35.42,-14.13 125.32,123.67 270.28,414.3 223.68,274.25 444.79,546.33l523.37 501.22c67.13,-74.09 39.66,-32.45 47.14,-105.82 -246.2,-153.47 -347.77,-330.93 -545.38,-524.3 -187.19,-183.18 -357.61,-408.73 -450.07,-674.99l-145.17 133.89z"/>
   <path class="fil51" d="M4853.91 5042.65c140.91,48.8 554.5,332.71 676.18,421.55l628.93 452.91 70.55 -88.77c-148.5,-70.53 -478.61,-337.47 -642.28,-460.51 -172.62,-129.77 -477.32,-327.65 -662.84,-413.94 -48.37,64.9 -16.51,46.96 -70.54,88.76z"/>
   <path class="fil52" d="M5312.46 4314.95c79.34,15.61 626.45,392.11 726.11,461.8 157.84,110.37 555.37,388.01 638.61,512.64 7.04,-6.18 18.58,-24.4 21.23,-18.4 2.6,5.87 16.34,-14.88 19.59,-19.33 34.18,-46.73 19.98,-26.38 40.67,-68.09 -262,-146.39 -450.73,-340.86 -690.97,-511.42l-719.97 -458.51 -35.27 101.31z"/>
   <path class="fil15" d="M5947.2 6224.9c-107.94,-190.81 -400.66,-366.23 -582.54,-495.37 -193.41,-137.32 -423.46,-318.93 -651.85,-404.69l-35.27 90.06c193.65,91.24 439.41,256.64 616.82,387.32 110.19,81.17 193.94,138.18 302.56,225.9 99.02,79.97 197.86,186.29 350.28,196.78z"/>
   <path class="fil53" d="M4218.99 6224.04c146.56,51.25 411.27,241.42 529.5,336.04 91.28,73.06 159.75,131.31 253.69,204.62 129.19,100.82 126.33,120.58 275.01,192.29l42.29 -45.03c-77.68,-173.91 -597.02,-502.26 -760.38,-623.94 -97.27,-72.46 -194.05,-128.04 -290.62,-187.34l-49.49 123.36z"/>
   <path class="fil54" d="M12367.12 7061.17c291.13,25.98 1248.32,90.33 1409.49,168.25l142.54 -125.54 -545.19 -71.87c-4.74,-10.98 -16.51,-9.06 -24.37,-14.23 -139.6,73.17 -348.94,31.4 -488.64,1.29l-529.1 -58.39c0,216.29 -8.86,86.83 35.27,100.49z"/>
   <path class="fil55" d="M5629.92 3728.99c260.16,123.33 517.42,325.78 755.98,489.75 186.34,128.07 562.54,388.52 709.12,541.55 116.48,-49.15 57.87,11.33 63.53,-70.55 -240.25,-155.49 -431.08,-339.52 -709.22,-533.92 -145.74,-101.86 -656.7,-469.05 -784.14,-496.98 -60.15,22.42 -5.78,-15.56 -35.27,70.15z"/>
   <path class="fil56" d="M2886.58 5444.41l-42.88 93.91c-63.7,73 -423.3,244.72 -500.88,421.09 127.6,-51.54 228.73,-164.23 335.26,-238.59 112.36,-78.43 218.11,-134.22 326.11,-208.71 222.3,-153.32 512.99,-152 862.07,-152l0 -122.12c-193.83,-20.57 -370.98,-0.75 -544.99,43.92 -177.99,45.69 -277.89,141.61 -434.69,162.5z"/>
   <path class="fil13" d="M4818.63 5163.09c379.99,79.57 980.5,640.17 1269.84,829.82 51.24,-33.7 44.71,-10.11 70.55,-75.8l-628.93 -452.91c-121.68,-88.84 -535.27,-372.75 -676.18,-421.55 -12.02,36.95 -25.27,84.24 -35.28,120.44z"/>
   <path class="fil53" d="M12472.94 7266.28l1071.57 104.24c128.66,-23.11 109.67,-18.7 198.27,-79.93l-1375.66 -152.6c35.68,106.81 23.43,70.72 105.82,128.29z"/>
   <path class="fil57" d="M4122.44 6347.59l61.62 71.27c30.47,28.58 18.55,18.44 62.42,50.35 42.14,30.66 92.96,59.67 127.01,82.11l497.01 379.02c115.62,114.36 152.86,155.3 300.87,185.29l19.32 -62.57 -495.11 -401.68c-181.19,-133.87 -352.71,-237.07 -511.86,-352 -56.89,-1.52 -13.51,-55.9 -61.28,48.21z"/>
   <path class="fil58" d="M12747.98 5959.58c126.09,80.09 1225.37,176.88 1347.54,182 -3.93,-8.66 -9.12,-32.43 -11.39,-26.16 -2.14,5.9 -9.34,-20.14 -12.26,-23.94 -39.35,-51.31 -14.56,-22.45 -46.9,-47.67l-1024.77 -127.11c-131.41,-37.28 -57.4,-5.54 -131.93,-62.94 -62.84,62.8 -43.53,17.49 -120.29,105.82z"/>
   <path class="fil59" d="M4183.72 6299.38c159.15,114.93 330.67,218.13 511.86,352l495.11 401.68c7.72,-6.19 20.28,-25.11 23.26,-18.45 2.84,6.32 17.72,-14.53 21.24,-18.63 6.16,-7.17 38.61,-53.29 42,-58.99 -148.68,-71.71 -145.82,-91.47 -275.01,-192.29 -93.94,-73.31 -162.41,-131.56 -253.69,-204.62 -118.23,-94.62 -382.94,-284.79 -529.5,-336.04 -41.08,34.04 -8.17,2.35 -35.27,75.34z"/>
   <path class="fil55" d="M2475.67 4888.15c-33.31,86.24 30.02,0.76 -37.08,66.62 -2.53,2.49 -66.8,40.87 -68.46,41.83 -51.56,30.03 -92.58,54.88 -108.76,68.26 -47.59,85.68 -10.34,35.18 -76,96.79 -52.11,48.89 -50.43,35.53 -106.18,96.93 109.27,-44.35 58.69,-17.89 152.55,-89.61 134.5,-102.77 -21.33,-36.28 156.68,-78.04 115.98,-29.86 137.73,-121.75 357.63,-171.56l25.88 0.48c20.42,-34.54 9.97,-63.39 86.22,-113.08 77.09,-50.24 30.69,-18.02 111.54,-27.65 38.76,-102.04 52.54,-67.86 152.87,-161.73 55.34,-51.77 80.22,-80.46 119.39,-142.24l24.48 -243.96 -98.57 0c-20.41,235.66 -101.34,310.73 -238.89,438.74 -118.81,110.57 -245.66,224.64 -453.3,218.22z"/>
   <path class="fil60" d="M4571.72 5623.56c219.23,119.13 397.49,242.52 594.87,377.82 184.51,126.48 408.18,331.45 569.15,420.1l70.55 -68.04c-164.14,-71.6 -397,-296.27 -573.23,-418.91 -159.42,-110.95 -422.71,-300.07 -626.07,-384.58 -45.59,10.01 -35.27,-70.86 -35.27,73.61z"/>
   <path class="fil26" d="M2631.69 6339.28c38.15,42.03 29.71,34.6 70.55,103.01 128.12,-35.29 96.8,-53.49 224.31,-78.06 101.35,-227.07 732.3,-310.7 939.71,-310.7l0 -96.09c-620.88,-13.5 -801.09,239.21 -1234.57,381.84z"/>
   <path class="fil61" d="M4536.45 5702.74c175.54,105.52 378.6,227.7 566.84,363.11 140.92,101.37 450.18,377.02 597.18,420.71l35.27 -65.08c-160.97,-88.65 -384.64,-293.62 -569.15,-420.1 -197.38,-135.3 -375.64,-258.69 -594.87,-377.82 -45.86,6.09 -35.27,-76.91 -35.27,79.18z"/>
   <path class="fil62" d="M4465.9 5783.04c114.49,28.08 462.47,275.37 593.64,364.23 117.8,79.79 174.76,130.26 281.35,210.67 141.65,106.86 114.95,121.59 289.03,193.67 60.14,-69.86 15.04,-36.75 70.55,-65.05 -147,-43.69 -456.26,-319.34 -597.18,-420.71 -188.24,-135.41 -391.3,-257.59 -566.84,-363.11 -43.24,-31.07 -35.28,-42.7 -35.28,9.93 -75.45,0 -4.74,-10.3 -35.27,70.37z"/>
   <path class="fil63" d="M3067.33 4901.2c-237.5,20.6 -154.77,90.59 -376.79,122.27l10.46 -9.93c-68.38,148.41 10.55,9.63 -82.9,122.66 -6.76,8.17 -27.75,28.36 -33.59,35.99 -39.15,51.17 -11.65,7.12 -36.99,62.6l141.67 2.77c108.92,-288.29 972.9,-473.37 1177.07,-451.36l0 -155.31c-332.74,26.29 -468.83,193.17 -798.93,270.31z"/>
   <path class="fil61" d="M2926.55 6364.23c-127.51,24.57 -96.19,42.77 -224.31,78.06 17.38,26.8 39.19,60.53 70.54,98.68 141.28,-37.39 141.1,-59.23 265.49,-106.97 96.61,-37.07 165.43,-63.42 262.02,-90.34 187.46,-52.24 326.4,-138.69 565.97,-139.29l0 -103.87c-123.15,0 -153.66,16.13 -260.78,41.67 -75.24,17.94 -141.1,19.12 -236.52,58.01 -131.29,53.51 -307.93,125.28 -442.41,164.05z"/>
   <path class="fil46" d="M13544.51 7370.52l-1071.57 -104.24c95.96,139.12 280.07,192.97 495.28,209.76 122.48,9.55 255.05,-12.51 327.06,-24.17 359.27,-58.18 217.12,-43.62 249.23,-81.35z"/>
   <path class="fil64" d="M13742.78 7290.59l33.83 -61.17c-161.17,-77.92 -1118.36,-142.27 -1409.49,-168.25l0 76.82 1375.66 152.6z"/>
   <path class="fil65" d="M5347.73 4213.64l719.97 458.51c240.24,170.56 428.97,365.03 690.97,511.42l70.54 -50.08c-154.45,-50.88 -223.59,-150.91 -363.58,-253.8 -112.66,-82.81 -232.48,-167 -352.54,-249.73 -155.33,-107.01 -548.51,-394.5 -730.08,-454.7 -44.18,8.48 -35.28,-58.24 -35.28,38.38z"/>
   <path class="fil66" d="M6441.21 2573.16c75.29,17.14 580.79,559.24 690.31,650.25l572.27 485.94c118.3,102.61 110.24,26.36 148.35,169.1 171.94,-115.14 68.65,-21.85 70.72,-105.82 -143.14,-9.88 -117.62,-30.29 -203.44,-113.73 -63.76,-62 -99.03,-86 -170.75,-144.27l-533.23 -488.07c-371.53,-304.32 -326.11,-306.3 -432.96,-594.31l-141.27 140.91z"/>
   <path class="fil67" d="M12578.76 6146.31l670.2 55.83c103.78,-33.79 125.49,-23.25 216.84,-2.61 108.09,24.42 103.49,33.21 171.16,73.33l493.83 48.31 0 -96.86 -1481.48 -159.43c-67.63,39.29 -43.32,23.06 -70.55,81.43z"/>
   <path class="fil50" d="M1576.32 4830.83l-2.83 70.37 590.19 -352.04c160.99,-101.59 267.26,-107.81 289.58,-317.97l-135.63 0c-6.62,5.74 -16.63,12.61 -20.66,16.25 -3.96,3.57 -14.98,12.17 -19.7,16.68 -4.62,4.4 -13.4,12.34 -18.31,17.37 -412.02,421.8 -568.5,411.29 -682.64,549.34z"/>
   <path class="fil68" d="M1573.49 4901.2c84.7,44.92 82.71,54.61 119.44,141.27 15.17,-95.66 155.24,-162.85 216.61,-195.93 6.2,-9.92 13.9,-21.94 19.21,-29.38 220.89,-309.35 589.85,-156.14 644.72,-585.97l-120.21 0c-22.32,210.16 -128.59,216.38 -289.58,317.97l-590.19 352.04z"/>
   <path class="fil69" d="M4289.54 6100.5c64.88,3.99 45.67,6.81 86.77,28.24 6.01,3.14 14.98,9.13 21.02,12.7l724.64 508c99.43,74.6 146.55,149.87 225.94,191.98 90.59,-27.54 92.52,24.12 37.34,-70.55l-222.11 -199.27c-7.73,-6.41 -43.94,-33.43 -59.44,-45.18l-161.29 -118.06c-6.57,-4.3 -15.68,-9.46 -22.35,-13.77l-310.16 -220.41c-74.88,-47.21 -201.95,-95.17 -249.82,-179.5 -95.67,45.54 -39,30.05 -70.54,105.82z"/>
   <path class="fil70" d="M4712.81 5324.84c228.39,85.76 458.44,267.37 651.85,404.69 181.88,129.14 474.6,304.56 582.54,495.37l32.51 -53.68c-39.36,-152.4 -18.55,-98.84 -252.62,-276.52 -108.59,-82.42 -181.85,-141.35 -304.6,-224.51 -175.56,-118.96 -460.75,-336.62 -674.4,-403.89l-35.28 58.54z"/>
   <path class="fil71" d="M3279.54 7194.15l198.71 300.33c144.97,-158.59 167.75,-289.11 217.4,-366.49 4.28,-6.67 9.49,-15.89 14.17,-21.97 37.37,-48.41 20.01,-22.78 63.82,-54.96l-6.76 -49.92c-297.81,36.65 -185.85,-37.73 -348.83,95.31l-138.51 97.7z"/>
   <path class="fil1" d="M2678.26 4452.06l-0.18 104.82c-130.04,80.14 -232.98,159.12 -437.44,203.23l-183.68 58.72c-125.58,202.85 -152.55,101.9 -291.15,258.92l-15.95 51.65c304.89,-117.55 484.45,-362.12 828.43,-388.59 104,-171.47 222.47,-105.63 316.69,-509.62l-122.37 0c-5.3,116.27 15.65,231.91 -94.35,220.87z"/>
   <path class="fil72" d="M1521.33 4725.01c-1.72,101.13 -24.82,53.2 54.99,105.82 114.14,-138.05 270.62,-127.54 682.64,-549.34 4.91,-5.03 13.69,-12.97 18.31,-17.37 4.72,-4.51 15.74,-13.11 19.7,-16.68 4.03,-3.64 14.04,-10.51 20.66,-16.25l-179.59 0c-173.78,78.43 -176.37,160.15 -305.93,257.23 -119.58,89.61 -236.96,133.17 -310.78,236.59z"/>
   <path class="fil73" d="M2578.29 4740.81c-130.18,134.64 -526.59,238.24 -693.86,404.86 -38.39,38.24 -23.44,29.21 -57.56,73.17l28.81 49.94c56,-27.66 34.84,-9.61 78.52,-42.4 73.9,-111.59 -23.81,-10.45 61.84,-74.9 94.75,-71.29 403.87,-260.07 479.63,-263.33 254.83,-136.79 199.97,-38.85 421.8,-288.98l103.57 -142.45c35.38,-76.88 57.1,-159.65 76.03,-225.53l-92.82 0c-47.78,117.17 -68.87,232.7 -148.74,342.64 -62.06,85.44 -134.24,155.15 -257.22,166.98z"/>
   <path class="fil74" d="M3478.25 7494.48l529.27 17.13c-6.8,-9.57 -17.7,-28.45 -21.1,-36.11 -185.59,-418.26 -30.14,-80.56 -182.56,-284.77 -82.72,-110.84 -121.58,66.72 -30.22,-139.67 -43.81,32.18 -26.45,6.55 -63.82,54.96 -4.68,6.08 -9.89,15.3 -14.17,21.97 -49.65,77.38 -72.43,207.9 -217.4,366.49z"/>
   <path class="fil75" d="M11318.17 5818.49c75.68,58.3 66.21,60.6 203.85,78.69l668.74 82.12 40.4 -123.86c-161.44,-38.09 -226.27,-72.64 -427.25,-73.4 -219.23,-0.83 -309.96,6.18 -485.74,36.45z"/>
   <path class="fil76" d="M1340.93 4478.1c8.04,85.2 -5.15,31.41 33.52,99.72l56.65 76.65c95.49,-110.8 152.34,-116.05 244.01,-215.37 52.65,-57.05 74.16,-113.91 108.04,-143.41 84.36,-73.46 63.65,-10.56 143.25,-64.5l-481.24 0c-27.71,180.15 -51.81,122.84 -104.23,246.91z"/>
   <path class="fil77" d="M12649.31 6064.88l1481.48 159.43c-25.34,-62.88 -4.38,-39.93 -35.27,-82.73 -122.17,-5.12 -1221.45,-101.91 -1347.54,-182l-98.67 105.3z"/>
   <path class="fil5" d="M2689.19 5237.56c96.58,-15.05 166.28,-46.15 260.31,-124.96 106.95,-89.65 131.93,-75.51 265.52,-112.33 217.4,-59.93 427.66,-121.02 651.24,-138.24l0 -75.83c-204.17,-22.01 -1068.15,163.07 -1177.07,451.36z"/>
   <path class="fil39" d="M2772.78 6540.97l70.55 74.47c166.75,-56.87 262.26,-127.35 463.87,-172.2 224.67,-49.98 285.78,-122.41 559.06,-145.09l0 -93.78c-239.57,0.6 -378.51,87.05 -565.97,139.29 -96.59,26.92 -165.41,53.27 -262.02,90.34 -124.39,47.74 -124.21,69.58 -265.49,106.97z"/>
   <path class="fil48" d="M5065.55 4729.27c199.71,76.77 540.36,318.07 696.95,430.41 214.31,153.75 379.65,293.68 608.34,447.17 80.71,0 89.66,26.66 44.84,-35.28l-958.81 -705.35c-120.78,-76.94 -249.45,-138.54 -349.49,-247.03 -50.5,77.57 -17.8,3.73 -41.83,110.08z"/>
   <path class="fil77" d="M10984.62 6065.4l238.38 57.24c91.48,12.35 156.78,15.3 221.6,48.58 126.59,0 270.41,-6.61 394.65,-1.19 159.57,6.95 185.01,41.17 316.23,71.74l0 -85.31 -1058.2 -161.78c-87.87,2.17 17.59,-93.03 -112.66,70.72z"/>
   <path class="fil6" d="M1909.54 4846.54l147.42 -27.71 183.68 -58.72c42.81,-126.89 95.2,-116.23 187.05,-162.99 60.43,-30.77 87.8,-57.76 128.12,-86.86 72.19,-52.09 31.51,-42.61 122.45,-58.2l13.77 -220.87 -118.56 0c-54.87,429.83 -423.83,276.62 -644.72,585.97 -5.31,7.44 -13.01,19.46 -19.21,29.38z"/>
   <path class="fil78" d="M10744.55 7124.03l79.63 -11.11c299.5,-20.5 859.27,89.91 1154.94,128.71 61.75,-57.29 46.52,-28.07 70.54,-92.03l-529.1 -60.62c-278.91,-2 -555.32,-17.51 -740.73,-106.47l-35.28 141.52z"/>
   <path class="fil79" d="M10709.28 7246.62l1058.37 123.9c166.96,0 78.37,11.05 103.03,-35.28 -122.87,-68.53 -604.39,-99.16 -805.46,-133.64 -198.04,-33.95 -172.65,-32.93 -241.04,-88.68l-79.63 11.11c-11.01,128.5 16.07,50.55 -35.27,122.59z"/>
   <path class="fil80" d="M1431.1 4654.47c64.25,107.5 13.56,39.19 90.23,70.54 73.82,-103.42 191.2,-146.98 310.78,-236.59 129.56,-97.08 132.15,-178.8 305.93,-257.23l-211.64 0c-79.6,53.94 -58.89,-8.96 -143.25,64.5 -33.88,29.5 -55.39,86.36 -108.04,143.41 -91.67,99.32 -148.52,104.57 -244.01,215.37z"/>
   <path class="fil81" d="M11414.74 6789.64l705.47 74.35 0 -93.3 -1093.47 -123.37c124.3,63.18 236.75,140.95 388,142.32z"/>
   <path class="fil82" d="M11026.74 6647.32l1093.47 123.37c-29.1,-95.7 14.81,-50.17 -35.27,-85.42l-1128.75 -130.53 70.55 92.58z"/>
   <path class="fil75" d="M13002.61 5818.49c115.49,82.68 791.34,129.57 916.54,140.92 -169.58,-269.83 -616.62,-166.05 -916.54,-140.92z"/>
   <path class="fil45" d="M11870.68 7335.24l108.44 -93.61c-295.67,-38.8 -855.44,-149.21 -1154.94,-128.71 68.39,55.75 43,54.73 241.04,88.68 201.07,34.48 682.59,65.11 805.46,133.64z"/>
   <path class="fil83" d="M11132.56 5929.89l1058.2 142.69 0 -93.28 -668.74 -82.12c-137.64,-18.09 -128.17,-20.39 -203.85,-78.69l-185.61 111.4z"/>
   <path class="fil84" d="M7922.69 5366.24l493.82 85.32c-12.65,-126.36 -31.81,-77.49 -35.27,-232.72 -103.54,0 -220.22,-5.78 -321.45,-2.72 -191.29,5.78 -164.77,8.01 -137.1,150.12z"/>
   <path class="fil85" d="M10956.19 6554.74l1128.75 130.53c-49.85,-99.38 9.1,-67.64 -105.82,-83.49l-1058.2 -136.21c0,150.58 -10.62,67.17 35.27,89.17z"/>
   <path class="fil86" d="M8204.87 6958.77c122.74,13.34 262.67,33.23 402.78,52.43 231.8,31.76 289.61,-7.2 374.74,111.16 55.21,-111.97 31.92,-76.93 104.14,-165.58l-916.93 -91.32 35.27 93.31z"/>
   <path class="fil53" d="M2913.88 6700.32l0 56.67c214.61,-49.98 202.3,-115.49 439.05,-139.65l25.86 12.26c44.11,-52.46 2.32,-37.18 104.94,-90.88 45.61,-23.87 51.42,-20.34 103.5,-35.12 99.79,-28.31 169.23,-40.34 279.03,-39.79l0 -98.27c-427.51,60.14 -241.42,50.47 -395.82,119.15 -147.65,65.68 -377.22,23.53 -556.56,215.63z"/>
   <path class="fil23" d="M10709.28 7323.99l699.8 91.17c135,41.25 35.28,-11.81 91.44,61.18 103.1,-65.79 36.27,-11.77 154.79,-43.14 45.6,-12.06 28.05,0.71 74.38,-24.04 104.88,-56.02 10.55,45.18 37.96,-38.64l-1058.37 -123.9 0 77.37z"/>
   <path class="fil87" d="M12155.48 6156.46c25.8,-67.26 2.65,-41.03 35.28,-83.88l-1058.2 -142.69c-61.44,-9.72 -35.28,-16.12 -35.28,64.79l1058.2 161.78z"/>
   <path class="fil54" d="M8169.6 6865.46l916.93 91.32c-66.08,-96.64 -45.34,-71.87 -209.56,-96.86 -71.85,-10.93 -141.22,-13.56 -213.54,-18.33 -4.65,-2.44 -12.84,-11.33 -14.11,-6.98l-56.44 -43.21 -423.28 -31.73 0 105.79z"/>
   <path class="fil88" d="M10920.92 6465.57l1058.2 136.21c-50.55,-82.83 -3.59,-47.01 -105.82,-92.71l-987.65 -123.02c0,182.83 -8.48,60.96 35.27,79.52z"/>
   <path class="fil89" d="M10885.65 6386.05l987.65 123.02c-103.16,-58.08 -331.7,-139.45 -458.56,-151.05l-529.09 -75.48 0 103.51z"/>
   <path class="fil90" d="M2886.58 5444.41c156.8,-20.89 256.7,-116.81 434.69,-162.5 174.01,-44.67 351.16,-64.49 544.99,-43.92l0 -76.93c-193.86,-43.15 -894.9,47.25 -979.68,283.35z"/>
   <path class="fil91" d="M3019.7 6909.13l70.54 80.19c372.6,-158.76 176.11,-243.43 776.02,-250.32l0 -90.44c-605.56,10.26 -446.19,112.5 -846.56,260.57z"/>
   <path class="fil45" d="M2843.33 6615.44c25.06,74.11 12.72,44.7 70.55,84.88 179.34,-192.1 408.91,-149.95 556.56,-215.63 154.4,-68.68 -31.69,-59.01 395.82,-119.15l0 -67.39c-273.28,22.68 -334.39,95.11 -559.06,145.09 -201.61,44.85 -297.12,115.33 -463.87,172.2z"/>
   <path class="fil89" d="M10003.81 5968.09l634.92 177.43c24.53,-57.43 24.36,-42.37 35.28,-115.57l-634.92 -157.21c-43.52,23.56 -35.28,-102.4 -35.28,95.35z"/>
   <path class="fil92" d="M2969.69 4779.12l4.81 51.54 150.84 -32.3 -4.13 16.93c5.78,-8.54 14.51,-31.72 18.16,-25.06l83.2 -75.06c34.78,-23.53 65.33,-35.82 104.56,-60.88 68.03,-79.97 92.29,-97.76 175.31,-182.51 39.61,-40.44 47.85,-47.74 79.73,-103.69l51.88 -107.04c2.59,-16.58 9.84,-20.06 15.19,-29.86l-159.29 0c-84.52,276.36 -165.25,345.51 -357.65,473.31l-162.61 74.62z"/>
   <path class="fil93" d="M7624.55 4160.46c-11.3,-169.23 -59.69,-103.8 -181.13,-231.08l-718.27 -515.86c61.07,107.04 747.64,679.52 899.4,746.94z"/>
   <path class="fil94" d="M12868.27 5853.76c74.53,57.4 0.52,25.66 131.93,62.94l1024.77 127.11c-53.39,-88.71 41.87,-10.08 -45.07,-70.16 -77.59,-53.63 32.04,-24.21 -60.75,-14.24 -125.2,-11.35 -801.05,-58.24 -916.54,-140.92 -56.73,31.94 -42.66,23.59 -134.34,35.27z"/>
   <path class="fil88" d="M9968.54 6065.83l670.19 187.92 0 -108.23 -634.92 -177.43c-41.72,34.97 -35.27,-85.28 -35.27,97.74z"/>
   <path class="fil95" d="M9545.26 5333.05l458.55 58.43c40.26,-71.3 48.8,-79.3 70.55,-172.64l-493.83 0c-28.32,50.41 -19.46,40.44 -35.27,114.21z"/>
   <path class="fil96" d="M3090.24 6989.32l70.55 73.17c342.81,-185.6 181.19,-226.21 700.14,-233.82l5.33 -89.67c-599.91,6.89 -403.42,91.56 -776.02,250.32z"/>
   <path class="fil97" d="M8240.15 7135.64c114.36,14.47 224.45,25.84 338.6,38.99 33.2,3.82 110.04,8.84 146.59,16.53 270.09,56.84 87.23,-1.88 171.07,99.06 25.44,-90.19 29.62,-124.42 85.98,-167.86l-777.52 -76.22c18.33,110.1 -21.41,39.49 35.28,89.5z"/>
   <path class="fil92" d="M2388.42 5090.93c-48.5,95.97 4.33,34.56 -88.72,115.06 -19.43,16.81 -68.77,49.94 -99.97,74.6 -79.31,62.65 -120.5,90.41 -192.48,149.89 12.15,39.27 -6.57,22.57 24.79,62.54 101.43,-56.26 244.23,-163.1 325.07,-231 147.66,-124.01 141.68,-171.17 343.89,-248.48l-10.46 9.93c7.6,-10.11 14.02,-22.95 19.45,-32.58 5.63,-9.97 14.01,-13.52 18.51,-34.7 4.66,-21.97 10.79,-25.02 17.55,-36.82 -219.9,49.81 -241.65,141.7 -357.63,171.56z"/>
   <path class="fil98" d="M3378.79 6629.6l-25.86 -12.26c-47.59,60.57 2.07,20.11 -62.92,68.92 -8.94,6.71 -82.58,45.93 -93.95,51.89 -70.9,37.13 -103.04,52.04 -161.38,103.27l-14.98 67.71c400.37,-148.07 241,-250.31 846.56,-260.57l0 -98.03 -487.47 79.07z"/>
   <path class="fil47" d="M2475.67 4888.15c207.64,6.42 334.49,-107.65 453.3,-218.22 137.55,-128.01 218.48,-203.08 238.89,-438.74l-90.79 0c-18.93,65.88 -40.65,148.65 -76.03,225.53l-103.57 142.45c-221.83,250.13 -166.97,152.19 -421.8,288.98z"/>
   <path class="fil65" d="M3121.21 4815.29l4.13 -16.93c-38.56,86.1 10.75,39.64 -58.01,102.84 330.1,-77.14 466.19,-244.02 798.93,-270.31l0 -129.39c-147.24,-6.32 -248.9,78.6 -366.84,146.77 -133.46,77.13 -214.05,153.66 -378.21,167.02z"/>
   <path class="fil14" d="M3327.13 4654.29c-39.23,25.06 -69.78,37.35 -104.56,60.88l-83.2 75.06c-3.65,-6.66 -12.38,16.52 -18.16,25.06 164.16,-13.36 244.75,-89.89 378.21,-167.02 117.94,-68.17 219.6,-153.09 366.84,-146.77 0,-6.21 2.1,-117.81 0.55,-127.83 -17.48,-112.77 18.14,-54.46 -35.83,-72.11 -98.99,86.94 -81.7,102.57 -222.27,200.64 -39.4,27.49 -88.75,69.53 -126.69,95.06 -87.76,59.05 13.74,41.49 -154.89,57.03z"/>
   <path class="fil60" d="M2926.55 6364.23c134.48,-38.77 311.12,-110.54 442.41,-164.05 95.42,-38.89 161.28,-40.07 236.52,-58.01 107.12,-25.54 137.63,-41.67 260.78,-41.67l0 -46.97c-207.41,0 -838.36,83.63 -939.71,310.7z"/>
   <path class="fil5" d="M2137.86 5623.89c32.55,79.41 -40.05,23.33 67.62,88.78 77.34,-96.28 168.92,-147.92 266.52,-231.2 86.34,-73.68 173.91,-145.63 217.19,-243.91l-141.67 -2.77c-31.67,89.84 11.67,8.41 -36.06,75.95 -1.86,2.64 -47.07,48.13 -52.11,52.81l-321.49 260.34z"/>
   <path class="fil99" d="M3327.13 4654.29c168.63,-15.54 67.13,2.02 154.89,-57.03 37.94,-25.53 87.29,-67.57 126.69,-95.06 140.57,-98.07 123.28,-113.7 222.27,-200.64 -44.11,-105.36 11.49,-70.37 -181.74,-70.37 -5.35,9.8 -12.6,13.28 -15.19,29.86l-51.88 107.04c-31.88,55.95 -40.12,63.25 -79.73,103.69 -83.02,84.75 -107.28,102.54 -175.31,182.51z"/>
   <path class="fil85" d="M10144.91 6216.12l458.55 119.02c15.67,-67.67 2.25,-38.3 35.27,-81.39l-670.19 -187.92c-36.12,47.31 -35.27,-75.45 -35.27,105.39 12.39,0 100.08,-1.9 106.37,-0.7 162.48,30.82 35.75,-10.55 105.27,45.6z"/>
   <path class="fil100" d="M10003.81 6989.44l423.28 129.92c42.32,-79.25 25.12,-17.84 35.28,-136.53l-328.21 -93.78c-69.74,-29.81 23.63,11.51 -49.08,-22.09l-46.64 -25.54c-4.55,7.04 -12.99,8.29 -14.03,20.86 -1.11,13.38 -10.16,18.06 -11.38,24.23 -10.04,50.48 -9.22,48.4 -9.22,102.93z"/>
   <path class="fil101" d="M3241.95 4475.15c-39.17,61.78 -64.05,90.47 -119.39,142.24 -100.33,93.87 -114.11,59.69 -152.87,161.73l162.61 -74.62c192.4,-127.8 273.13,-196.95 357.65,-473.31l-102.74 0c-54.75,120.79 -23.75,151.93 -145.26,243.96z"/>
   <path class="fil102" d="M11626.38 6915.05l493.83 46.51 0 -97.57 -705.47 -74.35c59.72,59.88 -18.12,5.59 91.33,66.38 52.65,29.25 69.76,29.66 120.31,59.03z"/>
   <path class="fil44" d="M11500.52 7476.34c-56.16,-72.99 43.56,-19.93 -91.44,-61.18l-699.8 -91.17 0 81.8c117.62,2.62 243.51,36.26 366.47,56.8 134.92,22.55 282.82,13.75 424.77,13.75z"/>
   <path class="fil23" d="M9933.27 7250.49l458.55 115.01c11.86,-130.69 -9.59,-50.36 35.27,-126.97 -65.52,-16.6 -152.38,-27.12 -234.35,-51.68 -100.04,-29.97 -102.33,-45.42 -224.2,-57.94 -37.18,68.28 -24.36,15.74 -35.27,121.58z"/>
   <path class="fil97" d="M9968.54 7128.91c121.87,12.52 124.16,27.97 224.2,57.94 81.97,24.56 168.83,35.08 234.35,51.68l0 -119.17 -423.28 -129.92c-4.63,6.13 -13.32,6.78 -14.29,18.06 -1.04,12.12 -10.44,16.44 -11.6,21.84 -10.51,49.25 -9.38,46.29 -9.38,99.57z"/>
   <path class="fil14" d="M2032.04 5493.02l35.28 54.45c100.29,-37.83 163.13,-88.99 244.21,-156.37 118.37,-98.38 74.26,-116.51 235.99,-156.31 25.34,-55.48 -2.16,-11.43 36.99,-62.6 5.84,-7.63 26.83,-27.82 33.59,-35.99 93.45,-113.03 14.52,25.75 82.9,-122.66 -202.21,77.31 -196.23,124.47 -343.89,248.48 -80.84,67.9 -223.64,174.74 -325.07,231z"/>
   <path class="fil103" d="M10920.92 6202.57l458.55 54.39 65.13 -85.74c-64.82,-33.28 -130.12,-36.23 -221.6,-48.58l-238.38 -57.24c-43.92,60.3 -42.77,52.09 -63.7,137.17z"/>
   <path class="fil25" d="M1749.86 5129.4l77.01 89.44c34.12,-43.96 19.17,-34.93 57.56,-73.17 167.27,-166.62 563.68,-270.22 693.86,-404.86 -343.98,26.47 -523.54,271.04 -828.43,388.59z"/>
   <polygon class="fil46" points="8240.15,7319.67 8804.52,7382.83 8896.41,7290.22 8240.15,7230.79 "/>
   <path class="fil104" d="M3196.06 7129.65c59.53,90.94 18.75,35.61 83.48,64.5l138.51 -97.7c162.98,-133.04 51.02,-58.66 348.83,-95.31l58.28 -115.28 -311.64 25.93c-53.4,99.65 -202.5,155.69 -317.46,217.86z"/>
   <path class="fil45" d="M8204.87 7046.14l777.52 76.22c-85.13,-118.36 -142.94,-79.4 -374.74,-111.16 -140.11,-19.2 -280.04,-39.09 -402.78,-52.43l0 87.37z"/>
   <path class="fil103" d="M7993.23 5764.88l458.56 30.38 0 -116.8 -493.83 -44.31c24.41,55.84 26.68,52.51 35.27,130.73z"/>
   <path class="fil105" d="M8134.33 6585.31l458.55 45.3c-10.83,-128.4 17.22,-50.75 -35.27,-123.12l-458.56 -51.56 35.28 129.38z"/>
   <path class="fil106" d="M10674.01 6029.95l0 -77.18 -341.64 -113.5c-8.05,-4.65 -19.35,-13.52 -28.65,-20.78 -23.9,0 -112.54,-5.32 -125.68,-3.84 -231.17,25.93 -68.16,-24.28 -138.95,58.09l634.92 157.21z"/>
   <path class="fil107" d="M12508.22 6235.13l458.55 45.71c144.12,-41 102.46,-64.62 282.19,-78.7l-670.2 -55.83c-65.17,32.41 -46.02,-4.14 -70.54,88.82z"/>
   <path class="fil57" d="M8240.15 7230.79l656.26 59.43c-83.84,-100.94 99.02,-42.22 -171.07,-99.06 -36.55,-7.69 -113.39,-12.71 -146.59,-16.53 -114.15,-13.15 -224.24,-24.52 -338.6,-38.99l0 95.15z"/>
   <path class="fil108" d="M3160.79 7062.49l35.27 67.16c114.96,-62.17 264.06,-118.21 317.46,-217.86l311.64 -25.93 37.53 -25.93 -1.76 -31.26c-518.95,7.61 -357.33,48.22 -700.14,233.82z"/>
   <path class="fil109" d="M8028.51 5870.63l458.55 47.26c-12.25,-132.47 9.17,-51.17 -35.27,-122.63l-458.56 -30.38c0,184.2 -9.9,95.22 35.28,105.75z"/>
   <polygon class="fil110" points="13636.96,6545.47 14130.79,6611.48 14130.79,6509.48 13636.96,6433.88 "/>
   <path class="fil111" d="M12331.85 6880.13l458.55 31.66 0 -113.68 -458.55 -27.07c-38.53,160.56 -22.54,59.44 0,109.09z"/>
   <path class="fil90" d="M2325.93 5853.76l16.89 105.65c77.58,-176.37 437.18,-348.09 500.88,-421.09l42.88 -93.91c-169.29,46.03 -451.97,289.19 -560.65,409.35z"/>
   <path class="fil112" d="M13349.59 7017.78c7.86,5.17 19.63,3.25 24.37,14.23l545.19 71.87c32.05,-59.8 2.47,-43.06 70.55,-98.73l-493.83 -50.22c-86.43,45.65 -34.41,35 -146.28,62.85z"/>
   <path class="fil110" d="M12402.4 6411.34l458.55 48.18c30.11,-37.59 47.36,-62.55 70.55,-99.63 -89.95,-6.35 -187.29,-9.43 -275.91,-20.42 -3.15,-0.39 -109.34,-19.89 -114.39,-21.5 -55.2,-17.55 -51.13,-23.65 -77.48,-40.93 -24.62,47.09 -35.22,85.91 -61.32,134.3z"/>
   <path class="fil103" d="M9192.53 5911.74c79.59,5.48 168.56,6.15 245.87,14.42 42.8,4.57 48.23,1.4 89.13,13.84 102.41,31.16 67.38,31.62 100.06,54.86 73.45,-69.42 42.78,-48.5 94.04,-134.33l-458.56 -50.66c-29.65,38.77 -48.22,66.37 -70.54,101.87z"/>
   <path class="fil113" d="M11520.56 7088.98l529.1 60.62 35.28 -99.24 -458.56 -46.29c-20.06,16.13 -18.89,12.68 -49.13,37.07l-56.69 47.84z"/>
   <path class="fil110" d="M9051.43 6172.13l422.37 69.64c5.71,-6.17 15.68,-23.78 17.27,-18.4 1.54,5.22 13.17,-15.38 14.99,-19.33 28.87,-62.59 9.62,-8.06 21.13,-68.09l-405.21 -60.12c-5.56,4.76 -15.01,4.46 -16.8,14.17 -1.84,9.98 -13.65,12.59 -15.99,15.96 -33.72,48.55 -15.46,20.52 -37.76,66.17z"/>
   <path class="fil114" d="M8099.05 6455.93l458.56 51.56 0 -83.53c-115.24,-56.15 -290.09,-57.47 -458.56,-61.62l0 93.59z"/>
   <path class="fil98" d="M8804.52 7382.83l-564.37 -63.16c52.36,70.6 24.36,-6.58 35.27,121.39l529.1 0 0 -58.23z"/>
   <path class="fil115" d="M1340.93 4478.1c52.42,-124.07 76.52,-66.76 104.23,-246.91l-294.95 0c20.74,77.66 30.57,91.55 67.34,143.37 67.01,94.42 25.98,51.93 123.38,103.54z"/>
   <path class="fil116" d="M8945.61 6342.85c77.93,6.65 155.79,9.2 233.16,19.58l170.6 42.49c5.9,2.36 16.33,8.54 24.27,13.22 93.75,-75.53 32.33,-38.22 101.07,-118.31l-458.55 -44.84c-5.57,4.4 -15.07,3.86 -16.8,13.06 -1.76,9.38 -13.75,11.69 -15.99,14.65 -22.87,30.01 -23.55,33.78 -37.76,60.15z"/>
   <path class="fil117" d="M10144.91 6335.62l141.27 18.88 264.46 63.64c68.32,-27.68 52.82,55.65 52.82,-83l-458.55 -119.02 0 119.5z"/>
   <path class="fil118" d="M8733.97 6665.23l438.87 70.37c67.97,-51.18 20.02,32.47 90.23,-103.42l-458.55 -47.29c-23.07,39.29 15.14,39.55 -70.55,80.34z"/>
   <path class="fil119" d="M13636.96 6652.14l458.56 44.87c17.35,-88.76 -11.02,-33.82 35.27,-85.53l-493.83 -66.01 0 106.67z"/>
   <path class="fil120" d="M8099.05 6362.34c168.47,4.15 343.32,5.47 458.56,61.62 0,-18.23 1.29,-58.77 -2.53,-75.86 -19.12,-85.72 -11.99,-43.48 -26.28,-71.06 -84.35,56.52 -300.79,-16.78 -465.02,-26.96l35.27 112.26z"/>
   <path class="fil66" d="M2240.64 4760.11c204.46,-44.11 307.4,-123.09 437.44,-203.23l0.18 -104.82c-90.94,15.59 -50.26,6.11 -122.45,58.2 -40.32,29.1 -67.69,56.09 -128.12,86.86 -91.85,46.76 -144.24,36.1 -187.05,162.99z"/>
   <path class="fil25" d="M2578.29 4740.81c122.98,-11.83 195.16,-81.54 257.22,-166.98 79.87,-109.94 100.96,-225.47 148.74,-342.64l-89.27 0c-94.22,403.99 -212.69,338.15 -316.69,509.62z"/>
   <polygon class="fil113" points="12331.85,6960.68 12860.95,7019.07 12790.4,6911.79 12331.85,6880.13 "/>
   <polygon class="fil119" points="12367.12,6501.11 12860.95,6553.76 12860.95,6459.52 12402.4,6411.34 "/>
   <polygon class="fil109" points="10885.65,6282.54 11414.74,6358.02 11379.47,6256.96 10920.92,6202.57 "/>
   <path class="fil81" d="M12331.85 6673.99l447.3 61.61c57.26,-46.86 46.53,76.26 46.53,-95.22l-458.56 -49.41 -35.27 83.02z"/>
   <polygon class="fil87" points="7922.69,5475.78 8416.51,5521.54 8416.51,5451.56 7922.69,5366.24 "/>
   <path class="fil121" d="M10074.36 6515.05l458.55 131.66 35.28 -100.88 -458.56 -105.64c-24.14,54.73 -5.68,38.4 -35.27,74.86z"/>
   <polygon class="fil106" points="13636.96,6433.88 14130.79,6509.48 14130.79,6413.69 13636.96,6350.43 "/>
   <path class="fil122" d="M10286 5435.67c8.52,1.46 105.99,15.09 107.99,15.97 122.62,53.7 44,-12.07 101.65,84.66l248.91 0 35.28 -56.69c-166.81,-28.86 -321.1,-104.48 -458.56,-122.62 -42.65,25.73 -35.27,-130.4 -35.27,78.68z"/>
   <path class="fil122" d="M9404.17 5570.21l493.82 36.46 0 -76.22 -423.28 -60.31c-76.39,46.7 -45.87,-1.04 -70.54,100.07z"/>
   <path class="fil113" d="M10039.09 6771.05c225.85,23.08 201.04,99.97 458.55,105.46l0 -91.88c-126.96,-11.63 -143.66,-18.64 -245.53,-49.91 -22.95,-7.05 -82.14,-23.04 -107,-32.52 -55.54,-21.19 -37.14,-15.88 -67.54,-37.15 -42.4,59.06 -38.48,-87.95 -38.48,106z"/>
   <polygon class="fil111" points="11626.38,7004.07 12084.94,7050.36 12120.21,6961.56 11626.38,6915.05 "/>
   <path class="fil118" d="M13495.87 6954.93l493.83 50.22c26.28,-71.16 2.63,-41.65 35.27,-88.86l-493.83 -41.52 -35.27 80.16z"/>
   <path class="fil109" d="M9157.25 5994.29l458.56 59.05 11.78 -58.48c-32.68,-23.24 2.35,-23.7 -100.06,-54.86 -40.9,-12.44 -46.33,-9.27 -89.13,-13.84 -77.31,-8.27 -166.28,-8.94 -245.87,-14.42l-35.28 82.55z"/>
   <path class="fil123" d="M8169.6 6759.67l423.28 31.73 0 -91.25 -458.55 -43.7c13.54,83.35 -2.31,53.08 35.27,103.22z"/>
   <path class="fil114" d="M13531.14 6874.77l493.83 41.52 35.27 -79.44 -493.82 -49.72c-18.7,47.44 -6.08,42.13 -35.28,87.64z"/>
   <path class="fil69" d="M5319.48 6911.96c59.65,-40 38.95,-12.54 28.43,-70.54 -79.39,-42.11 -126.51,-117.38 -225.94,-191.98l-724.64 -508c-6.04,-3.57 -15.01,-9.56 -21.02,-12.7 -41.1,-21.43 -21.89,-24.25 -86.77,-28.24l-21.06 0.18c96.57,59.3 193.35,114.88 290.62,187.34 163.36,121.68 682.7,450.03 760.38,623.94z"/>
   <path class="fil54" d="M10462.37 6982.83c24.51,-49.71 24.71,-35.51 35.27,-106.32 -257.51,-5.49 -232.7,-82.38 -458.55,-105.46l-0.65 70.37 46.64 25.54c72.71,33.6 -20.66,-7.72 49.08,22.09l328.21 93.78z"/>
   <path class="fil82" d="M8910.34 6425.94l412.56 62.74c61.22,-28.47 40.41,52.77 50.74,-70.54 -7.94,-4.68 -18.37,-10.86 -24.27,-13.22l-170.6 -42.49c-77.37,-10.38 -155.23,-12.93 -233.16,-19.58l-35.27 83.09z"/>
   <polygon class="fil107" points="13636.96,6350.43 14130.79,6413.69 14130.79,6321.17 13636.96,6272.86 "/>
   <path class="fil117" d="M12367.12 6590.97l458.56 49.41c16.55,-104.81 -29.63,-45.37 35.27,-86.62l-493.83 -52.65 0 89.86z"/>
   <path class="fil52" d="M2067.32 5547.47c3.9,6.39 9.6,9.89 11.38,19.38 1.74,9.22 9.89,15.65 12.26,18.09 43.6,44.83 12.65,15.93 46.9,38.95l321.49 -260.34c5.04,-4.68 50.25,-50.17 52.11,-52.81 47.73,-67.54 4.39,13.89 36.06,-75.95 -161.73,39.8 -117.62,57.93 -235.99,156.31 -81.08,67.38 -143.92,118.54 -244.21,156.37z"/>
   <path class="fil113" d="M8663.43 6841.59c72.32,4.77 141.69,7.4 213.54,18.33 164.22,24.99 143.48,0.22 209.56,96.86 22.29,-61.63 37.63,-88.82 70.72,-136.87 -62.54,-21.31 -120.34,-31.02 -211.2,-37.32 -46.28,-3.21 -94.15,-2.66 -139.81,-12.34 -136.22,-28.9 -15.91,1.13 -76.63,-34.65l-66.18 105.99z"/>
   <polygon class="fil44" points="10252.32,7441.06 10356.55,7441.06 10391.82,7365.5 9933.27,7250.49 9933.27,7325.49 "/>
   <path class="fil75" d="M9509.99 5422.51c159.34,12.55 303.83,43.61 423.28,41.29l70.54 -72.32 -458.55 -58.43c-46.13,17.01 -35.27,-68.81 -35.27,89.46z"/>
   <path class="fil87" d="M9368.89 5651.69l458.56 42.57c27.35,-52.02 -33.23,-38.2 70.54,-87.59l-493.82 -36.46 -35.28 81.48z"/>
   <path class="fil77" d="M9333.62 5729.95l458.55 53.09c28.64,-94.19 -10.63,-49.29 35.28,-88.78l-458.56 -42.57c-45.71,15.33 -35.27,-66.88 -35.27,78.26z"/>
   <path class="fil23" d="M3378.79 6629.6l487.47 -79.07 0 -86.72c-109.8,-0.55 -179.24,11.48 -279.03,39.79 -52.08,14.78 -57.89,11.25 -103.5,35.12 -102.62,53.7 -60.83,38.42 -104.94,90.88z"/>
   <path class="fil124" d="M9121.98 6075.83l405.21 60.12c8.02,-6.2 20.99,-25.78 24.12,-18.52 2.9,6.71 18.34,-14.21 21.94,-17.66 7.84,-7.54 38.7,-41.69 42.56,-46.43l-458.56 -59.05c-45.53,28.35 -35.27,-53.06 -35.27,81.54z"/>
   <path class="fil40" d="M2079.19 5258.58l-152.97 102.42c48.69,83.49 24.42,43.13 81.03,69.48 71.98,-59.48 113.17,-87.24 192.48,-149.89 31.2,-24.66 80.54,-57.79 99.97,-74.6 93.05,-80.5 40.22,-19.09 88.72,-115.06 -178.01,41.76 -22.18,-24.73 -156.68,78.04 -93.86,71.72 -43.28,45.26 -152.55,89.61z"/>
   <path class="fil125" d="M10815.1 5324.48l35.27 -55.32c-144.65,-29.7 -172.18,-32.87 -261.95,-120.87 -139.03,0 -146.61,-18.26 -233.59,35.28 85.61,64.59 90.2,54.52 212.03,86.32 119.3,31.14 121.94,43.67 248.24,54.59z"/>
   <path class="fil67" d="M9263.07 5809.87l458.56 50.66 70.54 -77.49 -458.55 -53.09c-136.55,49.89 46.96,-94.29 -39.97,17.29 -22.4,28.75 -16.3,10.16 -30.58,62.63z"/>
   <path class="fil106" d="M12931.5 6359.89l35.27 -79.05 -458.55 -45.71 -44.5 41.91c26.35,17.28 22.28,23.38 77.48,40.93 5.05,1.61 111.24,21.11 114.39,21.5 88.62,10.99 185.96,14.07 275.91,20.42z"/>
   <path class="fil111" d="M10077.57 6665.05c30.4,21.27 12,15.96 67.54,37.15 24.86,9.48 84.05,25.47 107,32.52 101.87,31.27 118.57,38.28 245.53,49.91l35.27 -72.32 -458.55 -114.38 3.21 67.12z"/>
   <path class="fil94" d="M10779.83 5479.61l35.27 -82.7 -493.83 -112.62 0 72.7c137.46,18.14 291.75,93.76 458.56,122.62z"/>
   <path class="fil77" d="M7957.96 5546.05c132.16,24.95 351.81,57.1 458.55,60.62l0 -85.13 -493.82 -45.76c30.62,36.14 13.19,23.8 35.27,70.27z"/>
   <path class="fil114" d="M8804.52 6584.89l458.55 47.29c31.36,-55.23 13.07,-29.31 17.32,-72.95l-405.32 -60.75c-5.58,4.86 -15,4.92 -16.8,14.48 -1.81,9.57 -13.69,12.47 -16,15.41 -1.7,2.17 -36.2,53.89 -37.75,56.52z"/>
   <path class="fil110" d="M8028.51 6034.14c144.38,-6.66 283.44,31.74 458.55,49.31l0 -89.23 -458.55 -44.21 0 84.13z"/>
   <path class="fil111" d="M9157.25 6819.91c30.51,-69.93 12.83,-27.34 15.59,-84.31l-438.87 -70.37 -4.36 70.37c60.72,35.78 -59.59,5.75 76.63,34.65 45.66,9.68 93.53,9.13 139.81,12.34 90.86,6.3 148.66,16.01 211.2,37.32z"/>
   <path class="fil126" d="M10109.63 6440.19l458.56 105.64 0 -60.07c-70.72,-25.04 -117.59,-23.76 -163.82,-40.46 -129.42,-46.74 -86.99,40.21 -118.19,-90.8l-141.27 -18.88 -35.28 104.57z"/>
   <path class="fil127" d="M7957.96 5634.15l493.83 44.31c0,-176.51 10.43,-82.76 -35.28,-71.79 -106.74,-3.52 -326.39,-35.67 -458.55,-60.62l0 88.1z"/>
   <path class="fil75" d="M10321.27 5284.29l493.83 112.62 0 -72.43c-126.3,-10.92 -128.94,-23.45 -248.24,-54.59 -121.83,-31.8 -126.42,-21.73 -212.03,-86.32 -34.54,39.19 -33.56,-62.82 -33.56,100.72z"/>
   <path class="fil128" d="M8063.78 6250.08c164.23,10.18 380.67,83.48 465.02,26.96l-6.47 -47.15 -458.55 -58.67 0 78.86z"/>
   <polygon class="fil121" points="12331.85,6771.04 12790.4,6798.11 12779.15,6735.6 12331.85,6673.99 "/>
   <path class="fil66" d="M1692.93 5042.47l72.88 35.28c138.6,-157.02 165.57,-56.07 291.15,-258.92l-147.42 27.71c-61.37,33.08 -201.44,100.27 -216.61,195.93z"/>
   <polygon class="fil129" points="8028.51,5950.01 8487.06,5994.22 8487.06,5917.89 8028.51,5870.63 "/>
   <polygon class="fil119" points="8063.78,6171.22 8522.33,6229.89 8522.33,6147.12 8063.78,6100.68 "/>
   <path class="fil47" d="M1934.2 5226.38c185.03,-51.06 148.77,-91.51 327.17,-161.52 16.18,-13.38 57.2,-38.23 108.76,-68.26 1.66,-0.96 65.93,-39.34 68.46,-41.83 67.1,-65.86 3.77,19.62 37.08,-66.62 -75.76,3.26 -384.88,192.04 -479.63,263.33 -85.65,64.45 12.06,-36.69 -61.84,74.9z"/>
   <path class="fil81" d="M8875.07 6498.48l405.32 60.75c66.31,-26.65 65.4,50.41 42.51,-70.55l-412.56 -62.74c-45.44,17.51 -35.27,-62.46 -35.27,72.54z"/>
   <path class="fil120" d="M13566.42 6787.13l493.82 49.72c25.41,-78.35 -35.52,-65.57 35.28,-66.16l-493.83 -54.59c-26.92,68.92 6.17,39.53 -35.27,71.03z"/>
   <polygon class="fil118" points="10074.36,6597.93 10532.91,6712.31 10532.91,6646.71 10074.36,6515.05 "/>
   <path class="fil130" d="M2913.88 6756.99c69.43,62.93 33.44,38.56 120.8,84.43 58.34,-51.23 90.48,-66.14 161.38,-103.27 11.37,-5.96 85.01,-45.18 93.95,-51.89 64.99,-48.81 15.33,-8.35 62.92,-68.92 -236.75,24.16 -224.44,89.67 -439.05,139.65z"/>
   <polygon class="fil117" points="13601.69,6716.1 14095.52,6770.69 14095.52,6697.01 13636.96,6652.14 "/>
   <path class="fil131" d="M9016.16 6254.99l458.55 44.84 -0.91 -58.06 -422.37 -69.64c-45.61,26.49 -35.27,-55.34 -35.27,82.86z"/>
   <path class="fil14" d="M2771.93 4919.85l-25.88 -0.48c-6.76,11.8 -12.89,14.85 -17.55,36.82 -4.5,21.18 -12.88,24.73 -18.51,34.7 -5.43,9.63 -11.85,22.47 -19.45,32.58 222.02,-31.68 139.29,-101.67 376.79,-122.27 68.76,-63.2 19.45,-16.74 58.01,-102.84l-150.84 32.3 -202.57 89.19z"/>
   <polygon class="fil111" points="8134.33,6656.45 8592.88,6700.15 8592.88,6630.61 8134.33,6585.31 "/>
   <path class="fil132" d="M1934.2 5226.38c-43.68,32.79 -22.52,14.74 -78.52,42.4l70.54 92.22 152.97 -102.42c55.75,-61.4 54.07,-48.04 106.18,-96.93 65.66,-61.61 28.41,-11.11 76,-96.79 -178.4,70.01 -142.14,110.46 -327.17,161.52z"/>
   <path class="fil88" d="M8028.51 6034.14l35.27 66.54 458.55 46.44c0,-137 10.01,-59.38 -35.27,-63.67 -175.11,-17.57 -314.17,-55.97 -458.55,-49.31z"/>
   <path class="fil107" d="M10674.01 5952.77l42.34 -132.8 -412.63 -1.48c9.3,7.26 20.6,16.13 28.65,20.78l341.64 113.5z"/>
   <path class="fil133" d="M9474.71 5470.14l423.28 60.31c45.14,-19.89 35.28,57.57 35.28,-66.65 -119.45,2.32 -263.94,-28.74 -423.28,-41.29 -44.92,-7.52 -35.28,-80.07 -35.28,47.63z"/>
   <path class="fil49" d="M10252.32 7441.06l-319.05 -115.57c-54.04,62.17 -24.54,-10.39 -35.28,115.57l354.33 0z"/>
   <path class="fil134" d="M10850.37 5269.16l0 -120.87 -261.95 0c89.77,88 117.3,91.17 261.95,120.87z"/>
   <path class="fil135" d="M3241.95 4475.15c121.51,-92.03 90.51,-123.17 145.26,-243.96l-120.78 0 -24.48 243.96z"/>
   <path class="fil66" d="M2678.26 4452.06c110,11.04 89.05,-104.6 94.35,-220.87l-80.58 0 -13.77 220.87z"/>
   <path class="fil120" d="M10568.19 6485.76l-17.55 -67.62 -264.46 -63.64c31.2,131.01 -11.23,44.06 118.19,90.8 46.23,16.7 93.1,15.42 163.82,40.46z"/>
   <path class="fil87" d="M10495.64 5536.3c-57.65,-96.73 20.97,-30.96 -101.65,-84.66 -2,-0.88 -99.47,-14.51 -107.99,-15.97 0,169.84 -9.12,63.55 35.27,100.63l174.37 0z"/>
   <path class="fil101" d="M2771.93 4919.85l202.57 -89.19 -4.81 -51.54c-80.85,9.63 -34.45,-22.59 -111.54,27.65 -76.25,49.69 -65.8,78.54 -86.22,113.08z"/>
  </g>
 </g>
</svg>
