<?xml version="1.0" encoding="UTF-8"?> <svg xmlns="http://www.w3.org/2000/svg" width="123" height="32" viewBox="0 0 123 32" fill="none"><path d="M25.8669 5.06194C28.4383 1.63561 33.6218 0.952155 35.9687 1.00314C34.7953 1.36006 32.1423 2.30864 30.3056 3.53233C28.0097 5.06194 27.2444 8.12117 23.571 14.6986C19.8976 21.2758 18.2139 20.2051 15.1528 20.2051C12.9487 19.9604 10.1019 17.7577 9.03045 14.8514C8.73147 12.999 8.81698 11.4694 8.94586 10.1487C8.25239 9.71888 7.51703 9.24744 6.73457 8.733C4.50598 7.26775 4.16809 5.87775 4.02559 4.90173C2.87445 5.11492 1.54045 5.07884 0 4.14415C4.00731 2.98723 3.82734 3.54382 4.02559 4.90173C6.077 4.52181 7.5477 3.35029 8.57128 5.06194C9.45346 6.53717 9.1469 8.08873 8.94586 10.1487C13.4073 12.9136 16.1357 13.9542 18.5201 13.6278C21.4331 13.2291 22.6527 9.34486 25.8669 5.06194Z" fill="white"></path><path fill-rule="evenodd" clip-rule="evenodd" d="M35.9681 1.00092C35.322 0.994074 34.4146 1.08482 33.3617 1.51601C32.7957 1.69648 32.215 2.00856 31.6243 2.4169C30.3891 3.19332 29.0597 4.32595 27.7722 5.93175C26.6369 7.31844 25.5516 9.05572 24.622 11.2166C25.5143 9.20739 26.5086 7.5663 27.5353 6.23332C28.6149 5.06645 29.6947 3.9517 30.7499 3.08177C32.8451 1.54765 34.8015 1.0517 35.9681 1.00092ZM8.98206 15.0551L18.4888 31.9446C18.1821 31.2006 17.2928 28.9145 16.1889 25.7208C15.0849 22.5272 14.6044 19.941 14.5023 19.0472C15.8311 19.7384 19.1327 20.1838 21.7087 16.4349C18.7439 20.2878 16.1609 19.5318 14.7258 19.1119C14.6478 19.089 14.5733 19.0673 14.5023 19.0472C13.1261 18.6591 10.2733 17.3583 8.98206 15.0551Z" fill="white"></path><path d="M18.4888 31.9446L35.9681 1.00092C34.8015 1.0517 32.8451 1.54765 30.7499 3.08177C29.6947 3.9517 28.6149 5.06645 27.5353 6.23332C26.5086 7.5663 25.5143 9.20739 24.622 11.2166C23.6288 13.5255 22.6495 15.2122 21.7087 16.4349C19.1327 20.1838 15.8311 19.7384 14.5023 19.0472C14.6044 19.941 15.0849 22.5272 16.1889 25.7208C17.2928 28.9145 18.1821 31.2006 18.4888 31.9446Z" fill="white"></path><path fill-rule="evenodd" clip-rule="evenodd" d="M35.9699 1.00126C35.3215 0.99443 34.4104 1.0306 33.3536 1.46079C31.2039 2.33585 29.0817 4.13965 27.6591 5.90313C26.5196 7.28659 25.5141 8.95546 24.581 11.1114C25.4595 9.0817 26.4747 7.62288 27.5052 6.29299C28.5889 5.12883 29.5877 3.89727 30.647 3.02935C32.75 1.49878 34.799 1.05193 35.9699 1.00126Z" fill="white"></path><path d="M18.4248 31.9445L35.9699 1.00126C34.799 1.05193 32.75 1.49878 30.647 3.02935C29.5877 3.89727 28.5889 5.12883 27.5052 6.29299C26.4747 7.62288 25.4595 9.0817 24.581 11.1114C23.584 13.4148 22.6011 15.0997 21.6567 16.3196C18.7325 19.8447 16.2701 19.5364 14.7311 19.0769C14.8337 19.9686 15.008 22.549 16.1162 25.7352C17.2243 28.9214 18.117 31.2023 18.4248 31.9445Z" fill="white"></path><path d="M16.5497 10.5592C19.4367 10.5592 21.7771 8.20793 21.7771 5.30745C21.7771 2.40696 19.4367 0.0556641 16.5497 0.0556641C13.6627 0.0556641 11.3224 2.40696 11.3224 5.30745C11.3224 8.20793 13.6627 10.5592 16.5497 10.5592Z" fill="white"></path><path d="M43.7824 7.73802H47.1126L51.0945 14.9198H51.2535L55.2354 7.73802H58.5657L52.6444 17.9162V23.9724H49.7036V17.9162L43.7824 7.73802Z" fill="white"></path><path d="M63.5788 24.2102C62.3867 24.2102 61.3534 23.9486 60.4791 23.4255C59.6049 22.9023 58.9266 22.1704 58.4445 21.2297C57.9676 20.289 57.7291 19.1898 57.7291 17.9321C57.7291 16.6743 57.9676 15.5725 58.4445 14.6265C58.9266 13.6806 59.6049 12.946 60.4791 12.4229C61.3534 11.8997 62.3867 11.6381 63.5788 11.6381C64.771 11.6381 65.8043 11.8997 66.6786 12.4229C67.5528 12.946 68.2284 13.6806 68.7053 14.6265C69.1875 15.5725 69.4286 16.6743 69.4286 17.9321C69.4286 19.1898 69.1875 20.289 68.7053 21.2297C68.2284 22.1704 67.5528 22.9023 66.6786 23.4255C65.8043 23.9486 64.771 24.2102 63.5788 24.2102ZM63.5948 21.9114C64.2412 21.9114 64.7816 21.7344 65.2161 21.3803C65.6506 21.021 65.9738 20.5401 66.1858 19.9376C66.403 19.3352 66.5117 18.664 66.5117 17.9242C66.5117 17.179 66.403 16.5052 66.1858 15.9028C65.9738 15.295 65.6506 14.8115 65.2161 14.4521C64.7816 14.0928 64.2412 13.9131 63.5948 13.9131C62.9324 13.9131 62.3814 14.0928 61.9416 14.4521C61.5071 14.8115 61.1812 15.295 60.964 15.9028C60.752 16.5052 60.646 17.179 60.646 17.9242C60.646 18.664 60.752 19.3352 60.964 19.9376C61.1812 20.5401 61.5071 21.021 61.9416 21.3803C62.3814 21.7344 62.9324 21.9114 63.5948 21.9114Z" fill="white"></path><path d="M77.9667 11.7966V14.0162H70.9486V11.7966H77.9667ZM72.6813 8.8795H75.5585V20.3102C75.5585 20.6959 75.6167 20.9919 75.7333 21.198C75.8552 21.3988 76.0141 21.5362 76.2102 21.6102C76.4062 21.6842 76.6235 21.7212 76.8619 21.7212C77.0421 21.7212 77.2063 21.708 77.3547 21.6815C77.5084 21.6551 77.6249 21.6313 77.7044 21.6102L78.1892 23.8535C78.0356 23.9064 77.8157 23.9645 77.5296 24.0279C77.2487 24.0913 76.9043 24.1283 76.4963 24.1389C75.7757 24.16 75.1266 24.0517 74.5491 23.8139C73.9715 23.5708 73.5132 23.1956 73.1741 22.6883C72.8402 22.1809 72.676 21.5468 72.6813 20.7858V8.8795Z" fill="white"></path><path d="M85.6465 24.2102C84.4225 24.2102 83.3654 23.9566 82.4752 23.4492C81.5903 22.9366 80.9094 22.2126 80.4326 21.2773C79.9557 20.3366 79.7172 19.2295 79.7172 17.9559C79.7172 16.7034 79.9557 15.6042 80.4326 14.6583C80.9147 13.707 81.5877 12.9672 82.4513 12.4387C83.315 11.905 84.3297 11.6381 85.4954 11.6381C86.2478 11.6381 86.9579 11.7596 87.6255 12.0027C88.2984 12.2405 88.8919 12.6105 89.4059 13.1125C89.9251 13.6145 90.3331 14.254 90.6298 15.0308C90.9266 15.8024 91.0749 16.7219 91.0749 17.7894V18.6693H81.0684V16.7351H88.317C88.3117 16.1855 88.1925 15.6967 87.9593 15.2686C87.7262 14.8353 87.4003 14.4944 86.9817 14.246C86.5684 13.9977 86.0862 13.8735 85.5352 13.8735C84.947 13.8735 84.4304 14.0162 83.9853 14.3015C83.5402 14.5816 83.1932 14.9515 82.9441 15.4113C82.7004 15.8658 82.5759 16.3652 82.5706 16.9095V18.5979C82.5706 19.3061 82.7004 19.9138 82.96 20.4211C83.2197 20.9232 83.5826 21.309 84.0489 21.5785C84.5152 21.8427 85.0609 21.9748 85.6862 21.9748C86.1048 21.9748 86.4836 21.9167 86.8227 21.8004C87.1618 21.6789 87.4559 21.5019 87.705 21.2693C87.954 21.0368 88.1421 20.7488 88.2693 20.4053L90.9557 20.7065C90.7861 21.4147 90.4629 22.033 89.986 22.5614C89.5145 23.0846 88.9104 23.4915 88.1739 23.7822C87.4374 24.0675 86.5949 24.2102 85.6465 24.2102Z" fill="white"></path><path d="M95.9629 23.9724L92.5135 11.7966H95.4463L97.5923 20.3577H97.7035L99.8972 11.7966H102.798L104.992 20.3102H105.111L107.225 11.7966H110.166L106.709 23.9724H103.712L101.423 15.7442H101.256L98.9673 23.9724H95.9629Z" fill="white"></path><path d="M117.15 24.2102C115.958 24.2102 114.925 23.9486 114.051 23.4255C113.176 22.9023 112.498 22.1704 112.016 21.2297C111.539 20.289 111.301 19.1898 111.301 17.9321C111.301 16.6743 111.539 15.5725 112.016 14.6265C112.498 13.6806 113.176 12.946 114.051 12.4229C114.925 11.8997 115.958 11.6381 117.15 11.6381C118.342 11.6381 119.376 11.8997 120.25 12.4229C121.124 12.946 121.8 13.6806 122.277 14.6265C122.759 15.5725 123 16.6743 123 17.9321C123 19.1898 122.759 20.289 122.277 21.2297C121.8 22.1704 121.124 22.9023 120.25 23.4255C119.376 23.9486 118.342 24.2102 117.15 24.2102ZM117.166 21.9114C117.813 21.9114 118.353 21.7344 118.788 21.3803C119.222 21.021 119.545 20.5401 119.757 19.9376C119.974 19.3352 120.083 18.664 120.083 17.9242C120.083 17.179 119.974 16.5052 119.757 15.9028C119.545 15.295 119.222 14.8115 118.788 14.4521C118.353 14.0928 117.813 13.9131 117.166 13.9131C116.504 13.9131 115.953 14.0928 115.513 14.4521C115.079 14.8115 114.753 15.295 114.535 15.9028C114.323 16.5052 114.217 17.179 114.217 17.9242C114.217 18.664 114.323 19.3352 114.535 19.9376C114.753 20.5401 115.079 21.021 115.513 21.3803C115.953 21.7344 116.504 21.9114 117.166 21.9114Z" fill="white"></path></svg> 