<?xml version="1.0" encoding="UTF-8"?> <svg xmlns="http://www.w3.org/2000/svg" width="93" height="24" viewBox="0 0 93 24" fill="none"><path d="M19.4677 3.76779C21.4031 1.18909 25.3042 0.674711 27.0705 0.713085C26.1874 0.981703 24.1907 1.69562 22.8084 2.61658C21.0805 3.76779 20.5045 6.07021 17.7398 11.0204C14.9752 15.9706 13.7081 15.1648 11.4042 15.1648C9.74537 14.9806 7.60279 13.3228 6.79643 11.1355C6.57142 9.74134 6.63578 8.59013 6.73277 7.59612C6.21085 7.27266 5.65741 6.91785 5.06853 6.53068C3.39126 5.42791 3.13696 4.38178 3.02971 3.64722C2.16335 3.80766 1.15936 3.78051 0 3.07705C3.01596 2.20633 2.88051 2.62523 3.02971 3.64722C4.57363 3.36128 5.6805 2.47958 6.45086 3.76779C7.1148 4.87807 6.88408 6.04579 6.73277 7.59612C10.0905 9.67706 12.1439 10.4602 13.9385 10.2146C16.1308 9.91449 17.0487 6.99117 19.4677 3.76779Z" fill="black"></path><path fill-rule="evenodd" clip-rule="evenodd" d="M27.07 0.711409C26.5838 0.70626 25.9009 0.774559 25.1085 1.09908C24.6825 1.2349 24.2454 1.46977 23.8009 1.7771C22.8712 2.36144 21.8707 3.21387 20.9017 4.42242C20.0473 5.46606 19.2305 6.77356 18.5308 8.3999C19.2024 6.88771 19.9507 5.65261 20.7234 4.64938C21.536 3.77118 22.3486 2.93221 23.1428 2.27749C24.7197 1.12289 26.1921 0.749633 27.07 0.711409ZM6.76002 11.2888L13.9149 24C13.6841 23.4401 13.0148 21.7195 12.184 19.3159C11.3531 16.9124 10.9915 14.966 10.9146 14.2933C11.9147 14.8135 14.3996 15.1487 16.3383 12.3272C14.1069 15.227 12.1629 14.658 11.0829 14.342C11.0241 14.3248 10.9681 14.3084 10.9146 14.2933C9.87888 14.0012 7.73181 13.0222 6.76002 11.2888Z" fill="black"></path><path d="M13.9149 24L27.07 0.711409C26.1921 0.749633 24.7197 1.12289 23.1428 2.27749C22.3486 2.93221 21.536 3.77118 20.7234 4.64938C19.9507 5.65261 19.2024 6.88771 18.5308 8.3999C17.7833 10.1376 17.0463 11.407 16.3383 12.3272C14.3996 15.1487 11.9147 14.8135 10.9146 14.2933C10.9915 14.966 11.3531 16.9124 12.184 19.3159C13.0148 21.7195 13.6841 23.4401 13.9149 24Z" fill="black"></path><path fill-rule="evenodd" clip-rule="evenodd" d="M27.0714 0.711666C26.5834 0.706528 25.8977 0.733752 25.1024 1.05752C23.4844 1.7161 21.8873 3.07366 20.8166 4.40088C19.959 5.44209 19.2022 6.69811 18.5 8.32068C19.1611 6.79311 19.9252 5.69518 20.7008 4.69429C21.5164 3.81813 22.2681 2.89124 23.0654 2.23804C24.6481 1.08611 26.1902 0.749801 27.0714 0.711666Z" fill="black"></path><path d="M13.8667 23.9999L27.0714 0.711666C26.1902 0.749801 24.6481 1.08611 23.0654 2.23804C22.2681 2.89124 21.5164 3.81813 20.7008 4.69429C19.9252 5.69518 19.1611 6.79311 18.5 8.32068C17.7496 10.0543 17.0099 11.3224 16.2991 12.2404C14.0983 14.8935 12.2451 14.6615 11.0868 14.3156C11.164 14.9868 11.2952 16.9288 12.1293 19.3268C12.9632 21.7248 13.6351 23.4414 13.8667 23.9999Z" fill="black"></path><path d="M12.4555 7.90513C14.6283 7.90513 16.3897 6.1355 16.3897 3.95257C16.3897 1.76962 14.6283 0 12.4555 0C10.2828 0 8.52137 1.76962 8.52137 3.95257C8.52137 6.1355 10.2828 7.90513 12.4555 7.90513Z" fill="black"></path><path d="M32.9512 5.78184H35.4576L38.4544 11.187H38.5741L41.5709 5.78184H44.0773L39.6209 13.4421V18.0001H37.4076V13.4421L32.9512 5.78184Z" fill="black"></path><path d="M47.8503 18.1791C46.953 18.1791 46.1754 17.9822 45.5174 17.5884C44.8594 17.1947 44.349 16.6438 43.9861 15.9359C43.6272 15.2279 43.4477 14.4006 43.4477 13.454C43.4477 12.5074 43.6272 11.6782 43.9861 10.9662C44.349 10.2543 44.8594 9.70146 45.5174 9.30771C46.1754 8.91396 46.953 8.71708 47.8503 8.71708C48.7475 8.71708 49.5252 8.91396 50.1832 9.30771C50.8412 9.70146 51.3496 10.2543 51.7085 10.9662C52.0714 11.6782 52.2529 12.5074 52.2529 13.454C52.2529 14.4006 52.0714 15.2279 51.7085 15.9359C51.3496 16.6438 50.8412 17.1947 50.1832 17.5884C49.5252 17.9822 48.7475 18.1791 47.8503 18.1791ZM47.8622 16.4489C48.3488 16.4489 48.7555 16.3157 49.0825 16.0492C49.4095 15.7788 49.6528 15.4168 49.8123 14.9634C49.9758 14.51 50.0576 14.0049 50.0576 13.4481C50.0576 12.8873 49.9758 12.3802 49.8123 11.9268C49.6528 11.4694 49.4095 11.1054 49.0825 10.835C48.7555 10.5645 48.3488 10.4293 47.8622 10.4293C47.3638 10.4293 46.949 10.5645 46.618 10.835C46.291 11.1054 46.0458 11.4694 45.8823 11.9268C45.7228 12.3802 45.643 12.8873 45.643 13.4481C45.643 14.0049 45.7228 14.51 45.8823 14.9634C46.0458 15.4168 46.291 15.7788 46.618 16.0492C46.949 16.3157 47.3638 16.4489 47.8622 16.4489Z" fill="black"></path><path d="M58.6788 8.8364V10.5069H53.3969V8.8364H58.6788ZM54.7009 6.64094H56.8663V15.2438C56.8663 15.5342 56.9102 15.7569 56.9979 15.912C57.0896 16.0631 57.2092 16.1665 57.3568 16.2222C57.5043 16.2779 57.6679 16.3057 57.8473 16.3057C57.9829 16.3057 58.1065 16.2958 58.2182 16.2759C58.3338 16.256 58.4215 16.2381 58.4814 16.2222L58.8463 17.9106C58.7306 17.9504 58.5651 17.9941 58.3498 18.0418C58.1384 18.0896 57.8792 18.1174 57.5721 18.1254C57.0298 18.1413 56.5413 18.0597 56.1066 17.8808C55.6719 17.6978 55.327 17.4154 55.0718 17.0336C54.8205 16.6518 54.6969 16.1745 54.7009 15.6018V6.64094Z" fill="black"></path><path d="M64.4586 18.1791C63.5375 18.1791 62.7419 17.9881 62.0719 17.6063C61.406 17.2205 60.8935 16.6756 60.5346 15.9717C60.1757 15.2637 59.9962 14.4305 59.9962 13.4719C59.9962 12.5293 60.1757 11.702 60.5346 10.9901C60.8975 10.2742 61.4039 9.71737 62.054 9.31964C62.704 8.91793 63.4677 8.71708 64.345 8.71708C64.9113 8.71708 65.4456 8.80856 65.9481 8.99151C66.4546 9.17049 66.9012 9.4489 67.288 9.82674C67.6788 10.2046 67.9859 10.6858 68.2092 11.2705C68.4325 11.8512 68.5442 12.5432 68.5442 13.3466V14.0089H61.0131V12.5532H66.4685C66.4645 12.1395 66.3748 11.7716 66.1993 11.4495C66.0239 11.1233 65.7786 10.8668 65.4636 10.6799C65.1525 10.4929 64.7896 10.3995 64.3749 10.3995C63.9323 10.3995 63.5434 10.5069 63.2085 10.7216C62.8735 10.9324 62.6123 11.2108 62.4248 11.5569C62.2414 11.8989 62.1477 12.2748 62.1437 12.6844V13.9552C62.1437 14.4881 62.2414 14.9455 62.4368 15.3273C62.6322 15.7052 62.9054 15.9955 63.2563 16.1984C63.6072 16.3972 64.018 16.4967 64.4885 16.4967C64.8036 16.4967 65.0887 16.4529 65.3439 16.3654C65.5992 16.2739 65.8205 16.1407 66.0079 15.9657C66.1953 15.7907 66.3369 15.5739 66.4326 15.3154L68.4545 15.5421C68.3269 16.0751 68.0836 16.5404 67.7247 16.9381C67.3698 17.3319 66.9152 17.6381 66.3608 17.8569C65.8065 18.0717 65.1725 18.1791 64.4586 18.1791Z" fill="black"></path><path d="M72.223 18.0001L69.6269 8.8364H71.8342L73.4492 15.2796H73.533L75.1839 8.8364H77.3673L79.0183 15.2438H79.108L80.6991 8.8364H82.9124L80.3103 18.0001H78.0552L76.3324 11.8074H76.2068L74.4841 18.0001H72.223Z" fill="black"></path><path d="M88.1689 18.1791C87.2716 18.1791 86.494 17.9822 85.836 17.5884C85.178 17.1947 84.6675 16.6438 84.3046 15.9359C83.9457 15.2279 83.7663 14.4006 83.7663 13.454C83.7663 12.5074 83.9457 11.6782 84.3046 10.9662C84.6675 10.2543 85.178 9.70146 85.836 9.30771C86.494 8.91396 87.2716 8.71708 88.1689 8.71708C89.0661 8.71708 89.8438 8.91396 90.5017 9.30771C91.1597 9.70146 91.6682 10.2543 92.0271 10.9662C92.39 11.6782 92.5714 12.5074 92.5714 13.454C92.5714 14.4006 92.39 15.2279 92.0271 15.9359C91.6682 16.6438 91.1597 17.1947 90.5017 17.5884C89.8438 17.9822 89.0661 18.1791 88.1689 18.1791ZM88.1808 16.4489C88.6673 16.4489 89.0741 16.3157 89.4011 16.0492C89.7281 15.7788 89.9714 15.4168 90.1309 14.9634C90.2944 14.51 90.3761 14.0049 90.3761 13.4481C90.3761 12.8873 90.2944 12.3802 90.1309 11.9268C89.9714 11.4694 89.7281 11.1054 89.4011 10.835C89.0741 10.5645 88.6673 10.4293 88.1808 10.4293C87.6823 10.4293 87.2676 10.5645 86.9366 10.835C86.6096 11.1054 86.3643 11.4694 86.2009 11.9268C86.0413 12.3802 85.9616 12.8873 85.9616 13.4481C85.9616 14.0049 86.0413 14.51 86.2009 14.9634C86.3643 15.4168 86.6096 15.7788 86.9366 16.0492C87.2676 16.3157 87.6823 16.4489 88.1808 16.4489Z" fill="black"></path></svg> 