<?xml version="1.0" encoding="UTF-8"?>
<!DOCTYPE svg PUBLIC "-//W3C//DTD SVG 1.1//EN" "http://www.w3.org/Graphics/SVG/1.1/DTD/svg11.dtd">
<!-- Creator: CorelDRAW -->
<svg xmlns="http://www.w3.org/2000/svg" xml:space="preserve" width="158.75mm" height="34.3958mm" version="1.1" style="shape-rendering:geometricPrecision; text-rendering:geometricPrecision; image-rendering:optimizeQuality; fill-rule:evenodd; clip-rule:evenodd"
viewBox="0 0 15875 3439.58"
 xmlns:xlink="http://www.w3.org/1999/xlink"
 xmlns:xodm="http://www.corel.com/coreldraw/odm/2003">
 <defs>
  <style type="text/css">
   <![CDATA[
    .fil8 {fill:none}
    .fil0 {fill:white;fill-rule:nonzero}
    .fil1 {fill:url(#id1);fill-rule:nonzero}
    .fil2 {fill:url(#id2);fill-rule:nonzero}
    .fil3 {fill:url(#id3);fill-rule:nonzero}
    .fil4 {fill:url(#id4);fill-rule:nonzero}
    .fil7 {fill:url(#id5);fill-rule:nonzero}
    .fil6 {fill:url(#id6);fill-rule:nonzero}
    .fil5 {fill:url(#id7);fill-rule:nonzero}
   ]]>
  </style>
   <clipPath id="id0">
    <path d="M207.29 3022.81l15506.38 0 0 -2598.34 -15506.38 0 0 2598.34z"/>
   </clipPath>
  <linearGradient id="id1" gradientUnits="userSpaceOnUse" x1="9511.11" y1="1095.01" x2="9720.66" y2="1095.01">
   <stop offset="0" style="stop-opacity:1; stop-color:#FF4447"/>
   <stop offset="1" style="stop-opacity:1; stop-color:#FF0015"/>
  </linearGradient>
  <linearGradient id="id2" gradientUnits="userSpaceOnUse" xlink:href="#id1" x1="3769.57" y1="1967.97" x2="2218.93" y2="1177.68">
  </linearGradient>
  <linearGradient id="id3" gradientUnits="userSpaceOnUse" xlink:href="#id1" x1="1883.67" y1="1809.24" x2="1003.57" y2="1559.84">
  </linearGradient>
  <linearGradient id="id4" gradientUnits="userSpaceOnUse" xlink:href="#id1" x1="4482.02" y1="759.73" x2="4272.48" y2="717.82">
  </linearGradient>
  <linearGradient id="id5" gradientUnits="userSpaceOnUse" x1="584.48" y1="1514.1" x2="1883.67" y2="1514.1">
   <stop offset="0" style="stop-opacity:1; stop-color:#FFAAA5"/>
   <stop offset="1" style="stop-opacity:1; stop-color:#FF746D"/>
  </linearGradient>
  <linearGradient id="id6" gradientUnits="userSpaceOnUse" xlink:href="#id5" x1="4314.12" y1="1428.09" x2="5192.32" y2="1428.09">
  </linearGradient>
  <linearGradient id="id7" gradientUnits="userSpaceOnUse" xlink:href="#id5" x1="3476.2" y1="2184.64" x2="5278.28" y2="2184.64">
  </linearGradient>
 </defs>
 <g id="Слой_x0020_1">
  <metadata id="CorelCorpID_0Corel-Layer"/>
  <g>
  </g>
  <g style="clip-path:url(#id0)">
   <g id="_1703291678704">
    <path class="fil0" d="M6268.18 2080.29c41.92,-61.03 64.17,-133.42 63.71,-207.46 -0.12,-52.76 -10.59,-104.98 -30.93,-153.67 -20.28,-48.69 -49.99,-92.92 -87.42,-130.13 -37.38,-37.2 -81.77,-66.68 -130.55,-86.72 -48.82,-20.05 -101.08,-30.28 -153.85,-30.12l-483.21 0 0 1206.57 236.79 0 0 -419.11 182.3 0 243.5 419.11 259.41 0 -267.38 -454.73c68.1,-31.47 126.15,-81.22 167.63,-143.74zm-222.95 -81.72c-14.67,16.39 -32.6,29.54 -52.67,38.55 -20.09,9.03 -41.83,13.74 -63.84,13.83l-245.16 0 0 -356.23 245.16 0c21.96,-0.41 43.75,3.94 63.87,12.76 20.12,8.83 38.09,21.93 52.64,38.37 32.02,33.94 49.45,79.07 48.62,125.73 0.83,47.01 -16.6,92.54 -48.62,126.99zm815.55 -205.77c-60.71,-2.28 -121.24,8.11 -177.74,30.47 -56.48,22.37 -107.69,56.23 -150.41,99.44 -41.57,43.01 -74.13,93.9 -95.72,149.67 -21.57,55.79 -31.81,115.33 -30,175.13 -1.84,60.23 8.63,120.22 30.76,176.28 22.08,56.05 55.41,107.01 97.9,149.78 45.26,44 99.07,78.23 158.12,100.58 59.05,22.35 122.04,32.33 185.11,29.33 167.64,0 290.85,-60.77 377.19,-183.99l-179.79 -103.51c-23.3,28.43 -53.1,50.87 -86.83,65.46 -33.79,14.57 -70.54,20.88 -107.21,18.36 -132.86,0 -213.33,-54.06 -243.5,-161.77l651.28 0c5.4,-30.16 8.2,-60.73 8.38,-91.36 3.13,-119.86 -41.12,-236.14 -123.22,-323.54 -40.1,-42.87 -88.84,-76.67 -143.08,-99.15 -54.19,-22.47 -112.57,-33.1 -171.24,-31.18zm-225.46 374.65c9.85,-50.68 37.3,-96.26 77.53,-128.65 42.71,-31.58 94.88,-47.69 147.93,-45.68 48.61,-1.19 96.3,13.53 135.79,41.91 41.87,32.22 69.98,79.07 78.79,131.17l-440.04 1.25zm1463.46 -248.93c-33.11,-41.84 -75.76,-75.08 -124.42,-96.97 -48.66,-21.88 -101.85,-31.75 -155.11,-28.75 -56.12,-0.86 -111.78,10.42 -163.11,33.07 -51.34,22.63 -97.23,56.09 -134.45,98.09 -81.56,87.74 -125.72,203.78 -123.22,323.55 -2.5,119.76 41.66,235.79 123.22,323.54 37.43,41.75 83.32,75.06 134.62,97.68 51.34,22.62 106.86,34.04 162.94,33.49 53.26,2.99 106.45,-6.88 155.11,-28.77 48.66,-21.87 91.31,-55.12 124.42,-96.95l0 102.26 222.96 0 0 -1206.57 -222.96 0 0 446.33zm-67.89 502.91c-22.08,22.54 -48.61,40.21 -77.92,51.89 -29.29,11.7 -60.71,17.15 -92.23,15.99 -31.78,1.08 -63.41,-4.4 -92.97,-16.07 -29.58,-11.68 -56.4,-29.32 -78.86,-51.81 -22.76,-23.07 -40.49,-50.55 -52.18,-80.76 -11.69,-30.2 -17.01,-62.48 -15.71,-94.84 -1.3,-32.36 4.02,-64.64 15.71,-94.85 11.69,-30.21 29.42,-57.69 52.18,-80.75 22.46,-22.49 49.28,-40.12 78.86,-51.81 29.56,-11.68 61.19,-17.16 92.97,-16.08 31.52,-1.01 62.9,4.48 92.15,16.17 29.31,11.68 55.82,29.29 78,51.72 22.76,23.06 40.48,50.54 52.17,80.75 11.69,30.21 17.02,62.49 15.72,94.85 1.22,32.59 -4.15,65.11 -15.84,95.57 -11.65,30.48 -29.39,58.26 -52.05,81.7l0 -1.67zm1466.81 -950.92l236.79 0 0 832.31c2.93,54.64 -6.24,109.26 -26.81,159.96 -20.55,50.71 -52.05,96.24 -92.21,133.4 -84.99,72.63 -194.21,110.61 -305.94,106.46 -189.84,0 -322.7,-75.85 -398.54,-229.24l204.93 -117.34c16.43,27.73 38.43,51.73 64.66,70.45 26.23,18.72 56.12,31.76 87.67,38.27 31.57,6.51 64.17,6.35 95.64,-0.46 31.52,-6.83 61.24,-20.15 87.29,-39.12 15.69,-16.26 27.96,-35.5 36.01,-56.6 8.09,-21.1 11.78,-43.62 10.94,-66.19l-0.43 -831.9zm1007.92 345.33l220.86 0 0 864.17 -222.96 0 0 -96.81c-53.93,80.18 -139.67,120.28 -257.31,120.28 -43.16,1.11 -86.12,-6.78 -126.12,-23.15 -39.98,-16.38 -76.09,-40.9 -106.06,-71.98 -31.93,-35.58 -56.58,-77.09 -72.47,-122.17 -15.88,-45.1 -22.74,-92.87 -20.14,-140.61l0 -529.32 222.94 0 0 502.91c-1.79,23.94 1.47,47.98 9.57,70.59 8.08,22.58 20.83,43.24 37.38,60.6 16.68,15.84 36.46,28.07 58.11,35.92 21.64,7.86 44.64,11.19 67.61,9.76 25.56,1.17 51.05,-3.04 74.89,-12.35 23.81,-9.32 45.43,-23.53 63.4,-41.71 37.61,-44.65 55.97,-102.36 51.13,-160.52l-0.83 -465.61zm1615.18 75.43c61.73,71.57 93.41,164.21 88.44,258.58l0 528.91 -222.96 0 0 -515.49c2.8,-43.32 -10.49,-86.17 -37.31,-120.29 -13.49,-14.47 -30.04,-25.74 -48.48,-32.99 -18.41,-7.25 -38.22,-10.3 -57.96,-8.92 -22.13,-1.3 -44.3,2.52 -64.72,11.17 -20.45,8.65 -38.58,21.89 -53.05,38.71 -30.55,41.93 -45.35,93.25 -41.91,145.01l0 482.8 -222.96 0 0 -515.49c2.81,-43.32 -10.47,-86.17 -37.3,-120.29 -13.53,-14.44 -30.08,-25.7 -48.49,-32.94 -18.43,-7.26 -38.22,-10.31 -57.95,-8.97 -22.13,-1.01 -44.18,2.93 -64.55,11.57 -20.4,8.63 -38.55,21.71 -53.22,38.31 -32.01,41.3 -47.82,92.87 -44.43,145.01l0 482.8 -224.21 0 0 -862.51 222.96 0 0 91.37c26.32,-38.6 62.31,-69.65 104.4,-90.02 42.04,-20.37 88.72,-29.35 135.32,-26.07 46.98,-2.49 93.75,7.89 135.28,30.06 41.49,22.15 76.19,55.24 100.25,95.67 28.91,-40.66 67.73,-73.27 112.73,-94.76 45.02,-21.48 94.8,-31.13 144.59,-28.04 43.92,-1.89 87.76,5.8 128.41,22.51 40.66,16.71 77.23,42.07 107.12,74.3zm779.51 -96.81c-53.18,-2.49 -106.24,7.59 -154.81,29.43 -48.58,21.84 -91.28,54.84 -124.72,96.3l0 -103.94 -222.96 0 0 1206.58 222.96 0 0 -446.33c33.11,41.83 75.76,75.08 124.42,96.95 48.66,21.89 101.85,31.76 155.11,28.77 56.12,0.85 111.78,-10.44 163.11,-33.08 51.34,-22.63 97.23,-56.1 134.45,-98.09 81.56,-87.75 125.72,-203.78 123.22,-323.54 2.83,-119.59 -40.87,-235.6 -121.97,-323.55 -37.55,-41.92 -83.65,-75.31 -135.19,-97.93 -51.56,-22.64 -107.33,-33.96 -163.62,-33.23l0 1.66zm130.34 628.64c-22.56,22.4 -49.37,39.97 -78.91,51.64 -29.54,11.68 -61.14,17.2 -92.92,16.25 -31.52,1.02 -62.9,-4.48 -92.15,-16.17 -29.31,-11.67 -55.82,-29.29 -78,-51.72 -22.76,-23.06 -40.48,-50.54 -52.17,-80.75 -11.69,-30.2 -17.02,-62.48 -15.72,-94.84 -1.01,-32.33 4.49,-64.52 16.13,-94.68 11.69,-30.16 29.3,-57.69 51.76,-80.92 22.08,-22.54 48.61,-40.22 77.92,-51.89 29.28,-11.71 60.71,-17.16 92.23,-16 31.78,-1.08 63.41,4.4 92.95,16.08 29.59,11.67 56.42,29.31 78.88,51.81 22.76,23.06 40.49,50.54 52.18,80.75 11.69,30.2 17.01,62.49 15.71,94.85 1.42,32.29 -3.77,64.54 -15.33,94.75 -11.54,30.21 -29.13,57.72 -51.72,80.84l-0.84 0zm858.3 -628.64c-60.72,-2.27 -121.25,8.11 -177.73,30.49 -56.5,22.37 -107.71,56.22 -150.42,99.44 -41.57,42.99 -74.14,93.9 -95.71,149.67 -21.59,55.79 -31.83,115.33 -30.02,175.12 -1.51,60.34 9.31,120.35 31.68,176.41 22.43,56.04 55.99,106.97 98.66,149.64 45.26,44 99.06,78.25 158.12,100.6 59.05,22.35 122.04,32.33 185.11,29.32 167.63,0 290.85,-60.77 377.19,-183.98l-179.79 -103.51c-23.3,28.43 -53.1,50.87 -86.84,65.46 -33.78,14.57 -70.53,20.88 -107.2,18.36 -132.86,0 -213.31,-54.06 -243.5,-161.77l650.85 0c5.42,-30.16 8.22,-60.73 8.38,-91.36 3.15,-119.88 -41.1,-236.14 -123.2,-323.55 -40.08,-43.32 -88.97,-77.53 -143.46,-100.31 -54.44,-22.78 -113.11,-33.58 -172.12,-31.69l0 1.66zm-228.83 372.99c9.85,-50.68 37.3,-96.26 77.53,-128.65 42.71,-31.58 94.88,-47.69 147.95,-45.68 48.61,-1.19 96.3,13.53 135.77,41.91 41.88,32.22 70,79.07 78.81,131.17l-440.06 1.25zm1142.45 -326.04c48.36,-28.04 103.34,-42.52 159.25,-41.91l0 248.93c-63.99,-9.04 -129.07,5.88 -182.72,41.91 -27.45,20.31 -49.12,47.41 -62.95,78.65 -13.83,31.22 -19.28,65.5 -15.84,99.47l0 411.96 -222.96 0 0 -864.17 222.96 0 0 149.2c18.74,-52.41 55.41,-96.51 103.51,-124.47l-1.25 0.43zm909.85 586.72c1.8,39.72 -6.37,79.24 -23.81,114.98 -17.44,35.73 -43.54,66.52 -75.93,89.54 -72.98,49.32 -159.64,74.4 -247.69,71.67 -177.28,0 -297.56,-67.9 -362.93,-204.52l194.03 -109.39c10.82,35.09 33.41,65.37 63.96,85.74 30.51,20.39 67.13,29.62 103.67,26.17 78.81,0 119.04,-24.73 119.04,-74.61 0,-23.47 -15.1,-41.91 -45.68,-56.58 -35.72,-15.99 -72.72,-28.9 -110.64,-38.55 -44.64,-11.47 -88.56,-25.45 -131.6,-41.91 -43.51,-17.31 -81.48,-46.14 -109.8,-83.4 -31.35,-40.09 -47.53,-89.95 -45.68,-140.81 -1.55,-38.51 6.19,-76.82 22.62,-111.7 16.44,-34.88 40.99,-65.28 71.67,-88.63 67.43,-50.14 149.86,-75.99 233.86,-73.33 66.67,-1.24 132.55,14.95 191.11,46.93 57.95,31.17 105.9,78.09 138.29,135.37l-189.85 103.51c-11.23,-27.12 -30.51,-50.15 -55.24,-65.97 -24.72,-15.81 -53.72,-23.65 -83.06,-22.45 -25.39,-0.78 -50.46,5.94 -72.09,19.28 -8.55,5.78 -15.53,13.59 -20.37,22.73 -4.86,9.12 -7.33,19.32 -7.28,29.65 0,23.47 15.08,41.91 45.68,56.58 35.53,16.15 72.58,28.65 110.64,37.3 44.64,11.44 88.54,25.42 131.6,41.9 44,17.01 82.35,46.06 110.64,83.82 31.47,41.98 47.72,93.41 46.09,145.85l-1.25 0.83z"/>
    <path class="fil1" d="M9612.54 1265.57c65.25,0 118.18,-52.92 118.18,-118.18 0,-65.27 -52.93,-118.18 -118.18,-118.18 -65.26,0 -118.19,52.91 -118.19,118.18 0,65.26 52.93,118.18 118.19,118.18z"/>
    <path class="fil2" d="M4714.61 1182.59l-83.8 -3.77c-11.74,0 -11.74,-4.61 -19.71,-13.83 -49.7,-57.02 -110.26,-103.61 -178.12,-137.04 -48.39,-27.15 -102.21,-43.18 -157.57,-46.94 -44.68,-0.33 -88.8,10.01 -128.67,30.18 -42.3,22.51 -83.06,47.85 -121.94,75.85 -10.49,7.13 -26.41,23.05 -38.99,23.05 -9.63,-1.05 -19.16,-2.87 -28.49,-5.45 -34.37,-6.7 -68.32,-12.58 -103.1,-17.18 -17.19,-2.52 -33.95,-4.61 -51.13,-5.45 -12.53,-3.03 -25.6,-3.03 -38.13,0 -12.58,7.12 0,31.01 5.02,41.91 12.28,26.59 26.28,52.35 41.91,77.11 16.21,25.43 32.82,50.71 49.87,75.85 7.96,11.74 16.34,23.9 24.74,35.21 7.62,8.27 14.24,17.41 19.69,27.25 1.3,7.62 1.3,15.41 0,23.04l0 46.94c0,4.61 -2.52,18.43 0,22.22 2.52,3.77 13.41,5.02 16.34,6.27l159.26 60.35 13.41 5.04c0,0 -1750.55,-327.74 -1759.77,-328.99l-5.45 3.36c-11.74,8.38 -22.62,18.43 -33.94,27.65l-94.3 76.7 -18.02 14.67 56.17 49.86c23.45,20.12 46.09,41.91 70.81,61.19 5.88,4.2 7.13,3.36 15.1,3.36l51.13 0c15.35,0.8 30.74,0.8 46.09,0 9.22,0 13.83,-7.13 20.96,-13.42 7.13,-6.27 23.47,-24.3 28.49,-23.46 5.04,0.84 10.06,12.15 12.15,14.24 23.07,28.5 44.43,57.85 64.55,88.02 72.8,106.24 127.21,223.96 160.93,348.25 21.73,78.62 27.18,160.84 16.02,241.62 -11.19,80.78 -38.73,158.43 -80.98,228.19 -104.78,162.61 -293.36,237.21 -478.59,266.12 -161.95,23.02 -326.32,23.02 -488.24,0 -24.73,-3.34 -49.47,-6.7 -74.2,-11.31 -9.06,-2.41 -18.31,-4.08 -27.65,-5.04 58.78,52.51 124.32,96.91 194.87,132.03 97.97,51.56 201.45,91.92 308.46,120.27 226.18,58.18 461,75.08 693.18,49.88 77.11,-7.54 154.64,-18.44 230.91,-33.11 111.15,-41.12 218.9,-90.87 322.29,-148.78 198.65,-110.53 381.83,-246.78 544.82,-405.26 71.85,-70.85 136.16,-148.94 191.93,-233.01 47.93,-67.97 81.97,-144.75 100.17,-225.89 -20.5,-6.02 -40.09,-14.75 -58.26,-26 0,-2.5 0,-6.27 0,-8.38 -3.77,-23.96 -5.45,-48.23 -5.02,-72.49 -0.35,-21.07 1.33,-42.12 5.02,-62.87 8.21,-41.8 30.75,-79.45 63.71,-106.44 27.99,-19.47 60.71,-31.05 94.72,-33.54 75.43,-8.79 151.7,-2.09 226.73,-14.24 79.96,-11.16 154.8,-45.88 214.99,-99.76 53.81,-49.34 86.66,-117.43 91.78,-190.26l-82.15 -3.77z"/>
    <path class="fil3" d="M2237.78 2433.16c-68.79,-25.37 -131.19,-65.59 -182.71,-117.77 -54.59,-57.45 -97.31,-125.1 -125.74,-199.07 -14.03,-37.03 -26.07,-74.81 -36.03,-113.14 -10.06,-38.56 -18.44,-81.31 -27.25,-119.86 -14.7,-69.54 -34.02,-138 -57.83,-204.95 -45.98,-129.41 -111.87,-250.88 -195.3,-359.99 -76.14,-100.45 -173.24,-183.1 -284.56,-242.23 -115.35,-58.33 -244.63,-83.43 -373.42,-72.5 -18.85,0 -37.72,4.18 -56.56,6.7 -18.87,2.52 -41.92,7.54 -60.78,12.57 54.69,1.95 107.12,22.32 148.78,57.84 46.73,41.54 84.51,92.17 111.05,148.78 32.44,66.06 58.4,135.11 77.54,206.18 40.02,151.46 69.58,305.49 88.43,461 8.79,62.87 16.76,125.74 26.41,188.6 4.46,41.98 13.16,83.4 25.97,123.63 23.48,37.94 50.12,73.83 79.63,107.28 52.35,59.1 115.87,107.24 186.92,141.66 86.5,39.61 179.86,62.11 274.92,66.21 131.35,5.37 262.84,-6.75 391.01,-36.04 38.84,-8.09 77.4,-17.18 115.67,-27.24 -43.31,-2.03 -85.95,-11.39 -126.15,-27.66z"/>
    <path class="fil4" d="M4474.06 515.41l-174.35 -90.96 -48.19 164.29 46.94 103.52 52.38 25.56c15.09,83.82 28.92,161.34 41.91,234.7l7.13 2.93c79.09,30.87 150.57,78.48 209.54,139.54l-135.36 -579.58z"/>
    <path class="fil5" d="M3869.31 2257.14c-162.99,158.47 -346.17,294.74 -544.82,405.27 -102.66,58.53 -209.7,108.98 -320.18,150.87 44.14,-8.38 87.86,-18.16 131.17,-29.33 107.8,-28.32 213.88,-62.89 317.68,-103.53 105.09,-40.79 207.67,-87.82 307.19,-140.81 52.8,-27.66 103.51,-59.09 153.8,-90.94 50.3,-31.85 97.66,-67.05 146.68,-101.01 89.53,-64.17 170.99,-138.88 242.66,-222.53 69.9,-78.47 127.28,-167.24 170.15,-263.19 9.22,-21.37 17.17,-41.92 24.3,-62.03 -79.37,21.71 -162.09,28.4 -243.91,19.7 -30.37,-2.83 -60.4,-8.58 -89.69,-17.18 -18.83,80.51 -53.3,156.56 -101.42,223.8 -56.4,83.42 -121.3,160.82 -193.61,230.91z"/>
    <path class="fil6" d="M4373.9 1757.17c82.97,-17.83 162.14,-50.18 233.84,-95.56 36.13,-21.52 69.24,-47.72 98.49,-77.95 20.45,-21.17 38.61,-44.5 54.06,-69.56 13.67,-21.47 24.9,-44.39 33.54,-68.32 16.8,-47.17 24.6,-97.05 23.04,-147.1 -0.99,-26.25 -4.53,-52.35 -10.47,-77.95 -1.6,-11.66 -4.7,-23.08 -9.23,-33.94 -5.1,72.83 -37.97,140.91 -91.78,190.26 -60.17,53.87 -135.03,88.59 -214.99,99.74 -75.01,12.15 -151.28,5.45 -226.73,14.26 -34,2.49 -66.71,14.07 -94.72,33.52 -33.04,26.83 -55.71,64.31 -64.12,106.03 -3.85,20.87 -5.68,42.07 -5.45,63.28 -0.23,24.01 1.59,47.98 5.45,71.67 0,0 0,5.86 0,8.38 89.97,10.61 181.11,4.93 269.07,-16.76z"/>
    <path class="fil7" d="M1263.81 1896.31c-18.85,-155.52 -48.39,-309.56 -88.41,-461 -19.15,-71.07 -45.12,-140.13 -77.54,-206.2 -26.55,-56.61 -64.34,-107.22 -111.07,-148.78 -42.15,-36.1 -95.4,-56.66 -150.87,-58.25 -126.78,32.7 -246.04,89.63 -351.2,167.64 -87.65,64.91 -167.53,139.72 -238.04,222.96 -13.41,17.59 -26.81,31.85 -39.39,48.61 113.38,-42.23 231.92,-69.02 352.45,-79.63 83.11,-7.44 166.82,3.57 245.17,32.27 64.35,25.55 121.79,65.89 167.64,117.76 45.68,53.34 84.02,112.53 113.98,176.03 33.54,67.46 61.62,137.03 90.12,206.61 28.49,69.57 57.42,144.59 93.04,212.05 14.67,28.08 30.17,55.33 46.93,83.82 -12.81,-40.23 -21.51,-81.65 -25.98,-123.63 -10.05,-64.11 -18.02,-127.39 -26.83,-190.26z"/>
    <path class="fil0" d="M4431.3 1290.3c24.52,0 44.43,-19.9 44.43,-44.43 0,-24.52 -19.91,-44.42 -44.43,-44.42 -24.5,0 -44.41,19.9 -44.41,44.42 0,24.53 19.91,44.43 44.41,44.43z"/>
   </g>
  </g>
  <polygon class="fil8" points="207.29,3022.81 15713.67,3022.81 15713.67,424.47 207.29,424.47 "/>
 </g>
</svg>
